<?xml version="1.0" encoding="UTF-8" standalone="no"?>
<svg
   xmlns:dc="http://purl.org/dc/elements/1.1/"
   xmlns:cc="http://creativecommons.org/ns#"
   xmlns:rdf="http://www.w3.org/1999/02/22-rdf-syntax-ns#"
   xmlns:svg="http://www.w3.org/2000/svg"
   xmlns="http://www.w3.org/2000/svg"
   id="svg8"
   version="1.1"
   viewBox="0 0 122.94899 100.70436"
   height="100.70436mm"
   width="122.94899mm">
  <defs
     id="defs2" />
  <metadata
     id="metadata5">
    <rdf:RDF>
      <cc:Work
         rdf:about="">
        <dc:format>image/svg+xml</dc:format>
        <dc:type
           rdf:resource="http://purl.org/dc/dcmitype/StillImage" />
        <dc:title></dc:title>
      </cc:Work>
    </rdf:RDF>
  </metadata>
  <g
     transform="translate(-3.4494267,-21.611119)"
     id="layer1">
    <g
       id="g4500">
      <rect
         style="opacity:1;fill:none;fill-opacity:1;stroke:#323232;stroke-width:15;stroke-linecap:butt;stroke-linejoin:miter;stroke-miterlimit:4;stroke-dasharray:none;stroke-dashoffset:1.21209455;stroke-opacity:1"
         id="rect4485"
         width="71.059525"
         height="77.107147"
         x="22.678572"
         y="37.708332"
         ry="0" />
      <path
         style="opacity:1;fill:none;fill-opacity:1;stroke:#4ec24c;stroke-width:11.42505932;stroke-linecap:butt;stroke-linejoin:miter;stroke-miterlimit:4;stroke-dasharray:none;stroke-dashoffset:1.21209455;stroke-opacity:1"
         id="path4491"
         d="m 90.930378,37.472149 c -0.150792,1.602182 -0.399438,3.176384 -0.923574,4.715819 -0.490588,1.369868 -1.262872,2.627409 -2.058269,3.870334 -1.328222,2.105184 -2.806086,4.129046 -4.258539,6.166522 -2.022223,2.742945 -3.803457,5.618652 -5.713461,8.423139 -1.339621,2.099308 -2.828029,4.112142 -4.363363,6.099551 -0.866218,1.154376 -1.484345,2.436691 -2.045565,3.727024 -0.634726,1.633797 -1.50139,3.181407 -2.344106,4.734912 -0.628542,1.407644 -2.086043,2.106899 -3.277163,3.073011 -0.850296,0.765734 -1.143907,1.833206 -1.706237,2.756764 -0.228002,0.338824 -1.016274,0.900723 -0.56538,1.314584 0.792454,0.963357 1.749799,1.804628 2.652506,2.683448 1.10161,0.970132 2.24853,1.902247 3.210407,2.988347 0.899827,0.793051 1.587356,1.735994 2.355698,2.6228 0.661154,0.580067 0.990647,1.479343 1.707621,1.997515 1.833125,-2.678492 -5.022431,2.951633 -6.858475,4.095547 -0.09514,0.05927 0.179161,-0.135385 0.244985,-0.220636 0.177144,-0.229414 0.281639,-0.497273 0.425943,-0.74431 0.545161,-1.072552 0.942645,-2.197319 1.354162,-3.314597 0.408972,-1.164482 1.082239,-2.23568 1.712245,-3.313278 0.763298,-1.247477 1.664026,-2.417826 2.448751,-3.65423 0.620532,-0.966899 1.184869,-1.960043 1.794015,-2.933484 0.826666,-1.357136 1.800464,-2.636268 2.713886,-3.947158 1.013547,-1.492103 2.121077,-2.930807 3.268361,-4.343045 1.039378,-1.147431 1.705889,-2.515073 2.778075,-3.633206 1.05104,-0.849442 2.051525,-1.676404 2.869352,-2.714163 1.189485,-1.780174 2.352128,-3.569391 3.622615,-5.305271 1.841585,-2.416347 3.834776,-4.735231 5.760421,-7.097418 2.082269,-2.529707 4.322561,-4.94691 6.574391,-7.35602 2.4387,-2.40451 4.75315,-4.900512 6.92587,-7.499157 1.46528,-1.652868 2.53673,-3.523574 3.61492,-5.385504 0.47128,-0.964108 0.51512,-0.928888 -0.52343,-1.008085 -0.94199,0.271735 -1.92108,0.383111 -2.90288,0.461389 -1.36187,0.0823 -2.72909,0.081 -4.09348,0.06745 -2.13006,0.04978 -4.19828,-0.421253 -6.242903,-0.892236 -1.537394,-0.178101 -3.102297,-1.565759 -4.655809,-1.285477 -0.951629,0.257249 -1.908983,0.380576 -2.723468,0.924893 9.86711,-6.571383 7.476753,-5.757368 5.338176,-2.332137 -0.717788,1.140811 -1.561189,2.213693 -2.288765,3.34906 -0.42983,0.936069 -0.961012,1.821929 -1.625322,2.642205 -0.67693,0.758497 -0.809837,1.687474 -0.986397,2.609684 -0.333316,1.217292 -0.696994,2.427214 -1.031747,3.644864 -0.39274,1.254051 -0.552128,2.541823 -1.104487,3.752771 -0.440502,0.880407 -0.7123,1.813692 -1.069005,2.721868 -0.271847,0.907912 -0.984834,1.572821 -1.747691,2.181997 -0.917987,0.743601 -1.513786,1.701147 -1.924763,2.731429 -0.369285,1.082781 -0.423427,2.216731 -0.458577,3.339652 -0.108958,1.274128 0.893183,2.288349 1.486458,3.389199 1.035041,2.139582 0.175182,3.481511 -1.075874,5.355862 -2.538804,3.255655 -4.916789,6.596491 -7.183362,10.007546 -1.290291,1.962508 -2.305688,4.060538 -3.093007,6.222195 -0.288478,1.091314 -0.589659,2.185731 -0.813867,3.28995 -0.04751,2.876785 0.05308,0.821342 -7.762349,4.330086 -0.206044,0.0925 -0.05088,-0.409963 -0.04832,-0.615678 0.0039,-0.31868 0.04052,-0.636417 0.06791,-0.954179 0.1046,-1.214065 0.131879,-1.303682 0.298879,-2.572229 0.601439,-3.713622 1.376811,-7.39741 2.41193,-11.033845 1.676142,-5.621016 3.822922,-11.106616 6.085677,-16.556071 0.76751,-1.659351 1.525316,-3.32532 2.391727,-4.946466 0.143185,-0.267911 0.293936,-0.532688 0.451177,-0.794256 0.09159,-0.152351 0.13894,-0.34435 0.29496,-0.446926 2.469266,-1.623442 5.027346,-3.136604 7.541019,-4.704906 1.121555,1.058454 0.69466,2.313631 0.129536,3.517008 -0.815319,1.406415 -1.759617,2.744151 -2.538432,4.16779 -1.73655,3.207462 -3.70227,6.310945 -5.675829,9.405528 -3.732901,5.594796 -6.956048,11.433973 -10.326604,17.202743 -2.090853,3.6469 -4.271555,7.266694 -5.942395,11.087593 -0.621202,-0.03258 -0.455293,3.72721 -0.106647,2.178682 -11.612766,7.221098 -7.163282,5.635368 -5.381486,2.230264 0.729986,-1.22475 1.151543,-2.557522 1.703648,-3.84585 1.15174,-2.253665 2.359142,-4.487676 3.665312,-6.674337 3.231531,-4.464081 5.970789,-9.166663 8.660577,-13.901316 3.152831,-5.701481 6.540895,-11.29377 10.3499,-16.668077 1.738678,-2.374516 8.310398,-10.043437 10.425339,-7.342401 0.146836,0.187526 0.189531,0.425076 0.284296,0.637613 -0.151092,1.17699 -1.086298,2.066947 -1.717361,3.059623 -0.849518,1.503661 -1.559182,3.066167 -2.097189,4.679489 -0.562434,1.899746 -1.453685,3.694563 -2.430434,5.44881 -1.014986,1.655052 -1.94407,3.336697 -2.708028,5.09519 -0.675418,1.359149 -0.864396,2.822516 -0.972903,4.28927 0.03561,1.298755 -0.352143,2.566072 -0.406438,3.856824 0.02189,0.07951 0.06261,0.320347 0.06567,0.238524 0.09284,-2.489837 -4.813302,2.531662 -7.164298,3.877026 -0.181132,0.103654 0.320352,-0.261465 0.441679,-0.419996 0.322756,-0.421736 0.69239,-1.23833 0.909426,-1.678437 1.207921,-2.980332 2.250488,-6.013364 3.414195,-9.010208 0.889363,-2.001884 1.704653,-4.045738 2.897112,-5.925819 0.610853,-0.963095 1.288582,-1.891219 1.92925,-2.838783 1.798865,-2.745736 3.258806,-5.647806 4.760275,-8.527104 2.748375,-5.298226 3.745128,-4.741721 10.574778,-8.903124 1.446231,0.449226 2.036881,1.484467 2.109641,2.779013 -0.15139,1.121381 -0.795114,2.121038 -1.403905,3.091076 -0.929009,1.518019 -1.671397,3.112861 -2.546951,4.654993 -0.957539,1.601968 -1.807319,3.254019 -2.86869,4.804514 -0.964223,1.007186 -1.678187,2.096844 -2.253247,3.31124 -0.364053,1.064771 -0.900904,2.067162 -1.401926,3.083147 -0.53818,0.919973 -0.836608,1.915836 -1.405396,2.82143 -0.186386,0.315749 -0.412122,0.611246 -0.606504,0.922818 -0.08129,0.130303 -0.150022,0.511441 -0.246454,0.389627 -0.171017,-0.216032 -0.16547,-0.826911 -0.424009,-0.697419 -2.498305,1.251295 -4.679429,2.950254 -7.019143,4.425383 1.182624,-1.312027 1.69579,-2.997171 2.340227,-4.556761 0.726408,-1.776459 1.547299,-3.519514 2.517295,-5.201054 1.480379,-2.339402 2.875626,-4.71966 4.325525,-7.074207 1.354413,-2.141375 2.431654,-4.415332 3.323619,-6.739199 1.290327,-3.856152 5.474424,-5.445438 9.433539,-7.441819 0.14319,-0.08899 0.27513,-0.194492 0.42958,-0.267 0.18037,-0.08469 0.38987,-0.113521 0.56828,-0.201455 0.41156,-0.202864 1.56164,-0.934241 1.18225,-0.68645 -2.19076,1.430876 -4.40716,2.830295 -6.612347,4.243445 -0.208369,0.13353 0.414585,-0.269715 0.621874,-0.404571 0.215475,-0.143994 0.428616,-0.290809 0.646426,-0.431982 2.591087,-1.679443 5.184187,-3.356473 7.780237,-5.029822 0.94724,-0.610575 1.9721,-1.101188 2.91746,-1.713181 -15.101566,9.727071 -7.53572,5.067737 -5.77517,3.653814 0.43017,-0.345474 0.66702,-0.609829 0.6758,-0.599244 0.19508,0.235074 0.33783,0.501337 0.50676,0.752005 12.37259,-9.153901 7.89825,-5.012007 5.20546,-2.831538 -0.98609,0.697722 -1.78499,1.567847 -2.63531,2.388408 -0.90854,1.10587 -1.51035,2.388112 -2.17559,3.618038 -0.74675,1.399622 -1.27727,2.87891 -1.87142,4.332788 -0.51664,1.072047 -0.56331,2.251638 -0.93723,3.355234 -0.0704,0.128962 -0.13974,0.258393 -0.21121,0.386889 -0.40013,0.71942 0.0363,-0.484046 -0.44544,-0.23439 -6.120046,3.172312 -9.241398,6.260777 -6.752344,3.85169 1.224943,-1.466473 1.739563,-3.243938 2.11145,-5.011016 0.153864,-1.697815 0.679929,-3.326105 1.362407,-4.908671 0.542132,-1.116667 1.097307,-2.22785 1.682517,-3.327117 0.56155,-0.928629 1.0551,-1.892566 1.70197,-2.777538 0.62533,-0.718839 1.22315,-1.483734 2.11379,-1.959497 0.91825,0.729873 -0.83296,0.444865 -1.22691,0.441767 -1.35612,-0.03929 -2.71935,0.08022 -4.064192,-0.09346 -1.350251,-0.194165 -2.68667,-0.279967 -3.978347,-0.695272 -1.196986,-0.600017 -2.445336,-1.120479 -3.633553,-1.729955 -0.107593,-0.03521 -0.502568,-0.243189 -0.667685,-0.07726 -0.06841,0.06876 -0.154865,0.320573 -0.06982,0.268643 2.398818,-1.46479 4.699706,-3.053591 7.076252,-4.54698 0.0827,-0.05196 -0.140975,0.133738 -0.183439,0.215626 -0.0567,0.10926 -0.07251,0.231908 -0.108771,0.347863 -0.177035,1.620368 -0.166863,3.239756 -0.401688,4.857643 -0.763566,3.4162 -2.580158,6.529857 -4.224811,9.65787 -1.334874,2.336541 -2.63319,4.679591 -3.706811,7.122051 -0.252548,0.673976 -0.31431,0.79099 -0.493552,1.417931 -0.02697,0.09432 0.03432,0.32193 -0.06702,0.285814 -0.147274,-0.05248 -0.06771,-0.453313 -0.205206,-0.38282 -6.817704,3.495396 -9.240421,6.439714 -7.101577,3.91814 1.118837,-1.293187 2.072943,-2.692346 3.090222,-4.049178 1.004733,-1.249745 1.750101,-2.635054 2.560767,-3.985993 0.791447,-1.298016 1.48648,-2.63667 2.328328,-3.909576 0.644987,-1.101395 1.595237,-1.924788 2.677255,-2.679062 20.286568,-13.071086 1.482323,-0.95008 1.11154,-0.712813 -0.178821,0.11443 0.349918,-0.238304 0.519994,-0.362884 0.543876,-0.398379 1.046084,-0.829259 1.538404,-1.276799 0.643844,-0.766331 1.680245,-1.461582 1.833496,-2.462629 -0.07235,-0.661899 -0.184197,-1.004057 -0.607872,-0.25846 12.007366,-8.978732 7.348676,-4.817524 4.844716,-2.406001 -1.06557,1.031976 -0.8372,1.563032 -0.20854,2.742378 0.83657,1.140757 2.00776,2.014508 3.08007,2.964832 0.3501,0.26801 0.74467,0.579857 1.21758,0.662442 0.49052,0.08567 0.64247,-0.219505 0.59953,-0.193176 -2.36955,1.452527 -4.72689,2.920824 -7.090317,4.381236 0.94609,-0.601565 0.769756,-2.042198 0.804095,-2.971404 0.02386,-1.229933 0.0037,-2.460105 -0.0074,-3.690073 -0.0271,-0.898284 0.129593,-1.971628 -0.180559,-2.755633 9.703211,-6.172013 5.190291,-5.426266 9.423231,-2.667028 1.47552,0.980345 3.05049,1.818765 4.64225,2.635887 4.30359,2.437915 4.58219,-0.468631 -5.06955,5.863045 -0.76812,-0.710944 -1.28893,-1.530036 -1.66309,-2.452846 -0.29672,-0.910516 -0.095,-1.776152 0.71041,-2.403339 21.06613,-13.700873 -0.0773,0.06063 0.69171,-0.477935 2.45374,-1.718321 5.08457,-3.227525 7.55885,-4.922273 2.24439,-1.537293 -4.57107,2.976719 -6.869,4.449758 -0.20321,0.130262 0.36428,-0.308502 0.51823,-0.484455 0.35163,-0.860485 -0.40681,-1.520454 -1.0664,-2.067984 -0.92098,-0.580944 -2.0764,-0.905329 -3.2001,-0.748492 -1.10447,0.232723 -2.11313,0.753427 -3.14505,1.172611 -1.99563,0.538375 -4.02612,0.964919 -6.022909,1.500495 -2.676406,0.994711 -8.336558,5.423773 6.100779,-4.095376 0.15564,-0.102618 -0.1867,0.01868 -0.17424,0.04415 0.0376,0.07693 0.0945,0.145217 0.14166,0.217827 0.69724,1.277727 0.69578,2.721371 0.76144,4.110559 0.0395,2.046111 0.15225,4.096722 0.0408,6.141758 -0.044,0.284018 -0.0878,0.568035 -0.13177,0.852051 0,0 -7.594478,4.122486 -7.594478,4.122486 v 0 c 0.07219,-0.262648 0.144404,-0.525295 0.216604,-0.78794 0.200578,-2.01642 0.0702,-4.0462 0.02153,-6.067192 -0.07873,-1.227905 -0.08561,-2.529621 -0.675006,-3.666079 -2.633732,-3.478236 4.138834,-5.386124 7.80174,-6.278268 2.0134,-0.461916 4.04449,-0.916596 5.96869,-1.627191 1.09398,-0.450183 2.19201,-0.97195 3.4301,-0.957091 1.32707,0.119969 2.59132,0.454847 3.61988,1.248331 0.8786,0.764218 1.77293,1.625173 1.68481,2.795214 -0.39773,3.014652 -6.76234,5.031074 -7.81257,5.814105 -2.16869,1.616922 9.1036,-5.98025 6.84513,-4.46425 -0.23135,0.155291 -18.763418,12.267037 -0.70108,0.457415 -0.65592,0.504688 -1.40714,0.648117 -1.29772,1.60878 0.30208,0.850494 0.75971,1.56739 1.55654,2.130206 -7.59618,5.327489 -4.78276,6.353644 -9.21053,3.892818 -1.61573,-0.84204 -3.2152,-1.709776 -4.74815,-2.668499 -0.57755,-0.376423 -1.07576,-0.76107 -1.5765,-1.215551 -2.905329,-2.636915 0.86498,-2.32615 6.58741,-5.769857 0.6083,0.969458 0.30214,2.168743 0.38888,3.229666 0.003,1.242253 0.008,2.48457 -0.008,3.72677 -0.0226,1.180612 0.0104,2.39014 -0.30513,3.543027 -4.31345,2.684624 -6.38636,6.67385 -9.967885,3.635394 -1.109741,-1.026804 -2.270926,-2.015455 -3.184799,-3.195761 -0.761895,-1.231466 -1.432597,-2.226378 -0.403105,-3.526955 2.788658,-2.96636 5.186352,-4.795382 9.568209,-6.997159 1.01862,-0.0044 1.58343,0.67775 1.71513,1.540657 0.18098,1.333401 -0.67419,2.039041 -1.5651,3.015487 -3.652825,4.072031 -18.32085,11.709587 -3.09579,2.486713 -1.061942,0.727487 -2.152796,1.353191 -2.843588,2.41239 -0.83793,1.289011 -1.664967,2.566163 -2.38503,3.913682 -0.85219,1.347494 -1.512083,2.783528 -2.512774,4.05313 -1.043203,1.314866 -2.024953,2.674776 -2.954076,4.054463 -2.275654,2.306459 -1.503548,1.573696 -7.991039,4.946002 -0.181295,0.09425 -0.297763,-0.284614 -0.352186,-0.465359 -0.149136,-0.495288 0.805569,-1.426367 0.640321,-1.907395 1.121635,-2.513128 2.468868,-4.92308 3.926644,-7.294866 1.622108,-3.022742 3.366066,-6.042072 4.152882,-9.344485 0.261554,-1.588026 0.248749,-3.163549 0.211072,-4.764683 0.0091,-0.167656 0.04385,-0.845459 0.0541,-0.852901 4.263415,-3.094027 5.136654,-6.268893 8.6246,-4.547369 1.145275,0.565307 2.288184,1.147928 3.486874,1.617432 1.26753,0.293204 2.57492,0.396444 3.86834,0.568574 1.34767,0.06519 2.69712,0.0043 4.04609,0.01453 1.02633,0.01689 2.17202,-0.04968 2.47336,1.054057 -0.2783,0.391565 -0.628,0.487741 -1.04193,0.75357 -0.40117,0.257646 -0.52379,0.417846 -0.83027,0.761035 -0.12283,0.137542 -0.24079,0.278484 -0.36119,0.417726 -0.82238,0.767453 -1.14783,1.7539 -1.81693,2.616456 -0.55447,1.124233 -1.18342,2.218279 -1.73805,3.342923 -0.83157,1.483007 -1.34331,3.103188 -1.50569,4.756947 -0.31087,1.819019 -0.8241,3.657136 -1.83113,5.275154 -1.71062,2.915835 -0.76555,1.500666 -8.034919,5.276587 -0.253637,0.131746 -0.625108,-0.610022 -0.610245,-0.798025 0.0083,-0.105576 0.360801,-0.58222 0.386392,-0.618967 0.77484,-0.95806 0.480398,-2.270302 1.055411,-3.327802 0.602137,-1.475072 1.172724,-2.962211 1.850919,-4.411138 0.667071,-1.254659 1.310513,-2.510853 1.993182,-3.757537 0.77269,-0.901404 1.70091,-1.701052 2.57355,-2.5245 3.18857,-2.122838 4.8867,-5.543022 9.41551,-6.397756 0.22957,0.234215 0.50156,0.440139 0.68875,0.702644 0.12238,0.1716 -0.0824,0.411575 -0.20835,0.581104 -2.05224,2.762406 -8.46861,2.561806 -8.85338,6.060381 -0.76641,0.444256 -1.54046,0.87635 -2.29336,1.338795 -0.21603,0.132682 -0.85671,0.540042 -0.64525,0.401665 7.12387,-4.661454 8.54858,-5.677401 5.86162,-3.783199 -3.4525,2.288459 -6.81083,4.716034 -10.594545,6.551119 -2.900049,1.427818 -0.252238,0.146581 6.279325,-4.198911 0.15357,-0.102175 -0.34146,0.160515 -0.48883,0.269746 -0.60171,0.446068 -0.8813,1.104608 -1.13494,1.740672 -0.915538,2.394177 -2.090131,4.719393 -3.430978,6.946336 -1.400733,2.329635 -2.754425,4.680089 -4.181329,6.996432 -1.019905,1.628685 -1.799176,3.358468 -2.558076,5.092775 -0.641477,1.582615 -1.214158,3.205211 -2.039984,4.715333 -2.514149,1.664404 -4.854022,3.561744 -7.542446,4.993208 -0.277229,0.147612 -0.499724,-0.376253 -0.680242,-0.615 -0.223917,-0.296151 0.296044,-0.983986 0.434625,-1.196677 0.09683,-0.148618 0.210011,-0.288279 0.315015,-0.432418 0.25297,-0.413587 0.611447,-0.802018 0.797222,-1.245013 0.216218,-0.515591 0.299293,-1.081402 0.647128,-1.553793 0.593397,-0.954771 1.053661,-2.004082 1.453964,-3.033733 0.52779,-1.272606 1.068498,-2.532253 2.216885,-3.473024 1.150412,-1.504161 1.996095,-3.150451 2.963544,-4.74994 0.314226,-0.576619 0.687413,-1.126939 0.994898,-1.706443 0.507944,-0.957304 0.795078,-2.008543 1.456878,-2.904087 0.475448,-0.947406 1.13257,-1.815088 1.57255,-2.783127 0.120397,-0.672928 -0.02147,-1.791258 -1.090407,-1.547519 2.280081,-1.486002 4.576767,-2.951949 6.840246,-4.458003 0.191095,-0.127148 -0.438128,0.180841 -0.61947,0.31888 -0.249446,0.189882 -0.455161,0.422584 -0.657224,0.652956 -0.808693,0.92198 -1.426542,1.971883 -1.993006,3.021667 -1.586843,2.880586 -3.013607,5.832576 -4.798304,8.625183 -0.901782,1.383076 -1.960592,2.711781 -2.771122,4.139722 -0.824939,1.453323 -1.40525,3.013579 -2.152224,4.497562 -1.161564,2.959042 -2.237568,5.933785 -3.199027,8.948463 -0.08667,0.200888 -0.840392,2.235959 -0.991862,2.337133 -3.58447,2.394286 -7.448746,6.798336 -8.488737,3.899632 -0.04592,-1.328612 0.461796,-2.605284 0.447717,-3.934961 0.08644,-1.520508 0.15771,-3.07837 0.815273,-4.504944 0.82649,-1.772066 1.669428,-3.523804 2.738189,-5.196316 1.013967,-1.692136 1.894994,-3.445713 2.485866,-5.294882 0.495196,-1.641095 1.158321,-3.226233 1.944156,-4.77512 0.488186,-0.976199 1.20013,-1.797875 1.832884,-2.688356 3.238055,1.267013 -10.955272,7.703455 7.23409,-4.175482 0.244554,-0.159712 -0.501929,0.307528 -0.720306,0.495003 -0.845611,0.72595 -1.486777,1.567505 -2.194027,2.400026 -4.059753,5.329192 -7.594067,10.943058 -10.718757,16.753081 -2.536483,4.632756 -4.988622,9.311644 -8.13095,13.652678 -1.247229,2.127264 -2.390439,4.290994 -3.485261,6.482637 -0.586502,1.281141 -0.943037,2.635734 -1.680098,3.862173 -1.736736,3.907472 -3.675377,4.355674 -8.991488,7.271616 -1.933022,-0.60221 -1.232,-2.431028 -0.77488,-3.774963 1.742685,-3.934152 4.110808,-7.616602 6.292534,-11.364379 3.433668,-5.739313 6.708888,-11.553737 10.312196,-17.212118 1.796703,-2.988312 3.51865,-6.00896 5.156046,-9.068886 0.682781,-1.464875 1.642508,-2.78157 2.465465,-4.182123 0.35266,-0.484742 0.590183,-0.96206 0.758361,-1.523083 0.03729,-0.124432 0.05833,-0.253037 0.06885,-0.381497 0.0065,-0.07828 -0.0937,-0.194261 -0.01841,-0.234911 0.06827,-0.03687 0.107715,0.105079 0.161568,0.157619 2.340867,-1.534277 4.681735,-3.068554 7.022601,-4.602827 -0.153966,0.132339 -0.329868,0.247006 -0.461901,0.397017 -1.521454,1.728609 -2.20764,3.949176 -3.357086,5.858775 -2.377356,5.375672 -4.581841,10.805095 -6.07049,16.4414 -0.963111,3.56347 -1.648899,7.176752 -2.214746,10.806937 -0.124627,1.094032 -0.233692,2.185405 -0.232183,3.286467 1.94e-4,0.141221 0.157594,0.340289 0.02914,0.422862 -2.472801,1.589531 -5.093182,2.988008 -7.646113,4.473372 -0.05559,0.03235 0.101994,-0.07577 0.152987,-0.113661 0.337958,-1.121969 0.574954,-2.265336 0.864091,-3.396934 0.79713,-2.283271 1.96562,-4.46087 3.291186,-6.534936 2.293247,-3.342711 4.550744,-6.702642 7.04289,-9.932436 0.986835,-1.480089 2.214599,-2.842519 1.362994,-4.610632 -0.314056,-0.615134 -0.308787,-0.64501 -0.696581,-1.238243 -0.509796,-0.779868 -1.197782,-1.466784 -1.054154,-2.434983 0.02062,-1.183082 0.05308,-2.374237 0.342714,-3.534288 0.323421,-1.106458 0.803334,-2.191466 1.661334,-3.051531 0.6429,-0.629987 1.519219,-1.065531 1.966043,-1.845328 0.300058,-0.952589 0.722739,-1.867109 1.047828,-2.813304 0.180881,-0.339323 0.405938,-0.661471 0.552729,-1.013642 0.353519,-0.848125 0.313786,-1.790766 0.638163,-2.647781 0.402658,-1.178326 0.632138,-2.404842 1.032277,-3.585341 0.265031,-0.96155 0.198578,-2.001599 0.787917,-2.88247 0.623017,-0.827285 1.408528,-1.583377 1.715053,-2.569572 0.63522,-1.190636 1.554282,-2.225308 2.270813,-3.372499 2.728361,-4.214846 0.473738,-2.156283 8.924084,-7.210812 0.97144,-0.334966 2.001555,-0.616636 3.051055,-0.613377 1.63013,0.308224 3.01584,1.219734 4.65488,1.520966 2.01196,0.464163 4.05942,0.77997 6.14786,0.694302 1.36371,-0.02851 2.73145,-0.0302 4.08777,-0.176703 1.02827,-0.126285 2.0633,-0.422295 3.10307,-0.290965 1.2743,0.319906 1.99705,1.086607 1.3952,2.273481 -1.1291,1.928957 -2.26532,3.867875 -3.75288,5.602922 -2.18769,2.57713 -4.4135,5.136726 -6.87052,7.515786 -2.25579,2.425375 -4.5829,4.798223 -6.67629,7.341102 -1.85388,2.353956 -3.816631,4.639923 -5.657556,7.002004 -1.217721,1.72399 -2.49115,3.419737 -3.481478,5.262863 -0.401043,0.536068 -0.739114,1.137007 -1.224097,1.618682 -0.507587,0.504127 -0.427168,0.312161 -1.019197,0.760571 -0.190883,0.144573 -0.361706,0.308977 -0.542556,0.463463 -0.408885,0.30728 -0.800157,0.555518 -1.099299,0.962198 -0.141638,0.192558 -0.210484,0.421062 -0.33281,0.623876 -0.418873,0.6945 -0.980124,1.302604 -1.454695,1.965331 -1.173832,1.376174 -2.280623,2.802895 -3.284799,4.282051 -0.917336,1.280221 -1.864286,2.553364 -2.670183,3.890561 -0.647734,0.963637 -1.22312,1.957018 -1.790454,2.957744 -0.878399,1.168586 -1.624422,2.425886 -2.470891,3.615112 -0.653798,1.02863 -1.263222,2.087898 -1.791336,3.171104 -0.370208,1.135473 -0.814133,2.253347 -1.287095,3.354927 -1.037635,3.101779 -5.400769,7.707546 -8.831789,5.757853 -0.644965,-0.657842 -1.098704,-1.449459 -1.726992,-2.122203 -0.747205,-0.89708 -1.458692,-1.814207 -2.323939,-2.628949 -0.929442,-1.076983 -2.064394,-1.986745 -3.144,-2.941129 -0.94197,-0.870837 -1.87239,-1.752025 -2.768817,-2.659064 -0.655258,-0.720321 -0.80153,-1.505453 -0.04907,-2.237023 0.884662,-0.796417 0.98802,-1.959954 1.692291,-2.871254 0.473557,-0.499051 0.470577,-0.545358 1.064308,-0.96154 0.876656,-0.614504 1.908725,-0.962529 2.406777,-1.932919 0.870919,-1.50438 1.722512,-3.030476 2.345894,-4.631944 0.526701,-1.365275 1.158696,-2.706757 2.007293,-3.939414 1.565423,-2.017307 3.206248,-3.987633 4.539722,-6.141789 1.9615,-2.779785 3.723403,-5.668519 5.717944,-8.428711 1.374543,-2.005586 2.842989,-3.963359 4.046353,-6.057604 0.870731,-1.155235 1.54348,-2.426013 2.164908,-3.702964 0.556763,-1.453214 0.945992,-2.902212 0.974262,-4.450845 0,0 7.621216,-4.313414 7.621216,-4.313414 z" />
      <path
         style="opacity:1;fill:none;fill-opacity:1;stroke:#4ec24c;stroke-width:14.19730377;stroke-linecap:butt;stroke-linejoin:miter;stroke-miterlimit:4;stroke-dasharray:none;stroke-dashoffset:1.21209455;stroke-opacity:1"
         id="path4489"
         d="m 25.595823,49.785651 c 1.851275,2.315425 4.869205,5.046046 7.047787,7.073334 2.334214,2.101697 4.827282,4.032357 7.219673,6.068693 1.796557,1.407364 3.429541,2.982983 4.886727,4.709321 1.294917,1.51141 2.515879,3.079343 3.720736,4.657156 1.663533,1.880423 3.176921,3.892896 4.532711,5.985381 1.413493,2.244277 2.834772,4.484853 4.333374,6.678293 1.234901,1.85362 2.476377,3.711896 3.313663,5.765633 0.618874,1.344785 0.927507,2.783257 1.421408,4.167787 0.373132,0.642341 0.695393,1.297822 0.957091,1.988345 l -8.935085,5.828196 v 0 c -0.23433,-0.70511 -0.566454,-1.35761 -0.946185,-2.00267 -0.479384,-1.389589 -0.753949,-2.829898 -1.34801,-4.184863 -0.70849,-2.02423 -1.88072,-3.849046 -3.082626,-5.637517 -1.487061,-2.207929 -2.91716,-4.449978 -4.31262,-6.711941 -1.364711,-2.056888 -2.91874,-3.999992 -4.544006,-5.875591 -1.233309,-1.544764 -2.48083,-3.078004 -3.744924,-4.599202 -1.397773,-1.693702 -2.953496,-3.259152 -4.69608,-4.635615 -2.376015,-2.06256 -4.80078,-4.074225 -7.139347,-6.176719 -2.196598,-2.043031 -4.457367,-4.016953 -6.59545,-6.116772 z" />
      <path
         style="opacity:1;fill:none;fill-opacity:1;stroke:#4ec24c;stroke-width:11.37964344;stroke-linecap:butt;stroke-linejoin:miter;stroke-miterlimit:4;stroke-dasharray:none;stroke-dashoffset:1.21209455;stroke-opacity:1"
         id="path4494"
         d="m 21.147558,47.2291 c -0.574164,0.952345 -1.056625,1.948336 -1.715784,2.858144 -3.038934,3.187996 -4.179701,2.874737 -9.9326495,5.402912 1.0501905,-1.131432 1.9526775,-2.359662 2.9001485,-3.557056 2.317492,-2.795631 5.821586,-7.180773 9.924596,-6.751855 1.071023,0.498556 1.033316,1.534205 1.426737,2.405312 0.522409,0.728469 1.355663,0.877161 2.024011,0.228632 -17.5780351,10.190186 -7.408703,5.868062 -6.447519,3.697865 0.17371,-0.39221 0.245844,-0.82454 0.369627,-1.23027 0.524033,-2.844473 0.03203,-0.543926 7.903071,-4.280957 0.09481,-0.04502 0.115958,0.159431 0.16677,0.242703 0.187178,0.306757 0.375023,0.601805 0.575485,0.902924 0.538429,0.589284 1.044823,1.211591 1.667993,1.735882 0.836977,0.720993 1.972081,1.061922 3.001481,1.519021 1.109451,0.514001 2.093354,1.205778 3.283498,1.57357 0.13571,0.0419 0.264455,0.109265 0.407131,0.125691 0.07667,0.0088 0.182932,0.0043 0.223943,-0.05304 0.05535,-0.07744 0.0957,-0.325628 0.0097,-0.273878 -14.280211,8.593981 -7.516654,6.66447 -6.89259,4.005554 0.565359,-3.325099 5.316604,-6.800931 9.084361,-5.759861 1.145695,0.270351 1.741922,1.193607 2.427343,1.964116 0.693714,0.949729 1.399522,1.850439 2.270651,2.677606 0.870744,0.721893 1.722738,1.398411 2.421709,2.260812 1.044273,1.041776 1.968578,2.156387 2.849457,3.305745 0.789357,1.186236 1.916627,2.312079 1.967213,3.738775 -1.427582,4.91388 -6.450043,5.287258 -10.583394,5.318723 -2.759965,-0.06757 -5.44493,-1.125907 -7.976672,-2.015525 -3.761062,-1.394122 -7.497963,-2.90499 -10.664907,-5.193457 -1.252655,-0.971284 -1.873407,-2.097895 -1.783628,-3.547084 1.152814,-3.310271 5.948908,-6.546251 9.829198,-5.451897 1.407522,0.601523 2.553721,1.592968 3.697234,2.514015 0.676962,0.495424 1.316557,1.023644 1.994523,1.51795 0,0 -7.131155,4.760613 -7.131155,4.760613 v 0 c -0.666257,-0.51543 -1.306351,-1.056293 -2.004256,-1.539627 -1.038404,-0.816576 -2.1027,-1.762016 -3.4558,-2.142619 -0.462147,-0.02258 -0.51235,-0.06733 -0.948749,0.07278 -0.148124,0.04756 -0.549896,0.267493 -0.423802,0.184491 2.27062,-1.494652 4.595999,-2.924955 6.863368,-4.423384 0.113231,-0.07483 -0.272373,0.0788 -0.391454,0.146313 -0.111256,0.06308 -0.192494,0.159559 -0.288743,0.239339 -0.493437,1.126241 0.15888,2.17432 1.062614,2.986743 2.954877,2.35157 6.57953,3.860179 10.279321,5.113941 2.59248,0.780155 5.286455,1.645358 8.067992,1.559572 0.566226,-0.02301 0.914815,-0.0246 1.473001,-0.09559 0.903038,-0.114854 1.102747,-0.283479 1.092624,-0.276621 -6.548015,4.436082 -9.589069,5.151846 -6.4838,4.380464 0.744575,-0.861391 -0.998709,-2.493359 -1.424453,-3.275891 -0.901045,-1.13201 -1.891469,-2.193483 -2.924409,-3.235479 -0.689688,-0.82862 -1.544398,-1.463644 -2.372662,-2.181808 -0.864465,-0.851318 -1.558958,-1.782441 -2.281693,-2.728578 -0.585965,-0.619547 -1.062847,-1.381654 -2.056165,-1.469892 -0.239783,0.02102 -0.891085,0.288879 -0.698998,0.16152 2.289773,-1.518171 4.619391,-2.989749 6.929088,-4.484625 -0.273896,0.126496 -0.422812,0.149268 -0.581256,0.398606 -0.06387,0.1005 -0.08137,0.21869 -0.122057,0.328034 -0.0013,0.136999 -0.003,0.273996 -0.0039,0.410997 -8.92e-4,0.129482 0.112847,0.305835 -0.0011,0.38845 -5.488593,3.980329 -4.853658,6.039105 -8.46221,4.588477 -1.15821,-0.459071 -2.161378,-1.143964 -3.304973,-1.631015 -1.13261,-0.471172 -2.306909,-0.911757 -3.211015,-1.697536 -0.666848,-0.585367 -1.259669,-1.231312 -1.828694,-1.889979 -0.274976,-0.404023 -0.749392,-1.08861 -0.748461,-1.089195 6.829917,-4.285346 10.540264,-5.087582 7.365212,-4.3823 -0.278363,0.409258 -0.340479,0.733182 -0.433784,1.200709 -0.645128,3.232587 -3.969848,3.553175 -7.868441,5.854661 -1.24827,0.178135 -2.287866,-0.300398 -2.945639,-1.245718 -0.236003,-0.458269 -0.555737,-1.615344 -0.616148,-1.622501 -0.04197,-0.005 -0.07382,0.03638 -0.110726,0.05456 -2.57248,1.531029 -0.0344,0.02416 6.572551,-4.241324 0.170101,-0.109819 -0.35756,0.199743 -0.517718,0.320472 -0.577446,0.435285 -0.949932,1.019799 -1.389383,1.553823 -1.004067,1.124363 -1.815533,2.377382 -2.791235,3.5077 -2.769847,1.342931 -5.54835,2.67228 -8.3095419,4.028796 -0.064448,0.03166 0.1555767,-0.01164 0.213766,-0.05151 0.1415663,-0.09702 0.2349591,-0.239128 0.366651,-0.346273 0.5911209,-0.480935 1.2532159,-0.899006 1.8131139,-1.411488 0.749366,-0.801456 1.234422,-1.762928 1.698008,-2.705296 0,0 7.90632,-3.953888 7.90632,-3.953888 z" />
    </g>
  </g>
</svg>
