<?xml version="1.0" standalone="no"?>
<!DOCTYPE svg PUBLIC "-//W3C//DTD SVG 20010904//EN"
 "http://www.w3.org/TR/2001/REC-SVG-20010904/DTD/svg10.dtd">
<svg version="1.0" xmlns="http://www.w3.org/2000/svg"
 width="1280.000000pt" height="1280.000000pt" viewBox="0 0 1280.000000 1280.000000"
 preserveAspectRatio="xMidYMid meet">
<metadata>
Created by potrace 1.15, written by Peter Selinger 2001-2017
</metadata>
<g transform="translate(0.000000,1280.000000) scale(0.100000,-0.100000)"
fill="#009688" stroke="none">
<path d="M7505 11559 c-33 -5 -90 -13 -127 -17 -37 -4 -73 -13 -79 -19 -7 -7
-7 -26 1 -64 6 -30 16 -93 21 -142 l10 -87 -50 -96 c-28 -53 -51 -103 -51
-112 0 -31 76 -135 169 -232 97 -100 111 -128 111 -211 0 -26 7 -66 15 -89 8
-23 15 -55 15 -70 0 -15 7 -50 16 -78 26 -79 14 -114 -49 -155 l-52 -35 -174
9 c-95 5 -183 11 -194 15 -11 3 -121 6 -244 6 -208 -1 -292 -6 -478 -33 -38
-5 -106 -14 -149 -20 -44 -5 -85 -14 -91 -19 -6 -5 -40 -14 -76 -19 -35 -5
-95 -19 -134 -31 -38 -12 -88 -25 -110 -30 -74 -16 -130 -33 -150 -47 -11 -7
-28 -13 -38 -13 -19 0 -65 -18 -120 -46 -16 -8 -35 -14 -44 -14 -28 0 -413
-188 -426 -207 -4 -7 -13 -13 -20 -13 -11 0 -58 -30 -212 -134 -27 -19 -67
-50 -89 -70 -21 -20 -41 -36 -44 -36 -22 0 -312 -288 -312 -309 0 -4 -18 -26
-40 -50 -57 -61 -161 -223 -213 -332 -86 -181 -97 -206 -97 -226 0 -12 -7 -34
-15 -49 -8 -16 -15 -38 -15 -49 -1 -11 -7 -31 -15 -45 -8 -14 -14 -39 -15 -55
0 -17 -7 -41 -16 -53 -49 -70 -49 -504 0 -574 9 -12 16 -30 16 -40 0 -10 10
-34 21 -55 12 -21 33 -58 47 -83 13 -25 31 -52 38 -61 8 -8 14 -19 14 -23 0
-4 19 -32 43 -63 23 -31 50 -70 60 -87 11 -17 27 -40 36 -51 10 -11 24 -31 33
-45 9 -14 33 -45 54 -68 20 -23 44 -53 53 -66 25 -38 224 -275 285 -340 31
-32 56 -62 56 -65 0 -4 12 -20 28 -37 142 -157 179 -202 198 -242 13 -26 24
-52 24 -58 0 -9 26 -89 146 -449 9 -27 25 -75 36 -105 36 -99 51 -154 55 -205
l5 -50 -143 -145 c-78 -80 -178 -185 -222 -235 -45 -49 -92 -100 -105 -113
l-24 -23 -22 20 c-12 12 -27 21 -33 21 -5 0 -18 9 -28 20 -10 11 -21 20 -26
20 -4 0 -37 18 -73 40 -36 22 -69 40 -73 40 -3 0 -14 6 -22 14 -21 19 -148 86
-163 86 -6 0 -40 13 -75 30 -34 16 -73 30 -85 30 -12 0 -29 6 -37 14 -18 15
-129 46 -167 46 -14 0 -39 8 -57 17 -32 17 -82 23 -324 42 -180 14 -541 -11
-600 -42 -18 -9 -46 -17 -64 -17 -39 0 -166 -37 -174 -50 -3 -6 -16 -10 -28
-10 -12 0 -49 -14 -82 -30 -33 -16 -66 -30 -73 -30 -11 0 -142 -66 -190 -95
-10 -6 -48 -29 -87 -52 -72 -44 -97 -62 -212 -151 -76 -59 -244 -221 -276
-267 -12 -16 -45 -58 -74 -93 -29 -34 -53 -66 -53 -71 0 -4 -14 -26 -31 -47
-17 -22 -35 -48 -41 -59 -5 -11 -20 -38 -33 -60 -24 -40 -58 -107 -69 -135 -4
-8 -17 -35 -31 -59 -14 -24 -25 -51 -25 -59 0 -9 -6 -23 -14 -31 -7 -9 -21
-43 -30 -76 -9 -33 -22 -73 -28 -90 -19 -54 -40 -149 -45 -200 -2 -27 -12 -66
-21 -85 -15 -31 -17 -75 -17 -355 0 -286 2 -323 17 -352 10 -18 18 -47 18 -66
0 -32 26 -146 49 -212 5 -16 18 -57 27 -90 10 -33 24 -67 31 -76 7 -8 13 -22
13 -29 0 -18 39 -98 51 -106 5 -3 9 -11 9 -18 0 -13 29 -80 53 -121 35 -61 83
-131 94 -138 7 -4 13 -12 13 -18 0 -10 96 -146 108 -151 4 -2 25 -25 46 -53
45 -58 74 -87 171 -174 100 -90 105 -94 160 -131 28 -18 61 -43 75 -55 43 -37
271 -165 295 -165 8 0 15 -4 15 -8 0 -10 98 -52 121 -52 17 0 39 -19 39 -33 0
-5 -21 -6 -48 -2 -70 9 -193 10 -902 1 -355 -4 -703 -12 -775 -18 -71 -6 -168
-13 -215 -17 l-85 -6 -3 -39 c-7 -86 -15 -82 185 -89 98 -4 273 -12 388 -19
279 -16 1903 -16 2225 0 129 6 314 14 410 17 96 4 189 10 205 15 17 5 89 14
162 19 131 9 178 22 170 44 -6 19 -187 47 -305 47 -34 0 -62 4 -62 8 0 4 38
18 86 32 47 13 87 27 90 32 3 4 14 8 24 8 27 0 278 131 380 197 86 57 149 104
182 135 10 10 22 18 28 18 5 0 36 26 69 57 32 32 80 78 106 103 26 25 72 78
102 118 30 40 66 84 79 99 13 14 26 33 29 44 3 10 19 32 36 50 16 17 29 39 29
49 0 10 6 20 13 23 6 3 21 22 32 43 10 22 26 50 35 64 21 31 136 306 143 340
3 14 15 52 27 85 12 33 24 87 27 120 2 33 9 72 15 88 18 47 98 49 98 2 0 -13
5 -25 10 -27 6 -2 12 -24 14 -50 1 -28 10 -55 20 -67 9 -10 16 -25 14 -33 -1
-7 10 -26 25 -43 16 -16 31 -42 34 -57 3 -18 12 -28 23 -28 21 0 36 -17 42
-45 2 -11 12 -21 22 -23 10 -2 28 -15 40 -29 14 -16 33 -26 50 -26 19 1 30 -6
36 -22 9 -24 29 -35 63 -35 11 0 29 -8 39 -17 18 -16 51 -20 183 -21 118 -1
153 3 172 20 11 10 34 18 51 18 22 0 35 6 43 22 15 29 28 38 56 38 12 0 27 9
33 20 6 11 17 20 24 20 15 0 56 42 56 57 0 7 9 15 21 18 11 4 27 21 34 39 8
18 21 38 29 45 8 7 18 25 21 41 3 16 13 34 21 41 8 6 14 29 14 50 0 21 5 41
10 44 6 3 10 21 10 40 0 22 6 35 17 39 10 4 144 4 298 1 179 -4 289 -3 306 3
31 12 61 69 52 100 l-5 22 216 0 217 0 24 25 c35 34 36 121 3 152 -34 31 -96
55 -163 63 -119 15 -201 32 -235 50 -19 9 -47 20 -62 24 -28 6 -108 82 -108
102 0 7 -16 26 -35 43 -26 22 -46 31 -71 31 -29 0 -35 3 -32 17 3 15 -34 100
-71 163 -5 8 -21 46 -35 84 -26 66 -26 69 -10 94 17 25 76 103 129 168 14 18
25 35 25 39 0 3 21 32 48 63 52 62 78 96 120 157 15 21 38 51 51 65 21 23 111
138 194 248 17 23 59 77 92 120 33 42 93 120 132 172 39 52 98 129 130 170 32
41 65 85 73 96 31 44 166 221 205 269 22 28 54 70 70 95 16 25 39 54 50 66 11
11 52 63 90 114 39 52 82 106 96 120 14 14 28 32 32 40 18 39 215 290 227 290
17 0 38 -43 74 -150 19 -58 49 -141 67 -185 35 -89 38 -95 70 -180 13 -33 27
-64 31 -70 4 -5 8 -16 8 -24 0 -8 8 -33 18 -55 17 -39 39 -99 83 -225 23 -65
23 -61 4 -61 -8 0 -23 -9 -32 -20 -10 -11 -25 -20 -34 -20 -9 0 -24 -9 -34
-20 -10 -11 -24 -20 -32 -20 -8 0 -29 -11 -47 -25 -18 -14 -36 -25 -39 -25 -9
0 -149 -100 -162 -115 -5 -7 -26 -23 -45 -36 -49 -33 -50 -34 -157 -139 -83
-81 -163 -171 -163 -184 0 -2 -18 -23 -41 -47 -22 -24 -46 -55 -52 -69 -7 -14
-38 -64 -69 -112 -32 -47 -58 -90 -58 -94 0 -4 -6 -15 -13 -23 -7 -9 -21 -36
-31 -61 -24 -60 -55 -131 -67 -152 -5 -10 -9 -28 -9 -40 0 -12 -7 -29 -16 -39
-16 -18 -29 -59 -44 -143 -5 -26 -16 -58 -24 -70 -7 -12 -16 -47 -19 -77 -3
-30 -10 -94 -17 -144 -15 -113 -16 -462 -1 -575 21 -166 29 -205 45 -235 9
-16 16 -41 16 -54 0 -30 16 -84 41 -136 10 -22 19 -46 19 -53 0 -8 6 -26 13
-40 8 -15 21 -43 29 -62 25 -59 97 -203 116 -231 9 -15 36 -58 60 -96 24 -39
60 -89 81 -111 20 -23 44 -54 52 -69 22 -44 274 -291 303 -299 14 -3 26 -11
26 -18 1 -6 24 -27 52 -46 28 -19 64 -47 82 -61 17 -15 49 -36 71 -48 213
-115 324 -170 345 -171 26 -1 77 -36 67 -47 -4 -3 -19 0 -35 6 -15 7 -50 11
-78 11 -27 0 -192 -1 -367 -1 -457 1 -1323 -17 -1452 -29 -60 -5 -173 -14
-250 -19 -184 -13 -295 -30 -295 -47 0 -23 56 -44 117 -44 33 0 110 -7 173
-15 278 -36 1014 -55 1980 -50 399 1 811 8 915 14 105 6 266 13 358 16 92 2
196 9 230 14 34 5 107 13 162 16 105 8 170 26 163 47 -7 19 -161 48 -258 48
-28 0 -50 4 -50 8 0 5 29 14 64 21 36 7 81 22 100 32 20 10 44 19 53 19 22 0
113 41 113 52 0 4 7 8 16 8 9 0 28 8 42 18 15 10 50 29 77 42 28 13 52 26 55
29 3 3 25 17 50 30 41 23 114 77 181 134 14 12 37 28 50 35 50 27 281 263 301
308 6 13 15 24 19 24 5 0 21 19 36 42 16 22 35 51 43 63 60 85 106 163 147
245 25 52 50 102 55 110 8 16 9 18 35 85 8 22 20 49 26 60 6 11 14 36 18 55
30 128 38 159 47 176 20 38 37 168 58 427 11 151 -27 509 -62 579 -8 15 -14
38 -14 51 0 28 -25 116 -45 162 -7 17 -16 39 -18 50 -11 42 -34 96 -45 107 -7
7 -12 17 -12 23 0 7 -20 50 -45 96 -25 46 -50 93 -55 104 -26 50 -160 245
-169 245 -4 0 -12 10 -18 22 -18 40 -211 235 -306 310 -50 39 -99 79 -109 87
-31 27 -189 121 -203 121 -7 0 -18 7 -25 15 -20 24 -251 132 -304 142 -17 3
-40 11 -51 18 -25 16 -137 45 -171 45 -14 0 -39 8 -57 17 -18 9 -66 20 -107
24 -41 4 -132 12 -203 19 -98 9 -161 9 -275 0 -253 -19 -306 -26 -337 -42 -16
-8 -58 -18 -92 -21 -58 -6 -62 -5 -68 16 -4 12 -19 56 -35 97 -105 282 -153
409 -165 435 -8 17 -23 55 -34 85 -11 30 -29 79 -40 108 -12 28 -30 76 -42
105 -11 28 -25 66 -30 84 -5 18 -14 35 -19 38 -6 4 -10 14 -10 23 0 21 -59
181 -77 207 -7 11 -13 26 -13 33 0 8 -7 28 -15 45 -25 54 -64 175 -57 181 3 3
119 6 259 6 l253 0 31 -27 c51 -46 110 -73 159 -73 74 1 183 19 200 35 9 8 21
15 26 15 20 1 93 78 108 114 42 102 -8 247 -111 316 -86 59 -150 80 -293 99
-108 15 -197 56 -345 159 -79 55 -100 72 -244 194 -181 155 -352 287 -461 357
-84 53 -274 151 -295 151 -21 0 -65 40 -65 60 0 11 -11 40 -25 66 -14 26 -25
53 -25 61 0 7 -4 21 -9 31 -20 35 -81 180 -81 190 0 10 -24 63 -51 114 -5 10
-9 28 -9 40 0 12 -4 35 -9 52 -6 17 -19 69 -31 116 -11 47 -25 94 -30 105 -5
11 -14 39 -20 62 -6 23 -15 45 -20 48 -6 3 -10 18 -10 33 0 15 -7 36 -15 46
-8 11 -15 29 -15 41 0 12 -7 30 -15 41 -8 10 -15 25 -15 32 0 8 -16 46 -35 85
-19 39 -35 75 -35 80 0 4 -18 46 -40 93 -22 47 -40 96 -40 108 0 21 6 24 61
30 77 8 163 8 210 0 32 -5 36 -10 45 -48 8 -36 13 -41 39 -44 22 -2 37 4 54
22 l23 24 31 -19 c46 -27 127 -43 183 -35 43 7 56 15 104 65 30 32 70 88 88
124 l33 67 59 0 c66 0 108 26 95 58 -4 9 -10 55 -15 102 -4 47 -11 101 -15
121 -5 27 -2 44 14 70 12 19 21 46 21 60 0 14 10 34 21 45 38 33 79 96 79 120
0 12 7 29 15 38 13 13 19 13 50 0 52 -21 112 -19 125 6 6 11 9 24 6 28 -3 5
-1 37 4 72 21 145 -31 338 -136 506 -68 109 -221 253 -339 320 -110 63 -253
108 -425 135 -93 15 -534 20 -615 8z m-266 -2745 c17 -25 38 -59 47 -76 9 -17
20 -36 25 -42 24 -29 77 -114 83 -131 3 -11 19 -35 36 -53 16 -18 30 -39 30
-46 0 -8 7 -19 15 -26 8 -7 15 -22 15 -34 0 -12 14 -43 30 -69 17 -26 30 -52
30 -58 0 -12 148 -311 191 -386 24 -43 48 -64 127 -117 134 -88 485 -257 722
-346 47 -18 94 -37 105 -43 11 -6 54 -23 95 -38 41 -15 111 -40 155 -57 133
-50 215 -79 325 -112 137 -42 172 -59 168 -85 -3 -20 -12 -20 -425 -25 l-422
-5 -30 -29 c-27 -26 -31 -37 -31 -84 0 -46 4 -58 29 -83 16 -16 36 -29 45 -29
9 0 22 -10 30 -22 23 -35 59 -155 53 -173 -8 -20 -47 -34 -227 -80 -71 -18
-153 -41 -215 -61 -22 -6 -69 -20 -105 -29 -36 -9 -80 -24 -98 -32 -17 -9 -51
-20 -75 -24 -58 -10 -338 -87 -358 -98 -9 -5 -47 -17 -85 -26 -38 -9 -94 -24
-124 -34 -30 -10 -77 -26 -105 -35 -27 -9 -62 -16 -76 -16 -15 0 -32 -7 -39
-15 -7 -8 -25 -15 -41 -15 -16 0 -46 -6 -66 -14 -52 -19 -227 -72 -286 -87
-44 -11 -50 -10 -66 7 -10 10 -28 47 -41 81 -12 34 -28 68 -36 74 -8 6 -14 18
-14 26 0 15 -42 93 -111 203 -23 36 -64 103 -92 150 -28 47 -76 121 -105 164
-30 43 -59 95 -64 115 -10 34 -21 52 -79 124 -14 18 -36 50 -49 72 -28 46 -68
95 -199 244 -52 58 -102 115 -110 126 -22 27 -115 124 -295 310 -86 88 -156
167 -156 175 0 8 17 29 37 45 39 32 138 116 163 140 22 19 263 181 308 206 21
11 64 36 97 55 33 19 80 44 105 55 25 11 58 27 74 35 16 8 33 14 38 14 4 0 36
13 70 29 35 16 77 33 93 37 17 4 39 13 50 19 11 7 58 23 105 35 47 12 89 26
94 31 6 5 27 9 47 9 21 0 40 4 43 9 3 4 28 11 55 15 27 3 54 13 61 21 7 8 27
15 44 15 17 0 40 6 51 14 11 7 31 17 45 20 56 16 166 60 180 71 8 7 29 17 45
23 17 6 31 11 32 11 1 1 15 -19 32 -45z m1191 -2622 c0 -5 -19 -31 -42 -60
-24 -28 -55 -68 -71 -89 -15 -21 -45 -60 -68 -88 -22 -27 -71 -90 -108 -140
-37 -49 -82 -106 -99 -125 -18 -19 -32 -38 -32 -43 0 -5 -19 -32 -43 -60 -56
-69 -80 -101 -123 -164 -19 -29 -39 -53 -43 -53 -5 0 -24 -22 -42 -49 -38 -54
-129 -175 -201 -266 -65 -82 -104 -133 -136 -177 -108 -150 -456 -588 -465
-585 -11 3 -35 76 -43 132 -5 31 -28 137 -46 215 -5 25 -14 77 -18 115 -5 39
-13 95 -19 125 -38 207 -62 440 -68 662 l-4 187 28 6 c35 7 90 22 168 46 33 9
94 27 135 40 41 12 79 26 85 31 5 4 19 8 30 8 12 0 41 6 66 14 24 7 73 21 109
31 36 9 104 30 152 46 48 16 96 29 107 29 11 0 35 6 53 14 31 13 75 26 201 60
117 31 175 49 222 67 28 10 62 19 75 20 14 1 59 14 100 29 74 27 140 37 140
22z m-2330 -1005 c0 -29 7 -79 15 -110 8 -32 15 -70 15 -85 1 -15 7 -38 15
-52 8 -14 14 -36 15 -50 0 -14 6 -34 14 -45 7 -11 17 -31 21 -45 11 -36 152
-320 241 -485 86 -160 116 -223 145 -303 12 -31 27 -73 35 -92 7 -19 13 -45
14 -56 0 -20 -99 -162 -160 -229 -15 -16 -36 -45 -46 -62 -22 -39 -25 -40 -60
-10 -25 21 -30 23 -53 11 -22 -12 -27 -11 -43 6 -13 14 -26 17 -51 13 l-33 -5
-22 74 c-13 40 -30 86 -37 101 -8 16 -15 34 -15 40 0 15 -84 272 -109 332 -12
31 -41 117 -51 150 -32 115 -54 184 -66 210 -25 55 -115 340 -112 357 3 18
105 149 198 253 30 34 68 78 83 98 15 21 32 37 37 37 6 0 10 -24 10 -53z
m3978 -119 c9 -9 19 -9 45 0 19 7 49 9 68 6 19 -3 90 -10 159 -14 69 -5 139
-14 155 -20 53 -17 187 -50 207 -50 10 0 18 -4 18 -10 0 -5 12 -12 28 -16 47
-10 116 -37 133 -51 8 -7 22 -13 30 -14 8 0 32 -11 54 -24 22 -13 50 -28 62
-34 11 -5 24 -15 28 -20 3 -6 14 -11 24 -11 10 0 26 -11 35 -25 15 -22 15 -29
2 -60 -8 -19 -19 -35 -25 -35 -5 0 -13 -10 -17 -22 -4 -13 -18 -37 -33 -54
-14 -17 -35 -46 -46 -64 -47 -78 -75 -126 -85 -147 -5 -13 -14 -23 -19 -23 -5
0 -15 -15 -21 -32 -6 -18 -21 -47 -33 -64 -46 -65 -114 -170 -120 -186 -3 -10
-10 -18 -15 -18 -5 0 -28 -27 -53 -61 -24 -33 -48 -64 -54 -67 -9 -6 -58 -60
-166 -182 -145 -163 -135 -155 -176 -144 l-37 9 -12 75 c-7 41 -13 134 -13
205 -1 72 -8 173 -15 226 -10 67 -11 117 -5 165 5 38 13 121 19 184 5 63 14
144 19 180 6 36 13 108 16 160 3 52 10 110 16 127 6 18 8 42 4 53 -5 16 -10
18 -26 10 -17 -9 -19 -22 -19 -103 0 -51 -7 -119 -15 -152 -8 -33 -14 -74 -15
-91 0 -31 -24 -63 -37 -50 -5 5 -14 240 -13 347 0 27 -26 47 -40 32 -4 -4 -4
-39 1 -78 19 -153 28 -274 29 -355 0 -47 7 -129 17 -183 14 -84 15 -107 4
-155 -6 -32 -15 -110 -18 -175 -7 -146 -22 -153 -69 -32 -18 44 -36 91 -41
105 -29 72 -83 228 -83 237 0 6 -7 16 -15 23 -8 7 -15 21 -15 32 0 20 -17 66
-46 121 -8 16 -14 34 -14 40 0 7 -7 25 -15 40 -8 15 -19 42 -24 60 -16 53 -60
170 -74 197 -22 41 -40 107 -34 124 4 10 18 16 37 16 17 0 46 6 64 14 18 7 70
17 115 21 46 4 95 11 109 15 39 12 47 11 60 -2z m-6785 -9 c74 11 358 -5 417
-23 25 -8 68 -21 96 -30 29 -9 60 -16 71 -16 10 0 36 -9 58 -20 22 -11 47 -20
57 -20 9 0 20 -4 23 -10 3 -5 13 -10 21 -10 7 0 43 -13 77 -30 35 -16 68 -30
73 -30 5 -1 25 -14 44 -30 19 -17 39 -30 45 -30 5 -1 23 -11 38 -24 25 -20 27
-24 15 -48 -8 -13 -32 -48 -56 -75 -23 -28 -42 -60 -42 -71 0 -12 -5 -24 -10
-27 -6 -4 -16 -20 -23 -36 -17 -41 -116 -166 -218 -273 -47 -50 -101 -108
-120 -128 -54 -59 -179 -193 -308 -328 -103 -108 -121 -123 -135 -111 -9 7
-15 28 -15 49 0 21 -5 132 -12 247 -16 305 -14 381 21 665 6 52 18 155 27 228
12 98 13 136 5 144 -25 25 -39 -10 -46 -119 -3 -59 -11 -134 -17 -168 -6 -33
-13 -70 -15 -82 -3 -13 -8 -23 -13 -23 -14 0 -20 72 -22 232 -2 149 -10 181
-40 162 -13 -8 -10 -77 17 -419 10 -121 18 -274 18 -340 0 -133 -18 -353 -35
-430 -6 -27 -10 -82 -10 -122 l1 -72 -42 -21 c-53 -26 -65 -25 -72 3 -3 13
-19 36 -36 53 -17 16 -42 45 -55 64 -13 19 -55 71 -95 115 -39 44 -92 109
-118 145 -26 36 -51 70 -57 75 -22 20 -65 84 -65 96 0 7 -20 42 -44 78 -25 36
-52 86 -62 111 -10 25 -26 51 -36 58 -10 7 -18 18 -18 24 0 14 -111 207 -153
266 -17 23 -39 42 -49 42 -38 0 -22 15 92 86 76 47 172 92 235 109 33 9 65 23
70 30 6 7 28 15 50 18 50 7 120 25 163 43 18 8 61 14 95 15 34 0 82 4 107 8
25 5 54 6 65 3 11 -3 28 -5 38 -3z m6107 -218 c0 -14 6 -37 13 -51 7 -14 22
-50 32 -80 19 -57 49 -132 66 -162 5 -10 9 -25 9 -33 0 -9 13 -44 29 -78 16
-34 39 -93 51 -130 13 -37 27 -70 31 -73 5 -3 9 -15 9 -27 0 -12 8 -38 18 -57
10 -19 27 -62 37 -95 11 -33 25 -67 32 -76 15 -19 17 -55 3 -64 -6 -3 -18 8
-28 25 -9 18 -37 56 -62 86 -42 51 -143 213 -174 279 -8 17 -35 66 -60 108
-25 43 -46 80 -46 83 0 3 -22 40 -50 82 -27 42 -50 82 -50 89 0 8 -11 18 -25
23 -18 7 -25 17 -25 35 0 14 -4 25 -10 25 -11 0 -1 -63 12 -68 4 -2 8 -11 8
-20 0 -10 30 -62 66 -117 80 -122 89 -141 66 -150 -10 -3 -21 0 -28 9 -39 54
-220 258 -235 267 -11 5 -19 14 -19 20 0 12 51 58 65 59 6 0 26 13 45 28 19
16 55 39 80 51 25 13 60 32 79 42 41 21 61 12 61 -30z m-7053 -292 c45 -55 98
-116 117 -137 81 -86 144 -159 166 -192 13 -19 44 -57 68 -85 25 -27 61 -75
80 -105 45 -71 93 -147 137 -213 19 -30 35 -62 35 -73 0 -12 11 -31 25 -44 14
-13 25 -28 25 -34 0 -15 41 -96 48 -96 4 0 13 -13 20 -30 12 -27 11 -32 -14
-65 -29 -39 -32 -39 -113 -4 -24 10 -58 19 -76 19 -18 0 -49 7 -68 15 -20 8
-52 15 -71 15 -19 0 -47 6 -63 14 -29 14 -98 33 -168 46 -22 4 -66 19 -99 33
-32 15 -62 27 -67 27 -9 0 -129 53 -169 75 -68 37 -149 75 -160 75 -7 0 -31 8
-54 19 -23 10 -67 30 -98 45 -31 14 -60 26 -63 26 -4 0 -22 7 -41 16 -37 18
-48 16 -39 -7 6 -15 108 -67 185 -94 25 -9 57 -23 72 -31 14 -8 32 -14 40 -14
8 0 23 -7 34 -15 16 -13 17 -16 4 -25 -21 -14 -60 -12 -91 4 -22 11 -110 34
-189 50 -14 2 -35 8 -47 11 -14 5 -23 3 -23 -3 0 -22 32 -41 88 -52 31 -6 72
-17 90 -25 18 -8 44 -15 57 -15 14 0 85 -14 157 -31 238 -55 380 -100 525
-165 17 -8 36 -14 41 -14 6 0 48 -19 94 -43 46 -24 114 -55 153 -69 85 -31
110 -59 98 -108 -8 -28 -16 -35 -63 -50 -53 -17 -109 -40 -195 -80 -79 -36
-281 -113 -335 -128 -59 -15 -150 -35 -258 -56 -37 -7 -76 -17 -87 -23 -11 -6
-25 -8 -32 -6 -7 2 -45 -5 -86 -16 -40 -12 -92 -21 -114 -21 -23 0 -54 -6 -70
-14 -15 -8 -41 -20 -58 -26 -16 -7 -38 -17 -48 -22 -11 -5 -20 -8 -21 -6 -6 7
-29 107 -44 193 -21 114 -23 461 -4 550 7 33 20 94 28 135 9 41 19 84 24 95 5
11 12 36 16 55 3 19 13 44 20 55 8 11 14 30 14 43 0 13 8 34 18 47 10 12 24
42 32 66 8 24 17 46 21 49 3 3 18 28 32 55 50 98 189 290 250 344 9 8 17 20
18 26 0 5 27 33 60 60 32 28 66 57 76 66 36 33 57 40 68 23 6 -9 47 -61 92
-115z m6727 97 c8 -14 57 -73 108 -133 51 -59 105 -124 120 -143 14 -19 56
-66 92 -104 36 -37 66 -72 66 -77 0 -7 32 -47 82 -100 10 -10 29 -40 43 -66
14 -26 39 -68 55 -93 16 -25 34 -55 39 -67 5 -11 24 -35 40 -52 17 -18 31 -39
31 -48 0 -9 11 -31 25 -49 14 -18 28 -46 31 -63 4 -16 12 -32 20 -35 8 -3 14
-14 14 -24 0 -10 11 -28 25 -40 31 -27 31 -29 -5 -71 l-29 -34 -52 16 c-28 10
-77 20 -107 24 -31 3 -67 12 -81 20 -15 7 -42 13 -61 13 -19 1 -46 7 -60 15
-14 8 -36 14 -48 15 -32 0 -348 112 -431 152 -65 31 -114 54 -264 122 -43 20
-83 36 -90 36 -7 0 -21 7 -31 15 -11 8 -27 15 -36 15 -23 0 -69 23 -75 38 -2
7 3 29 12 50 49 112 85 182 94 182 5 0 9 5 9 11 0 32 192 290 276 371 145 138
160 146 188 104z m2266 -16 c41 -29 173 -172 210 -225 18 -28 52 -75 75 -105
55 -72 84 -121 151 -258 30 -63 54 -123 52 -135 -2 -17 -13 -23 -47 -29 -24
-4 -62 -17 -85 -28 -23 -11 -49 -20 -57 -20 -8 0 -23 -6 -34 -14 -11 -7 -36
-17 -55 -21 -19 -4 -46 -15 -60 -25 -14 -10 -54 -30 -90 -44 -36 -15 -78 -33
-95 -40 -16 -8 -48 -19 -70 -26 -22 -7 -58 -21 -80 -31 -22 -10 -65 -24 -95
-32 -222 -57 -357 -87 -390 -87 -16 0 -31 -4 -34 -9 -6 -8 -29 -13 -132 -27
-38 -5 -42 -3 -69 32 l-29 37 22 15 c12 8 22 19 22 24 0 5 19 35 43 66 24 31
53 77 66 102 12 25 27 54 34 65 28 46 81 132 94 150 7 11 28 43 47 70 43 63
165 206 266 310 43 44 104 110 135 148 32 37 60 67 64 67 4 0 15 15 25 33 42
72 59 77 116 37z m-5801 -122 c5 -13 16 -50 26 -83 34 -116 78 -250 91 -283 8
-18 14 -40 14 -48 0 -9 6 -28 14 -42 15 -28 149 -427 166 -495 9 -32 7 -42
-15 -76 -14 -24 -34 -41 -47 -43 -16 -2 -24 -11 -26 -29 -2 -20 -10 -28 -32
-32 -21 -5 -30 -13 -35 -37 -4 -17 -18 -38 -31 -46 -13 -9 -24 -25 -24 -36 0
-17 -4 -19 -32 -13 -55 12 -76 23 -81 42 -3 10 -11 79 -17 153 -6 74 -16 155
-22 180 -5 25 -13 72 -17 105 -10 75 -29 151 -47 188 -8 16 -14 37 -14 48 0
10 -9 38 -19 61 -40 89 -59 135 -76 184 l-18 50 34 48 c19 27 55 71 80 100 25
28 56 68 68 89 26 42 47 47 60 15z m-801 -93 c45 -57 55 -102 27 -125 -8 -7
-15 -23 -15 -35 0 -12 -13 -49 -30 -81 -16 -32 -30 -64 -30 -70 0 -6 -9 -33
-21 -60 -11 -27 -24 -58 -29 -69 -4 -11 -24 -55 -44 -97 -20 -42 -36 -81 -36
-87 0 -14 -60 -114 -73 -123 -7 -4 -30 -10 -52 -13 -22 -4 -78 -23 -125 -43
-47 -20 -105 -39 -130 -43 -25 -4 -99 -19 -165 -34 -66 -15 -134 -29 -151 -30
-16 -1 -36 -5 -42 -9 -7 -4 -17 -4 -22 -1 -13 8 37 72 125 161 67 69 191 203
257 278 24 28 80 88 125 135 45 47 94 100 110 118 15 18 60 67 98 109 39 42
90 98 114 125 24 27 49 49 55 48 6 0 30 -24 54 -54z m7125 -576 c5 -19 12 -54
16 -79 4 -25 15 -59 24 -77 9 -18 17 -51 17 -75 0 -24 5 -59 10 -78 14 -47 15
-467 1 -503 -6 -16 -11 -49 -11 -75 0 -27 -10 -69 -22 -99 -22 -49 -25 -52
-58 -51 -19 0 -41 5 -48 11 -11 9 -45 18 -202 53 -36 8 -84 22 -107 31 -23 8
-51 13 -62 10 -11 -3 -28 1 -38 9 -10 7 -28 14 -41 14 -25 0 -168 38 -194 51
-10 5 -23 9 -30 9 -15 0 -191 70 -263 104 -27 13 -61 29 -75 34 -14 6 -69 31
-123 57 -53 25 -105 44 -115 43 -14 -3 -17 6 -20 55 -3 53 -1 57 18 57 12 0
34 7 48 15 42 22 192 85 204 85 6 0 19 7 28 15 15 14 149 65 290 112 46 15
141 38 220 52 101 19 167 33 210 43 25 6 68 14 95 19 65 10 131 27 175 47 l35
15 -27 7 c-26 8 -60 2 -178 -31 -74 -20 -170 -34 -170 -24 0 21 74 60 180 95
80 26 131 50 159 71 32 25 44 20 54 -22z m-6807 -17 c13 -11 24 -35 27 -58 3
-21 10 -57 16 -79 22 -89 33 -154 38 -227 6 -109 -15 -105 -96 14 -24 36 -41
50 -72 59 -40 12 -40 13 -34 48 4 20 10 41 15 46 4 6 10 27 14 48 5 28 14 40
32 47 27 11 29 18 13 53 -8 18 -8 30 0 46 14 25 20 26 47 3z m3459 -81 c22 -6
72 -19 110 -31 39 -11 86 -23 105 -26 19 -3 52 -12 73 -20 20 -8 49 -14 64
-14 15 0 40 -4 57 -9 17 -5 69 -19 116 -31 153 -38 262 -75 340 -115 27 -14
58 -25 69 -25 11 0 26 -7 35 -15 8 -8 18 -15 22 -15 4 0 37 -14 73 -32 36 -17
95 -41 131 -53 71 -24 90 -46 90 -103 0 -22 -5 -34 -17 -38 -10 -3 -54 -19
-98 -35 -44 -17 -98 -37 -120 -45 -22 -9 -57 -24 -77 -35 -20 -10 -44 -19 -53
-19 -10 0 -29 -7 -43 -15 -33 -18 -154 -63 -202 -75 -19 -5 -55 -13 -80 -19
-25 -5 -56 -14 -70 -19 -14 -5 -54 -13 -90 -17 -36 -4 -116 -20 -179 -36 -63
-16 -131 -29 -152 -29 -20 0 -42 -7 -49 -15 -8 -9 -30 -15 -58 -15 -30 0 -49
-5 -57 -16 -10 -14 -14 -12 -33 20 -12 21 -22 51 -22 67 0 17 -7 61 -16 99
-20 87 -14 471 9 595 19 105 42 158 65 151 9 -3 35 -10 57 -15z m-4105 -143
c17 -11 22 -10 29 1 5 7 14 10 20 7 30 -19 -9 -89 -47 -84 -31 4 -62 -39 -76
-104 -3 -15 -16 -39 -29 -54 -21 -25 -25 -25 -62 -14 -22 6 -100 15 -173 20
-118 7 -136 10 -157 30 -21 20 -30 22 -67 15 -64 -11 -107 -10 -121 4 -19 19
24 48 80 55 27 3 75 8 108 12 l60 6 -19 -21 c-15 -16 -17 -24 -8 -33 8 -8 21
-5 49 14 21 14 56 31 78 38 22 6 54 18 72 26 17 8 40 14 50 14 11 0 28 7 39
15 10 8 27 15 37 15 18 0 30 5 82 33 36 20 31 20 55 5z m6185 -518 c30 -5 71
-17 91 -26 21 -10 53 -17 73 -17 20 1 49 -6 65 -14 16 -8 47 -16 70 -18 23 -1
55 -8 71 -14 17 -6 68 -24 115 -40 113 -39 283 -110 352 -147 15 -8 58 -26 95
-40 37 -14 77 -31 88 -39 32 -20 169 -73 178 -68 20 12 2 33 -45 53 -29 12
-75 32 -103 45 -27 12 -70 31 -95 41 -52 20 -70 33 -70 46 0 16 121 -6 190
-35 14 -6 63 -16 110 -22 l85 -11 -3 -44 c-2 -30 -10 -49 -23 -59 -10 -7 -19
-25 -19 -38 0 -23 -10 -48 -78 -193 -12 -25 -52 -88 -89 -141 -37 -53 -81
-116 -98 -140 -46 -65 -202 -224 -241 -245 -19 -10 -34 -22 -34 -26 0 -5 -7
-8 -15 -8 -8 0 -15 6 -15 13 0 8 -12 24 -26 38 -14 13 -40 44 -57 69 -34 50
-110 141 -201 241 -34 37 -78 88 -98 115 -21 27 -56 69 -78 93 -22 23 -40 47
-40 52 0 11 -46 85 -71 114 -10 11 -42 69 -73 129 -30 60 -63 117 -72 127 -19
21 -37 51 -53 87 -6 12 -15 22 -20 22 -5 0 -14 13 -21 29 -10 25 -9 34 6 58
30 48 44 55 71 37 14 -8 49 -19 78 -24z m-7549 2 c12 -10 27 -29 34 -42 11
-21 10 -26 -9 -38 -11 -8 -21 -24 -21 -37 0 -12 -9 -30 -20 -40 -11 -10 -29
-38 -41 -62 -12 -24 -41 -73 -65 -108 -24 -35 -44 -67 -44 -72 0 -23 -179
-261 -202 -269 -10 -3 -18 -11 -18 -17 0 -7 -23 -36 -50 -66 -55 -61 -200
-220 -239 -265 -15 -15 -35 -38 -46 -50 -11 -11 -33 -40 -48 -64 -15 -24 -34
-45 -42 -48 -18 -7 -81 34 -130 86 -22 23 -49 52 -61 63 -11 12 -36 42 -55 67
-19 25 -44 56 -56 70 -43 50 -114 156 -144 215 -16 33 -34 67 -39 75 -12 22
-40 87 -40 95 0 3 -7 13 -15 21 -8 9 -15 29 -15 45 0 24 4 29 25 29 14 0 33 4
43 9 36 19 202 81 215 81 8 0 25 8 38 18 25 19 96 50 264 117 91 36 209 74
275 89 41 9 107 24 145 32 39 9 93 22 121 30 28 8 64 14 81 14 17 0 50 9 74
20 53 24 58 24 85 2z m6828 -24 l36 -42 -20 -20 c-48 -50 -70 -80 -70 -96 0
-9 -9 -25 -20 -35 -11 -10 -20 -22 -20 -26 0 -4 -22 -40 -48 -81 -47 -70 -101
-154 -135 -209 -17 -28 -110 -139 -187 -224 -25 -28 -76 -86 -115 -129 -38
-43 -90 -99 -114 -125 -24 -25 -63 -76 -88 -113 -24 -38 -48 -68 -52 -68 -28
0 -185 141 -226 202 -16 24 -46 61 -67 83 -21 22 -46 54 -56 70 -65 114 -87
147 -98 152 -8 3 -14 11 -14 19 0 7 -13 36 -30 64 -16 28 -30 59 -30 68 -1 9
-7 28 -15 42 -21 36 -19 70 3 70 11 0 29 9 42 20 13 11 33 20 46 20 13 0 25 4
29 9 3 5 20 13 38 16 17 4 86 31 152 60 66 29 147 63 180 75 59 22 93 36 158
64 85 37 154 57 293 85 82 17 162 31 176 31 14 0 39 7 54 15 16 8 50 15 75 15
32 0 49 5 53 15 9 26 33 17 70 -27z m-6022 2 c131 -22 205 -40 280 -71 26 -10
60 -19 77 -19 17 0 47 -7 68 -16 21 -9 56 -24 78 -34 22 -9 56 -23 75 -30 19
-8 44 -20 55 -27 11 -7 25 -13 32 -13 6 0 54 -20 106 -45 52 -25 98 -45 102
-45 3 0 32 -12 63 -26 164 -74 218 -100 224 -109 4 -5 -2 -25 -12 -43 -11 -18
-20 -40 -20 -48 0 -16 -15 -46 -42 -83 -10 -13 -18 -32 -18 -41 0 -10 -6 -20
-13 -23 -7 -2 -23 -24 -35 -48 -25 -47 -63 -105 -85 -129 -8 -8 -36 -44 -63
-80 -60 -79 -166 -185 -203 -205 -15 -7 -33 -21 -40 -29 -22 -26 -45 -18 -64
22 -20 44 -110 156 -209 264 -39 42 -76 85 -82 95 -11 20 -74 100 -146 183
-26 30 -55 71 -65 90 -9 19 -25 44 -35 55 -10 11 -30 43 -45 72 -14 29 -29 55
-34 57 -5 3 -28 45 -52 93 -44 89 -65 124 -108 178 l-23 29 26 23 c33 28 52
28 208 3z m723 -30 c99 -5 203 -12 230 -15 28 -3 63 -7 79 -9 18 -2 32 -10 37
-22 15 -42 48 -59 116 -61 36 -1 68 -4 70 -7 3 -3 -2 -28 -11 -55 -9 -27 -16
-59 -16 -70 0 -27 -17 -36 -24 -13 -9 28 -96 62 -162 62 -16 1 -40 7 -54 15
-14 8 -40 14 -58 15 -18 0 -45 6 -60 14 -26 13 -155 39 -254 51 -25 3 -52 13
-58 20 -7 8 -24 15 -39 15 -27 0 -109 26 -126 40 -5 4 -25 11 -42 15 -18 3
-33 10 -33 15 0 13 74 16 155 8 39 -4 151 -12 250 -18z m5399 -59 c9 -10 38
-24 64 -31 26 -7 55 -14 64 -17 15 -4 16 -8 7 -25 -7 -12 -8 -41 -5 -72 10
-77 29 -430 28 -521 -1 -116 -20 -344 -32 -385 -6 -19 -15 -98 -20 -175 -5
-77 -14 -155 -19 -174 -6 -19 -8 -38 -4 -44 3 -5 -1 -15 -10 -22 -12 -8 -40
-8 -119 2 -57 7 -125 16 -153 19 -27 4 -56 11 -63 17 -13 11 -106 36 -162 44
-19 3 -42 11 -50 17 -8 7 -81 45 -161 84 -81 40 -154 81 -163 91 -15 17 -15
19 0 32 18 15 80 106 100 149 4 8 31 50 58 92 75 114 96 148 123 197 14 24 46
75 72 113 25 38 55 84 66 102 25 41 115 146 179 210 27 27 68 72 91 100 23 28
61 70 84 94 22 24 41 47 41 52 0 17 -46 11 -64 -7 -32 -34 -55 -65 -61 -84 -4
-11 -13 -19 -21 -19 -19 0 -19 56 0 63 8 3 22 23 32 44 34 74 65 91 98 54z
m-6708 -42 c24 -6 54 -9 65 -6 12 3 34 3 49 0 24 -4 27 -8 19 -32 -11 -36 -27
-117 -35 -173 -13 -94 -34 -35 -34 97 0 73 -12 108 -29 90 -10 -11 0 -250 19
-425 7 -58 10 -141 8 -185 -7 -131 -29 -347 -39 -385 -7 -29 -23 -207 -32
-355 -1 -16 -6 -36 -10 -42 -11 -18 -105 -16 -192 2 -38 8 -84 15 -100 15 -17
0 -47 9 -68 20 -20 11 -50 20 -66 20 -17 0 -33 5 -36 10 -3 6 -19 10 -34 10
-16 0 -34 6 -40 14 -7 8 -27 18 -44 22 -44 9 -256 121 -307 162 -3 2 5 11 18
19 12 9 22 22 22 29 0 7 23 46 50 86 28 40 50 78 50 84 0 6 7 17 15 24 8 7 33
45 55 85 22 40 47 78 55 85 8 7 15 17 15 23 0 5 15 33 34 61 18 28 42 67 52
86 33 60 131 185 214 270 44 45 80 85 80 89 0 6 84 100 135 151 14 14 25 32
25 41 0 21 11 31 28 24 8 -3 34 -10 58 -16z m264 8 c0 -8 17 -31 37 -52 21
-21 46 -51 58 -66 11 -15 61 -75 110 -132 157 -182 210 -258 317 -458 14 -28
37 -64 50 -82 13 -18 36 -55 50 -83 26 -48 69 -123 120 -208 13 -21 34 -42 47
-47 23 -9 23 -10 5 -30 -10 -11 -32 -27 -49 -35 -16 -8 -77 -39 -135 -69 -58
-30 -110 -55 -116 -55 -6 0 -17 -7 -24 -15 -7 -8 -27 -15 -46 -15 -18 0 -36
-4 -39 -10 -3 -5 -19 -10 -36 -10 -16 0 -46 -9 -66 -20 -21 -11 -52 -20 -70
-20 -17 0 -58 -7 -92 -15 -37 -10 -91 -15 -143 -13 l-83 3 -3 110 c-1 61 -9
151 -17 200 -11 73 -26 321 -28 480 0 63 23 362 32 410 5 28 10 87 10 132 l1
83 33 14 c42 19 77 20 77 3z m6824 -11 c5 -22 121 -167 204 -256 17 -19 32
-37 32 -40 0 -4 21 -29 46 -56 25 -27 60 -71 78 -99 51 -77 109 -173 129 -211
10 -19 31 -54 47 -76 17 -23 30 -47 30 -54 0 -7 19 -44 43 -81 23 -38 48 -77
54 -88 7 -11 19 -33 26 -50 18 -38 65 -107 79 -116 17 -11 1 -38 -29 -50 -15
-6 -30 -14 -33 -18 -6 -9 -215 -111 -228 -111 -5 0 -15 -6 -21 -14 -6 -8 -26
-16 -44 -19 -95 -17 -127 -25 -141 -36 -16 -13 -49 -19 -255 -46 -86 -11 -118
-12 -128 -3 -8 6 -12 16 -10 22 3 6 -2 77 -9 156 -8 80 -18 219 -24 310 -5 91
-11 176 -14 190 -14 82 -15 120 -1 222 8 62 15 143 15 180 0 37 4 78 10 92 15
41 24 200 12 222 -10 17 -12 16 -26 -18 -9 -21 -16 -64 -16 -97 0 -57 -12 -83
-30 -65 -4 5 -10 53 -12 106 -4 110 -5 108 70 108 26 0 54 5 62 10 8 5 29 10
46 10 25 0 33 -5 38 -24z m-4412 -56 c-2 -8 -8 -17 -13 -19 -6 -1 -14 -8 -19
-15 -55 -68 -59 -71 -76 -61 -19 12 -47 107 -34 115 4 3 39 3 77 0 54 -4 67
-8 65 -20z m641 8 c22 -35 -110 -233 -142 -214 -6 4 -11 18 -11 30 0 13 -9 35
-20 49 -11 14 -20 34 -20 46 0 11 -5 32 -12 46 -16 35 -5 43 77 54 88 11 116
8 128 -11z m-376 -176 c44 -67 66 -113 57 -121 -3 -3 -47 -6 -97 -5 -72 1
-102 6 -139 23 -27 12 -48 25 -48 29 0 9 86 82 96 82 3 0 22 14 41 30 19 17
38 28 44 25 5 -4 26 -32 46 -63z"/>
</g>
</svg>
