<svg width="280" height="56" viewBox="0 0 280 56" fill="none" xmlns="http://www.w3.org/2000/svg">
<rect width="280" height="56" rx="28" fill="#292929"/>
<path d="M112.543 21.8636L115.356 30.7045H115.464L118.282 21.8636H121.009L116.998 33.5H113.827L109.81 21.8636H112.543ZM122.364 33.5V24.7727H124.785V33.5H122.364ZM123.58 23.6477C123.22 23.6477 122.912 23.5284 122.654 23.2898C122.4 23.0473 122.273 22.7576 122.273 22.4205C122.273 22.0871 122.4 21.8011 122.654 21.5625C122.912 21.3201 123.22 21.1989 123.58 21.1989C123.94 21.1989 124.247 21.3201 124.501 21.5625C124.758 21.8011 124.887 22.0871 124.887 22.4205C124.887 22.7576 124.758 23.0473 124.501 23.2898C124.247 23.5284 123.94 23.6477 123.58 23.6477ZM130.701 33.6705C129.803 33.6705 129.031 33.4886 128.383 33.125C127.739 32.7576 127.243 32.2386 126.894 31.5682C126.546 30.8939 126.371 30.0966 126.371 29.1761C126.371 28.2784 126.546 27.4905 126.894 26.8125C127.243 26.1345 127.733 25.6061 128.366 25.2273C129.002 24.8485 129.748 24.6591 130.604 24.6591C131.18 24.6591 131.716 24.7519 132.212 24.9375C132.712 25.1193 133.148 25.3939 133.519 25.7614C133.894 26.1288 134.186 26.5909 134.394 27.1477C134.603 27.7008 134.707 28.3485 134.707 29.0909V29.7557H127.337V28.2557H132.428C132.428 27.9072 132.353 27.5985 132.201 27.3295C132.049 27.0606 131.839 26.8504 131.57 26.6989C131.305 26.5436 130.996 26.4659 130.644 26.4659C130.277 26.4659 129.951 26.5511 129.667 26.7216C129.387 26.8883 129.167 27.1136 129.008 27.3977C128.849 27.678 128.767 27.9905 128.763 28.3352V29.7614C128.763 30.1932 128.843 30.5663 129.002 30.8807C129.165 31.1951 129.394 31.4375 129.69 31.608C129.985 31.7784 130.335 31.8636 130.741 31.8636C131.01 31.8636 131.256 31.8258 131.479 31.75C131.703 31.6742 131.894 31.5606 132.053 31.4091C132.212 31.2576 132.334 31.072 132.417 30.8523L134.656 31C134.542 31.5379 134.309 32.0076 133.957 32.4091C133.608 32.8068 133.157 33.1174 132.604 33.3409C132.055 33.5606 131.421 33.6705 130.701 33.6705ZM137.945 33.5L135.57 24.7727H138.019L139.371 30.6364H139.451L140.86 24.7727H143.263L144.695 30.6023H144.769L146.099 24.7727H148.542L146.173 33.5H143.61L142.11 28.0114H142.002L140.502 33.5H137.945ZM156.025 33.6648C155.468 33.6648 154.972 33.5682 154.536 33.375C154.101 33.178 153.756 32.8883 153.502 32.5057C153.252 32.1193 153.127 31.6383 153.127 31.0625C153.127 30.5777 153.216 30.1705 153.394 29.8409C153.572 29.5114 153.815 29.2462 154.121 29.0455C154.428 28.8447 154.777 28.6932 155.167 28.5909C155.561 28.4886 155.974 28.4167 156.406 28.375C156.913 28.322 157.322 28.2727 157.633 28.2273C157.943 28.178 158.169 28.1061 158.309 28.0114C158.449 27.9167 158.519 27.7765 158.519 27.5909V27.5568C158.519 27.197 158.406 26.9186 158.178 26.7216C157.955 26.5246 157.637 26.4261 157.224 26.4261C156.788 26.4261 156.442 26.5227 156.184 26.7159C155.926 26.9053 155.756 27.1439 155.673 27.4318L153.434 27.25C153.548 26.7197 153.771 26.2614 154.104 25.875C154.438 25.4848 154.868 25.1856 155.394 24.9773C155.924 24.7652 156.538 24.6591 157.235 24.6591C157.72 24.6591 158.184 24.7159 158.627 24.8295C159.074 24.9432 159.47 25.1193 159.815 25.358C160.163 25.5966 160.438 25.9034 160.638 26.2784C160.839 26.6496 160.94 27.0947 160.94 27.6136V33.5H158.644V32.2898H158.576C158.436 32.5625 158.248 32.803 158.013 33.0114C157.779 33.2159 157.496 33.3769 157.167 33.4943C156.837 33.608 156.457 33.6648 156.025 33.6648ZM156.718 31.9943C157.074 31.9943 157.388 31.9242 157.661 31.7841C157.934 31.6402 158.148 31.447 158.303 31.2045C158.459 30.9621 158.536 30.6875 158.536 30.3807V29.4545C158.46 29.5038 158.356 29.5492 158.224 29.5909C158.095 29.6288 157.949 29.6648 157.786 29.6989C157.623 29.7292 157.46 29.7576 157.298 29.7841C157.135 29.8068 156.987 29.8277 156.854 29.8466C156.57 29.8883 156.322 29.9545 156.11 30.0455C155.898 30.1364 155.733 30.2595 155.616 30.4148C155.498 30.5663 155.44 30.7557 155.44 30.983C155.44 31.3125 155.559 31.5644 155.798 31.7386C156.04 31.9091 156.347 31.9943 156.718 31.9943ZM165.238 21.8636V33.5H162.817V21.8636H165.238ZM169.597 21.8636V33.5H167.177V21.8636H169.597Z" fill="white"/>
</svg>
