<svg xmlns="http://www.w3.org/2000/svg" viewBox="0 0 368.52 391.5"><title>B&amp;amp;O logo</title><path d="M538.44,430.13c0,11.22,4.43,21.55,12.79,29.88,11.76,11.7,24.65,13.29,33.41,12.59a46.25,46.25,0,0,0,28.08-12.7l1.83-1.83c5.26-5.24,8.49-8.46,11.63-11.49l21.6,20.95L663,452.36l.21-.37-21.28-21.2L657,415.7,641.2,399.94,626.06,415s-44.23-44.16-49.72-49.68a14.53,14.53,0,0,1-4.76-11.1A14.89,14.89,0,0,1,576,343.44a16.67,16.67,0,0,1,11.3-4.79,15.33,15.33,0,0,1,11.11,4.57l.33.33.33-.31,9-8.92,6.21-6.18.27-.31-.42-.47a38,38,0,0,0-54.38.7,38.47,38.47,0,0,0-10.55,26.13c0,15.79,9,25.49,15.4,31.39L551.14,398.7C543.31,406.49,538.44,418.55,538.44,430.13ZM567,414.55l13.37-13.32,29.92,29.52c-1.37,1.4-7.16,7.23-13.54,13.52-7.71,7.55-20.47,9.13-29.74-.09a20.3,20.3,0,0,1-6.19-14.58A21.75,21.75,0,0,1,567,414.55ZM664.53,524a109,109,0,0,0-153.17,0,106.85,106.85,0,0,0,0,151.94,108.92,108.92,0,0,0,153.17,0,106.81,106.81,0,0,0,0-151.94ZM587.94,679.81a80.26,80.26,0,0,1-56.89-23.38,79.27,79.27,0,0,1,0-112.84,80.88,80.88,0,0,1,113.79,0A79,79,0,0,1,668.4,600C668.4,644,632.32,679.81,587.94,679.81ZM479.82,445a123.12,123.12,0,0,1-65.87,109,83.89,83.89,0,0,1,28.16,29.3,82.73,82.73,0,0,1-13.72,100A83.81,83.81,0,0,1,369,707.75H327.8l-.06-386.18h27.62a124.17,124.17,0,0,1,88,36.19A122.08,122.08,0,0,1,479.82,445Zm-56.13-67.77a96.56,96.56,0,0,0-67.94-28.06V540.9a96.59,96.59,0,0,0,67.94-28.06,95.39,95.39,0,0,0,0-135.57ZM355.75,680.12h13.19c31,0,56.19-25,56.19-55.74A55.24,55.24,0,0,0,408.69,585a56.41,56.41,0,0,0-39.87-16.29s-10.79-.06-13.07-.06Z" transform="translate(-327.74 -316.25)"/></svg>