<svg width="88" height="63" viewBox="0 0 88 63" fill="none" xmlns="http://www.w3.org/2000/svg">
<path d="M19.1959 2.64V26.12C19.2226 26.8133 19.4759 27.4 19.9559 27.88C20.4626 28.36 21.0626 28.6 21.7559 28.6H22.2359L22.2759 29H10.1159V28.6H10.6359C11.3026 28.6 11.8759 28.36 12.3559 27.88C12.8626 27.4 13.1426 26.8267 13.1959 26.16V2.64H7.79594C6.56927 2.66666 5.59594 3.05333 4.87594 3.8C4.15594 4.54666 3.79594 5.52 3.79594 6.72V7.2H3.39594V0.239998C4.48927 0.693332 6.0626 0.933332 8.11594 0.959999H24.2359C25.0626 0.959999 25.9559 0.879999 26.9159 0.719999C27.9026 0.559998 28.5826 0.399998 28.9559 0.239998V7.2H28.5559V6.72C28.5559 5.06667 27.9293 3.89333 26.6759 3.2C26.0893 2.85333 25.3826 2.66666 24.5559 2.64H19.1959ZM49.1366 28.6C49.8299 28.6 50.3632 28.4267 50.7366 28.08C51.3499 27.4667 51.6699 26.8133 51.6966 26.12V15.92H38.7366V26.08C38.7366 26.7733 38.9899 27.3733 39.4966 27.88C40.0032 28.36 40.6032 28.6 41.2966 28.6H41.7766L41.8166 29H29.6566V28.6H30.1766C30.8699 28.6 31.4566 28.36 31.9366 27.88C32.4432 27.3733 32.7099 26.7733 32.7366 26.08V3.92C32.7099 3.22666 32.4432 2.64 31.9366 2.16C31.4566 1.65333 30.8699 1.4 30.1766 1.4H29.6566V0.999998H41.8166L41.7766 1.4H41.2966C40.6032 1.4 40.0032 1.65333 39.4966 2.16C38.9899 2.64 38.7366 3.22666 38.7366 3.92V14.2H51.6966V3.92C51.6699 3.22666 51.4032 2.64 50.8966 2.16C50.4166 1.65333 49.8299 1.4 49.1366 1.4H48.6166V0.999998H60.7766V1.4H60.2566C59.5632 1.4 58.9632 1.65333 58.4566 2.16C57.9499 2.64 57.6966 3.22666 57.6966 3.92V26.08C57.6966 26.7733 57.9499 27.3733 58.4566 27.88C58.9632 28.36 59.5632 28.6 60.2566 28.6H60.7766V29H48.6166V28.6H49.1366ZM63.1297 28.6C63.823 28.6 64.4097 28.36 64.8897 27.88C65.3964 27.3733 65.663 26.7733 65.6897 26.08V3.8C65.6364 3.10667 65.4364 2.6 65.0897 2.28C64.4497 1.69333 63.7964 1.4 63.1297 1.4H62.6097V0.999998H77.9297C79.2364 0.999998 80.3164 0.906665 81.1697 0.719999C82.023 0.506666 82.543 0.359998 82.7297 0.279998V7.28L82.3297 7.24V6.8C82.3297 5.14667 81.7164 3.97333 80.4897 3.28C79.903 2.93333 79.2097 2.74667 78.4097 2.72H71.6897V14.36H76.9697C77.9564 14.3333 78.7697 14 79.4097 13.36C80.0497 12.6933 80.3697 11.88 80.3697 10.92V10.56H80.7697V19.8H80.3697V19.48C80.3697 18.4933 80.0497 17.68 79.4097 17.04C78.7964 16.4 78.0097 16.0667 77.0497 16.04H71.6897V27.28H76.9297C78.8764 27.28 80.503 26.72 81.8097 25.6C83.143 24.48 84.1297 22.8933 84.7697 20.84H85.1697L83.3297 29H62.6097V28.6H63.1297ZM38.88 61.6H39.52V62H27.52V61.64H28.12C28.5733 61.6133 28.96 61.4267 29.28 61.08C29.6 60.7333 29.7333 60.3467 29.68 59.92L28.12 45.4L20.6 58.36C19.6133 60.0133 19.1067 61.4933 19.08 62.8H18.68L8.4 45.52L6.84 59.92C6.78667 60.3467 6.92 60.7467 7.24 61.12C7.56 61.4667 7.94667 61.64 8.4 61.64H9V62H0.64V61.6H1.28C2.02667 61.6 2.66667 61.3733 3.2 60.92C3.76 60.4667 4.09333 59.8533 4.2 59.08L7.52 33.44H7.88L20.28 53.84L32.2 33.44H32.56L35.96 59.08C36.0933 59.8533 36.4267 60.4667 36.96 60.92C37.52 61.3733 38.16 61.6 38.88 61.6ZM39.825 61.6C40.5183 61.6 41.105 61.36 41.585 60.88C42.0917 60.3733 42.3583 59.7733 42.385 59.08V36.8C42.3317 36.1067 42.1317 35.6 41.785 35.28C41.145 34.6933 40.4917 34.4 39.825 34.4H39.305V34H54.625C55.9317 34 57.0117 33.9067 57.865 33.72C58.7183 33.5067 59.2383 33.36 59.425 33.28V40.28L59.025 40.24V39.8C59.025 38.1467 58.4117 36.9733 57.185 36.28C56.5983 35.9333 55.905 35.7467 55.105 35.72H48.385V47.36H53.665C54.6517 47.3333 55.465 47 56.105 46.36C56.745 45.6933 57.065 44.88 57.065 43.92V43.56H57.465V52.8H57.065V52.48C57.065 51.4933 56.745 50.68 56.105 50.04C55.4917 49.4 54.705 49.0667 53.745 49.04H48.385V60.28H53.625C55.5717 60.28 57.1983 59.72 58.505 58.6C59.8383 57.48 60.825 55.8933 61.465 53.84H61.865L60.025 62H39.305V61.6H39.825ZM77.7194 35.64V59.12C77.746 59.8133 77.9994 60.4 78.4794 60.88C78.986 61.36 79.586 61.6 80.2794 61.6H80.7594L80.7994 62H68.6394V61.6H69.1594C69.826 61.6 70.3994 61.36 70.8794 60.88C71.386 60.4 71.666 59.8267 71.7194 59.16V35.64H66.3194C65.0927 35.6667 64.1194 36.0533 63.3994 36.8C62.6794 37.5467 62.3194 38.52 62.3194 39.72V40.2H61.9194V33.24C63.0127 33.6933 64.586 33.9333 66.6394 33.96H82.7594C83.586 33.96 84.4794 33.88 85.4394 33.72C86.426 33.56 87.106 33.4 87.4794 33.24V40.2H87.0794V39.72C87.0794 38.0667 86.4527 36.8933 85.1994 36.2C84.6127 35.8533 83.906 35.6667 83.0794 35.64H77.7194Z" fill="white"/>
</svg>
