<svg width="227" height="172" viewBox="0 0 227 172" fill="none" xmlns="http://www.w3.org/2000/svg">
<path d="M62.3067 25.2008V62.0788H53.2068V39.9625L44.8518 62.0788H37.508L29.0999 39.9099V62.0788H20V25.2008H30.7496L41.2332 50.7317L51.6103 25.2008H62.3067Z" fill="white"/>
<path d="M97.9364 32.7655L79.3108 76H69.5191L76.3307 61.0807L64.2507 32.7655H74.415L81.2798 51.0994L88.0915 32.7655H97.9364Z" fill="white"/>
<path d="M122.597 43.167C124.761 43.6223 126.499 44.6904 127.812 46.3715C129.124 48.0175 129.781 49.9087 129.781 52.045C129.781 55.127 128.681 57.5785 126.481 59.3996C124.317 61.1857 121.284 62.0788 117.381 62.0788H99.9798V25.2008H116.796C120.592 25.2008 123.554 26.0588 125.683 27.7749C127.847 29.4909 128.929 31.8199 128.929 34.7617C128.929 36.9331 128.344 38.7367 127.173 40.1726C126.038 41.6085 124.512 42.6066 122.597 43.167ZM109.08 40.1201H115.04C116.53 40.1201 117.665 39.8049 118.446 39.1745C119.262 38.5091 119.67 37.546 119.67 36.2852C119.67 35.0244 119.262 34.0613 118.446 33.3959C117.665 32.7305 116.53 32.3978 115.04 32.3978H109.08V40.1201ZM115.785 54.8293C117.31 54.8293 118.481 54.4966 119.297 53.8311C120.149 53.1307 120.574 52.1326 120.574 50.8368C120.574 49.541 120.131 48.5253 119.244 47.7899C118.393 47.0544 117.204 46.6867 115.679 46.6867H109.08V54.8293H115.785Z" fill="white"/>
<path d="M138.388 29.7186C136.792 29.7186 135.479 29.2633 134.45 28.3527C133.457 27.4071 132.96 26.2514 132.96 24.8856C132.96 23.4847 133.457 22.329 134.45 21.4184C135.479 20.4728 136.792 20 138.388 20C139.949 20 141.226 20.4728 142.22 21.4184C143.248 22.329 143.763 23.4847 143.763 24.8856C143.763 26.2514 143.248 27.4071 142.22 28.3527C141.226 29.2633 139.949 29.7186 138.388 29.7186ZM142.911 32.7655V62.0788H133.811V32.7655H142.911Z" fill="white"/>
<path d="M169.918 62.0788L157.359 45.7936V62.0788H148.259V25.2008H157.359V41.3809L169.811 25.2008H180.508L166.033 43.272L181.04 62.0788H169.918Z" fill="white"/>
<path d="M193.217 32.3978V39.8574H205.404V46.7917H193.217V54.8818H207V62.0788H184.117V25.2008H207V32.3978H193.217Z" fill="white"/>
<path d="M62.3067 101.201V138.079H53.2068V115.962L44.8518 138.079H37.508L29.0999 115.91V138.079H20V101.201H30.7496L41.2332 126.732L51.6103 101.201H62.3067Z" fill="#1D1D1D"/>
<path d="M97.9364 108.765L79.3108 152H69.5191L76.3307 137.081L64.2507 108.765H74.415L81.2798 127.099L88.0915 108.765H97.9364Z" fill="#1D1D1D"/>
<path d="M122.597 119.167C124.761 119.622 126.499 120.69 127.812 122.371C129.124 124.018 129.781 125.909 129.781 128.045C129.781 131.127 128.681 133.578 126.481 135.4C124.317 137.186 121.284 138.079 117.381 138.079H99.9798V101.201H116.796C120.592 101.201 123.554 102.059 125.683 103.775C127.847 105.491 128.929 107.82 128.929 110.762C128.929 112.933 128.344 114.737 127.173 116.173C126.038 117.609 124.512 118.607 122.597 119.167ZM109.08 116.12H115.04C116.53 116.12 117.665 115.805 118.446 115.174C119.262 114.509 119.67 113.546 119.67 112.285C119.67 111.024 119.262 110.061 118.446 109.396C117.665 108.73 116.53 108.398 115.04 108.398H109.08V116.12ZM115.785 130.829C117.31 130.829 118.481 130.497 119.297 129.831C120.149 129.131 120.574 128.133 120.574 126.837C120.574 125.541 120.131 124.525 119.244 123.79C118.393 123.054 117.204 122.687 115.679 122.687H109.08V130.829H115.785Z" fill="#1D1D1D"/>
<path d="M138.388 105.719C136.792 105.719 135.479 105.263 134.45 104.353C133.457 103.407 132.96 102.251 132.96 100.886C132.96 99.4847 133.457 98.329 134.45 97.4184C135.479 96.4728 136.792 96 138.388 96C139.949 96 141.226 96.4728 142.22 97.4184C143.248 98.329 143.763 99.4847 143.763 100.886C143.763 102.251 143.248 103.407 142.22 104.353C141.226 105.263 139.949 105.719 138.388 105.719ZM142.911 108.765V138.079H133.811V108.765H142.911Z" fill="#1D1D1D"/>
<path d="M169.918 138.079L157.359 121.794V138.079H148.259V101.201H157.359V117.381L169.811 101.201H180.508L166.033 119.272L181.04 138.079H169.918Z" fill="#1D1D1D"/>
<path d="M193.217 108.398V115.857H205.404V122.792H193.217V130.882H207V138.079H184.117V101.201H207V108.398H193.217Z" fill="#1D1D1D"/>
<rect x="0.5" y="0.5" width="226" height="171" rx="4.5" stroke="#9747FF" stroke-dasharray="10 5"/>
</svg>
