<svg width="197" height="66" viewBox="0 0 197 66" fill="none" xmlns="http://www.w3.org/2000/svg">
<g filter="url(#filter0_d_108_87)">
<path d="M47.3067 6.20075V43.0788H38.2068V20.9625L29.8518 43.0788H22.508L14.0999 20.9099V43.0788H5V6.20075H15.7496L26.2332 31.7317L36.6103 6.20075H47.3067Z" fill="white"/>
<path d="M82.9364 13.7655L64.3108 57H54.5191L61.3307 42.0807L49.2507 13.7655H59.415L66.2798 32.0994L73.0915 13.7655H82.9364Z" fill="white"/>
<path d="M107.597 24.167C109.761 24.6223 111.499 25.6904 112.812 27.3715C114.124 29.0175 114.781 30.9087 114.781 33.045C114.781 36.127 113.681 38.5785 111.481 40.3996C109.317 42.1857 106.284 43.0788 102.381 43.0788H84.9798V6.20075H101.796C105.592 6.20075 108.554 7.05879 110.683 8.77486C112.847 10.4909 113.929 12.8199 113.929 15.7617C113.929 17.9331 113.344 19.7367 112.173 21.1726C111.038 22.6085 109.512 23.6066 107.597 24.167ZM94.0797 21.1201H100.04C101.53 21.1201 102.665 20.8049 103.446 20.1745C104.262 19.5091 104.67 18.546 104.67 17.2852C104.67 16.0244 104.262 15.0613 103.446 14.3959C102.665 13.7305 101.53 13.3978 100.04 13.3978H94.0797V21.1201ZM100.785 35.8293C102.31 35.8293 103.481 35.4966 104.297 34.8311C105.149 34.1307 105.574 33.1326 105.574 31.8368C105.574 30.541 105.131 29.5253 104.244 28.7899C103.393 28.0544 102.204 27.6867 100.679 27.6867H94.0797V35.8293H100.785Z" fill="white"/>
<path d="M123.388 10.7186C121.792 10.7186 120.479 10.2633 119.45 9.35272C118.457 8.40713 117.96 7.25141 117.96 5.88556C117.96 4.48468 118.457 3.32896 119.45 2.41839C120.479 1.4728 121.792 1 123.388 1C124.949 1 126.226 1.4728 127.22 2.41839C128.248 3.32896 128.763 4.48468 128.763 5.88556C128.763 7.25141 128.248 8.40713 127.22 9.35272C126.226 10.2633 124.949 10.7186 123.388 10.7186ZM127.911 13.7655V43.0788H118.811V13.7655H127.911Z" fill="white"/>
<path d="M154.918 43.0788L142.359 26.7936V43.0788H133.259V6.20075H142.359V22.3809L154.811 6.20075H165.508L151.033 24.272L166.04 43.0788H154.918Z" fill="white"/>
<path d="M178.217 13.3978V20.8574H190.404V27.7917H178.217V35.8818H192V43.0788H169.117V6.20075H192V13.3978H178.217Z" fill="white"/>
<path d="M47.8067 6.20075V5.70075H47.3067H36.6103H36.2738L36.1471 6.01248L26.2308 30.4096L16.2121 6.01083L16.0848 5.70075H15.7496H5H4.5V6.20075V43.0788V43.5788H5H14.0999H14.5999V43.0788V23.6382L22.0405 43.2561L22.1629 43.5788H22.508H29.8518H30.1975L30.3196 43.2555L37.7068 23.7009V43.0788V43.5788H38.2068H47.3067H47.8067V43.0788V6.20075ZM83.3956 13.9633L83.6962 13.2655H82.9364H73.0915H72.7438L72.6228 13.5913L66.278 30.6687L59.8832 13.5901L59.7617 13.2655H59.415H49.2507H48.4938L48.7908 13.9617L60.7842 42.0738L54.0643 56.7923L53.7412 57.5H54.5191H64.3108H64.6399L64.77 57.1978L83.3956 13.9633ZM111.8 40.7852L111.8 40.7848C114.125 38.8604 115.281 36.2624 115.281 33.045C115.281 30.7982 114.588 28.7974 113.204 27.0619C112.134 25.6918 110.793 24.7067 109.193 24.1083C110.538 23.4942 111.665 22.6207 112.563 21.4854C113.817 19.946 114.429 18.0259 114.429 15.7617C114.429 12.6793 113.287 10.2018 110.995 8.38411C108.749 6.57404 105.661 5.70075 101.796 5.70075H84.9798H84.4798V6.20075V43.0788V43.5788H84.9798H102.381C106.355 43.5788 109.517 42.6696 111.8 40.7852ZM103.121 14.7764L103.121 14.7765L103.13 14.7834C103.806 15.3348 104.17 16.1418 104.17 17.2852C104.17 18.4279 103.806 19.2346 103.131 19.7861C102.474 20.3167 101.469 20.6201 100.04 20.6201H94.5797V13.8978H100.04C101.464 13.8978 102.465 14.2165 103.121 14.7764ZM103.917 29.1683L103.917 29.1683L103.925 29.1748C104.682 29.8027 105.074 30.6689 105.074 31.8368C105.074 33.0117 104.695 33.8558 103.981 34.4441C103.286 35.01 102.245 35.3293 100.785 35.3293H94.5797V28.1867H100.679C102.127 28.1867 103.184 28.5354 103.917 29.1683ZM119.105 9.71488L119.112 9.72113L119.119 9.72714C120.254 10.7315 121.69 11.2186 123.388 11.2186C125.053 11.2186 126.457 10.7297 127.557 9.7213L127.558 9.72086C128.687 8.68306 129.263 7.39496 129.263 5.88556C129.263 4.34775 128.692 3.05668 127.558 2.04996C126.459 1.00774 125.055 0.5 123.388 0.5C121.685 0.5 120.246 1.00773 119.112 2.05025C118.011 3.05962 117.46 4.35103 117.46 5.88556C117.46 7.38893 118.013 8.67535 119.105 9.71488ZM128.411 13.7655V13.2655H127.911H118.811H118.311V13.7655V43.0788V43.5788H118.811H127.911H128.411V43.0788V13.7655ZM154.522 43.3841L154.672 43.5788H154.918H166.04H167.078L166.431 42.7669L151.673 24.2726L165.898 6.51333L166.549 5.70075H165.508H154.811H154.565L154.415 5.8958L142.859 20.9114V6.20075V5.70075H142.359H133.259H132.759V6.20075V43.0788V43.5788H133.259H142.359H142.859V43.0788V28.2607L154.522 43.3841ZM190.904 20.8574V20.3574H190.404H178.717V13.8978H192H192.5V13.3978V6.20075V5.70075H192H169.117H168.617V6.20075V43.0788V43.5788H169.117H192H192.5V43.0788V35.8818V35.3818H192H178.717V28.2917H190.404H190.904V27.7917V20.8574Z" stroke="black"/>
</g>
<defs>
<filter id="filter0_d_108_87" x="0" y="0" width="197" height="66" filterUnits="userSpaceOnUse" color-interpolation-filters="sRGB">
<feFlood flood-opacity="0" result="BackgroundImageFix"/>
<feColorMatrix in="SourceAlpha" type="matrix" values="0 0 0 0 0 0 0 0 0 0 0 0 0 0 0 0 0 0 127 0" result="hardAlpha"/>
<feOffset dy="4"/>
<feGaussianBlur stdDeviation="2"/>
<feComposite in2="hardAlpha" operator="out"/>
<feColorMatrix type="matrix" values="0 0 0 0 0 0 0 0 0 0 0 0 0 0 0 0 0 0 0.25 0"/>
<feBlend mode="normal" in2="BackgroundImageFix" result="effect1_dropShadow_108_87"/>
<feBlend mode="normal" in="SourceGraphic" in2="effect1_dropShadow_108_87" result="shape"/>
</filter>
</defs>
</svg>
