<?xml version="1.0" ?><svg viewBox="0 0 32 32" xmlns="http://www.w3.org/2000/svg"><defs><style>.cls-1{fill:#231f20;}</style></defs><title/><g data-name="Layer 2" id="Layer_2"><path class="cls-1" d="M16.47,15.12,26.34,25a1,1,0,0,1-1.41,1.41l-9.06-9.06-8.8,8.8a1,1,0,0,1-1.41,0h0a1,1,0,0,1,0-1.42l9.61-9.61A.85.85,0,0,1,16.47,15.12Z"/><path class="cls-1" d="M16.47,5.54l9.87,9.88a1,1,0,0,1-1.41,1.41L15.87,7.77l-8.8,8.8a1,1,0,0,1-1.41,0h0a1,1,0,0,1,0-1.41l9.61-9.62A.85.85,0,0,1,16.47,5.54Z"/></g></svg>