<svg width="27" height="22" viewBox="0 0 27 22" fill="none" xmlns="http://www.w3.org/2000/svg">
<path d="M5.86932 10.6251H4.07955V4.72245H1.69318V2.36137H8.85227V4.72245H6.46591V8.02205L18.1746 4.91842L17.4826 2.36137H13.625V0.000287397H18.3715C18.6386 -0.00554351 18.9 0.0774975 19.1137 0.236108C19.3275 0.394718 19.4812 0.619719 19.5503 0.875067L21.4034 7.71747L19.0981 8.32781L18.7927 7.19922L5.86932 10.6251ZM5.27273 18.8889C5.90563 18.8889 6.51261 18.6402 6.96014 18.1974C7.40767 17.7546 7.65909 17.154 7.65909 16.5278C7.65909 15.9016 7.40767 15.3011 6.96014 14.8583C6.51261 14.4155 5.90563 14.1668 5.27273 14.1668C4.63982 14.1668 4.03284 14.4155 3.58531 14.8583C3.13778 15.3011 2.88636 15.9016 2.88636 16.5278C2.88636 17.154 3.13778 17.7546 3.58531 18.1974C4.03284 18.6402 4.63982 18.8889 5.27273 18.8889ZM5.27273 21.25C4.00692 21.25 2.79296 20.7525 1.8979 19.8669C1.00284 18.9813 0.5 17.7802 0.5 16.5278C0.5 15.2754 1.00284 14.0743 1.8979 13.1888C2.79296 12.3032 4.00692 11.8057 5.27273 11.8057C6.53853 11.8057 7.7525 12.3032 8.64756 13.1888C9.54262 14.0743 10.0455 15.2754 10.0455 16.5278C10.0455 17.7802 9.54262 18.9813 8.64756 19.8669C7.7525 20.7525 6.53853 21.25 5.27273 21.25ZM20.7841 18.8889C21.7334 18.8889 22.6439 18.5158 23.3152 17.8516C23.9865 17.1874 24.3636 16.2866 24.3636 15.3473C24.3636 14.408 23.9865 13.5072 23.3152 12.843C22.6439 12.1788 21.7334 11.8057 20.7841 11.8057C19.8347 11.8057 18.9243 12.1788 18.253 12.843C17.5817 13.5072 17.2045 14.408 17.2045 15.3473C17.2045 16.2866 17.5817 17.1874 18.253 17.8516C18.9243 18.5158 19.8347 18.8889 20.7841 18.8889ZM20.7841 21.25C19.2018 21.25 17.6844 20.6281 16.5656 19.5211C15.4467 18.4142 14.8182 16.9128 14.8182 15.3473C14.8182 13.7818 15.4467 12.2804 16.5656 11.1735C17.6844 10.0665 19.2018 9.4446 20.7841 9.4446C22.3664 9.4446 23.8838 10.0665 25.0026 11.1735C26.1215 12.2804 26.75 13.7818 26.75 15.3473C26.75 16.9128 26.1215 18.4142 25.0026 19.5211C23.8838 20.6281 22.3664 21.25 20.7841 21.25Z" fill="#1D1D1D"/>
</svg>
