<svg width="32" height="32" viewBox="0 0 32 32" fill="none" xmlns="http://www.w3.org/2000/svg">
<g clip-path="url(#clip0_6802_472)">
<path d="M4 22.6667C4 23.403 4.59695 24 5.33333 24H14.6667C15.403 24 16 23.403 16 22.6667C16 21.9303 15.403 21.3333 14.6667 21.3333H5.33333C4.59695 21.3333 4 21.9303 4 22.6667ZM4 16C4 16.7364 4.59695 17.3333 5.33333 17.3333H26.6667C27.403 17.3333 28 16.7364 28 16C28 15.2636 27.403 14.6667 26.6667 14.6667H5.33333C4.59695 14.6667 4 15.2636 4 16ZM5.33334 8C4.59696 8 4 8.59695 4 9.33333C4 10.0697 4.59695 10.6667 5.33333 10.6667H20C20.7364 10.6667 21.3333 10.0697 21.3333 9.33333C21.3333 8.59695 20.7364 8 20 8H5.33334Z" fill="#292929"/>
</g>
<defs>
<clipPath id="clip0_6802_472">
<rect width="32" height="32" fill="white"/>
</clipPath>
</defs>
</svg>
