<svg width="32" height="32" viewBox="0 0 32 32" fill="none" xmlns="http://www.w3.org/2000/svg">
<path d="M25.5924 8.55623C26.1857 7.96292 26.1857 7.00097 25.5924 6.40766V6.40766C24.9991 5.81435 24.0371 5.81435 23.4438 6.40766L16 13.8515L8.55619 6.40766C7.96288 5.81435 7.00093 5.81435 6.40762 6.40766V6.40766C5.81431 7.00097 5.81431 7.96292 6.40762 8.55623L13.8514 16L6.40762 23.4439C5.81431 24.0372 5.81431 24.9991 6.40762 25.5924V25.5924C7.00093 26.1857 7.96288 26.1857 8.55619 25.5924L16 18.1486L23.4438 25.5924C24.0371 26.1857 24.9991 26.1857 25.5924 25.5924V25.5924C26.1857 24.9991 26.1857 24.0372 25.5924 23.4438L18.1486 16L25.5924 8.55623Z" fill="white"/>
</svg>
