<?xml version="1.0" encoding="utf-8"?>
<!-- Generator: Adobe Illustrator 26.3.1, SVG Export Plug-In . SVG Version: 6.00 Build 0)  -->
<svg version="1.1" id="Livello_1" xmlns="http://www.w3.org/2000/svg" xmlns:xlink="http://www.w3.org/1999/xlink" x="0px" y="0px"
	 viewBox="0 0 107.7 107.7" style="enable-background:new 0 0 107.7 107.7;" xml:space="preserve">
<style type="text/css">
	.st0{display:none;fill:#FFE72D;}
	.st1{fill-rule:evenodd;clip-rule:evenodd;fill:url(#SVGID_1_);}
	.st2{fill:#FFFFFF;}
	.st3{display:none;}
</style>
<rect x="1.5" y="1.5" class="st0" width="104.8" height="104.8"/>
<g transform="translate(.802 .437)">
	
		<radialGradient id="SVGID_1_" cx="-239.7793" cy="476.3852" r="0.5" gradientTransform="matrix(0 100 94.981 0 -45191.1797 24027.2324)" gradientUnits="userSpaceOnUse">
		<stop  offset="0" style="stop-color:#BBBBBB;stop-opacity:0.202"/>
		<stop  offset="1" style="stop-color:#868686;stop-opacity:0"/>
	</radialGradient>
	<rect x="6.4" y="-0.7" class="st1" width="100" height="100"/>
	<path class="st2" d="M8.8,58.5c0.3,1.4,1.4,2.4,2.9,2.4L11.5,60c-1,0-1.7-0.7-1.9-1.7c-0.3-1.3,0.5-2.5,2.4-2.9
		c1.8-0.4,3.1,0.4,3.3,1.7c0.2,0.9-0.1,1.9-1.1,2.3l0.2,0.9c1.4-0.6,2-1.9,1.7-3.4c-0.4-1.8-2.1-2.8-4.3-2.4
		C9.5,55,8.4,56.7,8.8,58.5z M13.2,73.2c1,1.6,2.9,2,4.9,0.8c2-1.2,2.5-3.1,1.5-4.7c-1-1.6-2.9-2-4.9-0.8
		C12.8,69.7,12.3,71.6,13.2,73.2z M13.9,72.8c-0.7-1.1-0.4-2.5,1.2-3.5c1.6-1,3-0.7,3.7,0.5c0.7,1.1,0.4,2.5-1.2,3.5
		C16.1,74.2,14.6,73.9,13.9,72.8z M21.1,84.5l3.5-4.5l0.1,0l-0.4,6.9l0.7,0.5l4.5-5.7l-0.7-0.5l-3.5,4.5l-0.1,0l0.4-7l-0.7-0.5
		l-4.5,5.7L21.1,84.5z M35.6,94.3l2.1-6.1l2.2,0.7l0.3-0.7L35,86.4l-0.3,0.7l2.2,0.7L34.8,94L35.6,94.3z M46.4,97.6l0.8-2l2.9,0
		l0.7,2.1l0.9,0l-2.5-7.3l-0.9,0l-2.8,7.2L46.4,97.6z M49.9,94.9l-2.4,0l1.2-3.3l0.1,0L49.9,94.9z M63.5,96.8c1.4-0.5,2.2-1.7,2-3.2
		l-0.8,0.3c0.1,1-0.5,1.8-1.5,2.1c-1.3,0.4-2.6-0.2-3.2-2c-0.6-1.8,0.1-3.1,1.3-3.5c0.9-0.3,1.9-0.1,2.4,0.8l0.8-0.3
		c-0.7-1.3-2.1-1.8-3.5-1.3c-1.8,0.6-2.6,2.4-1.9,4.6C60.1,96.4,61.8,97.3,63.5,96.8z M77.6,90.8l-3.9-5.2l1.8-1.4L75,83.6l-4.3,3.3
		l0.5,0.6l1.8-1.4l3.9,5.2L77.6,90.8z M94.2,71.6c0.5-1.4,0-3-1.5-3.5l-4.6-1.6l-0.3,0.8l4.6,1.6c1.1,0.4,1.4,1.4,1,2.4
		c-0.3,1-1.2,1.6-2.3,1.3L86.6,71l-0.3,0.8l4.6,1.6C92.4,74,93.7,73,94.2,71.6z M98.1,57.1c0-1.7-0.9-2.6-2.1-2.6
		c-1.4,0-1.8,1.3-2,2.1l-0.2,0.7c-0.1,0.5-0.4,1.4-1.2,1.4c-0.7,0-1.2-0.6-1.2-1.6c0-0.9,0.4-1.5,1.1-1.6l0-0.9
		c-1.1,0-1.9,1.1-1.9,2.5c0,1.4,0.8,2.5,2,2.5c1,0,1.6-0.7,1.9-1.9l0.3-0.9c0.2-0.8,0.5-1.5,1.2-1.5c0.8,0,1.3,0.8,1.3,1.8
		c0,0.9-0.4,1.6-1.2,1.7l0,0.9C97.3,59.6,98.1,58.6,98.1,57.1z"/>
</g>
<circle class="st3" cx="53.9" cy="53.9" r="36.5"/>
</svg>
