<svg width="32" height="32" viewBox="0 0 32 32" fill="none" xmlns="http://www.w3.org/2000/svg">
<path d="M25.5924 8.55611C26.1857 7.9628 26.1857 7.00085 25.5924 6.40754V6.40754C24.999 5.81423 24.0371 5.81423 23.4438 6.40754L16 13.8513L8.55617 6.40754C7.96286 5.81422 7.00091 5.81423 6.4076 6.40754V6.40754C5.81429 7.00085 5.81429 7.9628 6.4076 8.55611L13.8514 15.9999L6.4076 23.4437C5.81429 24.037 5.81429 24.999 6.4076 25.5923V25.5923C7.00091 26.1856 7.96286 26.1856 8.55617 25.5923L16 18.1485L23.4438 25.5923C24.0371 26.1856 24.999 26.1856 25.5924 25.5923V25.5923C26.1857 24.999 26.1857 24.037 25.5924 23.4437L18.1486 15.9999L25.5924 8.55611Z" fill="white"/>
</svg>
