<svg width="22" height="22" viewBox="0 0 22 22" fill="none" xmlns="http://www.w3.org/2000/svg">
<path d="M20.5925 3.55623C21.1859 2.96292 21.1859 2.00097 20.5925 1.40766C19.9992 0.814348 19.0373 0.814348 18.444 1.40766L11.0002 8.85147L3.55635 1.40766C2.96304 0.814347 2.00109 0.814348 1.40778 1.40766C0.81447 2.00097 0.81447 2.96292 1.40778 3.55623L8.85159 11L1.40778 18.4439C0.814469 19.0372 0.81447 19.9991 1.40778 20.5924C2.00109 21.1857 2.96304 21.1857 3.55635 20.5924L11.0002 13.1486L18.444 20.5924C19.0373 21.1857 19.9992 21.1857 20.5925 20.5924C21.1859 19.9991 21.1859 19.0372 20.5925 18.4438L13.1487 11L20.5925 3.55623Z" fill="#1D1D1D"/>
</svg>
