<svg width="22" height="22" viewBox="0 0 22 22" fill="none" xmlns="http://www.w3.org/2000/svg">
<rect width="22" height="22" fill="#F2F2F2"/>
<rect width="1260" height="700" transform="translate(-125 -53)" fill="#0075FF"/>
<path d="M20.5924 3.55619C21.1857 2.96288 21.1857 2.00093 20.5924 1.40762V1.40762C19.9991 0.814306 19.0372 0.814306 18.4438 1.40762L11 8.85143L3.55623 1.40762C2.96292 0.814305 2.00097 0.814306 1.40766 1.40762V1.40762C0.814348 2.00093 0.814348 2.96288 1.40766 3.55619L8.85147 11L1.40766 18.4438C0.814347 19.0371 0.814348 19.9991 1.40766 20.5924V20.5924C2.00097 21.1857 2.96292 21.1857 3.55623 20.5924L11 13.1486L18.4439 20.5924C19.0372 21.1857 19.9991 21.1857 20.5924 20.5924V20.5924C21.1857 19.9991 21.1857 19.0371 20.5924 18.4438L13.1486 11L20.5924 3.55619Z" fill="white"/>
</svg>
