<svg width="32" height="32" viewBox="0 0 32 32" fill="none" xmlns="http://www.w3.org/2000/svg">
<path d="M25.5925 8.55623C26.1859 7.96292 26.1859 7.00097 25.5925 6.40766C24.9992 5.81435 24.0373 5.81435 23.444 6.40766L16.0002 13.8515L8.55635 6.40766C7.96304 5.81435 7.00109 5.81435 6.40778 6.40766C5.81447 7.00097 5.81447 7.96292 6.40778 8.55623L13.8516 16L6.40778 23.4439C5.81447 24.0372 5.81447 24.9991 6.40778 25.5924C7.00109 26.1857 7.96304 26.1857 8.55635 25.5924L16.0002 18.1486L23.444 25.5924C24.0373 26.1857 24.9992 26.1857 25.5925 25.5924C26.1859 24.9991 26.1859 24.0372 25.5925 23.4438L18.1487 16L25.5925 8.55623Z" fill="#292929"/>
</svg>
