<svg width="22" height="22" viewBox="0 0 22 22" fill="none" xmlns="http://www.w3.org/2000/svg">
<path d="M20.5924 3.55623C21.1857 2.96292 21.1857 2.00097 20.5924 1.40766C19.9991 0.814348 19.0371 0.814348 18.4438 1.40766L11 8.85147L3.55619 1.40766C2.96288 0.814347 2.00093 0.814348 1.40762 1.40766C0.81431 2.00097 0.81431 2.96292 1.40762 3.55623L8.85143 11L1.40762 18.4439C0.814309 19.0372 0.81431 19.9991 1.40762 20.5924C2.00093 21.1857 2.96288 21.1857 3.55619 20.5924L11 13.1486L18.4438 20.5924C19.0371 21.1857 19.9991 21.1857 20.5924 20.5924C21.1857 19.9991 21.1857 19.0372 20.5924 18.4438L13.1486 11L20.5924 3.55623Z" fill="white"/>
</svg>
