<svg width="22" height="22" viewBox="0 0 22 22" fill="none" xmlns="http://www.w3.org/2000/svg">
<path d="M20.5924 3.55611C21.1857 2.9628 21.1857 2.00085 20.5924 1.40754C19.999 0.814226 19.0371 0.814226 18.4438 1.40754L11 8.85135L3.55617 1.40754C2.96286 0.814225 2.00091 0.814226 1.4076 1.40754C0.814287 2.00085 0.814287 2.9628 1.4076 3.55611L8.85141 10.9999L1.4076 18.4437C0.814286 19.037 0.814287 19.999 1.4076 20.5923C2.00091 21.1856 2.96286 21.1856 3.55617 20.5923L11 13.1485L18.4438 20.5923C19.0371 21.1856 19.999 21.1856 20.5924 20.5923C21.1857 19.999 21.1857 19.037 20.5924 18.4437L13.1486 10.9999L20.5924 3.55611Z" fill="white"/>
</svg>
