<svg width="20" height="13" xmlns="http://www.w3.org/2000/svg">

 <g>
  <title>background</title>
  <rect fill="none" id="canvas_background" height="402" width="582" y="-1" x="-1"/>
 </g>
 <g>
  <title>Layer 1</title>
  <path id="svg_1" fill="#0075ff" d="m9.99996,3.69335l-9.64314,5.98002l-0.35682,0.01181l3.06273,-9.68506l2.07379,0.28725l-1.79749,5.39578l6.53867,-3.87775l0.12226,0l0.12224,0l2.0331,1.2057l-0.7131,1.54224l-1.44224,-0.85999zm0.06474,9.30685l-0.21525,-0.0003l-3.26115,-6.65103l1.75138,-1.04184l1.64069,3.48184l1.94313,-3.94534l-0.0013,-0.00088l0.7322,-1.53546l4.0066,2.37596l-1.7975,-5.39578l2.0739,-0.28725l3.0626,9.68506l-0.3567,-0.01181l-6.0052,-3.7573l-3.5734,7.08413z" clip-rule="evenodd" fill-rule="evenodd"/>
 </g>
</svg>