<svg xmlns="http://www.w3.org/2000/svg" xmlns:xlink="http://www.w3.org/1999/xlink" viewBox="0 0 66 23" fill="#fff" fill-rule="evenodd" stroke="#000" stroke-linecap="round" stroke-linejoin="round"><use xlink:href="#A" x=".5" y=".5"/><symbol id="A" overflow="visible"><path d="M61.932 0H34.85L24.334 18.195H0v3.63h49.884c1.864.009 3.589-.982 4.519-2.597l3.105-5.393c.284-.545.311-1.188.073-1.755s-.716-.998-1.304-1.176c1.808-.035 3.471-.994 4.408-2.541l3.042-5.28c.367-.638.365-1.424-.006-2.06S62.668-.003 61.932.001zM47.549 14l-1.835 3.177a2.01 2.01 0 0 1-1.763 1.017h-6.798l3.177-5.482h6.48a.86.86 0 0 1 .739 1.279zm5.266-9.117L50.98 8.06a2.01 2.01 0 0 1-1.763 1.017H42.4l3.177-5.48H52a.86.86 0 0 1 .794 1.287z" stroke="none" fill="#242424" fill-rule="nonzero"/></symbol></svg>