<?xml version="1.0" encoding="utf-8"?>
<!-- Svg Vector Icons : http://www.onlinewebfonts.com/icon -->
<!DOCTYPE svg PUBLIC "-//W3C//DTD SVG 1.1//EN" "http://www.w3.org/Graphics/SVG/1.1/DTD/svg11.dtd">
<svg version="1.1" xmlns="http://www.w3.org/2000/svg" xmlns:xlink="http://www.w3.org/1999/xlink" x="0px" y="0px" viewBox="0 0 1000 1000" enable-background="new 0 0 1000 1000" xml:space="preserve">
<metadata> Svg Vector Icons : http://www.onlinewebfonts.com/icon </metadata>
<g><g transform="translate(0.000000,511.000000) scale(0.100000,-0.100000)"><path d="M2921.7,2964.3c-249-5.7-304.6-23-346.7-105.4c-42.1-82.4-32.6-160.9,28.7-229.9c53.6-61.3,61.3-63.2,241.4-72.8l187.7-9.6l189.6-436.7l191.5-436.7l-151.3-239.4c-82.4-130.2-162.8-256.7-180.1-279.7l-32.6-42.1l-116.8,53.6c-65.1,28.7-201.1,74.7-304.6,101.5c-162.8,44.1-222.2,49.8-492.3,49.8c-272,0-327.5-5.7-498-49.8c-362-97.7-680-279.6-940.5-538.2C333.9,363.1,127.1-106.2,102.2-623.4c-44.1-963.5,591.9-1819.7,1542-2072.5c233.7-61.3,647.4-68.9,904.1-15.3c643.6,132.2,1156.9,538.3,1436.6,1135.9c42.1,90,76.6,172.4,76.6,183.9c0,11.5,3.8,21.1,7.7,21.1c24.9,0,509.5-116.8,563.1-136c95.8-32.6,321.8-13.4,425.2,38.3c116.9,59.4,224.1,164.7,283.5,279.7c61.3,118.8,78.5,342.9,36.4,459.7l-26.8,76.6l710.7,1066.9c390.7,588.1,716.4,1068.8,722.1,1068.8c23,0,157.1-371.6,137.9-377.3c-65.1-23-340.9-224.1-459.7-339C6042,370.7,5823.7-136.9,5823.7-709.6c0-1013.3,724-1859.9,1729.7-2020.8c203-32.6,611-15.3,802.6,36.4c946.2,249,1586,1107.1,1541.9,2070.6c-42.1,898.4-657,1656.9-1536.2,1890.6c-168.6,44.1-227.9,49.8-498,51.7c-214.5,0-342.9-9.6-425.2-30.7l-118.8-28.7l-147.5,385c-80.4,212.6-206.9,503.8-279.7,651.3l-132.1,264.3l379.3-7.7c317.9-7.7,398.4-15.3,501.9-49.8c149.4-49.8,212.6-103.4,212.6-187.7c0-93.9-53.6-143.7-172.4-162.8c-130.3-21.1-195.4-67-218.4-159c-24.9-97.7,23-195.4,116.8-233.7c128.3-53.6,404.2,28.7,526.8,159c28.7,28.7,74.7,105.4,103.4,166.7c69,149.4,74.7,346.7,13.4,461.6c-97.7,183.9-327.5,329.5-607.2,383.1c-191.5,36.4-1208.7,42.1-1285.3,5.7c-57.5-26.8-105.4-105.4-105.4-178.1c0-26.8,65.1-178.1,145.6-337.1c78.5-160.9,137.9-296.9,128.3-304.6c-7.7-7.7-588-84.3-1289.1-170.5c-701-86.2-1300.6-160.9-1333.2-166.7l-59.4-11.5l-164.7,381.2c-91.9,208.8-166.7,385-166.7,394.6c0,7.7,120.7,13.4,270.1,13.4c218.4,0,279.7,5.7,323.7,32.6c111.1,65.1,130.2,222.2,40.2,314.1l-55.5,55.5h-419.5c-229.9,0-434.8,3.8-455.9,5.7C3168.8,2968.1,3048.2,2968.1,2921.7,2964.3z M6398.3,1665.6c0-23-1342.7-2020.8-1358.1-2020.8c-11.5,0-42.1,7.7-69,19.2c-26.8,9.6-93.9,23-149.4,26.8l-97.7,7.7l-367.8,840.9c-341,777.7-363.9,839-325.6,844.7c189.6,28.7,2256.4,287.3,2306.2,289.2C6369.6,1675.2,6398.3,1671.3,6398.3,1665.6z M3952.2,439.7c233.7-534.4,329.5-770,314.1-779.6c-13.4-7.6-46-15.3-72.8-15.3c-44.1,0-53.6,9.6-63.2,67c-65.1,344.8-291.2,752.8-570.8,1028.6c-82.4,82.4-149.4,153.2-149.4,157.1c0,15.3,197.3,319.9,203,314.1C3615.1,1207.8,3768.4,861.1,3952.2,439.7z M2519.5,872.6c84.3-21.1,189.6-53.7,233.7-74.7l82.4-36.4L2385.4,54.7c-498-781.5-501.9-791.1-396.5-904.1c38.3-42.1,84.3-63.2,166.6-80.4c298.8-61.3,1488.3-340.9,1499.8-352.4c7.7-7.7-30.6-97.7-82.4-199.2c-80.5-159-120.7-212.6-285.4-377.4c-356.3-354.4-762.4-511.4-1237.4-482.7c-229.9,15.3-386.9,55.6-590,149.4c-469.3,216.4-794.9,616.8-915.6,1122.5c-47.9,193.5-44.1,528.7,7.7,735.5C770.7,550.8,1638.4,1083.3,2519.5,872.6z M8246.7,870.7c812.2-193.5,1352.3-990.3,1227.8-1814c-84.3-559.3-423.3-1013.3-934.7-1248.9c-205-95.8-362-134.1-599.5-149.4c-473.1-26.8-919.4,153.2-1258.5,507.6c-319.9,335.2-476.9,758.5-450.1,1210.6c13.4,226,53.6,385,149.4,590c92,199.2,208.8,363.9,354.4,503.8c141.8,134.1,329.5,260.5,350.5,235.6c9.6-9.6,147.5-358.2,306.5-773.9c212.6-553.6,302.6-768.1,339-798.8c53.6-47.9,147.5-57.5,224.1-23c55.6,24.9,109.2,111.1,109.2,174.3c0,23-134.1,388.8-295,810.2c-162.8,421.4-289.2,771.9-283.5,779.6c26.8,26.8,281.6,51.7,444.4,42.1C8020.7,912.8,8162.4,891.7,8246.7,870.7z M3230.1,495.2c86.2-57.5,281.6-321.8,363.9-496.1c101.5-214.5,149.4-371.6,116.8-383.1c-44.1-13.4-1145.5-91.9-1155-80.4c-9.6,9.6,605.3,990.3,620.6,990.3C3178.4,525.9,3203.3,512.5,3230.1,495.2z"/></g></g>
</svg>