<svg version="1.1" xmlns="http://www.w3.org/2000/svg" xmlns:xlink="http://www.w3.org/1999/xlink" width="88" height="63" viewBox="0,0,256,183.26563"><g fill="#d12d35" fill-rule="nonzero" stroke="none" stroke-width="1" stroke-linecap="butt" stroke-linejoin="miter" stroke-miterlimit="10" stroke-dasharray="" stroke-dashoffset="0" font-family="none" font-weight="none" font-size="none" text-anchor="none" style="mix-blend-mode: normal"><g transform="translate(-0.17367,-0.06173) scale(2.90909,2.90909)"><path d="M19.1959,2.64v23.48c0.0267,0.6933 0.28,1.28 0.76,1.76c0.5067,0.48 1.1067,0.72 1.8,0.72h0.48l0.04,0.4h-12.16v-0.4h0.52c0.6667,0 1.24,-0.24 1.72,-0.72c0.5067,-0.48 0.7867,-1.0533 0.84,-1.72v-23.52h-5.39996c-1.22667,0.02666 -2.2,0.41333 -2.92,1.16c-0.72,0.74666 -1.08,1.72 -1.08,2.92v0.48h-0.4v-6.96c1.09333,0.45333 2.66666,0.69333 4.72,0.72h16.11996c0.8267,0 1.72,-0.08 2.68,-0.24c0.9867,-0.16 1.6667,-0.32 2.04,-0.48v6.96h-0.4v-0.48c0,-1.65333 -0.6266,-2.82667 -1.88,-3.52c-0.5866,-0.34667 -1.2933,-0.53334 -2.12,-0.56zM49.1366,28.6c0.6933,0 1.2266,-0.1733 1.6,-0.52c0.6133,-0.6133 0.9333,-1.2667 0.96,-1.96v-10.2h-12.96v10.16c0,0.6933 0.2533,1.2933 0.76,1.8c0.5066,0.48 1.1066,0.72 1.8,0.72h0.48l0.04,0.4h-12.16v-0.4h0.52c0.6933,0 1.28,-0.24 1.76,-0.72c0.5066,-0.5067 0.7733,-1.1067 0.8,-1.8v-22.16c-0.0267,-0.69334 -0.2934,-1.28 -0.8,-1.76c-0.48,-0.50667 -1.0667,-0.76 -1.76,-0.76h-0.52v-0.4h12.16l-0.04,0.4h-0.48c-0.6934,0 -1.2934,0.25333 -1.8,0.76c-0.5067,0.48 -0.76,1.06666 -0.76,1.76v10.28h12.96v-10.28c-0.0267,-0.69334 -0.2934,-1.28 -0.8,-1.76c-0.48,-0.50667 -1.0667,-0.76 -1.76,-0.76h-0.52v-0.4h12.16v0.4h-0.52c-0.6934,0 -1.2934,0.25333 -1.8,0.76c-0.5067,0.48 -0.76,1.06666 -0.76,1.76v22.16c0,0.6933 0.2533,1.2933 0.76,1.8c0.5066,0.48 1.1066,0.72 1.8,0.72h0.52v0.4h-12.16v-0.4zM63.1297,28.6c0.6933,0 1.28,-0.24 1.76,-0.72c0.5067,-0.5067 0.7733,-1.1067 0.8,-1.8v-22.28c-0.0533,-0.69333 -0.2533,-1.2 -0.6,-1.52c-0.64,-0.58667 -1.2933,-0.88 -1.96,-0.88h-0.52v-0.4h15.32c1.3067,0 2.3867,-0.09333 3.24,-0.28c0.8533,-0.21333 1.3733,-0.36 1.56,-0.44v7l-0.4,-0.04v-0.44c0,-1.65333 -0.6133,-2.82667 -1.84,-3.52c-0.5867,-0.34667 -1.28,-0.53333 -2.08,-0.56h-6.72v11.64h5.28c0.9867,-0.0267 1.8,-0.36 2.44,-1c0.64,-0.6667 0.96,-1.48 0.96,-2.44v-0.36h0.4v9.24h-0.4v-0.32c0,-0.9867 -0.32,-1.8 -0.96,-2.44c-0.6133,-0.64 -1.4,-0.9733 -2.36,-1h-5.36v11.24h5.24c1.9467,0 3.5733,-0.56 4.88,-1.68c1.3333,-1.12 2.32,-2.7067 2.96,-4.76h0.4l-1.84,8.16h-20.72v-0.4zM38.88,61.6h0.64v0.4h-12v-0.36h0.6c0.4533,-0.0267 0.84,-0.2133 1.16,-0.56c0.32,-0.3467 0.4533,-0.7333 0.4,-1.16l-1.56,-14.52l-7.52,12.96c-0.9867,1.6533 -1.4933,3.1333 -1.52,4.44h-0.4l-10.28,-17.28l-1.56,14.4c-0.05333,0.4267 0.08,0.8267 0.4,1.2c0.32,0.3467 0.70667,0.52 1.16,0.52h0.6v0.36h-8.36v-0.4h0.64c0.74667,0 1.38667,-0.2267 1.92,-0.68c0.56,-0.4533 0.89333,-1.0667 1,-1.84l3.32,-25.64h0.36l12.4,20.4l11.92,-20.4h0.36l3.4,25.64c0.1333,0.7733 0.4667,1.3867 1,1.84c0.56,0.4533 1.2,0.68 1.92,0.68zM39.825,61.6c0.6933,0 1.28,-0.24 1.76,-0.72c0.5067,-0.5067 0.7733,-1.1067 0.8,-1.8v-22.28c-0.0533,-0.6933 -0.2533,-1.2 -0.6,-1.52c-0.64,-0.5867 -1.2933,-0.88 -1.96,-0.88h-0.52v-0.4h15.32c1.3067,0 2.3867,-0.0933 3.24,-0.28c0.8533,-0.2133 1.3733,-0.36 1.56,-0.44v7l-0.4,-0.04v-0.44c0,-1.6533 -0.6133,-2.8267 -1.84,-3.52c-0.5867,-0.3467 -1.28,-0.5333 -2.08,-0.56h-6.72v11.64h5.28c0.9867,-0.0267 1.8,-0.36 2.44,-1c0.64,-0.6667 0.96,-1.48 0.96,-2.44v-0.36h0.4v9.24h-0.4v-0.32c0,-0.9867 -0.32,-1.8 -0.96,-2.44c-0.6133,-0.64 -1.4,-0.9733 -2.36,-1h-5.36v11.24h5.24c1.9467,0 3.5733,-0.56 4.88,-1.68c1.3333,-1.12 2.32,-2.7067 2.96,-4.76h0.4l-1.84,8.16h-20.72v-0.4zM77.7194,35.64v23.48c0.0266,0.6933 0.28,1.28 0.76,1.76c0.5066,0.48 1.1066,0.72 1.8,0.72h0.48l0.04,0.4h-12.16v-0.4h0.52c0.6666,0 1.24,-0.24 1.72,-0.72c0.5066,-0.48 0.7866,-1.0533 0.84,-1.72v-23.52h-5.4c-1.2267,0.0267 -2.2,0.4133 -2.92,1.16c-0.72,0.7467 -1.08,1.72 -1.08,2.92v0.48h-0.4v-6.96c1.0933,0.4533 2.6666,0.6933 4.72,0.72h16.12c0.8266,0 1.72,-0.08 2.68,-0.24c0.9866,-0.16 1.6666,-0.32 2.04,-0.48v6.96h-0.4v-0.48c0,-1.6533 -0.6267,-2.8267 -1.88,-3.52c-0.5867,-0.3467 -1.2934,-0.5333 -2.12,-0.56z"></path></g></g></svg>