<?xml version="1.0" encoding="utf-8"?>
<svg version="1.1" xmlns="http://www.w3.org/2000/svg" xmlns:xlink="http://www.w3.org/1999/xlink" x="0px" y="0px"
	 viewBox="0 0 128 128" style="enable-background:new 0 0 128 128;" xml:space="preserve">
<style type="text/css">
	.st0{fill:#C2C2C2;}
	.st1{fill:none;}
	.st2{fill:#1D1D1D;}
</style>
<g id="Layer_2">
	<path class="st0" d="M128,79.94c0,26.54-21.52,48.06-48.06,48.06c-5.26,0-10.52,0-15.79,0c-5.36,0-10.72,0-16.09,0
		C21.52,128,0,106.48,0,79.94V64.15V48.06C0,21.52,21.52,0,48.06,0h15.91h15.96C106.48,0,128,21.52,128,48.06v16.26V79.94z"/>
	<path class="st1" d="M64,133"/>
	<path class="st1" d="M64-13"/>
</g>
<g id="Layer_1">
	<path class="st2" d="M68.75,38.65v49.56H56.52V58.49L45.29,88.22h-9.87l-11.3-29.79v29.79H11.89V38.65h14.45l14.09,34.31
		l13.95-34.31H68.75z"/>
	<path class="st2" d="M106.34,62.8c2.91,0.61,5.24,2.05,7.01,4.31c1.76,2.21,2.65,4.75,2.65,7.63c0,4.14-1.48,7.44-4.44,9.88
		c-2.91,2.4-6.98,3.6-12.23,3.6H75.95V38.65h22.6c5.1,0,9.08,1.15,11.94,3.46c2.91,2.31,4.36,5.44,4.36,9.39
		c0,2.92-0.79,5.34-2.36,7.27C110.97,60.71,108.92,62.05,106.34,62.8z M88.18,58.7h8.01c2,0,3.53-0.42,4.58-1.27
		c1.1-0.89,1.64-2.19,1.64-3.88c0-1.69-0.55-2.99-1.64-3.88c-1.05-0.89-2.57-1.34-4.58-1.34h-8.01V58.7z M97.19,78.47
		c2.05,0,3.62-0.45,4.72-1.34c1.14-0.94,1.72-2.28,1.72-4.02s-0.6-3.11-1.79-4.09c-1.14-0.99-2.74-1.48-4.79-1.48h-8.87v10.94H97.19
		z"/>
	<g>
	</g>
	<g>
	</g>
	<g>
	</g>
	<g>
	</g>
	<g>
	</g>
	<g>
	</g>
	<g>
	</g>
	<g>
	</g>
	<g>
	</g>
	<g>
	</g>
	<g>
	</g>
	<g>
	</g>
	<g>
	</g>
	<g>
	</g>
	<g>
	</g>
</g>
</svg>
