<svg version="1.2" xmlns="http://www.w3.org/2000/svg" viewBox="0 0 48 48" width="48" height="48">
	<title>favicon-svg</title>
	<style>
		.s0 { fill: #e8eff9 } 
		.s1 { fill: none;stroke: #292929;stroke-width: 3 } 
	</style>
	<path id="Shape 1" class="s0" d="m24 48c-13.3 0-24-10.7-24-24 0-13.3 10.7-24 24-24 13.3 0 24 10.7 24 24 0 13.3-10.7 24-24 24z"/>
	<path id="Layer" class="s1" d="m8 28.5c0.3-2.5 1.3-7.7 2.6-7.7 1.4 0 2.3 4.7 2.7 7.7 0.4 3.1 1 5.4 2 5.4 1.1 0 1.9-3.6 2.2-5.4 0.7-5 2.1-17.5 4.1-17.5 1.6 0 2.8 10.3 3.4 17.5 0.5 5.3 1.1 9.6 2.5 9.5 1.4-0.1 2.4-5.6 3-9.5 0.4-2.8 1.1-5.5 2.3-5.5 1.2 0 2 3.7 2.3 5.5 0.2 0.9 0.7 2.9 1.5 2.9 0.9 0 1.2-1.5 1.3-2.9 0.1-1.1 0.5-1.8 1.1-1.8 0.6 0 1 1.4 1 1.8"/>
</svg>