<?xml version="1.0" encoding="utf-8"?>
<!-- Generator: Adobe Illustrator 24.2.3, SVG Export Plug-In . SVG Version: 6.00 Build 0)  -->
<svg version="1.1" baseProfile="tiny" id="Layer_1" xmlns="http://www.w3.org/2000/svg" xmlns:xlink="http://www.w3.org/1999/xlink"
	 x="0px" y="0px" viewBox="0 0 64 64" overflow="visible" xml:space="preserve">
<rect fill="#1D1D1D" width="64" height="64"/>
<g>
	<path fill="#FFFFFF" d="M40.6,17.3v29.4h-7.3V29.1l-6.7,17.6h-5.9L14.1,29v17.7H6.9V17.3h8.6l8.4,20.4l8.3-20.4H40.6z"/>
	<path fill="#FFFFFF" d="M51.4,31.6c1.7,0.4,3.1,1.2,4.2,2.6c1,1.3,1.6,2.8,1.6,4.5c0,2.5-0.9,4.4-2.6,5.9c-1.7,1.4-4.1,2.1-7.3,2.1
		H33.4V17.3h13.4c3,0,5.4,0.7,7.1,2.1c1.7,1.4,2.6,3.2,2.6,5.6c0,1.7-0.5,3.2-1.4,4.3C54.2,30.4,52.9,31.2,51.4,31.6z M40.6,29.2
		h4.8c1.2,0,2.1-0.3,2.7-0.8c0.7-0.5,1-1.3,1-2.3s-0.3-1.8-1-2.3c-0.6-0.5-1.5-0.8-2.7-0.8h-4.8V29.2z M46,40.9
		c1.2,0,2.2-0.3,2.8-0.8c0.7-0.6,1-1.4,1-2.4c0-1-0.4-1.8-1.1-2.4c-0.7-0.6-1.6-0.9-2.8-0.9h-5.3v6.5H46z"/>
</g>
</svg>
