<?xml version="1.0" encoding="utf-8"?>
<!-- Generator: Adobe Illustrator 25.3.1, SVG Export Plug-In . SVG Version: 6.00 Build 0)  -->
<svg version="1.1" xmlns="http://www.w3.org/2000/svg" xmlns:xlink="http://www.w3.org/1999/xlink" x="0px" y="0px"
	 viewBox="0 0 130 130" style="enable-background:new 0 0 130 130;" xml:space="preserve">
<style type="text/css">
	.st0{fill:#1D1D1D;}
	.st1{fill:#FFFFFF;}
</style>
<g id="Слой_2">
	<rect x="-3.8" y="-3" class="st0" width="136.8" height="136.8"/>
</g>
<g id="Слой_1">
	<path class="st1" d="M75.3,18.5v36.9h-9.1V33.3l-8.4,22.1h-7.3l-8.4-22.2v22.2H33V18.5h10.7l10.5,25.5l10.4-25.5H75.3z"/>
	<path class="st1" d="M111,26.1L92.3,69.3h-9.8l6.8-14.9L77.3,26.1h10.2l6.9,18.3l6.8-18.3H111z"/>
	<path class="st1" d="M34.1,88.4c2.2,0.5,3.9,1.5,5.2,3.2c1.3,1.6,2,3.5,2,5.7c0,3.1-1.1,5.5-3.3,7.4c-2.2,1.8-5.2,2.7-9.1,2.7H11.5
		V70.4h16.8c3.8,0,6.8,0.9,8.9,2.6c2.2,1.7,3.2,4,3.2,7c0,2.2-0.6,4-1.8,5.4C37.6,86.8,36,87.8,34.1,88.4z M20.6,85.3h6
		c1.5,0,2.6-0.3,3.4-0.9c0.8-0.7,1.2-1.6,1.2-2.9c0-1.3-0.4-2.2-1.2-2.9c-0.8-0.7-1.9-1-3.4-1h-6V85.3z M27.3,100
		c1.5,0,2.7-0.3,3.5-1c0.9-0.7,1.3-1.7,1.3-3s-0.4-2.3-1.3-3c-0.9-0.7-2-1.1-3.6-1.1h-6.6v8.1H27.3z"/>
	<path class="st1" d="M49.9,74.9c-1.6,0-2.9-0.5-3.9-1.4c-1-0.9-1.5-2.1-1.5-3.5c0-1.4,0.5-2.6,1.5-3.5c1-0.9,2.3-1.4,3.9-1.4
		c1.6,0,2.8,0.5,3.8,1.4c1,0.9,1.5,2.1,1.5,3.5c0,1.4-0.5,2.5-1.5,3.5C52.7,74.4,51.5,74.9,49.9,74.9z M54.4,78v29.3h-9.1V78H54.4z"
		/>
	<path class="st1" d="M81.4,107.3L68.9,91v16.3h-9.1V70.4h9.1v16.2l12.5-16.2H92L77.5,88.5l15,18.8H81.4z"/>
	<path class="st1" d="M104.7,77.6V85h12.2V92h-12.2v8.1h13.8v7.2H95.6V70.4h22.9v7.2H104.7z"/>
</g>
</svg>
