<?xml version="1.0" standalone="no"?>
<!DOCTYPE svg PUBLIC "-//W3C//DTD SVG 20010904//EN"
 "http://www.w3.org/TR/2001/REC-SVG-20010904/DTD/svg10.dtd">
<svg version="1.0" xmlns="http://www.w3.org/2000/svg"
 width="1280.000000pt" height="733.000000pt" viewBox="0 0 1280.000000 733.000000"
 preserveAspectRatio="xMidYMid meet">
<g transform="translate(0.000000,733.000000) scale(0.100000,-0.100000)"
fill="#000000" stroke="none">
<path d="M3166 7310 c-45 -23 -56 -35 -56 -68 0 -45 48 -77 150 -101 52 -12
145 -39 205 -58 99 -33 120 -37 215 -36 58 0 134 6 170 12 36 6 68 7 73 2 5
-5 123 -395 263 -867 188 -639 250 -861 242 -871 -6 -7 -18 -13 -27 -13 -10 0
-25 -6 -34 -12 -15 -12 -15 -18 -3 -58 13 -44 14 -45 55 -45 27 0 45 -5 51
-15 18 -33 59 -204 52 -217 -5 -7 -142 -158 -306 -334 -337 -361 -315 -347
-388 -264 -27 31 -52 48 -81 56 -26 7 -53 24 -72 46 -22 25 -45 39 -85 49 -30
8 -58 20 -62 28 -13 23 -69 53 -110 59 -21 3 -57 19 -80 36 -28 19 -59 31 -90
34 -27 3 -61 15 -79 28 -21 15 -51 24 -88 27 -31 2 -79 15 -109 29 -41 20 -61
24 -92 19 -29 -5 -49 -1 -73 11 -21 12 -57 18 -107 19 -41 1 -93 6 -115 12
-28 8 -52 8 -79 1 -28 -8 -51 -7 -88 2 -43 11 -56 11 -96 -3 -38 -14 -55 -15
-90 -6 -34 8 -51 7 -89 -6 -27 -10 -74 -17 -105 -16 -39 1 -69 -5 -97 -19 -26
-14 -60 -21 -93 -21 -40 0 -62 -6 -88 -24 -23 -15 -55 -25 -91 -28 -40 -3 -65
-12 -91 -31 -19 -15 -47 -27 -61 -27 -38 0 -76 -17 -114 -50 -19 -17 -45 -30
-59 -30 -36 0 -93 -29 -111 -56 -9 -14 -35 -29 -69 -39 -40 -11 -61 -25 -84
-54 -20 -24 -45 -42 -70 -50 -25 -7 -52 -27 -75 -54 -19 -23 -57 -53 -82 -67
-31 -16 -55 -39 -70 -64 -12 -22 -34 -46 -50 -54 -41 -21 -63 -43 -84 -83 -10
-21 -35 -47 -55 -60 -24 -14 -44 -39 -59 -71 -13 -27 -41 -65 -64 -84 -27 -24
-44 -49 -51 -76 -7 -24 -27 -55 -50 -77 -29 -28 -41 -48 -46 -80 -5 -29 -19
-57 -44 -86 -27 -31 -39 -56 -43 -90 -5 -32 -17 -58 -36 -81 -22 -24 -31 -48
-36 -89 -4 -32 -16 -66 -28 -81 -13 -18 -22 -46 -25 -83 -2 -31 -15 -79 -29
-109 -20 -40 -24 -61 -19 -91 4 -28 0 -52 -15 -86 -16 -37 -20 -59 -15 -96 5
-33 1 -64 -10 -99 -14 -43 -15 -57 -4 -95 11 -39 10 -51 -5 -91 -16 -44 -16
-47 3 -92 18 -41 19 -53 9 -90 -10 -36 -9 -51 6 -90 11 -27 18 -71 17 -104 -1
-40 5 -69 20 -98 12 -23 20 -56 19 -73 -4 -56 0 -73 25 -109 15 -23 25 -54 28
-91 3 -40 12 -65 31 -91 15 -19 27 -46 27 -61 0 -36 22 -86 54 -120 14 -15 26
-39 26 -52 0 -35 29 -92 56 -110 14 -9 29 -35 39 -69 11 -40 25 -61 54 -84 24
-20 42 -45 50 -70 7 -25 27 -52 54 -75 23 -19 53 -57 67 -82 16 -31 39 -55 64
-70 22 -12 46 -34 54 -50 21 -41 43 -63 83 -84 21 -10 47 -35 60 -55 14 -24
39 -44 71 -59 27 -13 65 -41 84 -64 24 -27 49 -44 77 -52 27 -7 55 -25 78 -50
26 -28 46 -40 78 -45 29 -5 57 -19 86 -44 31 -27 55 -39 91 -44 31 -4 57 -15
74 -31 17 -17 49 -30 91 -39 35 -7 80 -23 99 -35 22 -13 52 -21 80 -21 29 0
63 -9 95 -26 40 -20 59 -24 94 -20 34 5 55 1 88 -15 36 -17 54 -20 95 -15 35
5 65 2 100 -10 42 -14 56 -14 94 -4 38 11 51 10 90 -5 43 -16 47 -16 92 3 40
18 54 19 94 10 39 -9 55 -8 95 7 29 11 69 18 103 16 39 -1 66 4 91 18 24 13
54 20 87 19 37 -1 61 5 95 25 31 18 60 27 90 27 33 0 54 7 85 30 25 18 54 30
72 30 36 0 97 29 124 59 11 12 30 21 43 21 37 0 87 25 110 54 13 16 42 33 72
42 35 10 60 26 84 54 19 22 40 40 47 40 25 0 87 42 104 71 10 16 39 40 66 54
45 23 90 70 90 94 0 6 15 17 33 24 36 15 97 80 97 102 0 8 18 26 40 40 43 27
65 55 75 97 4 15 18 34 31 42 39 26 62 57 78 103 9 25 27 54 41 65 29 23 55
68 55 96 0 10 15 35 34 54 25 25 37 51 47 94 7 32 26 78 42 100 19 27 31 59
35 90 3 27 16 66 30 86 18 27 25 54 27 92 1 30 9 65 18 79 8 13 20 40 24 58
12 44 43 50 77 16 17 -17 23 -32 19 -46 -4 -15 2 -30 17 -46 12 -13 20 -30 17
-38 -3 -8 5 -25 19 -38 13 -12 24 -32 24 -44 0 -14 10 -26 25 -33 15 -7 25
-20 25 -32 0 -13 10 -24 25 -30 14 -5 29 -20 34 -34 5 -13 21 -26 35 -30 14
-3 30 -15 36 -26 6 -11 19 -20 30 -20 11 0 30 -12 44 -26 14 -16 30 -24 39
-21 9 3 27 -3 41 -14 16 -13 33 -18 45 -14 13 4 26 -2 39 -16 16 -16 27 -19
50 -14 17 3 33 2 36 -4 10 -15 212 2 230 20 6 5 21 9 34 9 13 0 36 6 50 14 15
8 38 19 52 25 87 40 240 159 240 188 0 5 11 19 25 31 14 12 25 30 25 40 0 11
9 27 20 37 11 10 20 28 20 40 0 13 6 28 14 35 8 6 16 26 18 43 4 41 29 50 209
73 103 13 177 15 319 11 203 -6 230 -1 268 48 28 35 28 65 1 99 -37 48 -67 56
-201 56 -240 1 -545 36 -580 68 -10 8 -18 24 -18 34 0 10 -9 36 -20 58 -11 22
-20 46 -20 53 0 8 -6 20 -14 26 -8 7 -24 31 -35 53 -16 33 -18 44 -8 58 7 9
506 622 1109 1362 l1098 1346 122 93 c174 134 158 124 173 108 7 -8 27 -60 44
-115 17 -56 37 -106 44 -112 6 -5 57 -20 112 -32 55 -13 107 -26 115 -31 9 -4
38 -49 65 -100 27 -51 60 -104 74 -117 24 -23 161 -355 161 -390 -1 -30 -26
-52 -78 -67 -36 -11 -61 -27 -85 -55 -19 -22 -40 -40 -47 -40 -24 0 -87 -42
-104 -70 -9 -16 -40 -42 -69 -57 -34 -19 -59 -41 -73 -67 -12 -21 -35 -44 -51
-51 -32 -14 -93 -79 -93 -99 0 -8 -22 -30 -49 -50 -37 -26 -53 -45 -62 -75 -7
-23 -22 -48 -35 -56 -39 -25 -62 -56 -78 -102 -9 -25 -27 -54 -41 -65 -31 -24
-55 -68 -55 -101 0 -14 -15 -39 -34 -59 -30 -31 -56 -88 -56 -125 0 -7 -14
-32 -31 -57 -20 -28 -33 -60 -37 -92 -3 -27 -16 -66 -30 -86 -17 -27 -25 -54
-27 -90 -1 -32 -11 -70 -25 -96 -17 -33 -21 -53 -17 -90 4 -35 0 -57 -15 -86
-16 -32 -19 -51 -15 -95 5 -40 2 -69 -10 -99 -13 -36 -14 -51 -5 -93 9 -38 9
-60 0 -94 -9 -35 -9 -55 0 -90 7 -26 9 -69 6 -103 -5 -43 -2 -66 10 -89 10
-21 15 -53 14 -96 -2 -48 2 -71 17 -93 12 -19 19 -48 20 -89 1 -47 7 -69 24
-94 15 -21 25 -51 27 -82 4 -52 15 -81 44 -114 10 -11 20 -41 23 -68 3 -34 14
-60 41 -94 20 -25 36 -57 36 -70 0 -32 24 -77 54 -100 13 -11 30 -39 36 -63 8
-28 27 -60 56 -89 24 -24 44 -48 44 -54 0 -26 36 -79 66 -98 21 -12 44 -40 57
-67 13 -28 36 -56 57 -69 43 -28 45 -30 73 -73 12 -19 38 -44 57 -56 39 -25
65 -49 98 -93 12 -16 39 -35 60 -42 21 -7 53 -31 75 -56 28 -31 51 -46 82 -54
28 -7 50 -20 60 -36 21 -32 74 -63 107 -63 18 0 37 -10 54 -29 27 -31 57 -46
111 -55 17 -3 51 -19 75 -35 28 -20 59 -32 90 -35 28 -3 61 -14 80 -27 20 -15
50 -24 87 -27 31 -2 79 -15 109 -29 40 -20 61 -24 91 -19 28 4 52 0 86 -15 38
-17 59 -20 97 -15 36 5 62 2 94 -10 39 -15 52 -15 98 -4 47 11 58 11 86 -4 42
-20 48 -20 101 3 38 17 50 18 87 8 36 -10 50 -9 90 6 27 11 71 18 104 17 40
-1 69 5 99 20 27 14 52 20 69 16 34 -6 90 9 121 33 14 11 47 20 80 23 40 3 65
12 91 31 19 15 47 27 62 27 37 0 87 22 121 54 15 14 39 26 52 26 35 0 92 29
110 56 9 14 35 29 69 39 40 11 61 25 84 54 20 24 45 42 70 50 24 7 52 27 75
53 19 23 56 53 82 67 31 17 55 40 69 65 13 22 35 46 51 54 41 21 63 43 84 83
10 21 35 47 55 60 24 14 44 39 59 71 13 27 41 65 64 84 27 24 44 49 51 76 7
24 27 55 50 77 29 28 41 48 46 80 4 25 18 54 32 70 38 40 49 62 56 110 4 28
18 57 36 77 21 24 30 48 35 89 4 32 16 66 28 81 13 18 22 46 25 83 2 31 15 79
29 109 20 40 24 61 19 91 -4 28 0 52 15 86 16 37 20 59 15 96 -5 33 -1 64 10
99 14 43 15 57 4 95 -11 39 -10 51 5 91 16 44 16 47 -3 92 -18 41 -19 53 -9
90 10 36 9 51 -6 90 -11 27 -18 71 -17 104 1 40 -5 69 -20 98 -12 23 -20 56
-19 73 4 56 0 73 -25 109 -15 23 -25 54 -28 91 -3 40 -12 65 -31 91 -15 19
-27 46 -27 61 0 36 -22 86 -54 120 -14 15 -26 39 -26 52 0 35 -29 92 -56 110
-14 9 -29 35 -39 69 -11 40 -25 61 -54 84 -24 20 -42 45 -50 70 -7 25 -27 52
-54 75 -23 19 -53 57 -67 82 -16 31 -39 55 -64 70 -22 12 -46 34 -54 50 -21
41 -43 63 -83 84 -21 10 -47 35 -60 55 -14 24 -39 44 -71 59 -27 13 -65 41
-84 64 -24 27 -49 44 -77 52 -25 7 -56 26 -79 50 -27 28 -49 41 -79 45 -27 5
-56 20 -84 44 -31 27 -55 39 -91 44 -31 4 -57 15 -74 31 -24 22 -105 49 -121
39 -4 -2 -29 9 -55 26 -35 22 -60 30 -93 30 -30 0 -64 9 -96 26 -40 20 -59 24
-95 20 -35 -5 -55 -1 -85 15 -32 16 -51 19 -95 15 -35 -4 -72 -1 -104 9 -38
12 -57 12 -92 4 -31 -8 -52 -8 -75 0 -43 15 -80 14 -120 -3 -27 -11 -44 -12
-81 -4 -39 9 -55 8 -95 -7 -29 -11 -69 -18 -103 -16 -39 1 -66 -4 -92 -19 -25
-13 -57 -20 -90 -20 -39 0 -64 -7 -93 -25 -27 -16 -55 -24 -86 -25 -35 0 -56
-7 -88 -30 -23 -17 -46 -28 -51 -25 -15 9 -150 361 -150 392 0 17 -24 97 -54
179 l-53 149 -110 5 -109 5 -33 38 c-26 29 -68 128 -192 458 -88 232 -175 447
-194 478 -21 34 -36 72 -38 95 l-2 38 194 90 c185 87 195 90 220 76 17 -10 35
-12 51 -7 41 12 45 11 113 -41 60 -45 72 -50 134 -56 l68 -6 43 44 c23 24 44
55 47 67 6 33 7 33 56 16 35 -13 48 -13 67 -4 30 17 115 -10 200 -62 35 -21
65 -39 67 -39 2 0 13 14 25 31 l22 30 -23 25 c-35 38 -108 80 -171 100 -46 14
-59 23 -67 46 -5 15 -24 48 -41 73 l-31 46 29 34 c43 48 50 103 21 161 -16 35
-32 51 -63 65 -74 34 -81 32 -268 -88 -84 -53 -199 -109 -451 -218 -323 -141
-338 -147 -357 -130 -15 13 -28 15 -62 10 -52 -8 -144 -50 -151 -69 -3 -8 19
-92 49 -187 47 -146 56 -189 59 -264 2 -49 5 -103 7 -119 l3 -30 -295 -73
c-162 -40 -967 -240 -1788 -444 -821 -204 -1499 -369 -1507 -366 -15 6 -31 69
-21 86 3 5 29 17 56 26 l50 17 0 54 c0 61 -1 62 -76 39 -75 -23 -91 -20 -103
18 -5 17 -117 398 -247 846 -181 622 -233 815 -224 821 21 13 284 23 486 17
138 -3 217 -10 292 -26 157 -32 201 -27 188 22 -14 56 -134 99 -333 121 -102
12 -242 16 -492 16 -281 0 -388 4 -543 20 -106 11 -200 23 -208 25 -26 8 -283
35 -330 35 -25 -1 -63 -10 -84 -20z m4980 -1625 c-3 -9 -542 -675 -1198 -1481
l-1193 -1466 -35 6 c-19 3 -60 10 -90 16 -30 6 -63 11 -72 11 -10 0 -29 0 -43
0 -14 0 -31 0 -37 1 -7 1 -23 -2 -35 -6 -18 -6 -25 -1 -36 21 -26 53 -570
2074 -561 2083 5 5 531 141 1169 301 638 160 1369 345 1625 409 256 65 476
119 489 119 17 1 22 -3 17 -14z m-3280 -1904 c151 -536 274 -986 274 -1001 0
-14 7 -35 15 -46 19 -25 20 -74 0 -74 -8 0 -22 -11 -31 -25 -9 -14 -26 -28
-38 -31 -12 -3 -29 -18 -38 -34 -9 -17 -24 -30 -31 -30 -8 0 -18 -11 -21 -25
-4 -14 -17 -32 -31 -41 -15 -10 -25 -26 -25 -40 0 -13 -9 -28 -20 -34 -13 -7
-20 -21 -20 -39 0 -16 -6 -34 -14 -41 -8 -6 -16 -26 -18 -43 -2 -20 -9 -33
-19 -35 -13 -2 -18 10 -24 55 -4 32 -7 74 -5 93 1 19 1 58 1 85 -1 28 -1 85
-1 127 0 43 -6 97 -14 120 -8 24 -14 66 -13 94 0 35 -5 61 -18 80 -12 19 -19
49 -20 89 -1 47 -7 69 -24 94 -15 21 -25 51 -27 82 -4 51 -22 97 -48 118 -9 8
-16 29 -16 48 0 42 -23 93 -56 124 -14 14 -24 34 -24 51 0 37 -23 81 -54 105
-13 11 -30 39 -36 63 -8 29 -27 59 -55 87 -24 23 -46 55 -50 70 -7 33 -29 60
-72 91 -17 12 -37 38 -43 57 -12 35 -55 79 -89 90 -11 3 -23 15 -27 27 -3 11
-24 40 -46 64 l-40 43 24 29 c75 93 495 532 507 530 9 -2 102 -319 287 -977z
m-2301 519 c247 -20 481 -86 700 -196 137 -68 280 -161 280 -182 0 -15 -984
-1072 -998 -1072 -6 0 -18 7 -28 16 -14 12 -22 13 -39 4 -17 -9 -26 -8 -44 4
-21 13 -26 13 -46 -1 -17 -12 -27 -13 -45 -5 -19 9 -26 7 -41 -9 -13 -14 -25
-18 -44 -14 -22 5 -31 1 -44 -20 -12 -18 -23 -24 -36 -20 -14 4 -23 -2 -34
-24 -9 -17 -25 -31 -38 -33 -14 -2 -24 -12 -28 -28 -3 -14 -16 -29 -28 -35
-15 -7 -22 -18 -22 -37 0 -17 -8 -31 -20 -38 -13 -7 -20 -21 -20 -42 0 -17 -7
-39 -16 -49 -12 -13 -13 -22 -5 -38 8 -14 8 -27 -1 -46 -9 -21 -9 -31 0 -46 7
-11 9 -31 6 -45 -4 -16 -1 -31 10 -43 11 -12 15 -27 11 -43 -5 -19 -1 -28 19
-42 16 -10 26 -26 26 -40 0 -14 9 -27 24 -34 14 -6 26 -21 28 -34 2 -14 12
-24 28 -28 14 -3 29 -15 35 -27 5 -13 20 -23 35 -25 28 -3 27 -1 14 -135 -7
-72 -7 -73 20 -83 55 -21 433 -3 462 21 22 18 39 -3 25 -29 -7 -14 -8 -23 -1
-27 5 -3 10 -18 10 -32 0 -15 7 -35 16 -45 16 -17 15 -20 -20 -52 -80 -76
-388 -243 -428 -233 -29 8 -85 -11 -123 -41 -24 -19 -37 -23 -67 -18 -25 4
-38 2 -38 -5 0 -6 21 -51 46 -100 38 -74 54 -94 89 -115 48 -28 165 -56 179
-43 5 4 10 40 12 80 2 39 8 77 14 84 8 10 8 19 -1 33 -24 38 -5 65 73 100 65
29 190 105 388 234 36 24 79 58 95 77 26 30 30 41 29 93 -1 53 -4 62 -34 93
-19 19 -39 35 -44 35 -6 0 -34 16 -61 36 -28 20 -72 47 -98 60 -38 20 -48 29
-45 47 2 16 11 23 31 25 21 3 27 9 27 27 0 17 9 29 30 40 25 13 29 20 24 39
-12 50 -3 50 608 -15 315 -33 583 -62 595 -64 12 -3 29 -21 40 -42 23 -47 67
-73 138 -80 49 -5 55 -8 55 -29 0 -44 -71 -239 -135 -369 -63 -128 -179 -315
-196 -315 -5 0 -21 -19 -35 -43 -32 -52 -175 -199 -269 -276 -103 -85 -245
-176 -370 -237 -707 -343 -1549 -213 -2120 328 -697 660 -787 1735 -210 2502
320 426 819 701 1351 745 142 12 165 12 299 1z m8125 -21 c715 -118 1302 -642
1505 -1344 51 -176 67 -303 67 -515 0 -154 -4 -219 -20 -310 -72 -400 -241
-727 -522 -1011 -133 -134 -235 -215 -385 -305 -442 -263 -1001 -330 -1502
-178 -308 93 -546 238 -783 474 -289 289 -458 612 -532 1020 -29 163 -29 457
0 620 53 294 160 550 330 790 129 183 490 511 527 480 7 -6 173 -412 369 -903
196 -491 360 -897 364 -904 6 -9 32 -3 102 22 67 25 113 35 155 35 65 1 101
16 157 65 33 30 34 32 28 95 -10 119 -74 182 -179 178 -44 -1 -57 2 -67 18
-24 37 -595 1556 -590 1569 7 18 174 70 310 96 223 43 437 45 666 8z m-6904
-561 c191 -199 337 -439 424 -698 35 -104 73 -267 66 -279 -3 -4 1 -29 9 -55
17 -54 31 -315 21 -369 -6 -35 -9 -37 -44 -37 -39 0 -1287 126 -1337 135 -41
8 -71 49 -57 80 9 19 7 26 -9 41 -14 13 -18 25 -14 45 5 22 2 30 -15 39 -17 9
-20 18 -16 36 6 21 2 27 -29 40 -20 8 -35 21 -35 31 0 9 -8 25 -17 35 -16 18
-14 21 39 76 30 31 243 260 474 507 407 438 432 465 445 465 3 0 46 -42 95
-92z"/>
</g>
</svg>
