<svg width="9" height="9" viewBox="0 0 9 9" fill="none" xmlns="http://www.w3.org/2000/svg">
<path d="M0.416992 4.33496C0.416992 3.2002 0.772461 2.26823 1.4834 1.53906C2.19434 0.809896 3.12402 0.445312 4.27246 0.445312C5.40723 0.445312 6.32552 0.809896 7.02734 1.53906C7.72917 2.26823 8.08008 3.2002 8.08008 4.33496C8.08008 5.07324 7.92285 5.73861 7.6084 6.33105C7.2985 6.91895 6.85189 7.38151 6.26855 7.71875C5.68978 8.05599 5.02441 8.22461 4.27246 8.22461C3.51139 8.22461 2.83691 8.05599 2.24902 7.71875C1.66113 7.38151 1.20768 6.91895 0.888672 6.33105C0.574219 5.73861 0.416992 5.07324 0.416992 4.33496ZM2.24219 2.25684C1.72721 2.80371 1.46973 3.49642 1.46973 4.33496C1.46973 5.1735 1.72721 5.86621 2.24219 6.41309C2.75716 6.95996 3.43392 7.2334 4.27246 7.2334C5.10189 7.2334 5.76725 6.96224 6.26855 6.41992C6.77441 5.87305 7.02734 5.17806 7.02734 4.33496C7.02734 3.49186 6.77441 2.79915 6.26855 2.25684C5.76725 1.70996 5.10189 1.43652 4.27246 1.43652C3.43392 1.43652 2.75716 1.70996 2.24219 2.25684ZM2.26953 4.33496C2.26953 3.74251 2.45866 3.25944 2.83691 2.88574C3.21517 2.50749 3.70736 2.31836 4.31348 2.31836C5.30697 2.31836 5.9222 2.81283 6.15918 3.80176H4.8877C4.83301 3.66048 4.76237 3.56022 4.67578 3.50098C4.58919 3.44173 4.46842 3.41211 4.31348 3.41211C4.05827 3.41211 3.85775 3.49642 3.71191 3.66504C3.57064 3.83366 3.5 4.05697 3.5 4.33496C3.5 4.62207 3.57064 4.85221 3.71191 5.02539C3.85775 5.19857 4.05827 5.28516 4.31348 5.28516C4.64616 5.28516 4.86491 5.13249 4.96973 4.82715H6.18652C5.97233 5.86165 5.34798 6.37891 4.31348 6.37891C3.70736 6.37891 3.21517 6.1875 2.83691 5.80469C2.45866 5.42188 2.26953 4.93197 2.26953 4.33496Z" fill="white"/>
</svg>
