<svg width="253" height="154" viewBox="0 0 253 154" fill="none" xmlns="http://www.w3.org/2000/svg">
<g filter="url(#filter0_d_8590_532)">
<path d="M93.64 55.592H100.072V56.504H93.64V55.592ZM96.392 59.256V52.824H97.304V59.256H96.392ZM106.319 61V60.84H105.983C105.748 60.84 105.54 60.76 105.359 60.6C105.188 60.4293 105.103 60.2267 105.103 59.992V49.576H104.943C104.708 49.7467 104.431 49.896 104.111 50.024C103.791 50.1413 103.46 50.2427 103.119 50.328C102.788 50.4027 102.468 50.4613 102.159 50.504C101.85 50.5467 101.588 50.5787 101.375 50.6V50.76H101.791C102.079 50.76 102.303 50.8347 102.463 50.984C102.634 51.1333 102.719 51.384 102.719 51.736V59.976C102.719 60.2107 102.634 60.4133 102.463 60.584C102.292 60.7547 102.084 60.84 101.839 60.84H101.503L101.487 61H106.319ZM112.504 53.208L111.736 50.744C112.014 50.4987 112.35 50.2907 112.744 50.12C113.15 49.9493 113.582 49.816 114.04 49.72C114.51 49.624 114.968 49.576 115.416 49.576C116.216 49.576 116.931 49.7093 117.56 49.976C118.19 50.232 118.68 50.6 119.032 51.08C119.384 51.5493 119.56 52.1253 119.56 52.808C119.56 53.3307 119.448 53.8427 119.224 54.344C119 54.8347 118.702 55.304 118.328 55.752C117.966 56.1893 117.571 56.6053 117.144 57C116.718 57.3947 116.296 57.752 115.88 58.072C115.475 58.392 115.112 58.68 114.792 58.936H118.072C118.392 58.936 118.67 58.8827 118.904 58.776C119.15 58.6693 119.368 58.504 119.56 58.28C119.763 58.0453 119.955 57.7467 120.136 57.384H120.296L119.352 61H111.704V60.84C112.131 60.36 112.584 59.8533 113.064 59.32C113.544 58.776 114.014 58.2213 114.472 57.656C114.942 57.0907 115.368 56.52 115.752 55.944C116.136 55.368 116.44 54.8027 116.664 54.248C116.888 53.6827 117 53.144 117 52.632C117 51.8747 116.808 51.2773 116.424 50.84C116.04 50.4027 115.518 50.2053 114.856 50.248C114.152 50.2907 113.608 50.5627 113.224 51.064C112.851 51.5547 112.664 52.2693 112.664 53.208H112.504ZM126.475 61V60.84H126.139C125.905 60.84 125.697 60.76 125.515 60.6C125.345 60.4293 125.259 60.2267 125.259 59.992V49.576H125.099C124.865 49.7467 124.587 49.896 124.267 50.024C123.947 50.1413 123.617 50.2427 123.275 50.328C122.945 50.4027 122.625 50.4613 122.315 50.504C122.006 50.5467 121.745 50.5787 121.531 50.6V50.76H121.947C122.235 50.76 122.459 50.8347 122.619 50.984C122.79 51.1333 122.875 51.384 122.875 51.736V59.976C122.875 60.2107 122.79 60.4133 122.619 60.584C122.449 60.7547 122.241 60.84 121.995 60.84H121.659L121.643 61H126.475ZM128.661 53.208L127.893 50.744C128.17 50.4987 128.506 50.2907 128.901 50.12C129.306 49.9493 129.738 49.816 130.197 49.72C130.666 49.624 131.125 49.576 131.573 49.576C132.373 49.576 133.087 49.7093 133.717 49.976C134.346 50.232 134.837 50.6 135.189 51.08C135.541 51.5493 135.717 52.1253 135.717 52.808C135.717 53.3307 135.605 53.8427 135.381 54.344C135.157 54.8347 134.858 55.304 134.485 55.752C134.122 56.1893 133.727 56.6053 133.301 57C132.874 57.3947 132.453 57.752 132.037 58.072C131.631 58.392 131.269 58.68 130.949 58.936H134.229C134.549 58.936 134.826 58.8827 135.061 58.776C135.306 58.6693 135.525 58.504 135.717 58.28C135.919 58.0453 136.111 57.7467 136.293 57.384H136.453L135.509 61H127.861V60.84C128.287 60.36 128.741 59.8533 129.221 59.32C129.701 58.776 130.17 58.2213 130.629 57.656C131.098 57.0907 131.525 56.52 131.909 55.944C132.293 55.368 132.597 54.8027 132.821 54.248C133.045 53.6827 133.157 53.144 133.157 52.632C133.157 51.8747 132.965 51.2773 132.581 50.84C132.197 50.4027 131.674 50.2053 131.013 50.248C130.309 50.2907 129.765 50.5627 129.381 51.064C129.007 51.5547 128.821 52.2693 128.821 53.208H128.661ZM137.796 55.8H142.596L142.724 56.328L142.596 56.872H137.796L137.668 56.328L137.796 55.8ZM150.322 51.912L145.858 52.248L145.394 54.04C146.28 53.8267 147.08 53.7627 147.794 53.848C148.52 53.9227 149.138 54.12 149.65 54.44C150.162 54.76 150.546 55.1813 150.802 55.704C151.069 56.2267 151.186 56.8293 151.154 57.512C151.122 58.3013 150.914 58.9787 150.53 59.544C150.157 60.1093 149.677 60.568 149.09 60.92C148.514 61.272 147.89 61.5227 147.218 61.672C146.557 61.832 145.912 61.8907 145.282 61.848C144.664 61.816 144.12 61.6987 143.65 61.496L143.682 61.336C143.949 61.3467 144.28 61.3093 144.674 61.224C145.08 61.1493 145.496 61.0213 145.922 60.84C146.36 60.6587 146.77 60.4293 147.154 60.152C147.538 59.864 147.858 59.5227 148.114 59.128C148.37 58.7227 148.514 58.264 148.546 57.752C148.6 57.0907 148.434 56.568 148.05 56.184C147.666 55.8 147.138 55.576 146.466 55.512C145.805 55.448 145.058 55.576 144.226 55.896L144.082 55.816L145.378 50.376L149.522 50.04C149.864 50.04 150.13 49.9653 150.322 49.816C150.514 49.6667 150.669 49.4747 150.786 49.24H150.946L150.322 51.912ZM155.939 49.608C156.707 49.5973 157.363 49.6987 157.907 49.912C158.462 50.1253 158.889 50.4293 159.187 50.824C159.486 51.208 159.635 51.672 159.635 52.216C159.635 52.6427 159.55 53.0213 159.379 53.352C159.209 53.6827 158.979 53.96 158.691 54.184C158.414 54.3973 158.11 54.5467 157.779 54.632C157.449 54.7067 157.134 54.7013 156.835 54.616C157.166 54.616 157.513 54.6747 157.875 54.792C158.249 54.8987 158.601 55.0747 158.931 55.32C159.262 55.5547 159.529 55.8693 159.731 56.264C159.934 56.6587 160.035 57.1387 160.035 57.704C160.035 58.3547 159.891 58.9413 159.603 59.464C159.315 59.9867 158.921 60.4293 158.419 60.792C157.918 61.1547 157.347 61.4267 156.707 61.608C156.067 61.8 155.395 61.8907 154.691 61.88C153.987 61.8693 153.294 61.7467 152.611 61.512L152.643 61.352C153.294 61.3627 153.907 61.2773 154.483 61.096C155.07 60.9253 155.587 60.6747 156.035 60.344C156.483 60.0027 156.835 59.592 157.091 59.112C157.347 58.632 157.475 58.104 157.475 57.528C157.475 56.888 157.326 56.376 157.027 55.992C156.739 55.5973 156.361 55.3093 155.891 55.128C155.422 54.9467 154.921 54.856 154.387 54.856L154.419 54.696C154.91 54.7067 155.369 54.6 155.795 54.376C156.233 54.1413 156.579 53.816 156.835 53.4C157.102 52.984 157.209 52.504 157.155 51.96C157.134 51.5973 157.038 51.288 156.867 51.032C156.697 50.776 156.467 50.584 156.179 50.456C155.902 50.3173 155.577 50.2587 155.203 50.28C154.553 50.312 154.073 50.5627 153.763 51.032C153.465 51.4907 153.326 52.152 153.347 53.016H153.187L152.531 50.744C152.883 50.424 153.342 50.1573 153.907 49.944C154.483 49.7307 155.161 49.6187 155.939 49.608ZM167.963 51.912L163.499 52.248L163.035 54.04C163.92 53.8267 164.72 53.7627 165.435 53.848C166.16 53.9227 166.779 54.12 167.291 54.44C167.803 54.76 168.187 55.1813 168.443 55.704C168.71 56.2267 168.827 56.8293 168.795 57.512C168.763 58.3013 168.555 58.9787 168.171 59.544C167.798 60.1093 167.318 60.568 166.731 60.92C166.155 61.272 165.531 61.5227 164.859 61.672C164.198 61.832 163.552 61.8907 162.923 61.848C162.304 61.816 161.76 61.6987 161.291 61.496L161.323 61.336C161.59 61.3467 161.92 61.3093 162.315 61.224C162.72 61.1493 163.136 61.0213 163.563 60.84C164 60.6587 164.411 60.4293 164.795 60.152C165.179 59.864 165.499 59.5227 165.755 59.128C166.011 58.7227 166.155 58.264 166.187 57.752C166.24 57.0907 166.075 56.568 165.691 56.184C165.307 55.8 164.779 55.576 164.107 55.512C163.446 55.448 162.699 55.576 161.867 55.896L161.723 55.816L163.019 50.376L167.163 50.04C167.504 50.04 167.771 49.9653 167.963 49.816C168.155 49.6667 168.31 49.4747 168.427 49.24H168.587L167.963 51.912ZM170.374 55.8H175.174L175.302 56.328L175.174 56.872H170.374L170.246 56.328L170.374 55.8ZM175.022 52.808H175.182C175.299 52.488 175.449 52.248 175.63 52.088C175.811 51.928 176.062 51.848 176.382 51.848H181.262L180.206 54.376C180.067 54.6853 179.891 55.064 179.678 55.512C179.475 55.9493 179.251 56.4187 179.006 56.92C178.761 57.4213 178.51 57.9227 178.254 58.424C178.009 58.9253 177.769 59.4 177.534 59.848C177.31 60.296 177.113 60.68 176.942 61H179.038C179.113 60.6907 179.219 60.312 179.358 59.864C179.497 59.416 179.646 58.9413 179.806 58.44C179.977 57.9387 180.147 57.4373 180.318 56.936C180.489 56.4347 180.649 55.976 180.798 55.56C180.958 55.1333 181.097 54.7813 181.214 54.504L183.134 49.8L175.47 49.832L175.022 52.808ZM183.741 52.808H183.901C184.018 52.488 184.167 52.248 184.349 52.088C184.53 51.928 184.781 51.848 185.101 51.848H189.981L188.925 54.376C188.786 54.6853 188.61 55.064 188.397 55.512C188.194 55.9493 187.97 56.4187 187.725 56.92C187.479 57.4213 187.229 57.9227 186.973 58.424C186.727 58.9253 186.487 59.4 186.253 59.848C186.029 60.296 185.831 60.68 185.661 61H187.757C187.831 60.6907 187.938 60.312 188.077 59.864C188.215 59.416 188.365 58.9413 188.525 58.44C188.695 57.9387 188.866 57.4373 189.037 56.936C189.207 56.4347 189.367 55.976 189.517 55.56C189.677 55.1333 189.815 54.7813 189.933 54.504L191.853 49.8L184.189 49.832L183.741 52.808ZM197.804 61V60.84H197.468C197.233 60.84 197.025 60.76 196.844 60.6C196.673 60.4293 196.588 60.2267 196.588 59.992V49.576H196.428C196.193 49.7467 195.916 49.896 195.596 50.024C195.276 50.1413 194.945 50.2427 194.604 50.328C194.273 50.4027 193.953 50.4613 193.644 50.504C193.334 50.5467 193.073 50.5787 192.86 50.6V50.76H193.276C193.564 50.76 193.788 50.8347 193.948 50.984C194.118 51.1333 194.204 51.384 194.204 51.736V59.976C194.204 60.2107 194.118 60.4133 193.948 60.584C193.777 60.7547 193.569 60.84 193.324 60.84H192.988L192.972 61H197.804ZM203.701 49.576C204.639 49.576 205.439 49.816 206.101 50.296C206.773 50.776 207.285 51.4533 207.637 52.328C207.999 53.192 208.181 54.216 208.181 55.4C208.181 56.584 207.999 57.6133 207.637 58.488C207.285 59.352 206.773 60.024 206.101 60.504C205.439 60.984 204.639 61.224 203.701 61.224C202.762 61.224 201.957 60.984 201.285 60.504C200.613 60.024 200.095 59.352 199.733 58.488C199.381 57.6133 199.205 56.584 199.205 55.4C199.205 54.216 199.381 53.192 199.733 52.328C200.095 51.4533 200.613 50.776 201.285 50.296C201.957 49.816 202.762 49.576 203.701 49.576ZM203.701 50.248C203.039 50.248 202.538 50.6853 202.197 51.56C201.855 52.424 201.685 53.704 201.685 55.4C201.685 57.096 201.855 58.3813 202.197 59.256C202.538 60.12 203.039 60.552 203.701 60.552C204.351 60.552 204.847 60.12 205.189 59.256C205.53 58.3813 205.701 57.096 205.701 55.4C205.701 53.704 205.53 52.424 205.189 51.56C204.847 50.6853 204.351 50.248 203.701 50.248Z" fill="white"/>
</g>
<g filter="url(#filter1_d_8590_532)">
<path d="M87.64 117.592H94.072V118.504H87.64V117.592ZM90.392 121.256V114.824H91.304V121.256H90.392ZM100.319 123V122.84H99.9831C99.7485 122.84 99.5405 122.76 99.3591 122.6C99.1885 122.429 99.1031 122.227 99.1031 121.992V111.576H98.9431C98.7085 111.747 98.4311 111.896 98.1111 112.024C97.7911 112.141 97.4605 112.243 97.1191 112.328C96.7885 112.403 96.4685 112.461 96.1591 112.504C95.8498 112.547 95.5885 112.579 95.3751 112.6V112.76H95.7911C96.0791 112.76 96.3031 112.835 96.4631 112.984C96.6338 113.133 96.7191 113.384 96.7191 113.736V121.976C96.7191 122.211 96.6338 122.413 96.4631 122.584C96.2925 122.755 96.0845 122.84 95.8391 122.84H95.5031L95.4871 123H100.319ZM106.504 115.208L105.736 112.744C106.014 112.499 106.35 112.291 106.744 112.12C107.15 111.949 107.582 111.816 108.04 111.72C108.51 111.624 108.968 111.576 109.416 111.576C110.216 111.576 110.931 111.709 111.56 111.976C112.19 112.232 112.68 112.6 113.032 113.08C113.384 113.549 113.56 114.125 113.56 114.808C113.56 115.331 113.448 115.843 113.224 116.344C113 116.835 112.702 117.304 112.328 117.752C111.966 118.189 111.571 118.605 111.144 119C110.718 119.395 110.296 119.752 109.88 120.072C109.475 120.392 109.112 120.68 108.792 120.936H112.072C112.392 120.936 112.67 120.883 112.904 120.776C113.15 120.669 113.368 120.504 113.56 120.28C113.763 120.045 113.955 119.747 114.136 119.384H114.296L113.352 123H105.704V122.84C106.131 122.36 106.584 121.853 107.064 121.32C107.544 120.776 108.014 120.221 108.472 119.656C108.942 119.091 109.368 118.52 109.752 117.944C110.136 117.368 110.44 116.803 110.664 116.248C110.888 115.683 111 115.144 111 114.632C111 113.875 110.808 113.277 110.424 112.84C110.04 112.403 109.518 112.205 108.856 112.248C108.152 112.291 107.608 112.563 107.224 113.064C106.851 113.555 106.664 114.269 106.664 115.208H106.504ZM120.475 123V122.84H120.139C119.905 122.84 119.697 122.76 119.515 122.6C119.345 122.429 119.259 122.227 119.259 121.992V111.576H119.099C118.865 111.747 118.587 111.896 118.267 112.024C117.947 112.141 117.617 112.243 117.275 112.328C116.945 112.403 116.625 112.461 116.315 112.504C116.006 112.547 115.745 112.579 115.531 112.6V112.76H115.947C116.235 112.76 116.459 112.835 116.619 112.984C116.79 113.133 116.875 113.384 116.875 113.736V121.976C116.875 122.211 116.79 122.413 116.619 122.584C116.449 122.755 116.241 122.84 115.995 122.84H115.659L115.643 123H120.475ZM122.661 115.208L121.893 112.744C122.17 112.499 122.506 112.291 122.901 112.12C123.306 111.949 123.738 111.816 124.197 111.72C124.666 111.624 125.125 111.576 125.573 111.576C126.373 111.576 127.087 111.709 127.717 111.976C128.346 112.232 128.837 112.6 129.189 113.08C129.541 113.549 129.717 114.125 129.717 114.808C129.717 115.331 129.605 115.843 129.381 116.344C129.157 116.835 128.858 117.304 128.485 117.752C128.122 118.189 127.727 118.605 127.301 119C126.874 119.395 126.453 119.752 126.037 120.072C125.631 120.392 125.269 120.68 124.949 120.936H128.229C128.549 120.936 128.826 120.883 129.061 120.776C129.306 120.669 129.525 120.504 129.717 120.28C129.919 120.045 130.111 119.747 130.293 119.384H130.453L129.509 123H121.861V122.84C122.287 122.36 122.741 121.853 123.221 121.32C123.701 120.776 124.17 120.221 124.629 119.656C125.098 119.091 125.525 118.52 125.909 117.944C126.293 117.368 126.597 116.803 126.821 116.248C127.045 115.683 127.157 115.144 127.157 114.632C127.157 113.875 126.965 113.277 126.581 112.84C126.197 112.403 125.674 112.205 125.013 112.248C124.309 112.291 123.765 112.563 123.381 113.064C123.007 113.555 122.821 114.269 122.821 115.208H122.661ZM131.796 117.8H136.596L136.724 118.328L136.596 118.872H131.796L131.668 118.328L131.796 117.8ZM139.081 123.608L139.017 123.496C140.009 123.197 140.804 122.824 141.401 122.376C142.009 121.917 142.468 121.395 142.777 120.808C143.097 120.211 143.31 119.555 143.417 118.84C143.524 118.115 143.577 117.325 143.577 116.472C143.577 115.597 143.529 114.856 143.433 114.248C143.337 113.629 143.166 113.165 142.921 112.856C142.676 112.547 142.324 112.392 141.865 112.392C141.428 112.392 141.081 112.525 140.825 112.792C140.58 113.059 140.404 113.411 140.297 113.848C140.201 114.275 140.153 114.739 140.153 115.24C140.164 115.816 140.222 116.291 140.329 116.664C140.436 117.027 140.585 117.304 140.777 117.496C140.98 117.677 141.22 117.784 141.497 117.816C141.774 117.869 142.036 117.853 142.281 117.768C142.537 117.672 142.745 117.544 142.905 117.384L143.017 117.512C142.814 117.853 142.548 118.131 142.217 118.344C141.886 118.547 141.518 118.68 141.113 118.744C140.708 118.808 140.302 118.792 139.897 118.696C139.502 118.6 139.134 118.419 138.793 118.152C138.452 117.885 138.18 117.528 137.977 117.08C137.785 116.632 137.689 116.088 137.689 115.448C137.7 114.712 137.86 114.061 138.169 113.496C138.489 112.92 138.953 112.467 139.561 112.136C140.18 111.805 140.937 111.635 141.833 111.624C143.23 111.603 144.313 112.008 145.081 112.84C145.849 113.672 146.233 114.936 146.233 116.632C146.233 117.645 146.084 118.589 145.785 119.464C145.497 120.328 145.054 121.085 144.457 121.736C143.87 122.376 143.129 122.861 142.233 123.192C141.348 123.533 140.297 123.672 139.081 123.608ZM148.317 115.208L147.549 112.744C147.826 112.499 148.162 112.291 148.557 112.12C148.962 111.949 149.394 111.816 149.853 111.72C150.322 111.624 150.781 111.576 151.229 111.576C152.029 111.576 152.744 111.709 153.373 111.976C154.002 112.232 154.493 112.6 154.845 113.08C155.197 113.549 155.373 114.125 155.373 114.808C155.373 115.331 155.261 115.843 155.037 116.344C154.813 116.835 154.514 117.304 154.141 117.752C153.778 118.189 153.384 118.605 152.957 119C152.53 119.395 152.109 119.752 151.693 120.072C151.288 120.392 150.925 120.68 150.605 120.936H153.885C154.205 120.936 154.482 120.883 154.717 120.776C154.962 120.669 155.181 120.504 155.373 120.28C155.576 120.045 155.768 119.747 155.949 119.384H156.109L155.165 123H147.517V122.84C147.944 122.36 148.397 121.853 148.877 121.32C149.357 120.776 149.826 120.221 150.285 119.656C150.754 119.091 151.181 118.52 151.565 117.944C151.949 117.368 152.253 116.803 152.477 116.248C152.701 115.683 152.813 115.144 152.813 114.632C152.813 113.875 152.621 113.277 152.237 112.84C151.853 112.403 151.33 112.205 150.669 112.248C149.965 112.291 149.421 112.563 149.037 113.064C148.664 113.555 148.477 114.269 148.477 115.208H148.317ZM160.455 111.608C161.223 111.597 161.879 111.699 162.423 111.912C162.978 112.125 163.404 112.429 163.703 112.824C164.002 113.208 164.151 113.672 164.151 114.216C164.151 114.643 164.066 115.021 163.895 115.352C163.724 115.683 163.495 115.96 163.207 116.184C162.93 116.397 162.626 116.547 162.295 116.632C161.964 116.707 161.65 116.701 161.351 116.616C161.682 116.616 162.028 116.675 162.391 116.792C162.764 116.899 163.116 117.075 163.447 117.32C163.778 117.555 164.044 117.869 164.247 118.264C164.45 118.659 164.551 119.139 164.551 119.704C164.551 120.355 164.407 120.941 164.119 121.464C163.831 121.987 163.436 122.429 162.935 122.792C162.434 123.155 161.863 123.427 161.223 123.608C160.583 123.8 159.911 123.891 159.207 123.88C158.503 123.869 157.81 123.747 157.127 123.512L157.159 123.352C157.81 123.363 158.423 123.277 158.999 123.096C159.586 122.925 160.103 122.675 160.551 122.344C160.999 122.003 161.351 121.592 161.607 121.112C161.863 120.632 161.991 120.104 161.991 119.528C161.991 118.888 161.842 118.376 161.543 117.992C161.255 117.597 160.876 117.309 160.407 117.128C159.938 116.947 159.436 116.856 158.903 116.856L158.935 116.696C159.426 116.707 159.884 116.6 160.311 116.376C160.748 116.141 161.095 115.816 161.351 115.4C161.618 114.984 161.724 114.504 161.671 113.96C161.65 113.597 161.554 113.288 161.383 113.032C161.212 112.776 160.983 112.584 160.695 112.456C160.418 112.317 160.092 112.259 159.719 112.28C159.068 112.312 158.588 112.563 158.279 113.032C157.98 113.491 157.842 114.152 157.863 115.016H157.703L157.047 112.744C157.399 112.424 157.858 112.157 158.423 111.944C158.999 111.731 159.676 111.619 160.455 111.608ZM166.171 117.8H170.971L171.099 118.328L170.971 118.872H166.171L166.043 118.328L166.171 117.8ZM174.908 111.608C175.676 111.597 176.332 111.699 176.876 111.912C177.431 112.125 177.857 112.429 178.156 112.824C178.455 113.208 178.604 113.672 178.604 114.216C178.604 114.643 178.519 115.021 178.348 115.352C178.177 115.683 177.948 115.96 177.66 116.184C177.383 116.397 177.079 116.547 176.748 116.632C176.417 116.707 176.103 116.701 175.804 116.616C176.135 116.616 176.481 116.675 176.844 116.792C177.217 116.899 177.569 117.075 177.9 117.32C178.231 117.555 178.497 117.869 178.7 118.264C178.903 118.659 179.004 119.139 179.004 119.704C179.004 120.355 178.86 120.941 178.572 121.464C178.284 121.987 177.889 122.429 177.388 122.792C176.887 123.155 176.316 123.427 175.676 123.608C175.036 123.8 174.364 123.891 173.66 123.88C172.956 123.869 172.263 123.747 171.58 123.512L171.612 123.352C172.263 123.363 172.876 123.277 173.452 123.096C174.039 122.925 174.556 122.675 175.004 122.344C175.452 122.003 175.804 121.592 176.06 121.112C176.316 120.632 176.444 120.104 176.444 119.528C176.444 118.888 176.295 118.376 175.996 117.992C175.708 117.597 175.329 117.309 174.86 117.128C174.391 116.947 173.889 116.856 173.356 116.856L173.388 116.696C173.879 116.707 174.337 116.6 174.764 116.376C175.201 116.141 175.548 115.816 175.804 115.4C176.071 114.984 176.177 114.504 176.124 113.96C176.103 113.597 176.007 113.288 175.836 113.032C175.665 112.776 175.436 112.584 175.148 112.456C174.871 112.317 174.545 112.259 174.172 112.28C173.521 112.312 173.041 112.563 172.732 113.032C172.433 113.491 172.295 114.152 172.316 115.016H172.156L171.5 112.744C171.852 112.424 172.311 112.157 172.876 111.944C173.452 111.731 174.129 111.619 174.908 111.608ZM180.21 114.808H180.37C180.487 114.488 180.636 114.248 180.818 114.088C180.999 113.928 181.25 113.848 181.57 113.848H186.45L185.394 116.376C185.255 116.685 185.079 117.064 184.866 117.512C184.663 117.949 184.439 118.419 184.194 118.92C183.948 119.421 183.698 119.923 183.442 120.424C183.196 120.925 182.956 121.4 182.722 121.848C182.498 122.296 182.3 122.68 182.13 123H184.226C184.3 122.691 184.407 122.312 184.546 121.864C184.684 121.416 184.834 120.941 184.994 120.44C185.164 119.939 185.335 119.437 185.506 118.936C185.676 118.435 185.836 117.976 185.986 117.56C186.146 117.133 186.284 116.781 186.402 116.504L188.322 111.8L180.658 111.832L180.21 114.808ZM193.388 111.576C194.327 111.576 195.127 111.816 195.788 112.296C196.46 112.776 196.972 113.453 197.324 114.328C197.687 115.192 197.868 116.216 197.868 117.4C197.868 118.584 197.687 119.613 197.324 120.488C196.972 121.352 196.46 122.024 195.788 122.504C195.127 122.984 194.327 123.224 193.388 123.224C192.45 123.224 191.644 122.984 190.972 122.504C190.3 122.024 189.783 121.352 189.42 120.488C189.068 119.613 188.892 118.584 188.892 117.4C188.892 116.216 189.068 115.192 189.42 114.328C189.783 113.453 190.3 112.776 190.972 112.296C191.644 111.816 192.45 111.576 193.388 111.576ZM193.388 112.248C192.727 112.248 192.226 112.685 191.884 113.56C191.543 114.424 191.372 115.704 191.372 117.4C191.372 119.096 191.543 120.381 191.884 121.256C192.226 122.12 192.727 122.552 193.388 122.552C194.039 122.552 194.535 122.12 194.876 121.256C195.218 120.381 195.388 119.096 195.388 117.4C195.388 115.704 195.218 114.424 194.876 113.56C194.535 112.685 194.039 112.248 193.388 112.248ZM203.779 111.576C204.718 111.576 205.518 111.816 206.179 112.296C206.851 112.776 207.363 113.453 207.715 114.328C208.078 115.192 208.259 116.216 208.259 117.4C208.259 118.584 208.078 119.613 207.715 120.488C207.363 121.352 206.851 122.024 206.179 122.504C205.518 122.984 204.718 123.224 203.779 123.224C202.84 123.224 202.035 122.984 201.363 122.504C200.691 122.024 200.174 121.352 199.811 120.488C199.459 119.613 199.283 118.584 199.283 117.4C199.283 116.216 199.459 115.192 199.811 114.328C200.174 113.453 200.691 112.776 201.363 112.296C202.035 111.816 202.84 111.576 203.779 111.576ZM203.779 112.248C203.118 112.248 202.616 112.685 202.275 113.56C201.934 114.424 201.763 115.704 201.763 117.4C201.763 119.096 201.934 120.381 202.275 121.256C202.616 122.12 203.118 122.552 203.779 122.552C204.43 122.552 204.926 122.12 205.267 121.256C205.608 120.381 205.779 119.096 205.779 117.4C205.779 115.704 205.608 114.424 205.267 113.56C204.926 112.685 204.43 112.248 203.779 112.248Z" fill="white"/>
</g>
<g filter="url(#filter2_d_8590_532)">
<path d="M14.544 22.848V34H12.144V22.848H14.544ZM18.464 22.784V23.456H8.224V22.784H18.464ZM18.464 23.408V25.296L18.304 25.28V25.104C18.304 24.6027 18.1547 24.208 17.856 23.92C17.568 23.6213 17.1733 23.4667 16.672 23.456V23.408H18.464ZM18.464 22.496V22.96L16.512 22.784C16.7467 22.784 16.992 22.768 17.248 22.736C17.5147 22.704 17.76 22.6667 17.984 22.624C18.208 22.5813 18.368 22.5387 18.464 22.496ZM12.192 32.832V34H10.912V33.84C10.912 33.84 10.944 33.84 11.008 33.84C11.0827 33.84 11.12 33.84 11.12 33.84C11.3973 33.84 11.632 33.744 11.824 33.552C12.0267 33.3493 12.1333 33.1093 12.144 32.832H12.192ZM14.496 32.832H14.544C14.5547 33.1093 14.656 33.3493 14.848 33.552C15.0507 33.744 15.2907 33.84 15.568 33.84C15.568 33.84 15.6 33.84 15.664 33.84C15.7387 33.84 15.776 33.84 15.776 33.84V34H14.496V32.832ZM10 23.408V23.456C9.50933 23.4667 9.11467 23.6213 8.816 23.92C8.528 24.208 8.384 24.6027 8.384 25.104V25.28L8.224 25.296V23.408H10ZM8.224 22.496C8.33067 22.5387 8.49067 22.5813 8.704 22.624C8.928 22.6667 9.17333 22.704 9.44 22.736C9.70667 22.768 9.952 22.784 10.176 22.784L8.224 22.96V22.496ZM30.5599 22.8V34H28.1599V22.8H30.5599ZM22.9759 22.8V34H20.5759V22.8H22.9759ZM28.3039 28.08V28.768H22.8159V28.08H28.3039ZM20.6239 32.832V34H19.3439V33.84C19.3439 33.84 19.3759 33.84 19.4399 33.84C19.5145 33.84 19.5519 33.84 19.5519 33.84C19.8292 33.84 20.0639 33.744 20.2559 33.552C20.4585 33.3493 20.5652 33.1093 20.5759 32.832H20.6239ZM20.6239 23.968H20.5759C20.5652 23.6907 20.4585 23.456 20.2559 23.264C20.0639 23.0613 19.8292 22.96 19.5519 22.96C19.5519 22.96 19.5145 22.96 19.4399 22.96C19.3759 22.96 19.3439 22.96 19.3439 22.96V22.8H20.6239V23.968ZM22.9279 32.832H22.9759C22.9865 33.1093 23.0879 33.3493 23.2799 33.552C23.4825 33.744 23.7225 33.84 23.9999 33.84C23.9999 33.84 24.0319 33.84 24.0959 33.84C24.1599 33.84 24.1972 33.84 24.2079 33.84V34H22.9279V32.832ZM22.9279 23.968V22.8H24.2079V22.96C24.1972 22.96 24.1599 22.96 24.0959 22.96C24.0319 22.96 23.9999 22.96 23.9999 22.96C23.7225 22.96 23.4825 23.0613 23.2799 23.264C23.0879 23.456 22.9865 23.6907 22.9759 23.968H22.9279ZM28.2079 32.832V34H26.9279V33.84C26.9385 33.84 26.9759 33.84 27.0399 33.84C27.1039 33.84 27.1359 33.84 27.1359 33.84C27.4132 33.84 27.6532 33.744 27.8559 33.552C28.0585 33.3493 28.1599 33.1093 28.1599 32.832H28.2079ZM28.2079 23.968H28.1599C28.1599 23.6907 28.0585 23.456 27.8559 23.264C27.6532 23.0613 27.4132 22.96 27.1359 22.96C27.1359 22.96 27.1039 22.96 27.0399 22.96C26.9759 22.96 26.9385 22.96 26.9279 22.96V22.8H28.2079V23.968ZM30.5119 32.832H30.5599C30.5705 33.1093 30.6719 33.3493 30.8639 33.552C31.0665 33.744 31.3065 33.84 31.5839 33.84C31.5839 33.84 31.6159 33.84 31.6799 33.84C31.7545 33.84 31.7919 33.84 31.7919 33.84V34H30.5119V32.832ZM30.5119 23.968V22.8H31.7919V22.96C31.7919 22.96 31.7545 22.96 31.6799 22.96C31.6159 22.96 31.5839 22.96 31.5839 22.96C31.3065 22.96 31.0665 23.0613 30.8639 23.264C30.6719 23.456 30.5705 23.6907 30.5599 23.968H30.5119ZM36.7728 22.8V34H34.3728V22.8H36.7728ZM40.9968 33.312L41.3808 34H36.7248V33.312H40.9968ZM40.4048 28.144V28.816H36.7248V28.144H40.4048ZM41.1888 22.8V23.488H36.7248V22.8H41.1888ZM42.1648 30.72L41.4288 34H38.2928L38.8688 33.312C39.4021 33.312 39.8714 33.2107 40.2768 33.008C40.6821 32.7947 41.0288 32.496 41.3168 32.112C41.6048 31.7173 41.8341 31.2533 42.0048 30.72H42.1648ZM40.4048 28.784V30.32H40.2448V30.192C40.2448 29.7973 40.1168 29.472 39.8608 29.216C39.6048 28.96 39.2794 28.8267 38.8848 28.816V28.784H40.4048ZM40.4048 26.64V28.176H38.8848V28.144C39.2794 28.1333 39.6048 28 39.8608 27.744C40.1168 27.4773 40.2448 27.1467 40.2448 26.752V26.64H40.4048ZM41.1888 23.44V25.312H41.0288V25.12C41.0288 24.6293 40.8794 24.2347 40.5808 23.936C40.2928 23.6373 39.8981 23.4827 39.3968 23.472V23.44H41.1888ZM41.1888 22.512V22.976L39.2368 22.8C39.4714 22.8 39.7168 22.784 39.9728 22.752C40.2394 22.72 40.4848 22.6827 40.7088 22.64C40.9328 22.5973 41.0928 22.5547 41.1888 22.512ZM34.4208 32.832V34H33.1408V33.84C33.1408 33.84 33.1728 33.84 33.2368 33.84C33.3114 33.84 33.3488 33.84 33.3488 33.84C33.6261 33.84 33.8608 33.744 34.0528 33.552C34.2554 33.3493 34.3621 33.1093 34.3728 32.832H34.4208ZM34.4208 23.968H34.3728C34.3621 23.6907 34.2554 23.456 34.0528 23.264C33.8608 23.0613 33.6261 22.96 33.3488 22.96C33.3488 22.96 33.3114 22.96 33.2368 22.96C33.1728 22.96 33.1408 22.96 33.1408 22.96V22.8H34.4208V23.968ZM59.0581 22.576L59.1861 24.32L54.4341 32.56C54.4341 32.56 54.3808 32.656 54.2741 32.848C54.1675 33.0293 54.0608 33.2533 53.9541 33.52C53.8581 33.7867 53.8101 34.0533 53.8101 34.32H53.6501L53.0261 32.928L59.0581 22.576ZM48.2101 32.832V34H46.4341V33.84C46.4448 33.84 46.4928 33.84 46.5781 33.84C46.6528 33.84 46.6901 33.84 46.6901 33.84C46.9781 33.84 47.2341 33.7547 47.4581 33.584C47.6821 33.4027 47.8155 33.152 47.8581 32.832H48.2101ZM48.9141 33.088C48.9141 33.0987 48.9141 33.1093 48.9141 33.12C48.9141 33.1307 48.9141 33.1467 48.9141 33.168C48.9141 33.3387 48.9728 33.4987 49.0901 33.648C49.2181 33.7867 49.3675 33.856 49.5381 33.856H49.7781V34H48.8021V33.088H48.9141ZM49.1861 22.576H49.3301L49.8901 24.176L48.8181 34H47.6981L49.1861 22.576ZM49.3301 22.576L54.5621 31.168L53.6501 34.32L48.9141 26.368L49.3301 22.576ZM59.2021 22.576L60.7221 34H58.1461L57.3461 26.64L59.0581 22.576H59.2021ZM60.2261 32.832H60.5621C60.6155 33.152 60.7541 33.4027 60.9781 33.584C61.2021 33.7547 61.4528 33.84 61.7301 33.84C61.7301 33.84 61.7728 33.84 61.8581 33.84C61.9435 33.84 61.9861 33.84 61.9861 33.84V34H60.2261V32.832ZM58.0501 33.088H58.1621V34H57.1861V33.856H57.4261C57.6075 33.856 57.7568 33.7867 57.8741 33.648C57.9915 33.4987 58.0501 33.3387 58.0501 33.168C58.0501 33.1467 58.0501 33.1307 58.0501 33.12C58.0501 33.1093 58.0501 33.0987 58.0501 33.088ZM66.1321 22.8V34H63.7321V22.8H66.1321ZM70.3561 33.312L70.7401 34H66.0841V33.312H70.3561ZM69.7641 28.144V28.816H66.0841V28.144H69.7641ZM70.5481 22.8V23.488H66.0841V22.8H70.5481ZM71.5241 30.72L70.7881 34H67.6521L68.2281 33.312C68.7615 33.312 69.2308 33.2107 69.6361 33.008C70.0415 32.7947 70.3881 32.496 70.6761 32.112C70.9641 31.7173 71.1935 31.2533 71.3641 30.72H71.5241ZM69.7641 28.784V30.32H69.6041V30.192C69.6041 29.7973 69.4761 29.472 69.2201 29.216C68.9641 28.96 68.6388 28.8267 68.2441 28.816V28.784H69.7641ZM69.7641 26.64V28.176H68.2441V28.144C68.6388 28.1333 68.9641 28 69.2201 27.744C69.4761 27.4773 69.6041 27.1467 69.6041 26.752V26.64H69.7641ZM70.5481 23.44V25.312H70.3881V25.12C70.3881 24.6293 70.2388 24.2347 69.9401 23.936C69.6521 23.6373 69.2575 23.4827 68.7561 23.472V23.44H70.5481ZM70.5481 22.512V22.976L68.5961 22.8C68.8308 22.8 69.0761 22.784 69.3321 22.752C69.5988 22.72 69.8441 22.6827 70.0681 22.64C70.2921 22.5973 70.4521 22.5547 70.5481 22.512ZM63.7801 32.832V34H62.5001V33.84C62.5001 33.84 62.5321 33.84 62.5961 33.84C62.6708 33.84 62.7081 33.84 62.7081 33.84C62.9855 33.84 63.2201 33.744 63.4121 33.552C63.6148 33.3493 63.7215 33.1093 63.7321 32.832H63.7801ZM63.7801 23.968H63.7321C63.7215 23.6907 63.6148 23.456 63.4121 23.264C63.2201 23.0613 62.9855 22.96 62.7081 22.96C62.7081 22.96 62.6708 22.96 62.5961 22.96C62.5321 22.96 62.5001 22.96 62.5001 22.96V22.8H63.7801V23.968ZM78.4815 22.848V34H76.0815V22.848H78.4815ZM82.4015 22.784V23.456H72.1615V22.784H82.4015ZM82.4015 23.408V25.296L82.2415 25.28V25.104C82.2415 24.6027 82.0922 24.208 81.7935 23.92C81.5055 23.6213 81.1108 23.4667 80.6095 23.456V23.408H82.4015ZM82.4015 22.496V22.96L80.4495 22.784C80.6842 22.784 80.9295 22.768 81.1855 22.736C81.4522 22.704 81.6975 22.6667 81.9215 22.624C82.1455 22.5813 82.3055 22.5387 82.4015 22.496ZM76.1295 32.832V34H74.8495V33.84C74.8495 33.84 74.8815 33.84 74.9455 33.84C75.0202 33.84 75.0575 33.84 75.0575 33.84C75.3348 33.84 75.5695 33.744 75.7615 33.552C75.9642 33.3493 76.0708 33.1093 76.0815 32.832H76.1295ZM78.4335 32.832H78.4815C78.4922 33.1093 78.5935 33.3493 78.7855 33.552C78.9882 33.744 79.2282 33.84 79.5055 33.84C79.5055 33.84 79.5375 33.84 79.6015 33.84C79.6762 33.84 79.7135 33.84 79.7135 33.84V34H78.4335V32.832ZM73.9375 23.408V23.456C73.4468 23.4667 73.0522 23.6213 72.7535 23.92C72.4655 24.208 72.3215 24.6027 72.3215 25.104V25.28L72.1615 25.296V23.408H73.9375ZM72.1615 22.496C72.2682 22.5387 72.4282 22.5813 72.6415 22.624C72.8655 22.6667 73.1108 22.704 73.3775 22.736C73.6442 22.768 73.8895 22.784 74.1135 22.784L72.1615 22.96V22.496ZM90.9134 22.8V34H88.5134V22.8H90.9134ZM94.5454 28.144V28.816H90.8654V28.144H94.5454ZM95.3294 22.8V23.488H90.8654V22.8H95.3294ZM94.5454 28.784V30.32H94.3854V30.192C94.3854 29.7973 94.2574 29.472 94.0014 29.216C93.7454 28.96 93.42 28.8267 93.0254 28.816V28.784H94.5454ZM94.5454 26.64V28.176H93.0254V28.144C93.42 28.1333 93.7454 28 94.0014 27.744C94.2574 27.4773 94.3854 27.1467 94.3854 26.752V26.64H94.5454ZM95.3294 23.44V25.216H95.1694V25.056C95.1694 24.576 95.0254 24.1973 94.7374 23.92C94.46 23.632 94.0814 23.488 93.6014 23.488V23.44H95.3294ZM95.3294 22.512V22.976L93.3774 22.8C93.612 22.8 93.8574 22.784 94.1134 22.752C94.38 22.72 94.6254 22.6827 94.8494 22.64C95.0734 22.5973 95.2334 22.5547 95.3294 22.512ZM88.5614 32.832V34H87.2814V33.84C87.2814 33.84 87.3134 33.84 87.3774 33.84C87.452 33.84 87.4894 33.84 87.4894 33.84C87.7667 33.84 88.0014 33.744 88.1934 33.552C88.396 33.3493 88.5027 33.1093 88.5134 32.832H88.5614ZM88.5614 23.968H88.5134C88.5027 23.6907 88.396 23.456 88.1934 23.264C88.0014 23.0613 87.7667 22.96 87.4894 22.96C87.4894 22.96 87.452 22.96 87.3774 22.96C87.3134 22.96 87.2814 22.96 87.2814 22.96V22.8H88.5614V23.968ZM90.8654 32.832H90.9134C90.924 33.1093 91.0254 33.3493 91.2174 33.552C91.42 33.744 91.66 33.84 91.9374 33.84C91.9374 33.84 91.9694 33.84 92.0334 33.84C92.0974 33.84 92.1347 33.84 92.1454 33.84V34H90.8654V32.832ZM100.445 22.8V34H98.0446V22.8H100.445ZM98.0926 32.832V34H96.8126V33.84C96.8126 33.84 96.8446 33.84 96.9086 33.84C96.9833 33.84 97.0206 33.84 97.0206 33.84C97.298 33.84 97.5326 33.744 97.7246 33.552C97.9273 33.3493 98.034 33.1093 98.0446 32.832H98.0926ZM98.0926 23.968H98.0446C98.034 23.6907 97.9273 23.456 97.7246 23.264C97.5326 23.0613 97.298 22.96 97.0206 22.96C97.0206 22.96 96.9833 22.96 96.9086 22.96C96.8446 22.96 96.8126 22.96 96.8126 22.96V22.8H98.0926V23.968ZM100.397 32.832H100.445C100.455 33.1093 100.557 33.3493 100.749 33.552C100.951 33.744 101.191 33.84 101.469 33.84C101.469 33.84 101.501 33.84 101.565 33.84C101.629 33.84 101.666 33.84 101.677 33.84V34H100.397V32.832ZM100.397 23.968V22.8H101.677V22.96C101.666 22.96 101.629 22.96 101.565 22.96C101.501 22.96 101.469 22.96 101.469 22.96C101.191 22.96 100.951 23.0613 100.749 23.264C100.557 23.456 100.455 23.6907 100.445 23.968H100.397ZM106.632 22.8V34H104.232V22.8H106.632ZM110.264 28.144V28.816H106.584V28.144H110.264ZM111.048 22.8V23.488H106.584V22.8H111.048ZM110.264 28.784V30.32H110.104V30.192C110.104 29.7973 109.976 29.472 109.72 29.216C109.464 28.96 109.139 28.8267 108.744 28.816V28.784H110.264ZM110.264 26.64V28.176H108.744V28.144C109.139 28.1333 109.464 28 109.72 27.744C109.976 27.4773 110.104 27.1467 110.104 26.752V26.64H110.264ZM111.048 23.44V25.216H110.888V25.056C110.888 24.576 110.744 24.1973 110.456 23.92C110.179 23.632 109.8 23.488 109.32 23.488V23.44H111.048ZM111.048 22.512V22.976L109.096 22.8C109.331 22.8 109.576 22.784 109.832 22.752C110.099 22.72 110.344 22.6827 110.568 22.64C110.792 22.5973 110.952 22.5547 111.048 22.512ZM104.28 32.832V34H103V33.84C103 33.84 103.032 33.84 103.096 33.84C103.171 33.84 103.208 33.84 103.208 33.84C103.485 33.84 103.72 33.744 103.912 33.552C104.115 33.3493 104.221 33.1093 104.232 32.832H104.28ZM104.28 23.968H104.232C104.221 23.6907 104.115 23.456 103.912 23.264C103.72 23.0613 103.485 22.96 103.208 22.96C103.208 22.96 103.171 22.96 103.096 22.96C103.032 22.96 103 22.96 103 22.96V22.8H104.28V23.968ZM106.584 32.832H106.632C106.643 33.1093 106.744 33.3493 106.936 33.552C107.139 33.744 107.379 33.84 107.656 33.84C107.656 33.84 107.688 33.84 107.752 33.84C107.816 33.84 107.853 33.84 107.864 33.84V34H106.584V32.832ZM118.403 22.848V34H116.003V22.848H118.403ZM122.323 22.784V23.456H112.083V22.784H122.323ZM122.323 23.408V25.296L122.163 25.28V25.104C122.163 24.6027 122.014 24.208 121.715 23.92C121.427 23.6213 121.033 23.4667 120.531 23.456V23.408H122.323ZM122.323 22.496V22.96L120.371 22.784C120.606 22.784 120.851 22.768 121.107 22.736C121.374 22.704 121.619 22.6667 121.843 22.624C122.067 22.5813 122.227 22.5387 122.323 22.496ZM116.051 32.832V34H114.771V33.84C114.771 33.84 114.803 33.84 114.867 33.84C114.942 33.84 114.979 33.84 114.979 33.84C115.257 33.84 115.491 33.744 115.683 33.552C115.886 33.3493 115.993 33.1093 116.003 32.832H116.051ZM118.355 32.832H118.403C118.414 33.1093 118.515 33.3493 118.707 33.552C118.91 33.744 119.15 33.84 119.427 33.84C119.427 33.84 119.459 33.84 119.523 33.84C119.598 33.84 119.635 33.84 119.635 33.84V34H118.355V32.832ZM113.859 23.408V23.456C113.369 23.4667 112.974 23.6213 112.675 23.92C112.387 24.208 112.243 24.6027 112.243 25.104V25.28L112.083 25.296V23.408H113.859ZM112.083 22.496C112.19 22.5387 112.35 22.5813 112.563 22.624C112.787 22.6667 113.033 22.704 113.299 22.736C113.566 22.768 113.811 22.784 114.035 22.784L112.083 22.96V22.496ZM134.419 22.8V34H132.019V22.8H134.419ZM126.835 22.8V34H124.435V22.8H126.835ZM132.163 28.08V28.768H126.675V28.08H132.163ZM124.483 32.832V34H123.203V33.84C123.203 33.84 123.235 33.84 123.299 33.84C123.374 33.84 123.411 33.84 123.411 33.84C123.689 33.84 123.923 33.744 124.115 33.552C124.318 33.3493 124.425 33.1093 124.435 32.832H124.483ZM124.483 23.968H124.435C124.425 23.6907 124.318 23.456 124.115 23.264C123.923 23.0613 123.689 22.96 123.411 22.96C123.411 22.96 123.374 22.96 123.299 22.96C123.235 22.96 123.203 22.96 123.203 22.96V22.8H124.483V23.968ZM126.787 32.832H126.835C126.846 33.1093 126.947 33.3493 127.139 33.552C127.342 33.744 127.582 33.84 127.859 33.84C127.859 33.84 127.891 33.84 127.955 33.84C128.019 33.84 128.057 33.84 128.067 33.84V34H126.787V32.832ZM126.787 23.968V22.8H128.067V22.96C128.057 22.96 128.019 22.96 127.955 22.96C127.891 22.96 127.859 22.96 127.859 22.96C127.582 22.96 127.342 23.0613 127.139 23.264C126.947 23.456 126.846 23.6907 126.835 23.968H126.787ZM132.067 32.832V34H130.787V33.84C130.798 33.84 130.835 33.84 130.899 33.84C130.963 33.84 130.995 33.84 130.995 33.84C131.273 33.84 131.513 33.744 131.715 33.552C131.918 33.3493 132.019 33.1093 132.019 32.832H132.067ZM132.067 23.968H132.019C132.019 23.6907 131.918 23.456 131.715 23.264C131.513 23.0613 131.273 22.96 130.995 22.96C130.995 22.96 130.963 22.96 130.899 22.96C130.835 22.96 130.798 22.96 130.787 22.96V22.8H132.067V23.968ZM134.371 32.832H134.419C134.43 33.1093 134.531 33.3493 134.723 33.552C134.926 33.744 135.166 33.84 135.443 33.84C135.443 33.84 135.475 33.84 135.539 33.84C135.614 33.84 135.651 33.84 135.651 33.84V34H134.371V32.832ZM134.371 23.968V22.8H135.651V22.96C135.651 22.96 135.614 22.96 135.539 22.96C135.475 22.96 135.443 22.96 135.443 22.96C135.166 22.96 134.926 23.0613 134.723 23.264C134.531 23.456 134.43 23.6907 134.419 23.968H134.371ZM145.992 22.48L151.224 33.904H148.344L145.016 25.568L145.992 22.48ZM142.552 32.832C142.467 33.0453 142.451 33.2267 142.504 33.376C142.557 33.5253 142.648 33.6427 142.776 33.728C142.904 33.8027 143.032 33.84 143.16 33.84H143.304V34H139.88V33.84C139.88 33.84 139.907 33.84 139.96 33.84C140.003 33.84 140.024 33.84 140.024 33.84C140.269 33.84 140.52 33.7653 140.776 33.616C141.043 33.456 141.261 33.1947 141.432 32.832H142.552ZM145.992 22.48L146.056 24.432L142.088 33.952H140.92L145.064 24.576C145.096 24.512 145.149 24.3947 145.224 24.224C145.309 24.0427 145.395 23.84 145.48 23.616C145.576 23.392 145.661 23.1787 145.736 22.976C145.811 22.7627 145.848 22.5973 145.848 22.48H145.992ZM147.672 30.192V30.864H142.968V30.192H147.672ZM147.912 32.832H150.712C150.893 33.1947 151.112 33.456 151.368 33.616C151.624 33.7653 151.875 33.84 152.12 33.84C152.12 33.84 152.141 33.84 152.184 33.84C152.227 33.84 152.248 33.84 152.248 33.84V34H147.16V33.84H147.304C147.517 33.84 147.704 33.7547 147.864 33.584C148.024 33.4027 148.04 33.152 147.912 32.832ZM155.81 34.32L150.514 22.896H153.378L156.802 31.232L155.81 34.32ZM155.81 34.32L155.762 32.368L159.826 22.848H160.978L156.738 32.224C156.717 32.288 156.663 32.4107 156.578 32.592C156.503 32.7627 156.418 32.96 156.322 33.184C156.226 33.408 156.141 33.6267 156.066 33.84C156.002 34.0427 155.965 34.2027 155.954 34.32H155.81ZM159.346 23.968C159.485 23.648 159.469 23.4027 159.298 23.232C159.127 23.0507 158.941 22.96 158.738 22.96H158.594V22.8H162.018V22.96C162.018 22.96 161.991 22.96 161.938 22.96C161.895 22.96 161.874 22.96 161.874 22.96C161.639 22.96 161.389 23.04 161.122 23.2C160.866 23.3493 160.653 23.6053 160.482 23.968H159.346ZM153.826 23.968H151.01C150.839 23.6053 150.621 23.3493 150.354 23.2C150.098 23.04 149.847 22.96 149.602 22.96C149.602 22.96 149.581 22.96 149.538 22.96C149.495 22.96 149.474 22.96 149.474 22.96V22.8H154.562V22.96H154.418C154.215 22.96 154.034 23.0507 153.874 23.232C153.725 23.4027 153.709 23.648 153.826 23.968ZM165.867 22.8V34H163.467V22.8H165.867ZM170.091 33.312L170.475 34H165.819V33.312H170.091ZM169.499 28.144V28.816H165.819V28.144H169.499ZM170.283 22.8V23.488H165.819V22.8H170.283ZM171.259 30.72L170.523 34H167.387L167.963 33.312C168.496 33.312 168.965 33.2107 169.371 33.008C169.776 32.7947 170.123 32.496 170.411 32.112C170.699 31.7173 170.928 31.2533 171.099 30.72H171.259ZM169.499 28.784V30.32H169.339V30.192C169.339 29.7973 169.211 29.472 168.955 29.216C168.699 28.96 168.373 28.8267 167.979 28.816V28.784H169.499ZM169.499 26.64V28.176H167.979V28.144C168.373 28.1333 168.699 28 168.955 27.744C169.211 27.4773 169.339 27.1467 169.339 26.752V26.64H169.499ZM170.283 23.44V25.312H170.123V25.12C170.123 24.6293 169.973 24.2347 169.675 23.936C169.387 23.6373 168.992 23.4827 168.491 23.472V23.44H170.283ZM170.283 22.512V22.976L168.331 22.8C168.565 22.8 168.811 22.784 169.067 22.752C169.333 22.72 169.579 22.6827 169.803 22.64C170.027 22.5973 170.187 22.5547 170.283 22.512ZM163.515 32.832V34H162.235V33.84C162.235 33.84 162.267 33.84 162.331 33.84C162.405 33.84 162.443 33.84 162.443 33.84C162.72 33.84 162.955 33.744 163.147 33.552C163.349 33.3493 163.456 33.1093 163.467 32.832H163.515ZM163.515 23.968H163.467C163.456 23.6907 163.349 23.456 163.147 23.264C162.955 23.0613 162.72 22.96 162.443 22.96C162.443 22.96 162.405 22.96 162.331 22.96C162.267 22.96 162.235 22.96 162.235 22.96V22.8H163.515V23.968ZM173.337 22.56L183.545 32.288L183.737 34.224L173.529 24.512L173.337 22.56ZM173.417 32.864V34H172.089V33.84C172.089 33.84 172.137 33.84 172.233 33.84C172.329 33.84 172.383 33.84 172.393 33.84C172.66 33.84 172.889 33.744 173.081 33.552C173.273 33.36 173.369 33.1307 173.369 32.864H173.417ZM175.657 32.864C175.657 33.1307 175.753 33.36 175.945 33.552C176.137 33.744 176.367 33.84 176.633 33.84C176.644 33.84 176.697 33.84 176.793 33.84C176.889 33.84 176.937 33.84 176.937 33.84V34H175.609V32.864H175.657ZM173.337 22.56L175.641 25.008L175.657 34H173.369V24.56C173.369 23.9627 173.337 23.4827 173.273 23.12C173.209 22.7467 173.177 22.56 173.177 22.56H173.337ZM183.689 22.8V32.176C183.689 32.5707 183.705 32.928 183.737 33.248C183.769 33.5573 183.801 33.7973 183.833 33.968C183.865 34.1387 183.881 34.224 183.881 34.224H183.737L181.417 31.632V22.8H183.689ZM184.969 22.8V22.96C184.969 22.96 184.921 22.96 184.825 22.96C184.729 22.96 184.681 22.96 184.681 22.96C184.415 22.96 184.185 23.056 183.993 23.248C183.801 23.4293 183.7 23.6587 183.689 23.936H183.641V22.8H184.969ZM180.121 22.8H181.449V23.936H181.417C181.407 23.6587 181.305 23.4293 181.113 23.248C180.932 23.056 180.703 22.96 180.425 22.96C180.425 22.96 180.377 22.96 180.281 22.96C180.185 22.96 180.132 22.96 180.121 22.96V22.8ZM189.565 22.8V29.84C189.565 30.5973 189.688 31.2533 189.933 31.808C190.189 32.3627 190.546 32.7893 191.005 33.088C191.474 33.3867 192.029 33.536 192.669 33.536C193.32 33.536 193.88 33.3973 194.349 33.12C194.829 32.832 195.197 32.4267 195.453 31.904C195.709 31.3813 195.837 30.7627 195.837 30.048V22.8H196.989V29.952C196.989 30.8267 196.802 31.584 196.429 32.224C196.066 32.864 195.538 33.36 194.845 33.712C194.162 34.0533 193.336 34.224 192.365 34.224C191.234 34.224 190.28 34.0533 189.501 33.712C188.722 33.36 188.136 32.8693 187.741 32.24C187.357 31.6 187.165 30.8427 187.165 29.968V22.8H189.565ZM187.213 22.8V23.76H187.165C187.165 23.5253 187.08 23.3333 186.909 23.184C186.749 23.0347 186.552 22.96 186.317 22.96C186.317 22.96 186.274 22.96 186.189 22.96C186.104 22.96 186.061 22.96 186.061 22.96V22.8H187.213ZM190.669 22.8V22.96C190.669 22.96 190.626 22.96 190.541 22.96C190.456 22.96 190.413 22.96 190.413 22.96C190.178 22.96 189.976 23.0347 189.805 23.184C189.645 23.3333 189.565 23.5253 189.565 23.76H189.533V22.8H190.669ZM195.885 22.8V23.76H195.837C195.837 23.5253 195.752 23.3333 195.581 23.184C195.421 23.0347 195.224 22.96 194.989 22.96C194.989 22.96 194.946 22.96 194.861 22.96C194.776 22.96 194.733 22.96 194.733 22.96V22.8H195.885ZM198.093 22.8V22.96C198.093 22.96 198.05 22.96 197.965 22.96C197.88 22.96 197.837 22.96 197.837 22.96C197.602 22.96 197.4 23.0347 197.229 23.184C197.069 23.3333 196.989 23.5253 196.989 23.76H196.957V22.8H198.093ZM202.679 22.8V34H200.279V22.8H202.679ZM206.903 33.312L207.287 34H202.631V33.312H206.903ZM206.311 28.144V28.816H202.631V28.144H206.311ZM207.095 22.8V23.488H202.631V22.8H207.095ZM208.071 30.72L207.335 34H204.199L204.775 33.312C205.308 33.312 205.778 33.2107 206.183 33.008C206.588 32.7947 206.935 32.496 207.223 32.112C207.511 31.7173 207.74 31.2533 207.911 30.72H208.071ZM206.311 28.784V30.32H206.151V30.192C206.151 29.7973 206.023 29.472 205.767 29.216C205.511 28.96 205.186 28.8267 204.791 28.816V28.784H206.311ZM206.311 26.64V28.176H204.791V28.144C205.186 28.1333 205.511 28 205.767 27.744C206.023 27.4773 206.151 27.1467 206.151 26.752V26.64H206.311ZM207.095 23.44V25.312H206.935V25.12C206.935 24.6293 206.786 24.2347 206.487 23.936C206.199 23.6373 205.804 23.4827 205.303 23.472V23.44H207.095ZM207.095 22.512V22.976L205.143 22.8C205.378 22.8 205.623 22.784 205.879 22.752C206.146 22.72 206.391 22.6827 206.615 22.64C206.839 22.5973 206.999 22.5547 207.095 22.512ZM200.327 32.832V34H199.047V33.84C199.047 33.84 199.079 33.84 199.143 33.84C199.218 33.84 199.255 33.84 199.255 33.84C199.532 33.84 199.767 33.744 199.959 33.552C200.162 33.3493 200.268 33.1093 200.279 32.832H200.327ZM200.327 23.968H200.279C200.268 23.6907 200.162 23.456 199.959 23.264C199.767 23.0613 199.532 22.96 199.255 22.96C199.255 22.96 199.218 22.96 199.143 22.96C199.079 22.96 199.047 22.96 199.047 22.96V22.8H200.327V23.968Z" fill="white"/>
</g>
<g filter="url(#filter3_d_8590_532)">
<path d="M43.544 84.848V96H41.144V84.848H43.544ZM47.464 84.784V85.456H37.224V84.784H47.464ZM47.464 85.408V87.296L47.304 87.28V87.104C47.304 86.6027 47.1547 86.208 46.856 85.92C46.568 85.6213 46.1733 85.4667 45.672 85.456V85.408H47.464ZM47.464 84.496V84.96L45.512 84.784C45.7467 84.784 45.992 84.768 46.248 84.736C46.5147 84.704 46.76 84.6667 46.984 84.624C47.208 84.5813 47.368 84.5387 47.464 84.496ZM41.192 94.832V96H39.912V95.84C39.912 95.84 39.944 95.84 40.008 95.84C40.0827 95.84 40.12 95.84 40.12 95.84C40.3973 95.84 40.632 95.744 40.824 95.552C41.0267 95.3493 41.1333 95.1093 41.144 94.832H41.192ZM43.496 94.832H43.544C43.5547 95.1093 43.656 95.3493 43.848 95.552C44.0507 95.744 44.2907 95.84 44.568 95.84C44.568 95.84 44.6 95.84 44.664 95.84C44.7387 95.84 44.776 95.84 44.776 95.84V96H43.496V94.832ZM39 85.408V85.456C38.5093 85.4667 38.1147 85.6213 37.816 85.92C37.528 86.208 37.384 86.6027 37.384 87.104V87.28L37.224 87.296V85.408H39ZM37.224 84.496C37.3307 84.5387 37.4907 84.5813 37.704 84.624C37.928 84.6667 38.1733 84.704 38.44 84.736C38.7067 84.768 38.952 84.784 39.176 84.784L37.224 84.96V84.496ZM59.5599 84.8V96H57.1599V84.8H59.5599ZM51.9759 84.8V96H49.5759V84.8H51.9759ZM57.3039 90.08V90.768H51.8159V90.08H57.3039ZM49.6239 94.832V96H48.3439V95.84C48.3439 95.84 48.3759 95.84 48.4399 95.84C48.5145 95.84 48.5519 95.84 48.5519 95.84C48.8292 95.84 49.0639 95.744 49.2559 95.552C49.4585 95.3493 49.5652 95.1093 49.5759 94.832H49.6239ZM49.6239 85.968H49.5759C49.5652 85.6907 49.4585 85.456 49.2559 85.264C49.0639 85.0613 48.8292 84.96 48.5519 84.96C48.5519 84.96 48.5145 84.96 48.4399 84.96C48.3759 84.96 48.3439 84.96 48.3439 84.96V84.8H49.6239V85.968ZM51.9279 94.832H51.9759C51.9865 95.1093 52.0879 95.3493 52.2799 95.552C52.4825 95.744 52.7225 95.84 52.9999 95.84C52.9999 95.84 53.0319 95.84 53.0959 95.84C53.1599 95.84 53.1972 95.84 53.2079 95.84V96H51.9279V94.832ZM51.9279 85.968V84.8H53.2079V84.96C53.1972 84.96 53.1599 84.96 53.0959 84.96C53.0319 84.96 52.9999 84.96 52.9999 84.96C52.7225 84.96 52.4825 85.0613 52.2799 85.264C52.0879 85.456 51.9865 85.6907 51.9759 85.968H51.9279ZM57.2079 94.832V96H55.9279V95.84C55.9385 95.84 55.9759 95.84 56.0399 95.84C56.1039 95.84 56.1359 95.84 56.1359 95.84C56.4132 95.84 56.6532 95.744 56.8559 95.552C57.0585 95.3493 57.1599 95.1093 57.1599 94.832H57.2079ZM57.2079 85.968H57.1599C57.1599 85.6907 57.0585 85.456 56.8559 85.264C56.6532 85.0613 56.4132 84.96 56.1359 84.96C56.1359 84.96 56.1039 84.96 56.0399 84.96C55.9759 84.96 55.9385 84.96 55.9279 84.96V84.8H57.2079V85.968ZM59.5119 94.832H59.5599C59.5705 95.1093 59.6719 95.3493 59.8639 95.552C60.0665 95.744 60.3065 95.84 60.5839 95.84C60.5839 95.84 60.6159 95.84 60.6799 95.84C60.7545 95.84 60.7919 95.84 60.7919 95.84V96H59.5119V94.832ZM59.5119 85.968V84.8H60.7919V84.96C60.7919 84.96 60.7545 84.96 60.6799 84.96C60.6159 84.96 60.5839 84.96 60.5839 84.96C60.3065 84.96 60.0665 85.0613 59.8639 85.264C59.6719 85.456 59.5705 85.6907 59.5599 85.968H59.5119ZM65.7728 84.8V96H63.3728V84.8H65.7728ZM69.9968 95.312L70.3808 96H65.7248V95.312H69.9968ZM69.4048 90.144V90.816H65.7248V90.144H69.4048ZM70.1888 84.8V85.488H65.7248V84.8H70.1888ZM71.1648 92.72L70.4288 96H67.2928L67.8688 95.312C68.4021 95.312 68.8714 95.2107 69.2768 95.008C69.6821 94.7947 70.0288 94.496 70.3168 94.112C70.6048 93.7173 70.8341 93.2533 71.0048 92.72H71.1648ZM69.4048 90.784V92.32H69.2448V92.192C69.2448 91.7973 69.1168 91.472 68.8608 91.216C68.6048 90.96 68.2794 90.8267 67.8848 90.816V90.784H69.4048ZM69.4048 88.64V90.176H67.8848V90.144C68.2794 90.1333 68.6048 90 68.8608 89.744C69.1168 89.4773 69.2448 89.1467 69.2448 88.752V88.64H69.4048ZM70.1888 85.44V87.312H70.0288V87.12C70.0288 86.6293 69.8794 86.2347 69.5808 85.936C69.2928 85.6373 68.8981 85.4827 68.3968 85.472V85.44H70.1888ZM70.1888 84.512V84.976L68.2368 84.8C68.4714 84.8 68.7168 84.784 68.9728 84.752C69.2394 84.72 69.4848 84.6827 69.7088 84.64C69.9328 84.5973 70.0928 84.5547 70.1888 84.512ZM63.4208 94.832V96H62.1408V95.84C62.1408 95.84 62.1728 95.84 62.2368 95.84C62.3114 95.84 62.3488 95.84 62.3488 95.84C62.6261 95.84 62.8608 95.744 63.0528 95.552C63.2554 95.3493 63.3621 95.1093 63.3728 94.832H63.4208ZM63.4208 85.968H63.3728C63.3621 85.6907 63.2554 85.456 63.0528 85.264C62.8608 85.0613 62.6261 84.96 62.3488 84.96C62.3488 84.96 62.3114 84.96 62.2368 84.96C62.1728 84.96 62.1408 84.96 62.1408 84.96V84.8H63.4208V85.968ZM88.0581 84.576L88.1861 86.32L83.4341 94.56C83.4341 94.56 83.3808 94.656 83.2741 94.848C83.1675 95.0293 83.0608 95.2533 82.9541 95.52C82.8581 95.7867 82.8101 96.0533 82.8101 96.32H82.6501L82.0261 94.928L88.0581 84.576ZM77.2101 94.832V96H75.4341V95.84C75.4448 95.84 75.4928 95.84 75.5781 95.84C75.6528 95.84 75.6901 95.84 75.6901 95.84C75.9781 95.84 76.2341 95.7547 76.4581 95.584C76.6821 95.4027 76.8155 95.152 76.8581 94.832H77.2101ZM77.9141 95.088C77.9141 95.0987 77.9141 95.1093 77.9141 95.12C77.9141 95.1307 77.9141 95.1467 77.9141 95.168C77.9141 95.3387 77.9728 95.4987 78.0901 95.648C78.2181 95.7867 78.3675 95.856 78.5381 95.856H78.7781V96H77.8021V95.088H77.9141ZM78.1861 84.576H78.3301L78.8901 86.176L77.8181 96H76.6981L78.1861 84.576ZM78.3301 84.576L83.5621 93.168L82.6501 96.32L77.9141 88.368L78.3301 84.576ZM88.2021 84.576L89.7221 96H87.1461L86.3461 88.64L88.0581 84.576H88.2021ZM89.2261 94.832H89.5621C89.6155 95.152 89.7541 95.4027 89.9781 95.584C90.2021 95.7547 90.4528 95.84 90.7301 95.84C90.7301 95.84 90.7728 95.84 90.8581 95.84C90.9435 95.84 90.9861 95.84 90.9861 95.84V96H89.2261V94.832ZM87.0501 95.088H87.1621V96H86.1861V95.856H86.4261C86.6075 95.856 86.7568 95.7867 86.8741 95.648C86.9915 95.4987 87.0501 95.3387 87.0501 95.168C87.0501 95.1467 87.0501 95.1307 87.0501 95.12C87.0501 95.1093 87.0501 95.0987 87.0501 95.088ZM95.1321 84.8V96H92.7321V84.8H95.1321ZM99.3561 95.312L99.7401 96H95.0841V95.312H99.3561ZM98.7641 90.144V90.816H95.0841V90.144H98.7641ZM99.5481 84.8V85.488H95.0841V84.8H99.5481ZM100.524 92.72L99.7881 96H96.6521L97.2281 95.312C97.7615 95.312 98.2308 95.2107 98.6361 95.008C99.0415 94.7947 99.3881 94.496 99.6761 94.112C99.9641 93.7173 100.193 93.2533 100.364 92.72H100.524ZM98.7641 90.784V92.32H98.6041V92.192C98.6041 91.7973 98.4761 91.472 98.2201 91.216C97.9641 90.96 97.6388 90.8267 97.2441 90.816V90.784H98.7641ZM98.7641 88.64V90.176H97.2441V90.144C97.6388 90.1333 97.9641 90 98.2201 89.744C98.4761 89.4773 98.6041 89.1467 98.6041 88.752V88.64H98.7641ZM99.5481 85.44V87.312H99.3881V87.12C99.3881 86.6293 99.2388 86.2347 98.9401 85.936C98.6521 85.6373 98.2575 85.4827 97.7561 85.472V85.44H99.5481ZM99.5481 84.512V84.976L97.5961 84.8C97.8308 84.8 98.0761 84.784 98.3321 84.752C98.5988 84.72 98.8441 84.6827 99.0681 84.64C99.2921 84.5973 99.4521 84.5547 99.5481 84.512ZM92.7801 94.832V96H91.5001V95.84C91.5001 95.84 91.5321 95.84 91.5961 95.84C91.6708 95.84 91.7081 95.84 91.7081 95.84C91.9855 95.84 92.2201 95.744 92.4121 95.552C92.6148 95.3493 92.7215 95.1093 92.7321 94.832H92.7801ZM92.7801 85.968H92.7321C92.7215 85.6907 92.6148 85.456 92.4121 85.264C92.2201 85.0613 91.9855 84.96 91.7081 84.96C91.7081 84.96 91.6708 84.96 91.5961 84.96C91.5321 84.96 91.5001 84.96 91.5001 84.96V84.8H92.7801V85.968ZM107.482 84.848V96H105.082V84.848H107.482ZM111.402 84.784V85.456H101.162V84.784H111.402ZM111.402 85.408V87.296L111.242 87.28V87.104C111.242 86.6027 111.092 86.208 110.794 85.92C110.506 85.6213 110.111 85.4667 109.61 85.456V85.408H111.402ZM111.402 84.496V84.96L109.45 84.784C109.684 84.784 109.93 84.768 110.186 84.736C110.452 84.704 110.698 84.6667 110.922 84.624C111.146 84.5813 111.306 84.5387 111.402 84.496ZM105.13 94.832V96H103.85V95.84C103.85 95.84 103.882 95.84 103.946 95.84C104.02 95.84 104.058 95.84 104.058 95.84C104.335 95.84 104.57 95.744 104.762 95.552C104.964 95.3493 105.071 95.1093 105.082 94.832H105.13ZM107.434 94.832H107.482C107.492 95.1093 107.594 95.3493 107.786 95.552C107.988 95.744 108.228 95.84 108.506 95.84C108.506 95.84 108.538 95.84 108.602 95.84C108.676 95.84 108.714 95.84 108.714 95.84V96H107.434V94.832ZM102.938 85.408V85.456C102.447 85.4667 102.052 85.6213 101.754 85.92C101.466 86.208 101.322 86.6027 101.322 87.104V87.28L101.162 87.296V85.408H102.938ZM101.162 84.496C101.268 84.5387 101.428 84.5813 101.642 84.624C101.866 84.6667 102.111 84.704 102.378 84.736C102.644 84.768 102.89 84.784 103.114 84.784L101.162 84.96V84.496ZM127.161 91.328L127.305 94.08C127.071 94.4747 126.756 94.832 126.361 95.152C125.967 95.472 125.476 95.7333 124.889 95.936C124.303 96.128 123.609 96.224 122.809 96.224C121.508 96.2133 120.367 95.9787 119.385 95.52C118.415 95.0507 117.663 94.384 117.129 93.52C116.596 92.656 116.329 91.6107 116.329 90.384C116.329 89.1893 116.591 88.16 117.113 87.296C117.636 86.4213 118.383 85.7493 119.353 85.28C120.335 84.8107 121.503 84.576 122.857 84.576C123.711 84.576 124.473 84.6613 125.145 84.832C125.828 85.0027 126.399 85.2107 126.857 85.456L126.873 88.192H126.729C126.441 87.136 125.972 86.384 125.321 85.936C124.671 85.4773 123.908 85.248 123.033 85.248C122.18 85.248 121.449 85.456 120.841 85.872C120.233 86.288 119.764 86.8747 119.433 87.632C119.103 88.3893 118.937 89.296 118.937 90.352C118.937 91.408 119.092 92.32 119.401 93.088C119.721 93.856 120.169 94.4533 120.745 94.88C121.332 95.3067 122.02 95.5307 122.809 95.552C123.631 95.552 124.324 95.4187 124.889 95.152C125.455 94.8853 125.908 94.4427 126.249 93.824C126.601 93.2053 126.863 92.3733 127.033 91.328H127.161ZM132.351 84.8V96H129.951V84.8H132.351ZM136.575 95.312L136.959 96H132.303V95.312H136.575ZM137.743 92.72L137.007 96H133.871L134.447 95.312C134.98 95.312 135.45 95.2107 135.855 95.008C136.26 94.7947 136.607 94.496 136.895 94.112C137.183 93.7173 137.412 93.2533 137.583 92.72H137.743ZM129.999 94.832V96H128.719V95.84C128.719 95.84 128.751 95.84 128.815 95.84C128.89 95.84 128.927 95.84 128.927 95.84C129.204 95.84 129.439 95.744 129.631 95.552C129.834 95.3493 129.94 95.1093 129.951 94.832H129.999ZM129.999 85.968H129.951C129.94 85.6907 129.834 85.456 129.631 85.264C129.439 85.0613 129.204 84.96 128.927 84.96C128.927 84.96 128.89 84.96 128.815 84.96C128.751 84.96 128.719 84.96 128.719 84.96V84.8H129.999V85.968ZM132.303 85.968V84.8H133.583V84.96C133.572 84.96 133.535 84.96 133.471 84.96C133.407 84.96 133.375 84.96 133.375 84.96C133.098 84.96 132.858 85.0613 132.655 85.264C132.463 85.456 132.362 85.6907 132.351 85.968H132.303ZM144.869 84.576C146.149 84.576 147.258 84.816 148.197 85.296C149.146 85.7653 149.877 86.432 150.389 87.296C150.912 88.16 151.173 89.1947 151.173 90.4C151.173 91.5947 150.912 92.6293 150.389 93.504C149.877 94.368 149.146 95.04 148.197 95.52C147.258 95.9893 146.149 96.224 144.869 96.224C143.589 96.224 142.474 95.9893 141.525 95.52C140.586 95.04 139.861 94.368 139.349 93.504C138.837 92.64 138.581 91.6053 138.581 90.4C138.581 89.2053 138.837 88.176 139.349 87.312C139.861 86.4373 140.586 85.7653 141.525 85.296C142.474 84.816 143.589 84.576 144.869 84.576ZM144.869 95.552C145.626 95.552 146.277 95.344 146.821 94.928C147.365 94.5013 147.786 93.904 148.085 93.136C148.384 92.368 148.533 91.456 148.533 90.4C148.533 89.344 148.384 88.432 148.085 87.664C147.786 86.896 147.365 86.304 146.821 85.888C146.277 85.4613 145.626 85.248 144.869 85.248C144.122 85.248 143.472 85.4613 142.917 85.888C142.373 86.304 141.952 86.896 141.653 87.664C141.354 88.432 141.205 89.344 141.205 90.4C141.205 91.456 141.354 92.368 141.653 93.136C141.952 93.904 142.373 94.5013 142.917 94.928C143.472 95.344 144.122 95.552 144.869 95.552ZM155.851 84.8V96H153.451V84.8H155.851ZM153.499 94.832V96H152.219V95.84C152.219 95.84 152.251 95.84 152.315 95.84C152.39 95.84 152.427 95.84 152.427 95.84C152.704 95.84 152.939 95.744 153.131 95.552C153.334 95.3493 153.44 95.1093 153.451 94.832H153.499ZM153.499 85.968H153.451C153.44 85.6907 153.334 85.456 153.131 85.264C152.939 85.0613 152.704 84.96 152.427 84.96C152.427 84.96 152.39 84.96 152.315 84.96C152.251 84.96 152.219 84.96 152.219 84.96V84.8H153.499V85.968ZM155.803 94.832H155.851C155.862 95.1093 155.963 95.3493 156.155 95.552C156.358 95.744 156.598 95.84 156.875 95.84C156.875 95.84 156.907 95.84 156.971 95.84C157.035 95.84 157.072 95.84 157.083 95.84V96H155.803V94.832ZM155.803 85.968V84.8H157.083V84.96C157.072 84.96 157.035 84.96 156.971 84.96C156.907 84.96 156.875 84.96 156.875 84.96C156.598 84.96 156.358 85.0613 156.155 85.264C155.963 85.456 155.862 85.6907 155.851 85.968H155.803ZM162.166 84.576C162.38 84.576 162.641 84.5867 162.95 84.608C163.27 84.6293 163.596 84.6613 163.926 84.704C164.268 84.736 164.561 84.7733 164.806 84.816C165.062 84.848 165.238 84.8853 165.334 84.928L165.142 87.088H164.982C164.982 86.5333 164.774 86.0907 164.358 85.76C163.953 85.4187 163.409 85.248 162.726 85.248C162.108 85.248 161.606 85.3973 161.222 85.696C160.849 85.9947 160.652 86.3573 160.63 86.784C160.62 87.104 160.721 87.3813 160.934 87.616C161.148 87.8507 161.42 88.0693 161.75 88.272L164.806 90.256C165.297 90.5333 165.665 90.896 165.91 91.344C166.166 91.792 166.278 92.3147 166.246 92.912C166.193 93.9573 165.793 94.7733 165.046 95.36C164.3 95.936 163.286 96.224 162.006 96.224C161.537 96.224 161.078 96.1813 160.63 96.096C160.193 96.0213 159.804 95.9147 159.462 95.776C159.121 95.6267 158.849 95.4507 158.646 95.248C158.561 95.0133 158.524 94.7307 158.534 94.4C158.545 94.0693 158.593 93.7333 158.678 93.392C158.774 93.0507 158.892 92.768 159.03 92.544H159.174C159.132 93.088 159.228 93.5947 159.462 94.064C159.708 94.5227 160.06 94.8907 160.518 95.168C160.988 95.4347 161.542 95.5627 162.182 95.552C162.886 95.5413 163.43 95.3653 163.814 95.024C164.198 94.672 164.39 94.2507 164.39 93.76C164.39 93.4293 164.289 93.1307 164.086 92.864C163.894 92.5973 163.574 92.3413 163.126 92.096L160.326 90.24C159.761 89.92 159.35 89.5093 159.094 89.008C158.838 88.5067 158.737 87.9627 158.79 87.376C158.844 86.8213 159.009 86.336 159.286 85.92C159.564 85.4933 159.942 85.1627 160.422 84.928C160.913 84.6933 161.494 84.576 162.166 84.576ZM165.35 84.736L165.318 85.072H163.43V84.736H165.35ZM173.528 84.848V96H171.128V84.848H173.528ZM177.448 84.784V85.456H167.208V84.784H177.448ZM177.448 85.408V87.296L177.288 87.28V87.104C177.288 86.6027 177.139 86.208 176.84 85.92C176.552 85.6213 176.158 85.4667 175.656 85.456V85.408H177.448ZM177.448 84.496V84.96L175.496 84.784C175.731 84.784 175.976 84.768 176.232 84.736C176.499 84.704 176.744 84.6667 176.968 84.624C177.192 84.5813 177.352 84.5387 177.448 84.496ZM171.176 94.832V96H169.896V95.84C169.896 95.84 169.928 95.84 169.992 95.84C170.067 95.84 170.104 95.84 170.104 95.84C170.382 95.84 170.616 95.744 170.808 95.552C171.011 95.3493 171.118 95.1093 171.128 94.832H171.176ZM173.48 94.832H173.528C173.539 95.1093 173.64 95.3493 173.832 95.552C174.035 95.744 174.275 95.84 174.552 95.84C174.552 95.84 174.584 95.84 174.648 95.84C174.723 95.84 174.76 95.84 174.76 95.84V96H173.48V94.832ZM168.984 85.408V85.456C168.494 85.4667 168.099 85.6213 167.8 85.92C167.512 86.208 167.368 86.6027 167.368 87.104V87.28L167.208 87.296V85.408H168.984ZM167.208 84.496C167.315 84.5387 167.475 84.5813 167.688 84.624C167.912 84.6667 168.158 84.704 168.424 84.736C168.691 84.768 168.936 84.784 169.16 84.784L167.208 84.96V84.496ZM181.96 84.8V96H179.56V84.8H181.96ZM186.184 95.312L186.568 96H181.912V95.312H186.184ZM185.592 90.144V90.816H181.912V90.144H185.592ZM186.376 84.8V85.488H181.912V84.8H186.376ZM187.352 92.72L186.616 96H183.48L184.056 95.312C184.59 95.312 185.059 95.2107 185.464 95.008C185.87 94.7947 186.216 94.496 186.504 94.112C186.792 93.7173 187.022 93.2533 187.192 92.72H187.352ZM185.592 90.784V92.32H185.432V92.192C185.432 91.7973 185.304 91.472 185.048 91.216C184.792 90.96 184.467 90.8267 184.072 90.816V90.784H185.592ZM185.592 88.64V90.176H184.072V90.144C184.467 90.1333 184.792 90 185.048 89.744C185.304 89.4773 185.432 89.1467 185.432 88.752V88.64H185.592ZM186.376 85.44V87.312H186.216V87.12C186.216 86.6293 186.067 86.2347 185.768 85.936C185.48 85.6373 185.086 85.4827 184.584 85.472V85.44H186.376ZM186.376 84.512V84.976L184.424 84.8C184.659 84.8 184.904 84.784 185.16 84.752C185.427 84.72 185.672 84.6827 185.896 84.64C186.12 84.5973 186.28 84.5547 186.376 84.512ZM179.608 94.832V96H178.328V95.84C178.328 95.84 178.36 95.84 178.424 95.84C178.499 95.84 178.536 95.84 178.536 95.84C178.814 95.84 179.048 95.744 179.24 95.552C179.443 95.3493 179.55 95.1093 179.56 94.832H179.608ZM179.608 85.968H179.56C179.55 85.6907 179.443 85.456 179.24 85.264C179.048 85.0613 178.814 84.96 178.536 84.96C178.536 84.96 178.499 84.96 178.424 84.96C178.36 84.96 178.328 84.96 178.328 84.96V84.8H179.608V85.968ZM191.847 84.8H193.911C194.391 84.8 194.86 84.8533 195.319 84.96C195.778 85.0667 196.183 85.2373 196.535 85.472C196.898 85.7067 197.186 86.016 197.399 86.4C197.612 86.784 197.719 87.2587 197.719 87.824C197.719 88.272 197.623 88.72 197.431 89.168C197.25 89.6053 196.967 89.984 196.583 90.304C196.199 90.6133 195.703 90.8 195.095 90.864C195.436 90.9707 195.746 91.1627 196.023 91.44C196.311 91.7173 196.546 91.9947 196.727 92.272C196.738 92.2933 196.796 92.3893 196.903 92.56C197.02 92.7307 197.159 92.944 197.319 93.2C197.49 93.4453 197.666 93.696 197.847 93.952C198.028 94.208 198.194 94.432 198.343 94.624C198.578 94.912 198.791 95.1467 198.983 95.328C199.175 95.4987 199.378 95.6267 199.591 95.712C199.804 95.7867 200.05 95.8293 200.327 95.84V96H198.759C198.183 96 197.66 95.952 197.191 95.856C196.722 95.7493 196.306 95.5733 195.943 95.328C195.58 95.0827 195.266 94.752 194.999 94.336C194.914 94.208 194.818 94.048 194.711 93.856C194.615 93.6533 194.514 93.44 194.407 93.216C194.3 92.992 194.194 92.7787 194.087 92.576C193.991 92.3627 193.906 92.1707 193.831 92C193.756 91.8293 193.703 91.696 193.671 91.6C193.532 91.2587 193.367 91.0027 193.175 90.832C192.994 90.6613 192.796 90.56 192.583 90.528V90.368C192.615 90.368 192.679 90.368 192.775 90.368C192.871 90.368 192.972 90.368 193.079 90.368C193.367 90.368 193.644 90.3093 193.911 90.192C194.188 90.0747 194.434 89.8827 194.647 89.616C194.86 89.3493 195.01 88.9813 195.095 88.512C195.116 88.416 195.132 88.304 195.143 88.176C195.164 88.048 195.17 87.904 195.159 87.744C195.127 86.976 194.935 86.416 194.583 86.064C194.231 85.7013 193.794 85.5147 193.271 85.504C193.122 85.4933 192.956 85.4933 192.775 85.504C192.604 85.504 192.444 85.504 192.295 85.504C192.156 85.504 192.06 85.504 192.007 85.504C192.007 85.4933 191.991 85.4347 191.959 85.328C191.938 85.2107 191.911 85.0933 191.879 84.976C191.858 84.8587 191.847 84.8 191.847 84.8ZM192.055 84.8V96H189.655V84.8H192.055ZM189.703 94.832V96H188.423V95.84C188.434 95.84 188.466 95.84 188.519 95.84C188.583 95.84 188.62 95.84 188.631 95.84C188.908 95.84 189.143 95.744 189.335 95.552C189.538 95.3493 189.644 95.1093 189.655 94.832H189.703ZM189.703 85.968H189.655C189.644 85.6907 189.538 85.456 189.335 85.264C189.143 85.0613 188.908 84.96 188.631 84.96C188.62 84.96 188.583 84.96 188.519 84.96C188.466 84.96 188.434 84.96 188.423 84.96V84.8H189.703V85.968ZM192.007 94.832H192.055C192.055 95.1093 192.156 95.3493 192.359 95.552C192.562 95.744 192.802 95.84 193.079 95.84C193.1 95.84 193.138 95.84 193.191 95.84C193.244 95.84 193.271 95.84 193.271 95.84V96H192.007V94.832ZM203.963 84.576C204.177 84.576 204.438 84.5867 204.747 84.608C205.067 84.6293 205.393 84.6613 205.723 84.704C206.065 84.736 206.358 84.7733 206.603 84.816C206.859 84.848 207.035 84.8853 207.131 84.928L206.939 87.088H206.779C206.779 86.5333 206.571 86.0907 206.155 85.76C205.75 85.4187 205.206 85.248 204.523 85.248C203.905 85.248 203.403 85.3973 203.019 85.696C202.646 85.9947 202.449 86.3573 202.427 86.784C202.417 87.104 202.518 87.3813 202.731 87.616C202.945 87.8507 203.217 88.0693 203.547 88.272L206.603 90.256C207.094 90.5333 207.462 90.896 207.707 91.344C207.963 91.792 208.075 92.3147 208.043 92.912C207.99 93.9573 207.59 94.7733 206.843 95.36C206.097 95.936 205.083 96.224 203.803 96.224C203.334 96.224 202.875 96.1813 202.427 96.096C201.99 96.0213 201.601 95.9147 201.259 95.776C200.918 95.6267 200.646 95.4507 200.443 95.248C200.358 95.0133 200.321 94.7307 200.331 94.4C200.342 94.0693 200.39 93.7333 200.475 93.392C200.571 93.0507 200.689 92.768 200.827 92.544H200.971C200.929 93.088 201.025 93.5947 201.259 94.064C201.505 94.5227 201.857 94.8907 202.315 95.168C202.785 95.4347 203.339 95.5627 203.979 95.552C204.683 95.5413 205.227 95.3653 205.611 95.024C205.995 94.672 206.187 94.2507 206.187 93.76C206.187 93.4293 206.086 93.1307 205.883 92.864C205.691 92.5973 205.371 92.3413 204.923 92.096L202.123 90.24C201.558 89.92 201.147 89.5093 200.891 89.008C200.635 88.5067 200.534 87.9627 200.587 87.376C200.641 86.8213 200.806 86.336 201.083 85.92C201.361 85.4933 201.739 85.1627 202.219 84.928C202.71 84.6933 203.291 84.576 203.963 84.576ZM207.147 84.736L207.115 85.072H205.227V84.736H207.147Z" fill="white"/>
</g>
<defs>
<filter id="filter0_d_8590_532" x="85.64" y="27.24" width="166.541" height="64.6721" filterUnits="userSpaceOnUse" color-interpolation-filters="sRGB">
<feFlood flood-opacity="0" result="BackgroundImageFix"/>
<feColorMatrix in="SourceAlpha" type="matrix" values="0 0 0 0 0 0 0 0 0 0 0 0 0 0 0 0 0 0 127 0" result="hardAlpha"/>
<feOffset dx="18" dy="4"/>
<feGaussianBlur stdDeviation="13"/>
<feComposite in2="hardAlpha" operator="out"/>
<feColorMatrix type="matrix" values="0 0 0 0 0 0 0 0 0 0 0 0 0 0 0 0 0 0 0.44 0"/>
<feBlend mode="normal" in2="BackgroundImageFix" result="effect1_dropShadow_8590_532"/>
<feBlend mode="normal" in="SourceGraphic" in2="effect1_dropShadow_8590_532" result="shape"/>
</filter>
<filter id="filter1_d_8590_532" x="79.64" y="89.5759" width="172.619" height="64.3201" filterUnits="userSpaceOnUse" color-interpolation-filters="sRGB">
<feFlood flood-opacity="0" result="BackgroundImageFix"/>
<feColorMatrix in="SourceAlpha" type="matrix" values="0 0 0 0 0 0 0 0 0 0 0 0 0 0 0 0 0 0 127 0" result="hardAlpha"/>
<feOffset dx="18" dy="4"/>
<feGaussianBlur stdDeviation="13"/>
<feComposite in2="hardAlpha" operator="out"/>
<feColorMatrix type="matrix" values="0 0 0 0 0 0 0 0 0 0 0 0 0 0 0 0 0 0 0.44 0"/>
<feBlend mode="normal" in2="BackgroundImageFix" result="effect1_dropShadow_8590_532"/>
<feBlend mode="normal" in="SourceGraphic" in2="effect1_dropShadow_8590_532" result="shape"/>
</filter>
<filter id="filter2_d_8590_532" x="0.223999" y="0.47998" width="251.847" height="63.8401" filterUnits="userSpaceOnUse" color-interpolation-filters="sRGB">
<feFlood flood-opacity="0" result="BackgroundImageFix"/>
<feColorMatrix in="SourceAlpha" type="matrix" values="0 0 0 0 0 0 0 0 0 0 0 0 0 0 0 0 0 0 127 0" result="hardAlpha"/>
<feOffset dx="18" dy="4"/>
<feGaussianBlur stdDeviation="13"/>
<feComposite in2="hardAlpha" operator="out"/>
<feColorMatrix type="matrix" values="0 0 0 0 0 0 0 0 0 0 0 0 0 0 0 0 0 0 0.44 0"/>
<feBlend mode="normal" in2="BackgroundImageFix" result="effect1_dropShadow_8590_532"/>
<feBlend mode="normal" in="SourceGraphic" in2="effect1_dropShadow_8590_532" result="shape"/>
</filter>
<filter id="filter3_d_8590_532" x="29.224" y="62.4961" width="222.867" height="63.824" filterUnits="userSpaceOnUse" color-interpolation-filters="sRGB">
<feFlood flood-opacity="0" result="BackgroundImageFix"/>
<feColorMatrix in="SourceAlpha" type="matrix" values="0 0 0 0 0 0 0 0 0 0 0 0 0 0 0 0 0 0 127 0" result="hardAlpha"/>
<feOffset dx="18" dy="4"/>
<feGaussianBlur stdDeviation="13"/>
<feComposite in2="hardAlpha" operator="out"/>
<feColorMatrix type="matrix" values="0 0 0 0 0 0 0 0 0 0 0 0 0 0 0 0 0 0 0.44 0"/>
<feBlend mode="normal" in2="BackgroundImageFix" result="effect1_dropShadow_8590_532"/>
<feBlend mode="normal" in="SourceGraphic" in2="effect1_dropShadow_8590_532" result="shape"/>
</filter>
</defs>
</svg>
