<svg width="32" height="32" viewBox="0 0 32 32" fill="none" xmlns="http://www.w3.org/2000/svg">
<path d="M25.5921 8.55623C26.1854 7.96292 26.1854 7.00097 25.5921 6.40766C24.9987 5.81435 24.0368 5.81435 23.4435 6.40766L15.9997 13.8515L8.55586 6.40766C7.96255 5.81435 7.0006 5.81435 6.40729 6.40766C5.81398 7.00097 5.81398 7.96292 6.40729 8.55623L13.8511 16L6.40729 23.4439C5.81398 24.0372 5.81398 24.9991 6.40729 25.5924C7.0006 26.1857 7.96255 26.1857 8.55586 25.5924L15.9997 18.1486L23.4435 25.5924C24.0368 26.1857 24.9987 26.1857 25.5921 25.5924C26.1854 24.9991 26.1854 24.0372 25.5921 23.4438L18.1482 16L25.5921 8.55623Z" fill="#1B2129"/>
</svg>
