<svg width="32" height="32" viewBox="0 0 32 32" fill="none" xmlns="http://www.w3.org/2000/svg">
<path d="M25.5923 8.55611C26.1856 7.9628 26.1856 7.00085 25.5923 6.40754C24.999 5.81423 24.037 5.81423 23.4437 6.40754L15.9999 13.8513L8.55611 6.40754C7.9628 5.81422 7.00085 5.81423 6.40754 6.40754C5.81423 7.00085 5.81423 7.9628 6.40754 8.55611L13.8513 15.9999L6.40754 23.4437C5.81422 24.037 5.81423 24.999 6.40754 25.5923C7.00085 26.1856 7.9628 26.1856 8.55611 25.5923L15.9999 18.1485L23.4437 25.5923C24.037 26.1856 24.999 26.1856 25.5923 25.5923C26.1856 24.999 26.1856 24.037 25.5923 23.4437L18.1485 15.9999L25.5923 8.55611Z" fill="#292929"/>
</svg>
