<svg fill="#000000" xmlns="http://www.w3.org/2000/svg" viewBox="0 0 26 26" width="26px" height="26px"><path d="M 8.5 2 C 7.671875 2 7 2.671875 7 3.5 L 7 16 L 4.976563 13.230469 C 4.375 12.304688 3.203125 11.992188 2.34375 12.523438 C 1.492188 13.066406 1.277344 14.246094 1.871094 15.171875 C 1.871094 15.171875 5.136719 20.113281 6.53125 22.230469 C 7.921875 24.34375 10.175781 26 14.390625 26 C 21.375 26 22 20.609375 22 19 L 22 12.5 C 22 11.671875 21.328125 11 20.5 11 C 19.671875 11 19 11.671875 19 12.5 C 19 12.777344 18.777344 13 18.5 13 C 18.222656 13 18 12.777344 18 12.5 L 18 11.5 C 18 10.671875 17.328125 10 16.5 10 C 15.671875 10 15 10.671875 15 11.5 C 15 11.773438 14.773438 12 14.5 12 C 14.226563 12 14 11.773438 14 11.5 C 14 10.671875 13.328125 10 12.5 10 C 11.671875 10 11 10.671875 11 11.5 C 11 11.773438 10.773438 12 10.5 12 C 10.226563 12 10 11.773438 10 11.5 L 10 3.5 C 10 2.671875 9.328125 2 8.5 2 Z"/></svg>