<?xml version="1.0" standalone="no"?>
<!DOCTYPE svg PUBLIC "-//W3C//DTD SVG 20010904//EN"
 "http://www.w3.org/TR/2001/REC-SVG-20010904/DTD/svg10.dtd">
<svg version="1.0" xmlns="http://www.w3.org/2000/svg"
 width="1280.000000pt" height="640.000000pt" viewBox="0 0 1280.000000 640.000000"
 preserveAspectRatio="xMidYMid meet">
<metadata>
Created by potrace 1.15, written by Peter Selinger 2001-2017
</metadata>
<g transform="translate(0.000000,640.000000) scale(0.100000,-0.100000)"
fill="#000000" stroke="none">
<path d="M320 5266 c-203 -55 -333 -236 -317 -444 10 -136 95 -266 215 -330
96 -51 9 -41 1177 -137 237 -19 624 -51 860 -71 237 -19 495 -40 574 -47 l143
-12 879 -1360 c484 -748 916 -1415 960 -1483 93 -141 152 -195 252 -230 l62
-22 1275 0 1275 0 62 22 c100 35 159 89 252 230 44 68 476 735 960 1483 l879
1360 143 12 c79 7 338 28 574 47 237 20 624 52 860 71 1168 96 1081 86 1177
137 120 64 205 194 215 330 13 175 -78 336 -233 412 -106 52 -121 52 -651 7
-266 -23 -749 -64 -1075 -92 -1552 -131 -1392 -115 -1457 -149 -70 -38 -130
-97 -168 -166 -15 -28 -437 -684 -937 -1457 l-909 -1407 -967 0 -967 0 -909
1407 c-500 773 -922 1429 -937 1457 -38 69 -98 128 -168 166 -65 34 95 18
-1464 150 -330 28 -809 69 -1065 90 -513 44 -506 44 -570 26z"/>
<path d="M4312 4489 c2 -7 96 -155 208 -330 l205 -318 1675 0 1675 0 205 318
c112 175 206 323 208 330 3 8 -523 11 -2088 11 -1565 0 -2091 -3 -2088 -11z"/>
</g>
</svg>
