<svg width="32" height="32" viewBox="0 0 32 32" fill="none" xmlns="http://www.w3.org/2000/svg">
<g clip-path="url(#clip0_67_73)">
<path d="M4 18.6666C4 19.403 4.59695 20 5.33333 20H26.6667C27.403 20 28 19.403 28 18.6666C28 17.9302 27.403 17.3333 26.6667 17.3333H5.33333C4.59695 17.3333 4 17.9302 4 18.6666ZM4 13.3333C4 14.0697 4.59695 14.6666 5.33333 14.6666H26.6667C27.403 14.6666 28 14.0697 28 13.3333C28 12.5969 27.403 12 26.6667 12H5.33333C4.59695 12 4 12.5969 4 13.3333ZM5.33333 6.66663C4.59695 6.66663 4 7.26358 4 7.99996C4 8.73634 4.59695 9.33329 5.33333 9.33329H26.6667C27.403 9.33329 28 8.73634 28 7.99996C28 7.26358 27.403 6.66663 26.6667 6.66663H5.33333Z" fill="#292929"/>
<path d="M26.6667 25.3333H5.33333C4.59695 25.3333 4 24.7363 4 24C4 23.2636 4.59695 22.6666 5.33333 22.6666H26.6667C27.403 22.6666 28 23.2636 28 24C28 24.7363 27.403 25.3333 26.6667 25.3333Z" fill="#292929"/>
</g>
<defs>
<clipPath id="clip0_67_73">
<rect width="32" height="32" fill="white"/>
</clipPath>
</defs>
</svg>
