<svg width="24" height="24" viewBox="0 0 24 24" fill="none" xmlns="http://www.w3.org/2000/svg">
<g clip-path="url(#clip0_26_315)">
<path d="M3 17C3 17.5523 3.44772 18 4 18H11C11.5523 18 12 17.5523 12 17V17C12 16.4477 11.5523 16 11 16H4C3.44772 16 3 16.4477 3 17V17ZM3 12C3 12.5523 3.44772 13 4 13H20C20.5523 13 21 12.5523 21 12V12C21 11.4477 20.5523 11 20 11H4C3.44772 11 3 11.4477 3 12V12ZM4 6C3.44772 6 3 6.44772 3 7V7C3 7.55228 3.44772 8 4 8H15C15.5523 8 16 7.55228 16 7V7C16 6.44772 15.5523 6 15 6H4Z" fill="#292929"/>
</g>
<defs>
<clipPath id="clip0_26_315">
<rect width="24" height="24" fill="white"/>
</clipPath>
</defs>
</svg>
