<svg width="82" height="48" viewBox="0 0 82 48" fill="none" xmlns="http://www.w3.org/2000/svg">
<path d="M41.0001 14.8602L55.5358 5.89013L56.0736 5.87242L51.457 20.4L48.3311 19.9691L51.0405 11.8755L41.1844 17.6921H40.8158L37.7513 15.8835L38.8263 13.5702L41.0001 14.8602Z" fill="white"/>
<path d="M40.9025 0.899853L41.227 0.900308L46.1427 10.8769L43.5027 12.4396L41.0297 7.21687L38.1006 13.1349L38.1026 13.1362L36.9989 15.4394L30.9595 11.8755L33.6691 19.9691L30.5429 20.4L25.9265 5.87241L26.4642 5.89012L35.5161 11.5261L40.9025 0.899853Z" fill="white"/>
<path d="M12.3727 29.9376L18.1248 22.68H22.8349V37.8H18.4286V28.1448L12.3727 35.532H12.1556L6.09969 28.1448V37.8H1.82363V22.68H6.66404L12.3727 29.9376Z" fill="white"/>
<path d="M29.9147 22.68V37.8H25.4867V22.68H29.9147Z" fill="white"/>
<path fill-rule="evenodd" clip-rule="evenodd" d="M46.5734 37.8H51.2836L43.4261 22.68H38.5857L30.7281 37.8H35.3732L36.8058 34.9056H45.1408L46.5734 37.8ZM38.3252 31.7736L40.9733 26.4168L43.5997 31.7736H38.3252Z" fill="white"/>
<path d="M62.6099 29.9376L68.362 22.68H73.0722V37.8H68.6659V28.1448L62.6099 35.532H62.3929L56.3369 28.1448V37.8H52.0609V22.68H56.9013L62.6099 29.9376Z" fill="white"/>
<path d="M80.152 37.8V22.68H75.724V37.8H80.152Z" fill="white"/>
<path d="M2.43825 43.47C2.43825 44.9754 3.48857 45.7554 5.07973 45.7554C6.036 45.7554 6.82766 45.4434 7.25093 44.7102L7.87798 45.0222C7.36066 45.8412 6.4044 46.3638 5.06406 46.3638C3.01828 46.3638 1.76416 45.2406 1.76416 43.47C1.76416 41.6994 3.01828 40.5762 5.08757 40.5762C6.4044 40.5762 7.36066 41.1066 7.87798 41.9178L7.25093 42.2298C6.81982 41.5044 6.036 41.1846 5.07973 41.1846C3.48857 41.1846 2.43825 41.9646 2.43825 43.47Z" fill="white"/>
<path fill-rule="evenodd" clip-rule="evenodd" d="M16.1832 43.47C16.1832 45.2484 14.9291 46.3638 12.8441 46.3638C10.7591 46.3638 9.50501 45.2484 9.50501 43.47C9.50501 41.6916 10.7591 40.5762 12.8441 40.5762C14.9291 40.5762 16.1832 41.6916 16.1832 43.47ZM10.1791 43.47C10.1791 44.9364 11.2294 45.7554 12.8441 45.7554C14.4588 45.7554 15.5091 44.9364 15.5091 43.47C15.5091 42.0036 14.4588 41.1846 12.8441 41.1846C11.2294 41.1846 10.1791 42.0036 10.1791 43.47Z" fill="white"/>
<path d="M23.6308 40.74V45.2406L19.1551 40.74H18.4419V46.2H19.0846V41.5746L23.6935 46.2H24.2735V40.74H23.6308Z" fill="white"/>
<path fill-rule="evenodd" clip-rule="evenodd" d="M26.9328 40.74H29.5978C31.6044 40.74 32.8899 41.793 32.8899 43.47C32.8899 45.147 31.6044 46.2 29.5978 46.2H26.9328V40.74ZM27.5913 45.5916H29.5508C31.1106 45.5916 32.2158 44.8662 32.2158 43.47C32.2158 42.0738 31.1106 41.3484 29.5508 41.3484H27.5913V45.5916Z" fill="white"/>
<path fill-rule="evenodd" clip-rule="evenodd" d="M38.0798 46.3638C40.1647 46.3638 41.4189 45.2484 41.4189 43.47C41.4189 41.6916 40.1647 40.5762 38.0798 40.5762C35.9948 40.5762 34.7407 41.6916 34.7407 43.47C34.7407 45.2484 35.9948 46.3638 38.0798 46.3638ZM38.0798 45.7554C36.4651 45.7554 35.4148 44.9364 35.4148 43.47C35.4148 42.0036 36.4651 41.1846 38.0798 41.1846C39.6945 41.1846 40.7448 42.0036 40.7448 43.47C40.7448 44.9364 39.6945 45.7554 38.0798 45.7554Z" fill="white"/>
<path d="M50.0501 42.885L52.958 46.2H52.1194L49.5171 43.2672L47.6908 44.6868V46.2H47.0323V40.74H47.6908V43.938L51.845 40.74H52.7856L50.0501 42.885Z" fill="white"/>
<path d="M55.4393 40.74H54.7808V46.2H55.4393V40.74Z" fill="white"/>
<path d="M63.2939 45.2406V40.74H63.9367V46.2H63.3566L58.7478 41.5746V46.2H58.105V40.74H58.8183L63.2939 45.2406Z" fill="white"/>
<path d="M72.6393 43.3608H69.4883V43.9692H71.9809V44.679C71.5733 45.4356 70.6797 45.7554 69.5902 45.7554C67.9128 45.7554 66.8625 44.9832 66.8625 43.47C66.8625 41.9568 67.905 41.1846 69.5432 41.1846C70.5387 41.1846 71.2676 41.4966 71.7614 42.1128L72.3336 41.715C71.7849 41.0754 70.8835 40.5762 69.5432 40.5762C67.4426 40.5762 66.1884 41.6916 66.1884 43.47C66.1884 45.2484 67.4425 46.3638 69.5667 46.3638C71.0873 46.3638 72.1847 45.7242 72.6393 44.874V43.3608Z" fill="white"/>
<path d="M75.2019 42.1674C75.2019 42.846 76.2365 42.9864 77.5298 43.0878C79.1994 43.2204 80.3594 43.5402 80.3594 44.6166C80.3594 45.6228 79.3326 46.3638 77.5455 46.3638C76.3463 46.3638 75.194 45.9894 74.3397 45.2406L74.8021 44.7492C75.6016 45.4512 76.4874 45.7554 77.5847 45.7554C78.9094 45.7554 79.6854 45.342 79.6854 44.6634C79.6854 44.0004 78.878 43.8366 77.3966 43.7118C75.9308 43.587 74.5278 43.2672 74.5278 42.1908C74.5278 41.1612 75.8289 40.5762 77.2947 40.5762C78.4861 40.5762 79.4659 40.9896 80.1008 41.5512L79.5835 41.988C79.0505 41.4654 78.2431 41.1924 77.326 41.1846C76.3463 41.1768 75.2019 41.4498 75.2019 42.1674Z" fill="white"/>
</svg>
