<svg width="132" height="77" viewBox="0 0 132 77" fill="none" xmlns="http://www.w3.org/2000/svg">
<path d="M66.0001 23.7669L90.1079 8.81688L91 8.78736L83.3432 33L78.1587 32.2819L82.6524 18.7924L66.3058 28.4868H65.6944L60.6117 25.4726L62.3946 21.617L66.0001 23.7669Z" fill="white"/>
<path d="M65.8382 0.499756L66.3763 0.500515L74.5292 17.1281L70.1507 19.7327L66.049 11.0281L61.1911 20.8915L61.1945 20.8937L59.3638 24.7323L49.3473 18.7924L53.8413 32.2819L48.6564 33L41 8.78735L41.8916 8.81687L56.9046 18.2101L65.8382 0.499756Z" fill="white"/>
<path d="M18.5204 48.896L28.0604 36.8H35.8724V62H28.5644V45.908L18.5204 58.22H18.1604L8.11641 45.908V62H1.02441V36.8H9.05241L18.5204 48.896Z" fill="white"/>
<path d="M47.6145 36.8V62H40.2705V36.8H47.6145Z" fill="white"/>
<path fill-rule="evenodd" clip-rule="evenodd" d="M75.2436 62H83.0556L70.0236 36.8H61.9956L48.9636 62H56.6676L59.0436 57.176H72.8676L75.2436 62ZM61.5636 51.956L65.9556 43.028L70.3116 51.956H61.5636Z" fill="white"/>
<path d="M101.841 48.896L111.381 36.8H119.193V62H111.885V45.908L101.841 58.22H101.481L91.4367 45.908V62H84.3447V36.8H92.3727L101.841 48.896Z" fill="white"/>
<path d="M130.935 62V36.8H123.591V62H130.935Z" fill="white"/>
<path d="M2.04378 71.45C2.04378 73.959 3.78578 75.259 6.42478 75.259C8.01078 75.259 9.32378 74.739 10.0258 73.517L11.0658 74.037C10.2078 75.402 8.62178 76.273 6.39878 76.273C3.00578 76.273 0.925781 74.401 0.925781 71.45C0.925781 68.499 3.00578 66.627 6.43778 66.627C8.62178 66.627 10.2078 67.511 11.0658 68.863L10.0258 69.383C9.31078 68.174 8.01078 67.641 6.42478 67.641C3.78578 67.641 2.04378 68.941 2.04378 71.45Z" fill="white"/>
<path fill-rule="evenodd" clip-rule="evenodd" d="M24.8403 71.45C24.8403 74.414 22.7603 76.273 19.3023 76.273C15.8443 76.273 13.7643 74.414 13.7643 71.45C13.7643 68.486 15.8443 66.627 19.3023 66.627C22.7603 66.627 24.8403 68.486 24.8403 71.45ZM14.8823 71.45C14.8823 73.894 16.6243 75.259 19.3023 75.259C21.9803 75.259 23.7223 73.894 23.7223 71.45C23.7223 69.006 21.9803 67.641 19.3023 67.641C16.6243 67.641 14.8823 69.006 14.8823 71.45Z" fill="white"/>
<path d="M37.1924 66.9V74.401L29.7694 66.9H28.5863V76H29.6523V68.291L37.2963 76H38.2584V66.9H37.1924Z" fill="white"/>
<path fill-rule="evenodd" clip-rule="evenodd" d="M42.669 66.9H47.089C50.417 66.9 52.549 68.655 52.549 71.45C52.549 74.245 50.417 76 47.089 76H42.669V66.9ZM43.761 74.986H47.011C49.598 74.986 51.431 73.777 51.431 71.45C51.431 69.123 49.598 67.914 47.011 67.914H43.761V74.986Z" fill="white"/>
<path fill-rule="evenodd" clip-rule="evenodd" d="M61.1566 76.273C64.6146 76.273 66.6945 74.414 66.6945 71.45C66.6945 68.486 64.6146 66.627 61.1566 66.627C57.6986 66.627 55.6186 68.486 55.6186 71.45C55.6186 74.414 57.6986 76.273 61.1566 76.273ZM61.1566 75.259C58.4785 75.259 56.7366 73.894 56.7366 71.45C56.7366 69.006 58.4785 67.641 61.1566 67.641C63.8346 67.641 65.5766 69.006 65.5766 71.45C65.5766 73.894 63.8346 75.259 61.1566 75.259Z" fill="white"/>
<path d="M81.0097 70.475L85.8327 76H84.4417L80.1257 71.112L77.0967 73.478V76H76.0047V66.9H77.0967V72.23L83.9867 66.9H85.5467L81.0097 70.475Z" fill="white"/>
<path d="M89.9479 66.9H88.8559V76H89.9479V66.9Z" fill="white"/>
<path d="M102.975 74.401V66.9H104.041V76H103.079L95.4352 68.291V76H94.3692V66.9H95.5522L102.975 74.401Z" fill="white"/>
<path d="M118.475 71.268H113.249V72.282H117.383V73.465C116.707 74.726 115.225 75.259 113.418 75.259C110.636 75.259 108.894 73.972 108.894 71.45C108.894 68.928 110.623 67.641 113.34 67.641C114.991 67.641 116.2 68.161 117.019 69.188L117.968 68.525C117.058 67.459 115.563 66.627 113.34 66.627C109.856 66.627 107.776 68.486 107.776 71.45C107.776 74.414 109.856 76.273 113.379 76.273C115.901 76.273 117.721 75.207 118.475 73.79V71.268Z" fill="white"/>
<path d="M122.725 69.279C122.725 70.41 124.441 70.644 126.586 70.813C129.355 71.034 131.279 71.567 131.279 73.361C131.279 75.038 129.576 76.273 126.612 76.273C124.623 76.273 122.712 75.649 121.295 74.401L122.062 73.582C123.388 74.752 124.857 75.259 126.677 75.259C128.874 75.259 130.161 74.57 130.161 73.439C130.161 72.334 128.822 72.061 126.365 71.853C123.934 71.645 121.607 71.112 121.607 69.318C121.607 67.602 123.765 66.627 126.196 66.627C128.172 66.627 129.797 67.316 130.85 68.252L129.992 68.98C129.108 68.109 127.769 67.654 126.248 67.641C124.623 67.628 122.725 68.083 122.725 69.279Z" fill="white"/>
</svg>
