<?xml version="1.0" standalone="no"?>
<!DOCTYPE svg PUBLIC "-//W3C//DTD SVG 20010904//EN"
 "http://www.w3.org/TR/2001/REC-SVG-20010904/DTD/svg10.dtd">
<svg version="1.0" xmlns="http://www.w3.org/2000/svg"
 width="153.000000pt" height="24.000000pt" viewBox="0 0 153.000000 24.000000"
 preserveAspectRatio="xMidYMid meet">

<g transform="translate(0.000000,24.000000) scale(0.100000,-0.100000)"
fill="#000000" stroke="none">
<path d="M127 193 c-13 -21 -38 -64 -56 -95 -18 -32 -36 -60 -42 -63 -29 -19
5 -25 135 -25 l145 0 20 27 c12 14 24 38 27 52 4 14 12 31 19 36 22 18 54 77
48 91 -4 11 -35 14 -139 14 l-134 0 -23 -37z m198 -3 c3 -5 1 -19 -5 -30 -8
-15 -21 -20 -50 -20 -44 0 -47 5 -24 38 16 23 67 31 79 12z m-51 -102 c-19
-34 -40 -48 -71 -48 -37 0 -37 0 -21 35 9 21 18 25 55 25 33 0 42 -3 37 -12z"/>
<path d="M481 203 c-31 -33 -101 -154 -101 -177 0 -14 18 -16 133 -16 91 0
138 4 149 12 9 7 39 51 67 98 36 62 47 88 39 97 -7 9 -47 13 -135 13 -123 0
-125 0 -152 -27z m154 -13 c9 -14 -65 -138 -86 -143 -39 -10 -41 9 -4 71 41
71 74 97 90 72z"/>
<path d="M835 214 c-23 -24 -57 -93 -50 -104 3 -6 37 -10 76 -10 74 0 82 -7
47 -42 -19 -19 -22 -20 -33 -5 -9 12 -28 17 -67 17 -56 0 -78 -12 -78 -42 0
-16 12 -18 133 -18 146 0 150 1 186 63 34 56 25 67 -59 67 -75 0 -83 7 -48 42
19 19 22 20 33 5 9 -13 28 -17 74 -17 55 0 63 3 70 23 5 12 7 25 4 30 -2 4
-64 7 -138 7 -109 0 -136 -3 -150 -16z"/>
<path d="M1146 162 c-22 -37 -51 -86 -64 -110 l-24 -43 153 3 c111 2 153 6
157 16 3 9 -17 12 -77 12 -85 0 -95 6 -67 43 11 14 29 17 98 17 78 0 108 9
108 32 0 4 -39 9 -86 10 l-86 3 22 27 c20 26 26 27 117 30 66 2 98 7 101 16 3
9 -32 12 -155 12 l-158 0 -39 -68z"/>
</g>
</svg>
