<svg xmlns="http://www.w3.org/2000/svg" viewBox="0 0 306 95.8"><path d="M39.3 0H33L19.7 22.2 6.3 0H0v42h5.6V9.2L19.3 32h.7L33.8 9.2V42h5.5V0zm33.3 12v5.2c-2.4-3.7-6.2-5.9-11.3-5.9-8.3 0-15.2 6.9-15.2 15.8s6.8 15.8 15.2 15.8c5.1 0 8.9-2.3 11.3-5.9v5h5.2V12h-5.2zM61.9 37.7c-6 0-10.6-4.6-10.6-10.7s4.6-10.7 10.6-10.7c6.1 0 10.7 4.6 10.7 10.7S68 37.7 61.9 37.7zM103.3 17v-5h-8V3.6l-5.2 1.6V12h-5.9v5h5.9v16.3c0 7.5 4.2 9.9 13.2 8.7v-4.7c-5.3.2-8 .5-8-4V17h8zM114 29.4h25.1c.1-.8.2-1.6.2-2.3 0-8.4-5.9-15.8-14.9-15.8-9.4 0-15.7 6.9-15.7 15.8 0 9 6.4 15.8 16.1 15.8 6 0 10.6-2.7 13.2-6.8l-4.4-2.5c-1.5 2.5-4.5 4.4-8.6 4.4-5.7-.1-10-3.2-11-8.6zm10.4-13.3c4.5 0 8.8 2.8 9.7 8.7h-20c.7-5.2 4.6-8.7 10.3-8.7z" fill="#2f3864"/><path d="M72.8 53.8V59c-2.4-3.7-6.2-5.9-11.3-5.9-8.3 0-15.2 6.9-15.2 15.8s6.8 15.8 15.2 15.8c5.1 0 8.9-2.3 11.3-5.9V84H78V54h-5.2v-.2zM62.1 79.6c-6 0-10.6-4.6-10.6-10.7s4.6-10.7 10.6-10.7c6.1 0 10.7 4.6 10.7 10.7s-4.6 10.7-10.7 10.7zm37.9 5c5.9 0 11-3.1 13.5-7.8l-4.4-2.6c-1.7 3.1-5 5.2-9.1 5.2-6 0-10.6-4.6-10.6-10.6 0-6.1 4.6-10.7 10.6-10.7 4 0 7.4 2.1 8.9 5.3l4.4-2.5C111 56.2 106 53 100 53c-9.1 0-15.8 6.9-15.8 15.8S91 84.6 100 84.6zm43.1-30.8V59c-2.4-3.7-6.2-5.9-11.3-5.9-8.3 0-15.2 6.9-15.2 15.8s6.8 15.8 15.2 15.8c5.1 0 8.9-2.3 11.3-5.9V84h5.2V54h-5.2v-.2zm-10.7 25.8c-6 0-10.6-4.6-10.6-10.7s4.6-10.7 10.6-10.7c6.1 0 10.7 4.6 10.7 10.7s-4.6 10.7-10.7 10.7zm48.7-37.8V59c-2.4-3.7-6.2-5.9-11.3-5.9-8.3 0-15.2 6.9-15.2 15.8s6.8 15.8 15.2 15.8c5.1 0 8.9-2.3 11.3-5.9V84h5.2V42h-5.2v-.2zm-10.7 37.8c-6 0-10.6-4.6-10.6-10.7s4.6-10.7 10.6-10.7c6.1 0 10.7 4.6 10.7 10.7s-4.6 10.7-10.7 10.7zm27.5-8.4H223c.1-.8.2-1.6.2-2.3 0-8.4-5.9-15.8-14.9-15.8-9.4 0-15.7 6.9-15.7 15.8 0 9 6.4 15.8 16.1 15.8 6 0 10.6-2.7 13.2-6.8l-4.4-2.5c-1.5 2.5-4.5 4.4-8.6 4.4-5.7-.1-10-3.2-11-8.6zM208.3 58c4.5 0 8.8 2.8 9.7 8.7h-20c.7-5.3 4.6-8.7 10.3-8.7zm53.3-5c-3.9 0-7.3 1.7-9.4 5.1-1.7-3.2-4.7-5.1-8.8-5.1-3.7 0-6.8 1.4-8.9 4.8v-4h-5.2v30h5.2V67.1c0-6.5 3.7-9.1 7.7-9.1 3.9 0 6.4 2.6 6.4 7.3v18.5h5.2V67.1c0-6.5 3.2-9.1 7.4-9.1 4 0 6.6 2.6 6.6 7.3v18.5h5.2V65.2c-.1-7.5-4.7-12.2-11.4-12.2zm38.8.8l-8.6 23.5-10.2-23.5H276l13.1 29.9-.5 1.1c-1.6 4-4.1 6.4-8.1 6.1v4.9c6.1.4 10.8-3.4 13.3-10.1L306 53.8h-5.6z" fill="#ec605b"/></svg>