<?xml version="1.0" encoding="iso-8859-1"?>
<!-- Generator: Adobe Illustrator 16.0.0, SVG Export Plug-In . SVG Version: 6.00 Build 0)  -->
<!DOCTYPE svg PUBLIC "-//W3C//DTD SVG 1.1//EN" "http://www.w3.org/Graphics/SVG/1.1/DTD/svg11.dtd">
<svg version="1.1" id="Capa_1" xmlns="http://www.w3.org/2000/svg" xmlns:xlink="http://www.w3.org/1999/xlink" x="0px" y="0px"
	 width="25.072px" height="25.072px" viewBox="0 0 25.072 25.072" style="enable-background:new 0 0 25.072 25.072;"
	 xml:space="preserve">
<g>
	<path d="M22.028,13.794c-0.962-0.79-2.632-1.461-5.011-2.016c2.207-0.555,3.746-1.305,4.623-2.246
		c0.875-0.943,1.312-2.02,1.312-3.227c0-1.146-0.346-2.229-1.035-3.244c-0.69-1.018-1.633-1.781-2.827-2.293
		C17.893,0.256,15.86,0,12.988,0H0.972v0.684c1.146,0,1.928,0.104,2.348,0.314C3.739,1.207,4.032,1.487,4.198,1.84
		c0.167,0.352,0.25,1.205,0.25,2.561v16.27c0,1.355-0.083,2.207-0.25,2.552c-0.166,0.346-0.456,0.627-0.868,0.842
		c-0.414,0.215-1.199,0.324-2.357,0.324v0.684H13.71c3.549,0,6.256-0.746,8.117-2.236c1.517-1.232,2.273-2.791,2.273-4.68
		C24.1,16.37,23.409,14.915,22.028,13.794z M10.29,1.405c1.799-0.012,3.105,0.168,3.92,0.537c0.812,0.369,1.438,0.908,1.875,1.617
		s0.656,1.617,0.656,2.727s-0.222,2.021-0.666,2.736c-0.443,0.715-1.08,1.27-1.912,1.664c-0.833,0.394-2.124,0.592-3.874,0.592
		V1.405L10.29,1.405z M16.927,21.141c-0.441,0.832-1.082,1.468-1.914,1.904c-0.832,0.436-1.739,0.654-2.727,0.654
		c-0.666,0-1.168-0.168-1.507-0.508c-0.339-0.34-0.509-0.842-0.509-1.508l0.02-0.924v-8.043c1.885-0.013,3.303,0.168,4.252,0.537
		s1.693,1.02,2.236,1.951c0.543,0.93,0.813,1.98,0.813,3.152C17.593,19.383,17.37,20.309,16.927,21.141z"/>
</g>
<g>
</g>
<g>
</g>
<g>
</g>
<g>
</g>
<g>
</g>
<g>
</g>
<g>
</g>
<g>
</g>
<g>
</g>
<g>
</g>
<g>
</g>
<g>
</g>
<g>
</g>
<g>
</g>
<g>
</g>
</svg>
