<svg width="136" height="80" viewBox="0 0 136 80" fill="none" xmlns="http://www.w3.org/2000/svg">
<path d="M68.0001 24.7669L92.1079 9.81688L93 9.78736L85.3432 34L80.1587 33.2819L84.6524 19.7924L68.3058 29.4868H67.6944L62.6117 26.4726L64.3946 22.617L68.0001 24.7669Z" fill="white"/>
<path d="M67.8382 1.49976L68.3763 1.50052L76.5292 18.1281L72.1507 20.7327L68.049 12.0281L63.1911 21.8915L63.1945 21.8937L61.3638 25.7323L51.3473 19.7924L55.8413 33.2819L50.6564 34L43 9.78735L43.8916 9.81687L58.9046 19.2101L67.8382 1.49976Z" fill="white"/>
<path d="M20.5204 49.896L30.0604 37.8H37.8724V63H30.5644V46.908L20.5204 59.22H20.1604L10.1164 46.908V63H3.02441V37.8H11.0524L20.5204 49.896Z" fill="white"/>
<path d="M49.6145 37.8V63H42.2705V37.8H49.6145Z" fill="white"/>
<path fill-rule="evenodd" clip-rule="evenodd" d="M77.2436 63H85.0556L72.0236 37.8H63.9956L50.9636 63H58.6676L61.0436 58.176H74.8676L77.2436 63ZM63.5636 52.956L67.9556 44.028L72.3116 52.956H63.5636Z" fill="white"/>
<path d="M103.841 49.896L113.381 37.8H121.193V63H113.885V46.908L103.841 59.22H103.481L93.4367 46.908V63H86.3447V37.8H94.3727L103.841 49.896Z" fill="white"/>
<path d="M132.935 63V37.8H125.591V63H132.935Z" fill="white"/>
<path d="M4.04378 72.45C4.04378 74.959 5.78578 76.259 8.42478 76.259C10.0108 76.259 11.3238 75.739 12.0258 74.517L13.0658 75.037C12.2078 76.402 10.6218 77.273 8.39878 77.273C5.00578 77.273 2.92578 75.401 2.92578 72.45C2.92578 69.499 5.00578 67.627 8.43778 67.627C10.6218 67.627 12.2078 68.511 13.0658 69.863L12.0258 70.383C11.3108 69.174 10.0108 68.641 8.42478 68.641C5.78578 68.641 4.04378 69.941 4.04378 72.45Z" fill="white"/>
<path fill-rule="evenodd" clip-rule="evenodd" d="M26.8403 72.45C26.8403 75.414 24.7603 77.273 21.3023 77.273C17.8443 77.273 15.7643 75.414 15.7643 72.45C15.7643 69.486 17.8443 67.627 21.3023 67.627C24.7603 67.627 26.8403 69.486 26.8403 72.45ZM16.8823 72.45C16.8823 74.894 18.6243 76.259 21.3023 76.259C23.9803 76.259 25.7223 74.894 25.7223 72.45C25.7223 70.006 23.9803 68.641 21.3023 68.641C18.6243 68.641 16.8823 70.006 16.8823 72.45Z" fill="white"/>
<path d="M39.1924 67.9V75.401L31.7694 67.9H30.5863V77H31.6523V69.291L39.2963 77H40.2584V67.9H39.1924Z" fill="white"/>
<path fill-rule="evenodd" clip-rule="evenodd" d="M44.669 67.9H49.089C52.417 67.9 54.549 69.655 54.549 72.45C54.549 75.245 52.417 77 49.089 77H44.669V67.9ZM45.761 75.986H49.011C51.598 75.986 53.431 74.777 53.431 72.45C53.431 70.123 51.598 68.914 49.011 68.914H45.761V75.986Z" fill="white"/>
<path fill-rule="evenodd" clip-rule="evenodd" d="M63.1566 77.273C66.6146 77.273 68.6945 75.414 68.6945 72.45C68.6945 69.486 66.6146 67.627 63.1566 67.627C59.6986 67.627 57.6186 69.486 57.6186 72.45C57.6186 75.414 59.6986 77.273 63.1566 77.273ZM63.1566 76.259C60.4785 76.259 58.7366 74.894 58.7366 72.45C58.7366 70.006 60.4785 68.641 63.1566 68.641C65.8346 68.641 67.5766 70.006 67.5766 72.45C67.5766 74.894 65.8346 76.259 63.1566 76.259Z" fill="white"/>
<path d="M83.0097 71.475L87.8327 77H86.4417L82.1257 72.112L79.0967 74.478V77H78.0047V67.9H79.0967V73.23L85.9867 67.9H87.5467L83.0097 71.475Z" fill="white"/>
<path d="M91.9479 67.9H90.8559V77H91.9479V67.9Z" fill="white"/>
<path d="M104.975 75.401V67.9H106.041V77H105.079L97.4352 69.291V77H96.3692V67.9H97.5522L104.975 75.401Z" fill="white"/>
<path d="M120.475 72.268H115.249V73.282H119.383V74.465C118.707 75.726 117.225 76.259 115.418 76.259C112.636 76.259 110.894 74.972 110.894 72.45C110.894 69.928 112.623 68.641 115.34 68.641C116.991 68.641 118.2 69.161 119.019 70.188L119.968 69.525C119.058 68.459 117.563 67.627 115.34 67.627C111.856 67.627 109.776 69.486 109.776 72.45C109.776 75.414 111.856 77.273 115.379 77.273C117.901 77.273 119.721 76.207 120.475 74.79V72.268Z" fill="white"/>
<path d="M124.725 70.279C124.725 71.41 126.441 71.644 128.586 71.813C131.355 72.034 133.279 72.567 133.279 74.361C133.279 76.038 131.576 77.273 128.612 77.273C126.623 77.273 124.712 76.649 123.295 75.401L124.062 74.582C125.388 75.752 126.857 76.259 128.677 76.259C130.874 76.259 132.161 75.57 132.161 74.439C132.161 73.334 130.822 73.061 128.365 72.853C125.934 72.645 123.607 72.112 123.607 70.318C123.607 68.602 125.765 67.627 128.196 67.627C130.172 67.627 131.797 68.316 132.85 69.252L131.992 69.98C131.108 69.109 129.769 68.654 128.248 68.641C126.623 68.628 124.725 69.083 124.725 70.279Z" fill="white"/>
</svg>
