<?xml version="1.0" standalone="no"?>
<!DOCTYPE svg PUBLIC "-//W3C//DTD SVG 20010904//EN"
 "http://www.w3.org/TR/2001/REC-SVG-20010904/DTD/svg10.dtd">
<svg version="1.0" xmlns="http://www.w3.org/2000/svg"
 width="2000.000000pt" height="251.000000pt" viewBox="0 0 2000.000000 251.000000"
 preserveAspectRatio="xMidYMid meet">
<metadata>
Created by potrace 1.16, written by Peter Selinger 2001-2019
</metadata>
<g transform="translate(0.000000,251.000000) scale(0.100000,-0.100000)"
fill="#000000" stroke="none">
<path d="M4118 2263 c-51 -87 -309 -524 -573 -970 l-479 -813 -1263 0 -1263 0
0 -195 0 -195 2608 0 c2570 0 2610 0 2686 20 185 47 237 102 457 486 91 159
172 305 180 324 8 19 14 64 14 100 -1 72 -19 117 -67 162 l-28 26 55 12 c155
32 303 154 412 340 261 444 282 484 294 537 26 128 -32 238 -156 295 l-50 23
-1367 3 -1367 2 -93 -157z m1959 -258 c32 -22 39 -76 18 -132 -21 -54 -176
-305 -214 -346 -14 -16 -44 -39 -66 -50 -39 -21 -53 -22 -418 -25 l-378 -3 14
23 c8 13 79 131 157 263 78 132 148 250 156 263 l14 22 348 0 c296 0 351 -2
369 -15z m-570 -977 c27 -25 31 -80 9 -133 -22 -53 -184 -311 -214 -340 -15
-15 -45 -37 -67 -49 -39 -20 -53 -21 -412 -24 -205 -2 -373 0 -373 3 0 3 75
132 166 285 l166 280 351 0 c346 0 351 0 374 -22z"/>
<path d="M8180 2409 c-263 -22 -469 -130 -590 -309 -71 -105 -973 -1645 -992
-1693 -52 -135 6 -263 138 -303 73 -22 2610 -21 2703 1 137 33 260 128 367
285 72 106 978 1648 992 1689 51 149 -57 296 -243 330 -70 13 -2224 13 -2375
0z m1084 -400 c21 -6 50 -22 63 -36 51 -50 49 -56 -352 -735 -202 -343 -379
-636 -393 -653 -63 -76 -145 -105 -299 -105 -113 0 -179 13 -218 44 -57 45
-60 38 345 716 205 343 391 643 414 668 43 46 111 87 173 101 54 13 221 13
267 0z"/>
<path d="M11710 2413 c-156 -15 -254 -57 -332 -141 -37 -41 -123 -176 -282
-447 -248 -422 -271 -464 -287 -546 -20 -101 24 -179 118 -210 28 -10 226 -14
780 -16 l741 -4 -124 -217 c-174 -305 -223 -346 -416 -347 -78 0 -89 2 -112
24 -34 32 -34 76 -1 141 l25 50 -692 0 -693 0 -87 -148 c-112 -189 -121 -212
-116 -284 6 -84 58 -143 147 -168 23 -6 494 -10 1331 -10 1424 0 1353 -3 1489
62 47 22 88 53 141 107 67 67 101 119 297 446 219 366 253 436 253 515 0 88
-47 160 -129 199 l-56 26 -721 3 -722 3 127 215 c136 233 184 292 264 330 62
28 161 33 207 9 56 -29 73 -95 45 -175 -8 -23 -15 -44 -15 -46 0 -2 312 -4
694 -4 l695 0 72 131 c98 178 121 239 123 319 1 81 -22 125 -85 160 l-44 25
-1300 1 c-715 1 -1316 -1 -1335 -3z"/>
<path d="M14977 2278 c-313 -530 -1270 -2163 -1274 -2174 -4 -12 243 -14 1591
-14 l1595 0 115 193 114 192 -908 3 -908 2 171 290 172 290 911 0 910 0 107
188 c59 103 107 191 107 195 0 4 -405 8 -899 9 l-899 3 161 280 162 280 1718
3 1717 2 0 200 0 200 -2290 0 -2289 0 -84 -142z"/>
<path d="M19431 1959 c-57 -11 -110 -53 -138 -109 -87 -170 105 -349 282 -262
71 35 105 93 105 179 0 75 -29 128 -90 164 -52 31 -97 39 -159 28z m88 -49
c46 -13 99 -66 111 -110 11 -41 1 -86 -26 -123 l-18 -24 -28 44 -29 44 32 30
c25 24 30 34 25 57 -11 42 -32 52 -113 52 l-73 0 0 -115 c0 -108 1 -115 20
-115 17 0 20 7 20 50 0 67 24 68 64 0 17 -28 38 -51 50 -53 17 -3 15 -6 -16
-20 -50 -23 -75 -21 -128 6 -62 32 -85 67 -85 132 0 65 23 100 85 133 50 25
61 26 109 12z"/>
</g>
</svg>
