<svg xmlns="http://www.w3.org/2000/svg" viewBox="0 0 306 95.8" style="enable-background:new 0 0 306 95.8;" xml:space="preserve">
<style type="text/css">
	.st0{fill:#2F3864;}
	.st1{fill:#EC605B;}
</style>
<g>
	<path class="st0" d="M39.3,0H33L19.7,22.2L6.3,0H0v42h5.6V9.2L19.3,32H20L33.8,9.2V42h5.5V0L39.3,0z M72.6,12v5.2
		c-2.4-3.7-6.2-5.9-11.3-5.9c-8.3,0-15.2,6.9-15.2,15.8c0,8.9,6.8,15.8,15.2,15.8c5.1,0,8.9-2.3,11.3-5.9V42h5.2V12H72.6L72.6,12z
		 M61.9,37.7c-6,0-10.6-4.6-10.6-10.7c0-6.1,4.6-10.7,10.6-10.7c6.1,0,10.7,4.6,10.7,10.7C72.6,33.1,68,37.7,61.9,37.7L61.9,37.7z
		 M103.3,17v-5h-8V3.6l-5.2,1.6V12h-5.9v5h5.9v16.3c0,7.5,4.2,9.9,13.2,8.7v-4.7c-5.3,0.2-8,0.5-8-4V17H103.3L103.3,17z M114,29.4
		h25.1c0.1-0.8,0.2-1.6,0.2-2.3c0-8.4-5.9-15.8-14.9-15.8c-9.4,0-15.7,6.9-15.7,15.8c0,9,6.4,15.8,16.1,15.8c6,0,10.6-2.7,13.2-6.8
		l-4.4-2.5c-1.5,2.5-4.5,4.4-8.6,4.4C119.3,37.9,115,34.8,114,29.4L114,29.4z M124.4,16.1c4.5,0,8.8,2.8,9.7,8.7h-20
		C114.8,19.6,118.7,16.1,124.4,16.1L124.4,16.1z"/>
	<path class="st1" d="M72.8,53.8V59c-2.4-3.7-6.2-5.9-11.3-5.9c-8.3,0-15.2,6.9-15.2,15.8s6.8,15.8,15.2,15.8
		c5.1,0,8.9-2.3,11.3-5.9v5.2H78v-30H72.8L72.8,53.8z M62.1,79.6c-6,0-10.6-4.6-10.6-10.7s4.6-10.7,10.6-10.7
		c6.1,0,10.7,4.6,10.7,10.7S68.2,79.6,62.1,79.6L62.1,79.6z M100,84.6c5.9,0,11-3.1,13.5-7.8l-4.4-2.6c-1.7,3.1-5,5.2-9.1,5.2
		c-6,0-10.6-4.6-10.6-10.6c0-6.1,4.6-10.7,10.6-10.7c4,0,7.4,2.1,8.9,5.3l4.4-2.5C111,56.2,106,53,100,53c-9.1,0-15.8,6.9-15.8,15.8
		S91,84.6,100,84.6L100,84.6z M143.1,53.8V59c-2.4-3.7-6.2-5.9-11.3-5.9c-8.3,0-15.2,6.9-15.2,15.8s6.8,15.8,15.2,15.8
		c5.1,0,8.9-2.3,11.3-5.9v5.2h5.2v-30H143.1L143.1,53.8z M132.4,79.6c-6,0-10.6-4.6-10.6-10.7s4.6-10.7,10.6-10.7
		c6.1,0,10.7,4.6,10.7,10.7S138.5,79.6,132.4,79.6L132.4,79.6z M181.1,41.8V59c-2.4-3.7-6.2-5.9-11.3-5.9c-8.3,0-15.2,6.9-15.2,15.8
		s6.8,15.8,15.2,15.8c5.1,0,8.9-2.3,11.3-5.9v5.2h5.2v-42H181.1L181.1,41.8z M170.4,79.6c-6,0-10.6-4.6-10.6-10.7
		s4.6-10.7,10.6-10.7c6.1,0,10.7,4.6,10.7,10.7S176.5,79.6,170.4,79.6L170.4,79.6z M197.9,71.2H223c0.1-0.8,0.2-1.6,0.2-2.3
		c0-8.4-5.9-15.8-14.9-15.8c-9.4,0-15.7,6.9-15.7,15.8c0,9,6.4,15.8,16.1,15.8c6,0,10.6-2.7,13.2-6.8l-4.4-2.5
		c-1.5,2.5-4.5,4.4-8.6,4.4C203.2,79.7,198.9,76.6,197.9,71.2L197.9,71.2z M208.3,58c4.5,0,8.8,2.8,9.7,8.7h-20
		C198.7,61.4,202.6,58,208.3,58L208.3,58z M261.6,53c-3.9,0-7.3,1.7-9.4,5.1c-1.7-3.2-4.7-5.1-8.8-5.1c-3.7,0-6.8,1.4-8.9,4.8v-4
		h-5.2v30h5.2V67.1c0-6.5,3.7-9.1,7.7-9.1c3.9,0,6.4,2.6,6.4,7.3v18.5h5.2V67.1c0-6.5,3.2-9.1,7.4-9.1c4,0,6.6,2.6,6.6,7.3v18.5h5.2
		V65.2C272.9,57.7,268.3,53,261.6,53L261.6,53z M300.4,53.8l-8.6,23.5l-10.2-23.5H276l13.1,29.9l-0.5,1.1c-1.6,4-4.1,6.4-8.1,6.1
		v4.9c6.1,0.4,10.8-3.4,13.3-10.1L306,53.8H300.4L300.4,53.8z"/>
</g>
</svg>
