<svg width="161" height="27" viewBox="0 0 161 27" fill="none" xmlns="http://www.w3.org/2000/svg">
<mask id="path-1-inside-1_24223_3192" fill="white">
<path fill-rule="evenodd" clip-rule="evenodd" d="M7.15845 20.4123C4.41076 20.4123 2.53349 18.0765 2.53349 15.037C2.53349 11.965 4.46124 9.61699 7.20347 9.61699C8.41223 9.61699 9.68648 10.0717 10.6633 10.8282L11.7629 9.09597C10.4887 7.99303 8.70419 7.38405 7.01247 7.38405C3.02464 7.38405 0 10.7064 0 15.0938C0 19.3973 2.92914 22.6763 6.92515 22.6763C8.63052 22.6763 10.5269 22.0728 11.782 20.9888L10.6633 19.2119C9.73287 19.9251 8.41223 20.4123 7.15708 20.4123H7.15845ZM25.6719 12.214C25.6719 9.53579 23.8751 7.58704 20.785 7.58704H15.8626V22.4598H18.3184V16.8842H20.358L23.313 22.4652H26.2217L22.8656 16.5242C24.6323 15.8381 25.6733 14.2412 25.6733 12.214H25.6719ZM34.0623 7.58704L29.0826 22.4544H31.6448L32.8017 18.7193H38.0979L39.2685 22.4544H41.9643L36.9164 7.58975H34.0514L34.0623 7.58704ZM55.082 9.42753V7.59652H45.199V9.75909H51.9455L44.9548 20.664V22.4666H55.187V20.2783H48.0654L55.1052 9.43159L55.082 9.42753ZM64.5843 13.8163L61.1735 7.59516H58.3222L63.2882 16.2739V22.4585H65.7576V16.2603L70.8205 7.58704H68.1519L64.5856 13.8122L64.5843 13.8163ZM81.7335 14.5931C82.8112 13.9976 83.4252 12.919 83.4252 11.4534C83.4252 9.01748 81.7471 7.59652 78.9503 7.59652H74.3117V22.4625H79.7279C82.4702 22.4625 84.2983 20.7168 84.2983 18.2538C84.2983 16.37 83.2069 15.0288 81.7062 14.5931H81.7335ZM92.7719 7.59652L87.7923 22.4625H90.3517L91.5113 18.7274H96.8048L97.9781 22.4625H100.679L95.6411 7.59652H92.7856H92.7719ZM112.532 14.5931C113.613 13.9976 114.234 12.919 114.234 11.4534C114.234 9.01748 112.569 7.59652 109.759 7.59652H105.12V22.4625H110.55C113.292 22.4625 115.134 20.7168 115.134 18.2538C115.134 16.37 114.043 15.0288 112.556 14.5931H112.532ZM124.17 13.8163L120.773 7.59652H117.908L122.874 16.2752V22.4639H125.35V16.2617L130.398 7.59652H127.737L124.163 13.8176L124.17 13.8163ZM107.577 9.77668H109.46C110.838 9.77668 111.775 10.3342 111.775 11.7011C111.775 13.118 110.807 13.7852 109.579 13.7852H107.573V9.77668H107.577ZM110.19 20.2702H107.575V15.8719H110.013C111.577 15.8719 112.605 16.5757 112.605 18.0778C112.605 19.58 111.577 20.2702 110.187 20.2702H110.19ZM92.158 16.6203L94.1499 10.2246L96.169 16.6122H92.158V16.6203ZM76.777 9.77668H78.6597C80.0376 9.77668 80.9735 10.3342 80.9735 11.7011C80.9735 13.118 80.0049 13.7852 78.7825 13.7852H76.777V9.77668ZM79.3896 20.2702H76.7838V15.8719H79.2259C80.7948 15.8719 81.818 16.5757 81.818 18.0778C81.818 19.58 80.7948 20.2702 79.4032 20.2702H79.3896ZM33.4538 16.6203L35.4457 10.2246L37.4649 16.6122H33.4538V16.6203ZM20.4644 14.6851H18.3225V9.78616H20.4644C22.1111 9.78616 23.1793 10.6157 23.1793 12.2492C23.1793 13.8095 22.2107 14.6824 20.4644 14.6824V14.6851ZM152.794 4.02651C151.791 3.68818 151.397 2.9574 150.827 2.15895C150.213 1.30157 149.346 0.653873 148.346 0.304932C148.818 1.82063 147.915 3.45812 146.391 3.90471C143.692 4.62495 141.346 6.28822 139.784 8.58834C138.223 10.8885 137.552 13.6706 137.894 16.4226C138.237 19.1746 139.57 21.7113 141.649 23.5656C143.727 25.4199 146.411 26.4671 149.206 26.5144C152.001 26.5616 154.719 25.6058 156.86 23.8228C159.001 22.0398 160.421 19.5497 160.857 16.8108C161.294 14.072 160.719 11.2688 159.238 8.91722C157.756 6.56566 155.469 4.82404 152.795 4.01298L152.794 4.02651ZM149.413 22.4734C148.029 22.4734 146.702 21.928 145.723 20.9572C144.745 19.9865 144.195 18.6698 144.195 17.297C144.195 15.9241 144.745 14.6075 145.723 13.6367C146.702 12.666 148.029 12.1206 149.413 12.1206C150.797 12.1206 152.125 12.666 153.103 13.6367C154.082 14.6075 154.632 15.9241 154.632 17.297C154.632 18.6698 154.082 19.9865 153.103 20.9572C152.125 21.928 150.797 22.4734 149.413 22.4734Z"/>
</mask>
<path fill-rule="evenodd" clip-rule="evenodd" d="M7.15845 20.4123C4.41076 20.4123 2.53349 18.0765 2.53349 15.037C2.53349 11.965 4.46124 9.61699 7.20347 9.61699C8.41223 9.61699 9.68648 10.0717 10.6633 10.8282L11.7629 9.09597C10.4887 7.99303 8.70419 7.38405 7.01247 7.38405C3.02464 7.38405 0 10.7064 0 15.0938C0 19.3973 2.92914 22.6763 6.92515 22.6763C8.63052 22.6763 10.5269 22.0728 11.782 20.9888L10.6633 19.2119C9.73287 19.9251 8.41223 20.4123 7.15708 20.4123H7.15845ZM25.6719 12.214C25.6719 9.53579 23.8751 7.58704 20.785 7.58704H15.8626V22.4598H18.3184V16.8842H20.358L23.313 22.4652H26.2217L22.8656 16.5242C24.6323 15.8381 25.6733 14.2412 25.6733 12.214H25.6719ZM34.0623 7.58704L29.0826 22.4544H31.6448L32.8017 18.7193H38.0979L39.2685 22.4544H41.9643L36.9164 7.58975H34.0514L34.0623 7.58704ZM55.082 9.42753V7.59652H45.199V9.75909H51.9455L44.9548 20.664V22.4666H55.187V20.2783H48.0654L55.1052 9.43159L55.082 9.42753ZM64.5843 13.8163L61.1735 7.59516H58.3222L63.2882 16.2739V22.4585H65.7576V16.2603L70.8205 7.58704H68.1519L64.5856 13.8122L64.5843 13.8163ZM81.7335 14.5931C82.8112 13.9976 83.4252 12.919 83.4252 11.4534C83.4252 9.01748 81.7471 7.59652 78.9503 7.59652H74.3117V22.4625H79.7279C82.4702 22.4625 84.2983 20.7168 84.2983 18.2538C84.2983 16.37 83.2069 15.0288 81.7062 14.5931H81.7335ZM92.7719 7.59652L87.7923 22.4625H90.3517L91.5113 18.7274H96.8048L97.9781 22.4625H100.679L95.6411 7.59652H92.7856H92.7719ZM112.532 14.5931C113.613 13.9976 114.234 12.919 114.234 11.4534C114.234 9.01748 112.569 7.59652 109.759 7.59652H105.12V22.4625H110.55C113.292 22.4625 115.134 20.7168 115.134 18.2538C115.134 16.37 114.043 15.0288 112.556 14.5931H112.532ZM124.17 13.8163L120.773 7.59652H117.908L122.874 16.2752V22.4639H125.35V16.2617L130.398 7.59652H127.737L124.163 13.8176L124.17 13.8163ZM107.577 9.77668H109.46C110.838 9.77668 111.775 10.3342 111.775 11.7011C111.775 13.118 110.807 13.7852 109.579 13.7852H107.573V9.77668H107.577ZM110.19 20.2702H107.575V15.8719H110.013C111.577 15.8719 112.605 16.5757 112.605 18.0778C112.605 19.58 111.577 20.2702 110.187 20.2702H110.19ZM92.158 16.6203L94.1499 10.2246L96.169 16.6122H92.158V16.6203ZM76.777 9.77668H78.6597C80.0376 9.77668 80.9735 10.3342 80.9735 11.7011C80.9735 13.118 80.0049 13.7852 78.7825 13.7852H76.777V9.77668ZM79.3896 20.2702H76.7838V15.8719H79.2259C80.7948 15.8719 81.818 16.5757 81.818 18.0778C81.818 19.58 80.7948 20.2702 79.4032 20.2702H79.3896ZM33.4538 16.6203L35.4457 10.2246L37.4649 16.6122H33.4538V16.6203ZM20.4644 14.6851H18.3225V9.78616H20.4644C22.1111 9.78616 23.1793 10.6157 23.1793 12.2492C23.1793 13.8095 22.2107 14.6824 20.4644 14.6824V14.6851ZM152.794 4.02651C151.791 3.68818 151.397 2.9574 150.827 2.15895C150.213 1.30157 149.346 0.653873 148.346 0.304932C148.818 1.82063 147.915 3.45812 146.391 3.90471C143.692 4.62495 141.346 6.28822 139.784 8.58834C138.223 10.8885 137.552 13.6706 137.894 16.4226C138.237 19.1746 139.57 21.7113 141.649 23.5656C143.727 25.4199 146.411 26.4671 149.206 26.5144C152.001 26.5616 154.719 25.6058 156.86 23.8228C159.001 22.0398 160.421 19.5497 160.857 16.8108C161.294 14.072 160.719 11.2688 159.238 8.91722C157.756 6.56566 155.469 4.82404 152.795 4.01298L152.794 4.02651ZM149.413 22.4734C148.029 22.4734 146.702 21.928 145.723 20.9572C144.745 19.9865 144.195 18.6698 144.195 17.297C144.195 15.9241 144.745 14.6075 145.723 13.6367C146.702 12.666 148.029 12.1206 149.413 12.1206C150.797 12.1206 152.125 12.666 153.103 13.6367C154.082 14.6075 154.632 15.9241 154.632 17.297C154.632 18.6698 154.082 19.9865 153.103 20.9572C152.125 21.928 150.797 22.4734 149.413 22.4734Z" fill="black" stroke="black" stroke-width="2" mask="url(#path-1-inside-1_24223_3192)"/>
</svg>
