<svg xmlns="http://www.w3.org/2000/svg" width="16" height="13" viewBox="0 0 16 13"><defs><filter id="mail-a" color-interpolation-filters="auto"><feColorMatrix in="SourceGraphic" values="0 0 0 0 1.000000 0 0 0 0 1.000000 0 0 0 0 1.000000 0 0 0 1.000000 0"/></filter></defs><g fill="none" fill-rule="evenodd" filter="url(#mail-a)" transform="translate(-1.623 .656)"><path fill="#000" fill-rule="nonzero" d="M15.7673345,12.2058095 C16.1691002,12.2058095 16.5117827,12.0571032 16.795382,11.7596907 C17.0789813,11.4622782 17.220781,11.1113314 17.220781,10.7068504 L17.220781,10.7068504 L17.220781,1.78447507 C17.220781,1.37999405 17.0789813,1.02904729 16.795382,0.731634777 C16.5117827,0.434222266 16.1691002,0.285516011 15.7673345,0.285516011 L15.7673345,0.285516011 L3.92706282,0.285516011 C3.52529711,0.285516011 3.1826146,0.434222266 2.89901528,0.731634777 C2.61541596,1.02904729 2.4736163,1.37999405 2.4736163,1.78447507 L2.4736163,1.78447507 L2.4736163,10.7068504 C2.4736163,11.1113314 2.61541596,11.4622782 2.89901528,11.7596907 C3.1826146,12.0571032 3.52529711,12.2058095 3.92706282,12.2058095 L3.92706282,12.2058095 L15.7673345,12.2058095 Z M9.84719864,6.97729751 L3.92706282,3.28343412 L3.92706282,1.78447507 L9.84719864,5.51402796 L15.7673345,1.78447507 L15.7673345,3.28343412 L9.84719864,6.97729751 Z"/></g></svg>