<svg width="24" height="24" viewBox="0 0 24 24" fill="none" xmlns="http://www.w3.org/2000/svg">
<g clip-path="url(#clip0_26_315)">
<path d="M21 7C21 6.44771 20.5523 6 20 6L13 6C12.4477 6 12 6.44771 12 7C12 7.55228 12.4477 8 13 8L20 8C20.5523 8 21 7.55229 21 7ZM21 12C21 11.4477 20.5523 11 20 11L4 11C3.44772 11 3 11.4477 3 12C3 12.5523 3.44772 13 4 13L20 13C20.5523 13 21 12.5523 21 12ZM20 18C20.5523 18 21 17.5523 21 17C21 16.4477 20.5523 16 20 16L9 16C8.44771 16 8 16.4477 8 17C8 17.5523 8.44772 18 9 18L20 18Z" fill="white"/>
</g>
<defs>
<clipPath id="clip0_26_315">
<rect width="24" height="24" fill="white" transform="translate(24 24) rotate(-180)"/>
</clipPath>
</defs>
</svg>
