<svg xmlns="http://www.w3.org/2000/svg" viewBox="0 0 18 12" height="12" width="18"><g transform="matrix(-1 0 0 -1 18 12)"><path d="M0 11C0 11.5523 0.447715 12 1 12H8C8.55228 12 9 11.5523 9 11V11C9 10.4477 8.55228 10 8 10H1C0.447715 10 0 10.4477 0 11V11ZM0 6C0 6.55228 0.447715 7 1 7H17C17.5523 7 18 6.55228 18 6V6C18 5.44772 17.5523 5 17 5H1C0.447716 5 0 5.44772 0 6V6ZM1 0C0.447715 0 0 0.447715 0 1V1C0 1.55228 0.447715 2 1 2H12C12.5523 2 13 1.55228 13 1V1C13 0.447715 12.5523 0 12 0H1Z" fill="white"/></g></svg>