<svg width="24" height="16" viewBox="0 0 24 16" fill="none" xmlns="http://www.w3.org/2000/svg">
<path d="M24 1.33333C24 0.596953 23.403 5.21873e-08 22.6667 1.16564e-07L13.3333 9.3251e-07C12.597 9.96886e-07 12 0.596954 12 1.33333C12 2.06971 12.597 2.66667 13.3333 2.66667L22.6667 2.66667C23.403 2.66667 24 2.06971 24 1.33333ZM24 8C24 7.26362 23.403 6.66667 22.6667 6.66667L1.33333 6.66667C0.596954 6.66667 -7.63759e-07 7.26362 -6.99382e-07 8C-6.35006e-07 8.73638 0.596952 9.33334 1.33333 9.33333L22.6667 9.33333C23.403 9.33333 24 8.73638 24 8ZM22.6667 16C23.403 16 24 15.403 24 14.6667C24 13.9303 23.403 13.3333 22.6667 13.3333L8 13.3333C7.26362 13.3333 6.66667 13.9303 6.66667 14.6667C6.66667 15.403 7.26362 16 8 16L22.6667 16Z" fill="white"/>
</svg>
