<?xml version="1.0" encoding="utf-8"?>
<!-- Generator: Adobe Illustrator 22.1.0, SVG Export Plug-In . SVG Version: 6.00 Build 0)  -->
<svg version="1.1"
	 id="svg12" inkscape:version="1.0 (4035a4fb49, 2020-05-01)" sodipodi:docname="menu.svg" xmlns:cc="http://creativecommons.org/ns#" xmlns:dc="http://purl.org/dc/elements/1.1/" xmlns:inkscape="http://www.inkscape.org/namespaces/inkscape" xmlns:rdf="http://www.w3.org/1999/02/22-rdf-syntax-ns#" xmlns:sodipodi="http://sodipodi.sourceforge.net/DTD/sodipodi-0.dtd" xmlns:svg="http://www.w3.org/2000/svg"
	 xmlns="http://www.w3.org/2000/svg" xmlns:xlink="http://www.w3.org/1999/xlink" x="0px" y="0px" viewBox="0 0 128 128"
	 style="enable-background:new 0 0 128 128;" xml:space="preserve">
<style type="text/css">
	.st0{fill:white;}
</style>
<sodipodi:namedview  bordercolor="#666666" borderopacity="1" gridtolerance="10" guidetolerance="10" id="namedview14" inkscape:current-layer="svg12" inkscape:cx="57.841855" inkscape:cy="69.432129" inkscape:pageopacity="0" inkscape:pageshadow="2" inkscape:window-height="480" inkscape:window-maximized="0" inkscape:window-width="708" inkscape:window-x="980" inkscape:window-y="186" inkscape:zoom="2.3754368" objecttolerance="10" pagecolor="#ffffff" showgrid="false">
	</sodipodi:namedview>
<path id="path4" class="st0" d="M64,117c-29.2,0-53-23.8-53-53s23.8-53,53-53s53,23.8,53,53S93.2,117,64,117z M64,17
	c-25.9,0-47,21.1-47,47s21.1,47,47,47s47-21.1,47-47S89.9,17,64,17z"/>
<g id="g10">
	<path id="path8" class="st0" d="M80.3,50.2L48.5,82c-1.2,1.2-3,1.2-4.2,0c-1.2-1.2-1.2-3,0-4.2L76,46c1.2-1.2,3-1.2,4.2,0
		S81.5,49,80.3,50.2z"/>
</g>
<g id="g10_1_">
	<path id="path8_1_" class="st0" d="M48.5,46l31.8,31.8c1.2,1.2,1.2,3,0,4.2s-3,1.2-4.2,0L44.2,50.2c-1.2-1.2-1.2-3,0-4.2
		S47.3,44.8,48.5,46z"/>
</g>
</svg>
