<svg width="32" height="32" viewBox="0 0 32 32" fill="none" xmlns="http://www.w3.org/2000/svg">
<g clip-path="url(#clip0_102_51)">
<path d="M28 9.33333C28 8.59695 27.403 8 26.6667 8L17.3333 8C16.597 8 16 8.59695 16 9.33333C16 10.0697 16.597 10.6667 17.3333 10.6667L26.6667 10.6667C27.403 10.6667 28 10.0697 28 9.33333ZM28 16C28 15.2636 27.403 14.6667 26.6667 14.6667L5.33333 14.6667C4.59695 14.6667 4 15.2636 4 16C4 16.7364 4.59695 17.3333 5.33333 17.3333L26.6667 17.3333C27.403 17.3333 28 16.7364 28 16ZM26.6667 24C27.403 24 28 23.403 28 22.6667C28 21.9303 27.403 21.3333 26.6667 21.3333L12 21.3333C11.2636 21.3333 10.6667 21.9303 10.6667 22.6667C10.6667 23.403 11.2636 24 12 24L26.6667 24Z" fill="white"/>
</g>
<defs>
<clipPath id="clip0_102_51">
<rect width="32" height="32" fill="white" transform="translate(32 32) rotate(180)"/>
</clipPath>
</defs>
</svg>
