<svg width="20" height="24" viewBox="0 0 20 24" fill="none" xmlns="http://www.w3.org/2000/svg">
<path d="M1.99984 17.3333C2.73622 17.3333 3.33317 16.7364 3.33317 16L3.33317 9.33333C3.33317 8.59695 2.73622 8 1.99984 8V8C1.26346 8 0.666504 8.59695 0.666504 9.33333L0.666504 16C0.666504 16.7364 1.26346 17.3333 1.99984 17.3333V17.3333ZM12.6665 24C13.4029 24 13.9998 23.403 13.9998 22.6667L13.9998 1.33333C13.9998 0.596954 13.4029 -7.15256e-07 12.6665 -7.15256e-07V-7.15256e-07C11.9301 -7.15256e-07 11.3332 0.596953 11.3332 1.33333L11.3332 22.6667C11.3332 23.403 11.9301 24 12.6665 24V24ZM5.99984 18.6667C5.99984 19.403 6.59679 20 7.33317 20V20C8.06955 20 8.6665 19.403 8.6665 18.6667L8.6665 5.33333C8.6665 4.59695 8.06955 4 7.33317 4V4C6.59679 4 5.99984 4.59695 5.99984 5.33333L5.99984 18.6667Z" fill="#292929"/>
<path d="M16.6665 20C16.6665 20.7364 17.2635 21.3333 17.9998 21.3333V21.3333C18.7362 21.3333 19.3332 20.7364 19.3332 20V4C19.3332 3.26362 18.7362 2.66667 17.9998 2.66667V2.66667C17.2635 2.66667 16.6665 3.26362 16.6665 4V20Z" fill="#292929"/>
</svg>
