<?xml version="1.0" encoding="UTF-8" standalone="no"?>
<svg
   xmlns:dc="http://purl.org/dc/elements/1.1/"
   xmlns:cc="http://creativecommons.org/ns#"
   xmlns:rdf="http://www.w3.org/1999/02/22-rdf-syntax-ns#"
   xmlns:svg="http://www.w3.org/2000/svg"
   xmlns="http://www.w3.org/2000/svg"
   xmlns:sodipodi="http://sodipodi.sourceforge.net/DTD/sodipodi-0.dtd"
   xmlns:inkscape="http://www.inkscape.org/namespaces/inkscape"
   inkscape:version="1.0 (4035a4fb49, 2020-05-01)"
   sodipodi:docname="menu.svg"
   id="svg12"
   version="1.1"
   height="128px"
   width="128px"
   viewBox="0 0 128 128">
  <metadata
     id="metadata18">
    <rdf:RDF>
      <cc:Work
         rdf:about="">
        <dc:format>image/svg+xml</dc:format>
        <dc:type
           rdf:resource="http://purl.org/dc/dcmitype/StillImage" />
      </cc:Work>
    </rdf:RDF>
  </metadata>
  <defs
     id="defs16" />
  <sodipodi:namedview
     inkscape:current-layer="svg12"
     inkscape:window-maximized="0"
     inkscape:window-y="186"
     inkscape:window-x="980"
     inkscape:cy="69.432129"
     inkscape:cx="57.841855"
     inkscape:zoom="2.3754368"
     showgrid="false"
     id="namedview14"
     inkscape:window-height="480"
     inkscape:window-width="708"
     inkscape:pageshadow="2"
     inkscape:pageopacity="0"
     guidetolerance="10"
     gridtolerance="10"
     objecttolerance="10"
     borderopacity="1"
     bordercolor="white"
     pagecolor="white" />
  <path
     id="path4"
     d="M64,117c-29.2,0-53-23.8-53-53s23.8-53,53-53s53,23.8,53,53S93.2,117,64,117z M64,17c-25.9,0-47,21.1-47,47s21.1,47,47,47s47-21.1,47-47S89.9,17,64,17z"
     fill="white" />
  <path
     id="path6"
     d="M86.5 52h-45c-1.7 0-3-1.3-3-3s1.3-3 3-3h45c1.7 0 3 1.3 3 3S88.2 52 86.5 52zM86.5 67h-45c-1.7 0-3-1.3-3-3s1.3-3 3-3h45c1.7 0 3 1.3 3 3S88.2 67 86.5 67z"
     fill="white" />
  <g
     id="g10">
    <path
       id="path8"
       d="M86.5,82h-45c-1.7,0-3-1.3-3-3s1.3-3,3-3h45c1.7,0,3,1.3,3,3S88.2,82,86.5,82z"
       fill="white" />
  </g>
</svg>
