<svg width="18" height="12" xmlns="http://www.w3.org/2000/svg">

 <g>
  <title>background</title>
  <rect fill="none" id="canvas_background" height="402" width="582" y="-1" x="-1"/>
 </g>
 <g>
  <title>Layer 1</title>
  <path stroke="null" id="svg_1" fill="#292929" d="m17.999999,11.125c0,0.5523 -0.444611,1 -0.993056,1l-6.951389,0c-0.548445,0 -0.993056,-0.4477 -0.993056,-1l0,0c0,-0.5523 0.444611,-1 0.993056,-1l6.951389,0c0.548445,0 0.993056,0.4477 0.993056,1l0,0zm0,-5c0,0.55228 -0.444611,1 -0.993056,1l-15.888889,0c-0.548465,0 -0.993056,-0.44772 -0.993056,-1l0,0c0,-0.55228 0.444591,-1 0.993056,-1l15.888889,0c0.548445,0 0.993056,0.44772 0.993056,1l0,0zm-0.993056,-6c0.548445,0 0.993056,0.44772 0.993056,1l0,0c0,0.55228 -0.444611,1 -0.993056,1l-10.923611,0c-0.548465,0 -0.993056,-0.44772 -0.993056,-1l0,0c0,-0.55228 0.444591,-1 0.993056,-1l10.923611,0z"/>
 </g>
</svg>