<svg id="Layer_1" data-name="Layer 1" xmlns="http://www.w3.org/2000/svg" width="131.3261" height="131.3261" viewBox="0 0 131.3261 131.3261"><defs><style>.cls-1{fill:#eee;stroke:#1d1d1d;stroke-miterlimit:10;}.cls-2{fill:#1d1d1d;}</style></defs><circle class="cls-1" cx="65.663" cy="65.663" r="65"/><path class="cls-2" d="M31.62,50.864V74.8015H25.5685V60.4458L20.013,74.8015H15.129l-5.5914-14.39v14.39H3.4863V50.864h7.1484l6.9715,16.5721L24.5069,50.864Z"/><path class="cls-2" d="M55.313,55.7743,42.9275,83.8377H36.416l4.5294-9.6841L32.913,55.7743h6.7592l4.565,11.9,4.53-11.9Z"/><path class="cls-2" d="M71.7121,62.5259a5.78,5.78,0,0,1,3.468,2.08,5.6548,5.6548,0,0,1,1.31,3.6828,5.8181,5.8181,0,0,1-2.1946,4.7743,9.41,9.41,0,0,1-6.0514,1.7391H56.6722V50.864H67.8544a9.3369,9.3369,0,0,1,5.9107,1.6709A5.43,5.43,0,0,1,75.9237,57.07a5.2919,5.2919,0,0,1-1.1678,3.5122A5.8693,5.8693,0,0,1,71.7121,62.5259Zm-8.9885-1.9778H66.687a3.596,3.596,0,0,0,2.2649-.6137,2.5677,2.5677,0,0,0,.1217-3.6293q-.0588-.0629-.1217-.1217a3.46,3.46,0,0,0-2.2649-.6479H62.7236Zm4.4594,9.5477a3.6743,3.6743,0,0,0,2.3355-.6479,2.3478,2.3478,0,0,0,.8494-1.9436,2.4049,2.4049,0,0,0-.8847-1.9778,3.5708,3.5708,0,0,0-2.371-.7161H62.7236v5.2854Z"/><path class="cls-2" d="M82.213,53.7965a3.8624,3.8624,0,0,1-2.6187-.8866,2.9544,2.9544,0,0,1-.9908-2.25,2.8877,2.8877,0,0,1,.9908-2.2505,3.7733,3.7733,0,0,1,2.6187-.9207,3.595,3.595,0,0,1,2.548.9207A2.844,2.844,0,0,1,85.7872,50.66a2.91,2.91,0,0,1-1.0262,2.25A3.6763,3.6763,0,0,1,82.213,53.7965Zm3.008,1.9778V74.8015H79.17V55.7743Z"/><path class="cls-2" d="M103.18,74.8015,94.8286,64.2308V74.8015H88.7772V50.864h6.0514V61.3664L103.11,50.864h7.113l-9.6259,11.73,9.98,12.2075Z"/><path class="cls-2" d="M118.6739,55.5356v4.842h8.104v4.501h-8.104V70.13H127.84v4.6716H112.623V50.864H127.84v4.6716Z"/></svg>