<?xml version="1.0" encoding="UTF-8" standalone="no"?>
<svg
   version="1.1"
   width="256"
   height="256"
   viewBox="0 0 256 256"
   xml:space="preserve"
   id="svg22"
   sodipodi:docname="mybike-icon.svg"
   inkscape:version="1.1.2 (0a00cf5339, 2022-02-04)"
   xmlns:inkscape="http://www.inkscape.org/namespaces/inkscape"
   xmlns:sodipodi="http://sodipodi.sourceforge.net/DTD/sodipodi-0.dtd"
   xmlns="http://www.w3.org/2000/svg"
   xmlns:svg="http://www.w3.org/2000/svg"><sodipodi:namedview
   id="namedview24"
   pagecolor="#505050"
   bordercolor="#eeeeee"
   borderopacity="1"
   inkscape:pageshadow="0"
   inkscape:pageopacity="0"
   inkscape:pagecheckerboard="0"
   showgrid="false"
   inkscape:zoom="2.140625"
   inkscape:cx="124.26277"
   inkscape:cy="127.76642"
   inkscape:window-width="1366"
   inkscape:window-height="711"
   inkscape:window-x="0"
   inkscape:window-y="341"
   inkscape:window-maximized="1"
   inkscape:current-layer="g20" />

<defs
   id="defs2">
</defs>
<g
   style="stroke: none; stroke-width: 0; stroke-dasharray: none; stroke-linecap: butt; stroke-linejoin: miter; stroke-miterlimit: 10; fill: none; fill-rule: nonzero; opacity: 1;"
   transform="translate(1.4065934065934016 1.4065934065934016) scale(2.81 2.81)"
   id="g20">
	<circle
   cx="45"
   cy="45"
   r="45"
   style="stroke:none;stroke-width:1;stroke-dasharray:none;stroke-linecap:butt;stroke-linejoin:miter;stroke-miterlimit:10;fill:#1a1a1a;fill-rule:nonzero;opacity:1"
   transform="  matrix(1 0 0 1 0 0) "
   id="circle4" />
	<path
   d="M 45.527 51.918 H 26.348 c -0.359 0 -0.691 -0.192 -0.869 -0.505 c -0.178 -0.313 -0.174 -0.696 0.009 -1.005 l 11.085 -18.691 c 0.18 -0.304 0.507 -0.49 0.86 -0.49 h 18.164 c 0.352 0 0.678 0.185 0.858 0.487 s 0.188 0.677 0.021 0.987 L 46.407 51.393 C 46.232 51.716 45.895 51.918 45.527 51.918 z M 28.104 49.918 H 44.93 l 8.992 -16.69 H 38.002 L 28.104 49.918 z"
   style="stroke: none; stroke-width: 1; stroke-dasharray: none; stroke-linecap: butt; stroke-linejoin: miter; stroke-miterlimit: 10; fill: rgb(255,255,255); fill-rule: nonzero; opacity: 1;"
   transform=" matrix(1 0 0 1 0 0) "
   stroke-linecap="round"
   id="path6" />
	<path
   d="M 26.348 63.666 c -7.029 0 -12.748 -5.719 -12.748 -12.748 c 0 -7.029 5.719 -12.747 12.748 -12.747 s 12.748 5.718 12.748 12.747 C 39.096 57.947 33.377 63.666 26.348 63.666 z M 26.348 40.171 c -5.926 0 -10.748 4.821 -10.748 10.747 c 0 5.927 4.821 10.748 10.748 10.748 s 10.748 -4.821 10.748 -10.748 C 37.096 44.992 32.274 40.171 26.348 40.171 z"
   style="stroke: none; stroke-width: 1; stroke-dasharray: none; stroke-linecap: butt; stroke-linejoin: miter; stroke-miterlimit: 10; fill: rgb(255,255,255); fill-rule: nonzero; opacity: 1;"
   transform=" matrix(1 0 0 1 0 0) "
   stroke-linecap="round"
   id="path8" />
	<path
   d="M 63.651 63.666 c -7.028 0 -12.747 -5.719 -12.747 -12.748 c 0 -7.029 5.719 -12.747 12.747 -12.747 c 7.029 0 12.748 5.718 12.748 12.747 C 76.399 57.947 70.681 63.666 63.651 63.666 z M 63.651 40.171 c -5.926 0 -10.747 4.821 -10.747 10.747 c 0 5.927 4.821 10.748 10.747 10.748 c 5.927 0 10.748 -4.821 10.748 -10.748 C 74.399 44.992 69.578 40.171 63.651 40.171 z"
   style="stroke: none; stroke-width: 1; stroke-dasharray: none; stroke-linecap: butt; stroke-linejoin: miter; stroke-miterlimit: 10; fill: rgb(255,255,255); fill-rule: nonzero; opacity: 1;"
   transform=" matrix(1 0 0 1 0 0) "
   stroke-linecap="round"
   id="path10" />
	<path
   d="M 63.652 51.918 c -0.388 0 -0.756 -0.226 -0.919 -0.604 L 52.569 27.73 c -0.219 -0.507 0.015 -1.096 0.522 -1.314 c 0.508 -0.22 1.095 0.016 1.313 0.522 l 10.164 23.584 c 0.219 0.507 -0.015 1.096 -0.522 1.313 C 63.918 51.892 63.784 51.918 63.652 51.918 z"
   style="stroke: none; stroke-width: 1; stroke-dasharray: none; stroke-linecap: butt; stroke-linejoin: miter; stroke-miterlimit: 10; fill: rgb(255,255,255); fill-rule: nonzero; opacity: 1;"
   transform=" matrix(1 0 0 1 0 0) "
   stroke-linecap="round"
   id="path12" />
	<path
   d="M 45.489 51.918 c -0.387 0 -0.756 -0.226 -0.919 -0.604 L 34.405 27.73 c -0.218 -0.507 0.016 -1.096 0.522 -1.314 c 0.508 -0.221 1.095 0.016 1.314 0.522 l 10.165 23.584 c 0.219 0.507 -0.016 1.096 -0.522 1.313 C 45.755 51.892 45.621 51.918 45.489 51.918 z"
   style="stroke: none; stroke-width: 1; stroke-dasharray: none; stroke-linecap: butt; stroke-linejoin: miter; stroke-miterlimit: 10; fill: rgb(255,255,255); fill-rule: nonzero; opacity: 1;"
   transform=" matrix(1 0 0 1 0 0) "
   stroke-linecap="round"
   id="path14" />
	<path
   d="M 60.86 33.228 c -0.553 0 -1 -0.448 -1 -1 s 0.447 -1 1 -1 c 0.798 0 1.446 -0.649 1.446 -1.447 s -0.648 -1.447 -1.446 -1.447 h -7.373 c -0.553 0 -1 -0.448 -1 -1 s 0.447 -1 1 -1 h 7.373 c 1.9 0 3.446 1.546 3.446 3.447 S 62.761 33.228 60.86 33.228 z"
   style="stroke: none; stroke-width: 1; stroke-dasharray: none; stroke-linecap: butt; stroke-linejoin: miter; stroke-miterlimit: 10; fill: rgb(255,255,255); fill-rule: nonzero; opacity: 1;"
   transform=" matrix(1 0 0 1 0 0) "
   stroke-linecap="round"
   id="path16" />
	<path
   d="M 39.375 28.334 h -8.062 c -0.552 0 -1 -0.448 -1 -1 s 0.448 -1 1 -1 h 8.062 c 0.552 0 1 0.448 1 1 S 39.927 28.334 39.375 28.334 z"
   style="stroke: none; stroke-width: 1; stroke-dasharray: none; stroke-linecap: butt; stroke-linejoin: miter; stroke-miterlimit: 10; fill: rgb(255,255,255); fill-rule: nonzero; opacity: 1;"
   transform=" matrix(1 0 0 1 0 0) "
   stroke-linecap="round"
   id="path18" />
</g>
</svg>
