<svg width="178" height="32" viewBox="0 0 178 32" fill="none" xmlns="http://www.w3.org/2000/svg">
<g clip-path="url(#clip0_0_222)">
<path d="M172.68 20.5067C171.04 20.5067 169.453 20.24 167.973 19.76C167.507 19.6 166.987 19.72 166.627 20.08L164.533 22.7067C160.76 20.9067 157.227 17.5067 155.347 13.6L157.947 11.3867C158.307 11.0133 158.413 10.4933 158.267 10.0267C157.773 8.54667 157.52 6.96 157.52 5.32C157.52 4.6 156.92 4 156.2 4H151.587C150.867 4 150 4.32 150 5.32C150 17.7067 160.307 28 172.68 28C173.627 28 174 27.16 174 26.4267V21.8267C174 21.1067 173.4 20.5067 172.68 20.5067Z" fill="white"/>
</g>
<path d="M6.89831 16.724H4.81031V18.86H2.86631V16.724H0.778313V14.888H2.86631V12.74H4.81031V14.888H6.89831V16.724ZM9.92947 13.148V11.24H13.2535V20H11.1175V13.148H9.92947ZM21.1282 18.356C21.4002 18.14 21.5242 18.04 21.5002 18.056C22.2842 17.408 22.9002 16.876 23.3482 16.46C23.8042 16.044 24.1882 15.608 24.5002 15.152C24.8122 14.696 24.9682 14.252 24.9682 13.82C24.9682 13.492 24.8922 13.236 24.7402 13.052C24.5882 12.868 24.3602 12.776 24.0562 12.776C23.7522 12.776 23.5122 12.892 23.3362 13.124C23.1682 13.348 23.0842 13.668 23.0842 14.084H21.1042C21.1202 13.404 21.2642 12.836 21.5362 12.38C21.8162 11.924 22.1802 11.588 22.6282 11.372C23.0842 11.156 23.5882 11.048 24.1402 11.048C25.0922 11.048 25.8082 11.292 26.2882 11.78C26.7762 12.268 27.0202 12.904 27.0202 13.688C27.0202 14.544 26.7282 15.34 26.1442 16.076C25.5602 16.804 24.8162 17.516 23.9122 18.212H27.1522V19.88H21.1282V18.356ZM30.1276 13.712C30.1596 12.856 30.4396 12.196 30.9676 11.732C31.4956 11.268 32.2116 11.036 33.1156 11.036C33.7156 11.036 34.2276 11.14 34.6516 11.348C35.0836 11.556 35.4076 11.84 35.6236 12.2C35.8476 12.56 35.9596 12.964 35.9596 13.412C35.9596 13.94 35.8276 14.372 35.5636 14.708C35.2996 15.036 34.9916 15.26 34.6396 15.38V15.428C35.0956 15.58 35.4556 15.832 35.7196 16.184C35.9836 16.536 36.1156 16.988 36.1156 17.54C36.1156 18.036 35.9996 18.476 35.7676 18.86C35.5436 19.236 35.2116 19.532 34.7716 19.748C34.3396 19.964 33.8236 20.072 33.2236 20.072C32.2636 20.072 31.4956 19.836 30.9196 19.364C30.3516 18.892 30.0516 18.18 30.0196 17.228H32.0116C32.0196 17.58 32.1196 17.86 32.3116 18.068C32.5036 18.268 32.7836 18.368 33.1516 18.368C33.4636 18.368 33.7036 18.28 33.8716 18.104C34.0476 17.92 34.1356 17.68 34.1356 17.384C34.1356 17 34.0116 16.724 33.7636 16.556C33.5236 16.38 33.1356 16.292 32.5996 16.292H32.2156V14.624H32.5996C33.0076 14.624 33.3356 14.556 33.5836 14.42C33.8396 14.276 33.9676 14.024 33.9676 13.664C33.9676 13.376 33.8876 13.152 33.7276 12.992C33.5676 12.832 33.3476 12.752 33.0676 12.752C32.7636 12.752 32.5356 12.844 32.3836 13.028C32.2396 13.212 32.1556 13.44 32.1316 13.712H30.1276ZM39.3693 18.44V16.784L43.1613 11.36H45.4533V16.664H46.4373V18.44H45.4533V20H43.4013V18.44H39.3693ZM43.5453 13.616L41.5293 16.664H43.5453V13.616ZM60.1533 13.028H56.4093V14.684C56.5693 14.508 56.7933 14.364 57.0813 14.252C57.3693 14.14 57.6813 14.084 58.0173 14.084C58.6173 14.084 59.1133 14.22 59.5053 14.492C59.9053 14.764 60.1973 15.116 60.3813 15.548C60.5653 15.98 60.6573 16.448 60.6573 16.952C60.6573 17.888 60.3933 18.632 59.8653 19.184C59.3373 19.728 58.5933 20 57.6333 20C56.9933 20 56.4373 19.892 55.9653 19.676C55.4933 19.452 55.1293 19.144 54.8733 18.752C54.6173 18.36 54.4773 17.908 54.4533 17.396H56.4573C56.5053 17.644 56.6213 17.852 56.8053 18.02C56.9893 18.18 57.2413 18.26 57.5613 18.26C57.9373 18.26 58.2173 18.14 58.4013 17.9C58.5853 17.66 58.6773 17.34 58.6773 16.94C58.6773 16.548 58.5813 16.248 58.3893 16.04C58.1973 15.832 57.9173 15.728 57.5493 15.728C57.2773 15.728 57.0533 15.796 56.8773 15.932C56.7013 16.06 56.5853 16.232 56.5293 16.448H54.5493V11.228H60.1533V13.028ZM69.958 13.028H66.214V14.684C66.374 14.508 66.598 14.364 66.886 14.252C67.174 14.14 67.486 14.084 67.822 14.084C68.422 14.084 68.918 14.22 69.31 14.492C69.71 14.764 70.002 15.116 70.186 15.548C70.37 15.98 70.462 16.448 70.462 16.952C70.462 17.888 70.198 18.632 69.67 19.184C69.142 19.728 68.398 20 67.438 20C66.798 20 66.242 19.892 65.77 19.676C65.298 19.452 64.934 19.144 64.678 18.752C64.422 18.36 64.282 17.908 64.258 17.396H66.262C66.31 17.644 66.426 17.852 66.61 18.02C66.794 18.18 67.046 18.26 67.366 18.26C67.742 18.26 68.022 18.14 68.206 17.9C68.39 17.66 68.482 17.34 68.482 16.94C68.482 16.548 68.386 16.248 68.194 16.04C68.002 15.832 67.722 15.728 67.354 15.728C67.082 15.728 66.858 15.796 66.682 15.932C66.506 16.06 66.39 16.232 66.334 16.448H64.354V11.228H69.958V13.028ZM79.7627 13.028H76.0187V14.684C76.1787 14.508 76.4027 14.364 76.6907 14.252C76.9787 14.14 77.2907 14.084 77.6267 14.084C78.2267 14.084 78.7227 14.22 79.1147 14.492C79.5147 14.764 79.8067 15.116 79.9907 15.548C80.1747 15.98 80.2667 16.448 80.2667 16.952C80.2667 17.888 80.0027 18.632 79.4747 19.184C78.9467 19.728 78.2027 20 77.2427 20C76.6027 20 76.0467 19.892 75.5747 19.676C75.1027 19.452 74.7387 19.144 74.4827 18.752C74.2267 18.36 74.0867 17.908 74.0627 17.396H76.0667C76.1147 17.644 76.2307 17.852 76.4147 18.02C76.5987 18.18 76.8507 18.26 77.1707 18.26C77.5467 18.26 77.8267 18.14 78.0107 17.9C78.1947 17.66 78.2867 17.34 78.2867 16.94C78.2867 16.548 78.1907 16.248 77.9987 16.04C77.8067 15.832 77.5267 15.728 77.1587 15.728C76.8867 15.728 76.6627 15.796 76.4867 15.932C76.3107 16.06 76.1947 16.232 76.1387 16.448H74.1587V11.228H79.7627V13.028ZM88.7634 14.936V16.64H83.4834V14.936H88.7634ZM98.5283 13.028H94.7843V14.684C94.9443 14.508 95.1683 14.364 95.4563 14.252C95.7443 14.14 96.0563 14.084 96.3923 14.084C96.9923 14.084 97.4883 14.22 97.8803 14.492C98.2803 14.764 98.5723 15.116 98.7563 15.548C98.9403 15.98 99.0323 16.448 99.0323 16.952C99.0323 17.888 98.7683 18.632 98.2403 19.184C97.7123 19.728 96.9683 20 96.0083 20C95.3683 20 94.8123 19.892 94.3403 19.676C93.8683 19.452 93.5043 19.144 93.2483 18.752C92.9923 18.36 92.8523 17.908 92.8283 17.396H94.8323C94.8803 17.644 94.9963 17.852 95.1803 18.02C95.3643 18.18 95.6163 18.26 95.9363 18.26C96.3123 18.26 96.5923 18.14 96.7763 17.9C96.9603 17.66 97.0523 17.34 97.0523 16.94C97.0523 16.548 96.9563 16.248 96.7643 16.04C96.5723 15.832 96.2923 15.728 95.9243 15.728C95.6523 15.728 95.4283 15.796 95.2523 15.932C95.0763 16.06 94.9603 16.232 94.9043 16.448H92.9243V11.228H98.5283V13.028ZM108.333 13.028H104.589V14.684C104.749 14.508 104.973 14.364 105.261 14.252C105.549 14.14 105.861 14.084 106.197 14.084C106.797 14.084 107.293 14.22 107.685 14.492C108.085 14.764 108.377 15.116 108.561 15.548C108.745 15.98 108.837 16.448 108.837 16.952C108.837 17.888 108.573 18.632 108.045 19.184C107.517 19.728 106.773 20 105.813 20C105.173 20 104.617 19.892 104.145 19.676C103.673 19.452 103.309 19.144 103.053 18.752C102.797 18.36 102.657 17.908 102.633 17.396H104.637C104.685 17.644 104.801 17.852 104.985 18.02C105.169 18.18 105.421 18.26 105.741 18.26C106.117 18.26 106.397 18.14 106.581 17.9C106.765 17.66 106.857 17.34 106.857 16.94C106.857 16.548 106.761 16.248 106.569 16.04C106.377 15.832 106.097 15.728 105.729 15.728C105.457 15.728 105.233 15.796 105.057 15.932C104.881 16.06 104.765 16.232 104.709 16.448H102.729V11.228H108.333V13.028ZM117.334 14.936V16.64H112.054V14.936H117.334ZM127.099 13.028H123.355V14.684C123.515 14.508 123.739 14.364 124.027 14.252C124.315 14.14 124.627 14.084 124.963 14.084C125.563 14.084 126.059 14.22 126.451 14.492C126.851 14.764 127.143 15.116 127.327 15.548C127.511 15.98 127.603 16.448 127.603 16.952C127.603 17.888 127.339 18.632 126.811 19.184C126.283 19.728 125.539 20 124.579 20C123.939 20 123.383 19.892 122.911 19.676C122.439 19.452 122.075 19.144 121.819 18.752C121.563 18.36 121.423 17.908 121.399 17.396H123.403C123.451 17.644 123.567 17.852 123.751 18.02C123.935 18.18 124.187 18.26 124.507 18.26C124.883 18.26 125.163 18.14 125.347 17.9C125.531 17.66 125.623 17.34 125.623 16.94C125.623 16.548 125.527 16.248 125.335 16.04C125.143 15.832 124.863 15.728 124.495 15.728C124.223 15.728 123.999 15.796 123.823 15.932C123.647 16.06 123.531 16.232 123.475 16.448H121.495V11.228H127.099V13.028ZM136.903 13.028H133.159V14.684C133.319 14.508 133.543 14.364 133.831 14.252C134.119 14.14 134.431 14.084 134.767 14.084C135.367 14.084 135.863 14.22 136.255 14.492C136.655 14.764 136.947 15.116 137.131 15.548C137.315 15.98 137.407 16.448 137.407 16.952C137.407 17.888 137.143 18.632 136.615 19.184C136.087 19.728 135.343 20 134.383 20C133.743 20 133.187 19.892 132.715 19.676C132.243 19.452 131.879 19.144 131.623 18.752C131.367 18.36 131.227 17.908 131.203 17.396H133.207C133.255 17.644 133.371 17.852 133.555 18.02C133.739 18.18 133.991 18.26 134.311 18.26C134.687 18.26 134.967 18.14 135.151 17.9C135.335 17.66 135.427 17.34 135.427 16.94C135.427 16.548 135.331 16.248 135.139 16.04C134.947 15.832 134.667 15.728 134.299 15.728C134.027 15.728 133.803 15.796 133.627 15.932C133.451 16.06 133.335 16.232 133.279 16.448H131.299V11.228H136.903V13.028Z" fill="white"/>
<defs>
<clipPath id="clip0_0_222">
<rect width="32" height="32" fill="white" transform="translate(146)"/>
</clipPath>
</defs>
</svg>
