<?xml version="1.0"?>
<svg width="640" height="480" xmlns="http://www.w3.org/2000/svg" xmlns:svg="http://www.w3.org/2000/svg" xmlns:xlink="http://www.w3.org/1999/xlink">
 <!-- Created with SVG-edit - https://github.com/SVG-Edit/svgedit-->
 <defs>
  <symbol height="477.156px" id="svg_2" viewBox="0 0 477.156 477.156" width="477.156px" x="0px" xmlns="http://www.w3.org/2000/svg" xmlns:xlink="http://www.w3.org/1999/xlink" y="0px">
   <g>
    <path d="m475.009,380.316l-2.375,-7.156c-5.625,-16.719 -24.062,-34.156 -41,-38.75l-62.688,-17.125c-17,-4.625 -41.25,1.594 -53.688,14.031l-22.688,22.688c-82.453,-22.28 -147.109,-86.938 -169.359,-169.375l22.689,-22.689c12.438,-12.438 18.656,-36.656 14.031,-53.656l-17.094,-62.719c-4.625,-16.969 -22.094,-35.406 -38.781,-40.969l-7.156,-2.406c-16.719,-5.563 -40.563,0.063 -53,12.5l-33.938,33.969c-6.063,6.031 -9.938,23.281 -9.938,23.344c-1.187,107.75 41.063,211.562 117.281,287.781c76.031,76.031 179.454,118.219 286.891,117.313c0.562,0 18.312,-3.813 24.375,-9.845l33.938,-33.938c12.437,-12.436 18.062,-36.279 12.5,-52.998z"/>
   </g>
   <g/>
   <g/>
   <g/>
   <g/>
   <g/>
   <g/>
   <g/>
   <g/>
   <g/>
   <g/>
   <g/>
   <g/>
   <g/>
   <g/>
   <g/>
  </symbol>
 </defs>
 <g class="layer">
  <title>Layer 1</title>
  <use fill="#ffffff" id="svg_3" transform="matrix(0.33532 0 0 0.33532 0 0)" xlink:href="#svg_2"/>
  <g id="svg_4"/>
 </g>
</svg>