<?xml version="1.0" encoding="iso-8859-1"?>
<!-- Generator: Adobe Illustrator 19.0.0, SVG Export Plug-In . SVG Version: 6.00 Build 0)  -->
<svg version="1.1" id="Capa_1" xmlns="http://www.w3.org/2000/svg" xmlns:xlink="http://www.w3.org/1999/xlink" x="0px" y="0px"
	 viewBox="0 0 405.333 405.333" style="enable-background:new 0 0 405.333 405.333;" xml:space="preserve">
<path style="fill:#fff;" d="M373.333,266.88c-24.696,0.048-49.241-3.856-72.704-11.563c-10.971-3.831-23.161-1.25-31.637,6.699
	l-46.037,34.731c-49.441-24.823-89.557-64.931-114.389-114.368l33.813-44.928c8.537-8.543,11.59-21.136,7.915-32.64
	C142.558,81.316,138.633,56.735,138.667,32c0-17.673-14.327-32-32-32H32C14.327,0,0,14.327,0,32
	c0.235,206.089,167.244,373.098,373.333,373.333c17.673,0,32-14.327,32-32V298.88C405.333,281.207,391.006,266.88,373.333,266.88z"
	/>
<g>
</g>
<g>
</g>
<g>
</g>
<g>
</g>
<g>
</g>
<g>
</g>
<g>
</g>
<g>
</g>
<g>
</g>
<g>
</g>
<g>
</g>
<g>
</g>
<g>
</g>
<g>
</g>
<g>
</g>
</svg>
