<svg width="138" height="10" viewBox="0 0 138 10" fill="none" xmlns="http://www.w3.org/2000/svg">
<path d="M2.74112 7.67045V1.63636H4.26669V7.67045H2.74112ZM0.486861 5.41619V3.89062H6.52095V5.41619H0.486861ZM14.0863 0.272727V9H12.2411V2.02415H12.19L10.1914 3.27699V1.64062L12.3519 0.272727H14.0863ZM22.9379 9V7.67045L26.0444 4.79403C26.3086 4.53835 26.5302 4.30824 26.7092 4.10369C26.891 3.89915 27.0288 3.69886 27.1225 3.50284C27.2163 3.30398 27.2631 3.08949 27.2631 2.85938C27.2631 2.60369 27.2049 2.38352 27.0884 2.19886C26.9719 2.01136 26.8129 1.8679 26.6112 1.76847C26.4094 1.66619 26.1808 1.61506 25.9251 1.61506C25.658 1.61506 25.4251 1.66903 25.2262 1.77699C25.0273 1.88494 24.8739 2.03977 24.766 2.24148C24.658 2.44318 24.604 2.68324 24.604 2.96165H22.8526C22.8526 2.39062 22.9819 1.89489 23.2404 1.47443C23.4989 1.05398 23.8612 0.728693 24.3271 0.498579C24.793 0.268466 25.3299 0.153409 25.9379 0.153409C26.5629 0.153409 27.1069 0.264204 27.57 0.485795C28.0359 0.704545 28.3981 1.00852 28.6566 1.39773C28.9151 1.78693 29.0444 2.23295 29.0444 2.7358C29.0444 3.06534 28.979 3.39062 28.8484 3.71165C28.7205 4.03267 28.4918 4.3892 28.1623 4.78125C27.8327 5.17045 27.3683 5.63778 26.7688 6.18324L25.4947 7.43182V7.49148H29.1594V9H22.9379ZM35.7223 9.11932C35.0859 9.11932 34.5192 9.00994 34.022 8.79119C33.5277 8.5696 33.1371 8.26562 32.8501 7.87926C32.5661 7.49006 32.4197 7.04119 32.4112 6.53267H34.2692C34.2805 6.74574 34.3501 6.93324 34.478 7.09517C34.6087 7.25426 34.782 7.37784 34.9979 7.46591C35.2138 7.55398 35.4567 7.59801 35.7266 7.59801C36.0078 7.59801 36.2564 7.5483 36.4723 7.44886C36.6882 7.34943 36.8572 7.21165 36.9794 7.03551C37.1016 6.85937 37.1626 6.65625 37.1626 6.42614C37.1626 6.19318 37.0973 5.98722 36.9666 5.80824C36.8388 5.62642 36.6541 5.48437 36.4126 5.3821C36.174 5.27983 35.8899 5.22869 35.5604 5.22869H34.7464V3.87358H35.5604C35.8388 3.87358 36.0845 3.82528 36.2976 3.72869C36.5135 3.6321 36.6811 3.49858 36.8004 3.32812C36.9197 3.15483 36.9794 2.95312 36.9794 2.72301C36.9794 2.50426 36.9268 2.3125 36.8217 2.14773C36.7195 1.98011 36.5746 1.84943 36.3871 1.75568C36.2024 1.66193 35.9865 1.61506 35.7393 1.61506C35.4893 1.61506 35.2607 1.66051 35.0533 1.75142C34.8459 1.83949 34.6797 1.96591 34.5547 2.13068C34.4297 2.29545 34.3629 2.48864 34.3544 2.71023H32.5859C32.5945 2.20739 32.7379 1.7642 33.0163 1.38068C33.2947 0.997159 33.6697 0.697443 34.1413 0.481534C34.6158 0.262784 35.1513 0.153409 35.7479 0.153409C36.3501 0.153409 36.8771 0.262784 37.3288 0.481534C37.7805 0.700284 38.1314 0.995738 38.3814 1.3679C38.6342 1.73722 38.7592 2.15199 38.7564 2.61222C38.7592 3.10085 38.6072 3.50852 38.3004 3.83523C37.9964 4.16193 37.6001 4.36932 37.1115 4.45739V4.52557C37.7536 4.60795 38.2422 4.83097 38.5774 5.1946C38.9155 5.5554 39.0831 6.0071 39.0803 6.54972C39.0831 7.04688 38.9396 7.48864 38.6499 7.875C38.3629 8.26136 37.9666 8.56534 37.4609 8.78693C36.9553 9.00852 36.3757 9.11932 35.7223 9.11932ZM42.2745 7.46591V6.01278L45.918 0.272727H47.1708V2.28409H46.4293L44.1325 5.91903V5.98722H49.31V7.46591H42.2745ZM46.4634 9V7.02273L46.4975 6.37926V0.272727H48.2276V9H46.4634ZM60.5043 9.11932C59.902 9.11932 59.3651 9.00852 58.8935 8.78693C58.4247 8.56534 58.0526 8.25994 57.777 7.87074C57.5014 7.48153 57.358 7.03551 57.3466 6.53267H59.1364C59.1563 6.87074 59.2983 7.14489 59.5625 7.35511C59.8267 7.56534 60.1406 7.67045 60.5043 7.67045C60.794 7.67045 61.0497 7.60653 61.2713 7.47869C61.4957 7.34801 61.6705 7.16761 61.7955 6.9375C61.9233 6.70455 61.9872 6.4375 61.9872 6.13636C61.9872 5.82955 61.9219 5.55966 61.7912 5.3267C61.6634 5.09375 61.4858 4.91193 61.2585 4.78125C61.0313 4.65057 60.7713 4.58381 60.4787 4.58097C60.223 4.58097 59.9744 4.63352 59.733 4.73864C59.4943 4.84375 59.3082 4.98722 59.1747 5.16903L57.5341 4.875L57.9474 0.272727H63.2827V1.78125H59.4688L59.2429 3.96733H59.294C59.4474 3.75142 59.679 3.57244 59.9886 3.4304C60.2983 3.28835 60.6449 3.21733 61.0284 3.21733C61.554 3.21733 62.0227 3.34091 62.4347 3.58807C62.8466 3.83523 63.1719 4.17472 63.4105 4.60653C63.6491 5.03551 63.767 5.52983 63.7642 6.08949C63.767 6.67756 63.6307 7.20028 63.3551 7.65767C63.0824 8.11222 62.7003 8.47017 62.2088 8.73153C61.7202 8.99006 61.152 9.11932 60.5043 9.11932ZM70.2386 9.11932C69.6364 9.11932 69.0994 9.00852 68.6278 8.78693C68.1591 8.56534 67.7869 8.25994 67.5114 7.87074C67.2358 7.48153 67.0923 7.03551 67.081 6.53267H68.8707C68.8906 6.87074 69.0327 7.14489 69.2969 7.35511C69.5611 7.56534 69.875 7.67045 70.2386 7.67045C70.5284 7.67045 70.7841 7.60653 71.0057 7.47869C71.2301 7.34801 71.4048 7.16761 71.5298 6.9375C71.6577 6.70455 71.7216 6.4375 71.7216 6.13636C71.7216 5.82955 71.6563 5.55966 71.5256 5.3267C71.3977 5.09375 71.2202 4.91193 70.9929 4.78125C70.7656 4.65057 70.5057 4.58381 70.2131 4.58097C69.9574 4.58097 69.7088 4.63352 69.4673 4.73864C69.2287 4.84375 69.0426 4.98722 68.9091 5.16903L67.2685 4.875L67.6818 0.272727H73.017V1.78125H69.2031L68.9773 3.96733H69.0284C69.1818 3.75142 69.4134 3.57244 69.723 3.4304C70.0327 3.28835 70.3793 3.21733 70.7628 3.21733C71.2884 3.21733 71.7571 3.34091 72.169 3.58807C72.581 3.83523 72.9062 4.17472 73.1449 4.60653C73.3835 5.03551 73.5014 5.52983 73.4986 6.08949C73.5014 6.67756 73.3651 7.20028 73.0895 7.65767C72.8168 8.11222 72.4347 8.47017 71.9432 8.73153C71.4545 8.99006 70.8864 9.11932 70.2386 9.11932ZM79.973 9.11932C79.3707 9.11932 78.8338 9.00852 78.3622 8.78693C77.8935 8.56534 77.5213 8.25994 77.2457 7.87074C76.9702 7.48153 76.8267 7.03551 76.8153 6.53267H78.6051C78.625 6.87074 78.767 7.14489 79.0312 7.35511C79.2955 7.56534 79.6094 7.67045 79.973 7.67045C80.2628 7.67045 80.5185 7.60653 80.7401 7.47869C80.9645 7.34801 81.1392 7.16761 81.2642 6.9375C81.392 6.70455 81.456 6.4375 81.456 6.13636C81.456 5.82955 81.3906 5.55966 81.2599 5.3267C81.1321 5.09375 80.9545 4.91193 80.7273 4.78125C80.5 4.65057 80.2401 4.58381 79.9474 4.58097C79.6918 4.58097 79.4432 4.63352 79.2017 4.73864C78.9631 4.84375 78.777 4.98722 78.6435 5.16903L77.0028 4.875L77.4162 0.272727H82.7514V1.78125H78.9375L78.7116 3.96733H78.7628C78.9162 3.75142 79.1477 3.57244 79.4574 3.4304C79.767 3.28835 80.1136 3.21733 80.4972 3.21733C81.0227 3.21733 81.4915 3.34091 81.9034 3.58807C82.3153 3.83523 82.6406 4.17472 82.8793 4.60653C83.1179 5.03551 83.2358 5.52983 83.233 6.08949C83.2358 6.67756 83.0994 7.20028 82.8239 7.65767C82.5511 8.11222 82.169 8.47017 81.6776 8.73153C81.1889 8.99006 80.6207 9.11932 79.973 9.11932ZM90.6151 3.91619V5.35653H86.6349V3.91619H90.6151ZM97.3324 9.11932C96.7301 9.11932 96.1932 9.00852 95.7216 8.78693C95.2528 8.56534 94.8807 8.25994 94.6051 7.87074C94.3295 7.48153 94.1861 7.03551 94.1747 6.53267H95.9645C95.9844 6.87074 96.1264 7.14489 96.3906 7.35511C96.6548 7.56534 96.9688 7.67045 97.3324 7.67045C97.6222 7.67045 97.8778 7.60653 98.0994 7.47869C98.3239 7.34801 98.4986 7.16761 98.6236 6.9375C98.7514 6.70455 98.8153 6.4375 98.8153 6.13636C98.8153 5.82955 98.75 5.55966 98.6193 5.3267C98.4915 5.09375 98.3139 4.91193 98.0866 4.78125C97.8594 4.65057 97.5994 4.58381 97.3068 4.58097C97.0511 4.58097 96.8026 4.63352 96.5611 4.73864C96.3224 4.84375 96.1364 4.98722 96.0028 5.16903L94.3622 4.875L94.7756 0.272727H100.111V1.78125H96.2969L96.071 3.96733H96.1222C96.2756 3.75142 96.5071 3.57244 96.8168 3.4304C97.1264 3.28835 97.473 3.21733 97.8565 3.21733C98.3821 3.21733 98.8509 3.34091 99.2628 3.58807C99.6747 3.83523 100 4.17472 100.239 4.60653C100.477 5.03551 100.595 5.52983 100.592 6.08949C100.595 6.67756 100.459 7.20028 100.183 7.65767C99.9105 8.11222 99.5284 8.47017 99.0369 8.73153C98.5483 8.99006 97.9801 9.11932 97.3324 9.11932ZM107.067 9.11932C106.464 9.11932 105.928 9.00852 105.456 8.78693C104.987 8.56534 104.615 8.25994 104.339 7.87074C104.064 7.48153 103.92 7.03551 103.909 6.53267H105.699C105.719 6.87074 105.861 7.14489 106.125 7.35511C106.389 7.56534 106.703 7.67045 107.067 7.67045C107.357 7.67045 107.612 7.60653 107.834 7.47869C108.058 7.34801 108.233 7.16761 108.358 6.9375C108.486 6.70455 108.55 6.4375 108.55 6.13636C108.55 5.82955 108.484 5.55966 108.354 5.3267C108.226 5.09375 108.048 4.91193 107.821 4.78125C107.594 4.65057 107.334 4.58381 107.041 4.58097C106.786 4.58097 106.537 4.63352 106.295 4.73864C106.057 4.84375 105.871 4.98722 105.737 5.16903L104.097 4.875L104.51 0.272727H109.845V1.78125H106.031L105.805 3.96733H105.857C106.01 3.75142 106.241 3.57244 106.551 3.4304C106.861 3.28835 107.207 3.21733 107.591 3.21733C108.116 3.21733 108.585 3.34091 108.997 3.58807C109.409 3.83523 109.734 4.17472 109.973 4.60653C110.212 5.03551 110.33 5.52983 110.327 6.08949C110.33 6.67756 110.193 7.20028 109.918 7.65767C109.645 8.11222 109.263 8.47017 108.771 8.73153C108.283 8.99006 107.714 9.11932 107.067 9.11932ZM117.709 3.91619V5.35653H113.729V3.91619H117.709ZM124.426 9.11932C123.824 9.11932 123.287 9.00852 122.815 8.78693C122.347 8.56534 121.974 8.25994 121.699 7.87074C121.423 7.48153 121.28 7.03551 121.268 6.53267H123.058C123.078 6.87074 123.22 7.14489 123.484 7.35511C123.749 7.56534 124.062 7.67045 124.426 7.67045C124.716 7.67045 124.972 7.60653 125.193 7.47869C125.418 7.34801 125.592 7.16761 125.717 6.9375C125.845 6.70455 125.909 6.4375 125.909 6.13636C125.909 5.82955 125.844 5.55966 125.713 5.3267C125.585 5.09375 125.408 4.91193 125.18 4.78125C124.953 4.65057 124.693 4.58381 124.401 4.58097C124.145 4.58097 123.896 4.63352 123.655 4.73864C123.416 4.84375 123.23 4.98722 123.097 5.16903L121.456 4.875L121.869 0.272727H127.205V1.78125H123.391L123.165 3.96733H123.216C123.369 3.75142 123.601 3.57244 123.911 3.4304C124.22 3.28835 124.567 3.21733 124.95 3.21733C125.476 3.21733 125.945 3.34091 126.357 3.58807C126.768 3.83523 127.094 4.17472 127.332 4.60653C127.571 5.03551 127.689 5.52983 127.686 6.08949C127.689 6.67756 127.553 7.20028 127.277 7.65767C127.004 8.11222 126.622 8.47017 126.131 8.73153C125.642 8.99006 125.074 9.11932 124.426 9.11932ZM134.161 9.11932C133.558 9.11932 133.021 9.00852 132.55 8.78693C132.081 8.56534 131.709 8.25994 131.433 7.87074C131.158 7.48153 131.014 7.03551 131.003 6.53267H132.793C132.813 6.87074 132.955 7.14489 133.219 7.35511C133.483 7.56534 133.797 7.67045 134.161 7.67045C134.45 7.67045 134.706 7.60653 134.928 7.47869C135.152 7.34801 135.327 7.16761 135.452 6.9375C135.58 6.70455 135.643 6.4375 135.643 6.13636C135.643 5.82955 135.578 5.55966 135.447 5.3267C135.32 5.09375 135.142 4.91193 134.915 4.78125C134.688 4.65057 134.428 4.58381 134.135 4.58097C133.879 4.58097 133.631 4.63352 133.389 4.73864C133.151 4.84375 132.964 4.98722 132.831 5.16903L131.19 4.875L131.604 0.272727H136.939V1.78125H133.125L132.899 3.96733H132.95C133.104 3.75142 133.335 3.57244 133.645 3.4304C133.955 3.28835 134.301 3.21733 134.685 3.21733C135.21 3.21733 135.679 3.34091 136.091 3.58807C136.503 3.83523 136.828 4.17472 137.067 4.60653C137.305 5.03551 137.423 5.52983 137.42 6.08949C137.423 6.67756 137.287 7.20028 137.011 7.65767C136.739 8.11222 136.357 8.47017 135.865 8.73153C135.376 8.99006 134.808 9.11932 134.161 9.11932Z" fill="#292929"/>
</svg>
