<svg width="179" height="32" viewBox="0 0 179 32" fill="none" xmlns="http://www.w3.org/2000/svg">
<g clip-path="url(#clip0_0_222)">
<path d="M173.68 20.5067C172.04 20.5067 170.453 20.24 168.973 19.76C168.507 19.6 167.987 19.72 167.627 20.08L165.533 22.7067C161.76 20.9067 158.227 17.5067 156.347 13.6L158.947 11.3867C159.307 11.0133 159.413 10.4933 159.267 10.0267C158.773 8.54667 158.52 6.96 158.52 5.32C158.52 4.6 157.92 4 157.2 4H152.587C151.867 4 151 4.32 151 5.32C151 17.7067 161.307 28 173.68 28C174.627 28 175 27.16 175 26.4267V21.8267C175 21.1067 174.4 20.5067 173.68 20.5067Z" fill="#292929"/>
</g>
<path d="M3.74112 18.6705V12.6364H5.26669V18.6705H3.74112ZM1.48686 16.4162V14.8906H7.52095V16.4162H1.48686ZM15.0863 11.2727V20H13.2411V13.0241H13.19L11.1914 14.277V12.6406L13.3519 11.2727H15.0863ZM23.9379 20V18.6705L27.0444 15.794C27.3086 15.5384 27.5302 15.3082 27.7092 15.1037C27.891 14.8991 28.0288 14.6989 28.1225 14.5028C28.2163 14.304 28.2631 14.0895 28.2631 13.8594C28.2631 13.6037 28.2049 13.3835 28.0884 13.1989C27.9719 13.0114 27.8129 12.8679 27.6112 12.7685C27.4094 12.6662 27.1808 12.6151 26.9251 12.6151C26.658 12.6151 26.4251 12.669 26.2262 12.777C26.0273 12.8849 25.8739 13.0398 25.766 13.2415C25.658 13.4432 25.604 13.6832 25.604 13.9616H23.8526C23.8526 13.3906 23.9819 12.8949 24.2404 12.4744C24.4989 12.054 24.8612 11.7287 25.3271 11.4986C25.793 11.2685 26.3299 11.1534 26.9379 11.1534C27.5629 11.1534 28.1069 11.2642 28.57 11.4858C29.0359 11.7045 29.3981 12.0085 29.6566 12.3977C29.9151 12.7869 30.0444 13.233 30.0444 13.7358C30.0444 14.0653 29.979 14.3906 29.8484 14.7116C29.7205 15.0327 29.4918 15.3892 29.1623 15.7812C28.8327 16.1705 28.3683 16.6378 27.7688 17.1832L26.4947 18.4318V18.4915H30.1594V20H23.9379ZM36.7223 20.1193C36.0859 20.1193 35.5192 20.0099 35.022 19.7912C34.5277 19.5696 34.1371 19.2656 33.8501 18.8793C33.5661 18.4901 33.4197 18.0412 33.4112 17.5327H35.2692C35.2805 17.7457 35.3501 17.9332 35.478 18.0952C35.6087 18.2543 35.782 18.3778 35.9979 18.4659C36.2138 18.554 36.4567 18.598 36.7266 18.598C37.0078 18.598 37.2564 18.5483 37.4723 18.4489C37.6882 18.3494 37.8572 18.2116 37.9794 18.0355C38.1016 17.8594 38.1626 17.6562 38.1626 17.4261C38.1626 17.1932 38.0973 16.9872 37.9666 16.8082C37.8388 16.6264 37.6541 16.4844 37.4126 16.3821C37.174 16.2798 36.8899 16.2287 36.5604 16.2287H35.7464V14.8736H36.5604C36.8388 14.8736 37.0845 14.8253 37.2976 14.7287C37.5135 14.6321 37.6811 14.4986 37.8004 14.3281C37.9197 14.1548 37.9794 13.9531 37.9794 13.723C37.9794 13.5043 37.9268 13.3125 37.8217 13.1477C37.7195 12.9801 37.5746 12.8494 37.3871 12.7557C37.2024 12.6619 36.9865 12.6151 36.7393 12.6151C36.4893 12.6151 36.2607 12.6605 36.0533 12.7514C35.8459 12.8395 35.6797 12.9659 35.5547 13.1307C35.4297 13.2955 35.3629 13.4886 35.3544 13.7102H33.5859C33.5945 13.2074 33.7379 12.7642 34.0163 12.3807C34.2947 11.9972 34.6697 11.6974 35.1413 11.4815C35.6158 11.2628 36.1513 11.1534 36.7479 11.1534C37.3501 11.1534 37.8771 11.2628 38.3288 11.4815C38.7805 11.7003 39.1314 11.9957 39.3814 12.3679C39.6342 12.7372 39.7592 13.152 39.7564 13.6122C39.7592 14.1009 39.6072 14.5085 39.3004 14.8352C38.9964 15.1619 38.6001 15.3693 38.1115 15.4574V15.5256C38.7536 15.608 39.2422 15.831 39.5774 16.1946C39.9155 16.5554 40.0831 17.0071 40.0803 17.5497C40.0831 18.0469 39.9396 18.4886 39.6499 18.875C39.3629 19.2614 38.9666 19.5653 38.4609 19.7869C37.9553 20.0085 37.3757 20.1193 36.7223 20.1193ZM43.2745 18.4659V17.0128L46.918 11.2727H48.1708V13.2841H47.4293L45.1325 16.919V16.9872H50.31V18.4659H43.2745ZM47.4634 20V18.0227L47.4975 17.3793V11.2727H49.2276V20H47.4634ZM61.5043 20.1193C60.902 20.1193 60.3651 20.0085 59.8935 19.7869C59.4247 19.5653 59.0526 19.2599 58.777 18.8707C58.5014 18.4815 58.358 18.0355 58.3466 17.5327H60.1364C60.1563 17.8707 60.2983 18.1449 60.5625 18.3551C60.8267 18.5653 61.1406 18.6705 61.5043 18.6705C61.794 18.6705 62.0497 18.6065 62.2713 18.4787C62.4957 18.348 62.6705 18.1676 62.7955 17.9375C62.9233 17.7045 62.9872 17.4375 62.9872 17.1364C62.9872 16.8295 62.9219 16.5597 62.7912 16.3267C62.6634 16.0937 62.4858 15.9119 62.2585 15.7812C62.0313 15.6506 61.7713 15.5838 61.4787 15.581C61.223 15.581 60.9744 15.6335 60.733 15.7386C60.4943 15.8437 60.3082 15.9872 60.1747 16.169L58.5341 15.875L58.9474 11.2727H64.2827V12.7812H60.4688L60.2429 14.9673H60.294C60.4474 14.7514 60.679 14.5724 60.9886 14.4304C61.2983 14.2884 61.6449 14.2173 62.0284 14.2173C62.554 14.2173 63.0227 14.3409 63.4347 14.5881C63.8466 14.8352 64.1719 15.1747 64.4105 15.6065C64.6491 16.0355 64.767 16.5298 64.7642 17.0895C64.767 17.6776 64.6307 18.2003 64.3551 18.6577C64.0824 19.1122 63.7003 19.4702 63.2088 19.7315C62.7202 19.9901 62.152 20.1193 61.5043 20.1193ZM71.2386 20.1193C70.6364 20.1193 70.0994 20.0085 69.6278 19.7869C69.1591 19.5653 68.7869 19.2599 68.5114 18.8707C68.2358 18.4815 68.0923 18.0355 68.081 17.5327H69.8707C69.8906 17.8707 70.0327 18.1449 70.2969 18.3551C70.5611 18.5653 70.875 18.6705 71.2386 18.6705C71.5284 18.6705 71.7841 18.6065 72.0057 18.4787C72.2301 18.348 72.4048 18.1676 72.5298 17.9375C72.6577 17.7045 72.7216 17.4375 72.7216 17.1364C72.7216 16.8295 72.6563 16.5597 72.5256 16.3267C72.3977 16.0937 72.2202 15.9119 71.9929 15.7812C71.7656 15.6506 71.5057 15.5838 71.2131 15.581C70.9574 15.581 70.7088 15.6335 70.4673 15.7386C70.2287 15.8437 70.0426 15.9872 69.9091 16.169L68.2685 15.875L68.6818 11.2727H74.017V12.7812H70.2031L69.9773 14.9673H70.0284C70.1818 14.7514 70.4134 14.5724 70.723 14.4304C71.0327 14.2884 71.3793 14.2173 71.7628 14.2173C72.2884 14.2173 72.7571 14.3409 73.169 14.5881C73.581 14.8352 73.9062 15.1747 74.1449 15.6065C74.3835 16.0355 74.5014 16.5298 74.4986 17.0895C74.5014 17.6776 74.3651 18.2003 74.0895 18.6577C73.8168 19.1122 73.4347 19.4702 72.9432 19.7315C72.4545 19.9901 71.8864 20.1193 71.2386 20.1193ZM80.973 20.1193C80.3707 20.1193 79.8338 20.0085 79.3622 19.7869C78.8935 19.5653 78.5213 19.2599 78.2457 18.8707C77.9702 18.4815 77.8267 18.0355 77.8153 17.5327H79.6051C79.625 17.8707 79.767 18.1449 80.0312 18.3551C80.2955 18.5653 80.6094 18.6705 80.973 18.6705C81.2628 18.6705 81.5185 18.6065 81.7401 18.4787C81.9645 18.348 82.1392 18.1676 82.2642 17.9375C82.392 17.7045 82.456 17.4375 82.456 17.1364C82.456 16.8295 82.3906 16.5597 82.2599 16.3267C82.1321 16.0937 81.9545 15.9119 81.7273 15.7812C81.5 15.6506 81.2401 15.5838 80.9474 15.581C80.6918 15.581 80.4432 15.6335 80.2017 15.7386C79.9631 15.8437 79.777 15.9872 79.6435 16.169L78.0028 15.875L78.4162 11.2727H83.7514V12.7812H79.9375L79.7116 14.9673H79.7628C79.9162 14.7514 80.1477 14.5724 80.4574 14.4304C80.767 14.2884 81.1136 14.2173 81.4972 14.2173C82.0227 14.2173 82.4915 14.3409 82.9034 14.5881C83.3153 14.8352 83.6406 15.1747 83.8793 15.6065C84.1179 16.0355 84.2358 16.5298 84.233 17.0895C84.2358 17.6776 84.0994 18.2003 83.8239 18.6577C83.5511 19.1122 83.169 19.4702 82.6776 19.7315C82.1889 19.9901 81.6207 20.1193 80.973 20.1193ZM91.6151 14.9162V16.3565H87.6349V14.9162H91.6151ZM98.3324 20.1193C97.7301 20.1193 97.1932 20.0085 96.7216 19.7869C96.2528 19.5653 95.8807 19.2599 95.6051 18.8707C95.3295 18.4815 95.1861 18.0355 95.1747 17.5327H96.9645C96.9844 17.8707 97.1264 18.1449 97.3906 18.3551C97.6548 18.5653 97.9688 18.6705 98.3324 18.6705C98.6222 18.6705 98.8778 18.6065 99.0994 18.4787C99.3239 18.348 99.4986 18.1676 99.6236 17.9375C99.7514 17.7045 99.8153 17.4375 99.8153 17.1364C99.8153 16.8295 99.75 16.5597 99.6193 16.3267C99.4915 16.0937 99.3139 15.9119 99.0866 15.7812C98.8594 15.6506 98.5994 15.5838 98.3068 15.581C98.0511 15.581 97.8026 15.6335 97.5611 15.7386C97.3224 15.8437 97.1364 15.9872 97.0028 16.169L95.3622 15.875L95.7756 11.2727H101.111V12.7812H97.2969L97.071 14.9673H97.1222C97.2756 14.7514 97.5071 14.5724 97.8168 14.4304C98.1264 14.2884 98.473 14.2173 98.8565 14.2173C99.3821 14.2173 99.8509 14.3409 100.263 14.5881C100.675 14.8352 101 15.1747 101.239 15.6065C101.477 16.0355 101.595 16.5298 101.592 17.0895C101.595 17.6776 101.459 18.2003 101.183 18.6577C100.911 19.1122 100.528 19.4702 100.037 19.7315C99.5483 19.9901 98.9801 20.1193 98.3324 20.1193ZM108.067 20.1193C107.464 20.1193 106.928 20.0085 106.456 19.7869C105.987 19.5653 105.615 19.2599 105.339 18.8707C105.064 18.4815 104.92 18.0355 104.909 17.5327H106.699C106.719 17.8707 106.861 18.1449 107.125 18.3551C107.389 18.5653 107.703 18.6705 108.067 18.6705C108.357 18.6705 108.612 18.6065 108.834 18.4787C109.058 18.348 109.233 18.1676 109.358 17.9375C109.486 17.7045 109.55 17.4375 109.55 17.1364C109.55 16.8295 109.484 16.5597 109.354 16.3267C109.226 16.0937 109.048 15.9119 108.821 15.7812C108.594 15.6506 108.334 15.5838 108.041 15.581C107.786 15.581 107.537 15.6335 107.295 15.7386C107.057 15.8437 106.871 15.9872 106.737 16.169L105.097 15.875L105.51 11.2727H110.845V12.7812H107.031L106.805 14.9673H106.857C107.01 14.7514 107.241 14.5724 107.551 14.4304C107.861 14.2884 108.207 14.2173 108.591 14.2173C109.116 14.2173 109.585 14.3409 109.997 14.5881C110.409 14.8352 110.734 15.1747 110.973 15.6065C111.212 16.0355 111.33 16.5298 111.327 17.0895C111.33 17.6776 111.193 18.2003 110.918 18.6577C110.645 19.1122 110.263 19.4702 109.771 19.7315C109.283 19.9901 108.714 20.1193 108.067 20.1193ZM118.709 14.9162V16.3565H114.729V14.9162H118.709ZM125.426 20.1193C124.824 20.1193 124.287 20.0085 123.815 19.7869C123.347 19.5653 122.974 19.2599 122.699 18.8707C122.423 18.4815 122.28 18.0355 122.268 17.5327H124.058C124.078 17.8707 124.22 18.1449 124.484 18.3551C124.749 18.5653 125.062 18.6705 125.426 18.6705C125.716 18.6705 125.972 18.6065 126.193 18.4787C126.418 18.348 126.592 18.1676 126.717 17.9375C126.845 17.7045 126.909 17.4375 126.909 17.1364C126.909 16.8295 126.844 16.5597 126.713 16.3267C126.585 16.0937 126.408 15.9119 126.18 15.7812C125.953 15.6506 125.693 15.5838 125.401 15.581C125.145 15.581 124.896 15.6335 124.655 15.7386C124.416 15.8437 124.23 15.9872 124.097 16.169L122.456 15.875L122.869 11.2727H128.205V12.7812H124.391L124.165 14.9673H124.216C124.369 14.7514 124.601 14.5724 124.911 14.4304C125.22 14.2884 125.567 14.2173 125.95 14.2173C126.476 14.2173 126.945 14.3409 127.357 14.5881C127.768 14.8352 128.094 15.1747 128.332 15.6065C128.571 16.0355 128.689 16.5298 128.686 17.0895C128.689 17.6776 128.553 18.2003 128.277 18.6577C128.004 19.1122 127.622 19.4702 127.131 19.7315C126.642 19.9901 126.074 20.1193 125.426 20.1193ZM135.161 20.1193C134.558 20.1193 134.021 20.0085 133.55 19.7869C133.081 19.5653 132.709 19.2599 132.433 18.8707C132.158 18.4815 132.014 18.0355 132.003 17.5327H133.793C133.813 17.8707 133.955 18.1449 134.219 18.3551C134.483 18.5653 134.797 18.6705 135.161 18.6705C135.45 18.6705 135.706 18.6065 135.928 18.4787C136.152 18.348 136.327 18.1676 136.452 17.9375C136.58 17.7045 136.643 17.4375 136.643 17.1364C136.643 16.8295 136.578 16.5597 136.447 16.3267C136.32 16.0937 136.142 15.9119 135.915 15.7812C135.688 15.6506 135.428 15.5838 135.135 15.581C134.879 15.581 134.631 15.6335 134.389 15.7386C134.151 15.8437 133.964 15.9872 133.831 16.169L132.19 15.875L132.604 11.2727H137.939V12.7812H134.125L133.899 14.9673H133.95C134.104 14.7514 134.335 14.5724 134.645 14.4304C134.955 14.2884 135.301 14.2173 135.685 14.2173C136.21 14.2173 136.679 14.3409 137.091 14.5881C137.503 14.8352 137.828 15.1747 138.067 15.6065C138.305 16.0355 138.423 16.5298 138.42 17.0895C138.423 17.6776 138.287 18.2003 138.011 18.6577C137.739 19.1122 137.357 19.4702 136.865 19.7315C136.376 19.9901 135.808 20.1193 135.161 20.1193Z" fill="#292929"/>
<defs>
<clipPath id="clip0_0_222">
<rect width="32" height="32" fill="white" transform="translate(147)"/>
</clipPath>
</defs>
</svg>
