<svg width="36" height="30" viewBox="0 0 36 30" fill="none" xmlns="http://www.w3.org/2000/svg">
<path d="M33.3252 1.28117L32.672 0.0681015C31.3656 0.939023 29.9348 1.93436 28.3796 3.05412C26.8244 4.11167 25.3936 5.35584 24.0872 6.78664C22.7808 8.21744 21.6611 9.86597 20.728 11.7322C19.857 13.5985 19.4216 15.7447 19.4216 18.1708C19.4216 21.7167 20.2614 24.4539 21.941 26.3824C23.6207 28.3109 25.6424 29.2751 28.0064 29.2751C28.8151 29.2751 29.6238 29.1507 30.4325 28.9018C31.3034 28.653 32.081 28.2797 32.7653 27.7821C33.4496 27.2222 34.0095 26.5379 34.445 25.7292C34.8804 24.8583 35.0982 23.8318 35.0982 22.6499C35.0982 21.4679 34.8804 20.4726 34.445 19.6638C34.0095 18.7929 33.4807 18.1086 32.8587 17.611C32.2366 17.0511 31.5523 16.6467 30.8058 16.3979C30.0593 16.149 29.3439 16.0246 28.6596 16.0246C27.9753 16.0246 27.291 16.0868 26.6067 16.2113C25.9224 16.3357 25.3003 16.5845 24.7404 16.9578C24.4294 16.6467 24.1183 16.1802 23.8073 15.5581C23.4962 14.936 23.3407 14.1273 23.3407 13.1319C23.3407 10.8924 24.2427 8.90174 26.0468 7.1599C27.8509 5.35584 30.277 3.39627 33.3252 1.28117ZM14.0094 1.28117L13.3562 0.0681015C12.0498 0.939023 10.619 1.93436 9.06383 3.05412C7.50861 4.11167 6.07781 5.35584 4.77143 6.78664C3.46504 8.21744 2.34529 9.86597 1.41216 11.7322C0.541235 13.5985 0.105774 15.7447 0.105774 18.1708C0.105774 21.7167 0.945591 24.4539 2.62523 26.3824C4.30486 28.3109 6.32664 29.2751 8.69057 29.2751C9.49929 29.2751 10.308 29.1507 11.1167 28.9018C11.9876 28.653 12.7652 28.2797 13.4495 27.7821C14.1338 27.2222 14.6937 26.5379 15.1292 25.7292C15.5646 24.8583 15.7824 23.8318 15.7824 22.6499C15.7824 21.4679 15.5646 20.4726 15.1292 19.6638C14.6937 18.7929 14.1649 18.1086 13.5429 17.611C12.9208 17.0511 12.2365 16.6467 11.49 16.3979C10.7435 16.149 10.0281 16.0246 9.34377 16.0246C8.65947 16.0246 7.97517 16.0868 7.29088 16.2113C6.60658 16.3357 5.9845 16.5845 5.42462 16.9578C5.11357 16.6467 4.80253 16.1802 4.49149 15.5581C4.18044 14.936 4.02492 14.1273 4.02492 13.1319C4.02492 10.8924 4.92695 8.90174 6.731 7.1599C8.53505 5.35584 10.9612 3.39627 14.0094 1.28117Z" fill="black"/>
</svg>
