<svg width="35" height="29" fill="none" xmlns="http://www.w3.org/2000/svg"><path d="M32.8 1.22L32.156.024c-1.288.859-2.699 1.84-4.232 2.944a23.981 23.981 0 00-4.232 3.68c-1.288 1.41-2.392 3.036-3.312 4.876-.859 1.84-1.288 3.956-1.288 6.348 0 3.496.828 6.195 2.484 8.096 1.656 1.901 3.65 2.852 5.98 2.852.797 0 1.595-.123 2.392-.368a7.266 7.266 0 002.3-1.104 6.667 6.667 0 001.656-2.024c.43-.859.644-1.87.644-3.036 0-1.165-.215-2.147-.644-2.944-.43-.859-.95-1.533-1.564-2.024a5.703 5.703 0 00-2.024-1.196 6.686 6.686 0 00-2.116-.368c-.675 0-1.35.061-2.024.184a4.84 4.84 0 00-1.84.736c-.307-.307-.613-.767-.92-1.38-.307-.613-.46-1.41-.46-2.392 0-2.208.89-4.17 2.668-5.888 1.779-1.779 4.17-3.71 7.176-5.796zm-19.044 0L13.112.024c-1.288.859-2.699 1.84-4.232 2.944a23.98 23.98 0 00-4.232 3.68c-1.288 1.41-2.392 3.036-3.312 4.876C.477 13.364.048 15.48.048 17.872c0 3.496.828 6.195 2.484 8.096 1.656 1.901 3.65 2.852 5.98 2.852.797 0 1.595-.123 2.392-.368a7.266 7.266 0 002.3-1.104 6.667 6.667 0 001.656-2.024c.43-.859.644-1.87.644-3.036 0-1.165-.215-2.147-.644-2.944-.43-.859-.95-1.533-1.564-2.024a5.703 5.703 0 00-2.024-1.196 6.687 6.687 0 00-2.116-.368c-.675 0-1.35.061-2.024.184a4.84 4.84 0 00-1.84.736c-.307-.307-.613-.767-.92-1.38-.307-.613-.46-1.41-.46-2.392 0-2.208.89-4.17 2.668-5.888 1.779-1.779 4.17-3.71 7.176-5.796z" fill="#000"/></svg>