<?xml version="1.0" encoding="iso-8859-1"?>
<!-- Generator: Adobe Illustrator 19.0.0, SVG Export Plug-In . SVG Version: 6.00 Build 0)  -->
<svg version="1.1" id="Layer_1" xmlns="http://www.w3.org/2000/svg" xmlns:xlink="http://www.w3.org/1999/xlink" x="0px" y="0px"
	 viewBox="0 0 512.001 512.001" style="enable-background:new 0 0 512.001 512.001;" xml:space="preserve">
<path style="fill:#BAEEC3;" d="M102.52,173.761c-50.368,0-91.191,40.712-91.191,90.935c0,50.224,40.823,90.937,91.191,90.937
	c50.363,0,91.19-40.712,91.19-90.936C193.71,214.473,152.883,173.761,102.52,173.761z M102.52,173.761
	c-50.368,0-91.191,40.712-91.191,90.935c0,50.224,40.823,90.937,91.191,90.937c50.363,0,91.19-40.712,91.19-90.936
	C193.71,214.473,152.883,173.761,102.52,173.761z"/>
<path style="fill:#9FD7C5;" d="M143.1,183.261L59.075,344.67c12.916,6.991,27.715,10.963,43.445,10.963
	c50.363,0,91.19-40.712,91.19-90.936C193.71,229.015,173.092,198.152,143.1,183.261z"/>
<ellipse style="fill:#BAEEC3;" cx="409.479" cy="264.691" rx="91.189" ry="90.937"/>
<path style="fill:#9FD7C5;" d="M450.054,183.261L366.03,344.669c12.916,6.991,27.716,10.963,43.446,10.963
	c50.363,0,91.189-40.712,91.189-90.936C500.665,229.015,480.047,198.152,450.054,183.261z"/>
<path d="M456.577,448.882H76.217c-6.266,0-11.345-5.079-11.345-11.345c0-6.266,5.079-11.345,11.345-11.345h380.36
	c6.266,0,11.345,5.079,11.345,11.345C467.922,443.804,462.843,448.882,456.577,448.882z M409.471,367.251
	c-52.704,0-96.246-39.97-101.91-91.189h-58.413c-0.256,0-0.508-0.009-0.76-0.025c-1.999,0.14-4.039-0.245-5.942-1.218
	c-5.58-2.851-7.792-9.686-4.939-15.265l53.904-105.459H171.814l-12.82,25.077c27.741,18.369,46.067,49.856,46.067,85.546
	c0,56.537-45.994,102.532-102.53,102.532S0,321.256,0,264.719c0-56.536,45.995-102.53,102.531-102.53
	c12.764,0,24.994,2.346,36.275,6.627l50.787-99.356c0.135-0.275,0.282-0.545,0.44-0.807c1.205-2.024,2.96-3.55,4.972-4.481
	c0.664-0.309,1.363-0.555,2.09-0.731c0.984-0.24,2.017-0.343,3.023-0.319h40.35c6.266,0,11.345,5.079,11.345,11.345
	c0,6.266-5.079,11.345-11.345,11.345h-33.751l-23.305,45.593h119.6l14.142-27.668h-5.612c-6.266,0-11.345-5.079-11.345-11.345
	c0-6.266,5.079-11.345,11.345-11.345h62.951c6.266,0,11.345,5.079,11.345,11.345c0,6.266-5.079,11.345-11.345,11.345h-31.857
	l-14.142,27.668h19.245c0.763-0.02,1.524,0.039,2.269,0.17c1.235,0.217,2.404,0.634,3.468,1.216
	c1.658,0.904,3.105,2.227,4.164,3.914c0.229,0.363,0.439,0.74,0.625,1.131l15.497,30.765c11.126-4.147,23.158-6.414,35.712-6.414
	c56.535,0,102.529,45.995,102.529,102.53C512,321.256,466.006,367.251,409.471,367.251z M330.433,276.063
	c5.525,38.671,38.864,68.499,79.038,68.499c44.024,0,79.839-35.817,79.839-79.842c0-44.024-35.815-79.84-79.839-79.84
	c-8.883,0-17.435,1.458-25.423,4.15l35.453,70.383c0.441,0.831,0.78,1.723,1.005,2.661c0.325,1.351,0.393,2.73,0.222,4.069
	c-0.205,1.642-0.761,3.177-1.592,4.523c-0.834,1.359-1.964,2.555-3.352,3.483c-1.109,0.744-2.356,1.297-3.696,1.613
	c-0.943,0.224-1.885,0.32-2.846,0.304h-78.809V276.063z M102.531,184.879c-44.025,0-79.841,35.816-79.841,79.84
	c0,44.025,35.816,79.842,79.841,79.842c44.024,0,79.84-35.817,79.84-79.842c0-26.886-13.357-50.71-33.784-65.185l-35.959,70.347
	c-2.851,5.578-9.681,7.792-15.265,4.938c-5.579-2.851-7.79-9.686-4.938-15.265l35.972-70.376
	C120.281,186.392,111.581,184.879,102.531,184.879z M330.433,253.373h60.621l-27.256-54.108
	C346.093,211.656,333.624,231.038,330.433,253.373z M266.151,253.373h41.413c3.445-31.167,20.92-58.167,45.947-74.532
	l-12.464-24.746h-24.151L266.151,253.373z"/>
<g>
</g>
<g>
</g>
<g>
</g>
<g>
</g>
<g>
</g>
<g>
</g>
<g>
</g>
<g>
</g>
<g>
</g>
<g>
</g>
<g>
</g>
<g>
</g>
<g>
</g>
<g>
</g>
<g>
</g>
</svg>
