<svg width="36" height="31" viewBox="0 0 36 31" fill="none" xmlns="http://www.w3.org/2000/svg">
<path d="M2 19.5209C2.3397 16.9584 3.34522 11.8332 4.64968 11.8332C5.95414 11.8332 6.89475 16.4789 7.29936 19.5209C7.70397 22.563 8.27771 24.8845 9.33758 24.8845C10.3975 24.8845 11.2059 21.3088 11.4777 19.5209C12.2456 14.4691 13.6491 2 15.5541 2C17.1579 2 18.4211 12.3055 18.9825 19.5209C19.5439 24.8256 20.079 29.1396 21.465 28.9965C22.851 28.8535 23.8792 23.3526 24.4561 19.5209C24.8772 16.7244 25.5638 13.9786 26.7643 13.9786C27.9649 13.9786 28.7686 17.7331 29.1083 19.5209C29.2781 20.3553 29.7895 22.3815 30.6369 22.3815C31.4685 22.3815 31.7544 20.8977 31.8947 19.5209C32.0351 18.4428 32.3598 17.7063 33.0175 17.7063C33.5789 17.7063 34 19.1038 34 19.5209" stroke="#292929" stroke-width="3"/>
</svg>
