<svg width="635" height="61" viewBox="0 0 635 61" fill="none" xmlns="http://www.w3.org/2000/svg">
<path d="M43.8288 3.84V14.8H28.9488V60H15.2688V14.8H0.38875V3.84H43.8288ZM46.4744 37.6C46.4744 33.0133 47.3277 28.9867 49.0344 25.52C50.7944 22.0533 53.1677 19.3867 56.1544 17.52C59.141 15.6533 62.4744 14.72 66.1544 14.72C69.301 14.72 72.0477 15.36 74.3944 16.64C76.7944 17.92 78.6344 19.6 79.9144 21.68V15.36H93.5944V60H79.9144V53.68C78.581 55.76 76.7144 57.44 74.3144 58.72C71.9677 60 69.221 60.64 66.0744 60.64C62.4477 60.64 59.141 59.7067 56.1544 57.84C53.1677 55.92 50.7944 53.2267 49.0344 49.76C47.3277 46.24 46.4744 42.1867 46.4744 37.6ZM79.9144 37.68C79.9144 34.2667 78.9544 31.5733 77.0344 29.6C75.1677 27.6267 72.8744 26.64 70.1544 26.64C67.4344 26.64 65.1144 27.6267 63.1944 29.6C61.3277 31.52 60.3944 34.1867 60.3944 37.6C60.3944 41.0133 61.3277 43.7333 63.1944 45.76C65.1144 47.7333 67.4344 48.72 70.1544 48.72C72.8744 48.72 75.1677 47.7333 77.0344 45.76C78.9544 43.7867 79.9144 41.0933 79.9144 37.68ZM129.271 60L115.671 41.28V60H101.991V0.799999H115.671V33.52L129.191 15.36H146.071L127.511 37.76L146.231 60H129.271ZM192.024 36.96C192.024 38.24 191.944 39.5733 191.784 40.96H160.824C161.038 43.7333 161.918 45.8667 163.464 47.36C165.064 48.8 167.011 49.52 169.304 49.52C172.718 49.52 175.091 48.08 176.424 45.2H190.984C190.238 48.1333 188.878 50.7733 186.904 53.12C184.984 55.4667 182.558 57.3067 179.624 58.64C176.691 59.9733 173.411 60.64 169.784 60.64C165.411 60.64 161.518 59.7067 158.104 57.84C154.691 55.9733 152.024 53.3067 150.104 49.84C148.184 46.3733 147.224 42.32 147.224 37.68C147.224 33.04 148.158 28.9867 150.024 25.52C151.944 22.0533 154.611 19.3867 158.024 17.52C161.438 15.6533 165.358 14.72 169.784 14.72C174.104 14.72 177.944 15.6267 181.304 17.44C184.664 19.2533 187.278 21.84 189.144 25.2C191.064 28.56 192.024 32.48 192.024 36.96ZM178.024 33.36C178.024 31.0133 177.224 29.1467 175.624 27.76C174.024 26.3733 172.024 25.68 169.624 25.68C167.331 25.68 165.384 26.3467 163.784 27.68C162.238 29.0133 161.278 30.9067 160.904 33.36H178.024ZM238.074 48.4V60H231.114C226.154 60 222.288 58.8 219.514 56.4C216.741 53.9467 215.354 49.9733 215.354 44.48V26.72H209.914V15.36H215.354V4.48H229.034V15.36H237.994V26.72H229.034V44.64C229.034 45.9733 229.354 46.9333 229.994 47.52C230.634 48.1067 231.701 48.4 233.194 48.4H238.074ZM271.634 14.88C276.754 14.88 280.861 16.5867 283.954 20C287.048 23.36 288.594 28 288.594 33.92V60H274.994V35.76C274.994 32.7733 274.221 30.4533 272.674 28.8C271.128 27.1467 269.048 26.32 266.434 26.32C263.821 26.32 261.741 27.1467 260.194 28.8C258.648 30.4533 257.874 32.7733 257.874 35.76V60H244.194V0.799999H257.874V21.36C259.261 19.3867 261.154 17.8133 263.554 16.64C265.954 15.4667 268.648 14.88 271.634 14.88ZM338.681 36.96C338.681 38.24 338.601 39.5733 338.441 40.96H307.481C307.694 43.7333 308.574 45.8667 310.121 47.36C311.721 48.8 313.667 49.52 315.961 49.52C319.374 49.52 321.747 48.08 323.081 45.2H337.641C336.894 48.1333 335.534 50.7733 333.561 53.12C331.641 55.4667 329.214 57.3067 326.281 58.64C323.347 59.9733 320.067 60.64 316.441 60.64C312.067 60.64 308.174 59.7067 304.761 57.84C301.347 55.9733 298.681 53.3067 296.761 49.84C294.841 46.3733 293.881 42.32 293.881 37.68C293.881 33.04 294.814 28.9867 296.681 25.52C298.601 22.0533 301.267 19.3867 304.681 17.52C308.094 15.6533 312.014 14.72 316.441 14.72C320.761 14.72 324.601 15.6267 327.961 17.44C331.321 19.2533 333.934 21.84 335.801 25.2C337.721 28.56 338.681 32.48 338.681 36.96ZM324.681 33.36C324.681 31.0133 323.881 29.1467 322.281 27.76C320.681 26.3733 318.681 25.68 316.281 25.68C313.987 25.68 312.041 26.3467 310.441 27.68C308.894 29.0133 307.934 30.9067 307.561 33.36H324.681ZM380.171 60.56C376.064 60.56 372.384 59.8933 369.131 58.56C365.877 57.2267 363.264 55.2533 361.291 52.64C359.371 50.0267 358.357 46.88 358.251 43.2H372.811C373.024 45.28 373.744 46.88 374.971 48C376.197 49.0667 377.797 49.6 379.771 49.6C381.797 49.6 383.397 49.1467 384.571 48.24C385.744 47.28 386.331 45.9733 386.331 44.32C386.331 42.9333 385.851 41.7867 384.891 40.88C383.984 39.9733 382.837 39.2267 381.451 38.64C380.117 38.0533 378.197 37.3867 375.691 36.64C372.064 35.52 369.104 34.4 366.811 33.28C364.517 32.16 362.544 30.5067 360.891 28.32C359.237 26.1333 358.411 23.28 358.411 19.76C358.411 14.5333 360.304 10.4533 364.091 7.52C367.877 4.53333 372.811 3.04 378.891 3.04C385.077 3.04 390.064 4.53333 393.851 7.52C397.637 10.4533 399.664 14.56 399.931 19.84H385.131C385.024 18.0267 384.357 16.6133 383.131 15.6C381.904 14.5333 380.331 14 378.411 14C376.757 14 375.424 14.4533 374.411 15.36C373.397 16.2133 372.891 17.4667 372.891 19.12C372.891 20.9333 373.744 22.3467 375.451 23.36C377.157 24.3733 379.824 25.4667 383.451 26.64C387.077 27.8667 390.011 29.04 392.251 30.16C394.544 31.28 396.517 32.9067 398.171 35.04C399.824 37.1733 400.651 39.92 400.651 43.28C400.651 46.48 399.824 49.3867 398.171 52C396.571 54.6133 394.224 56.6933 391.131 58.24C388.037 59.7867 384.384 60.56 380.171 60.56ZM432.449 48.4V60H425.489C420.529 60 416.663 58.8 413.889 56.4C411.116 53.9467 409.729 49.9733 409.729 44.48V26.72H404.289V15.36H409.729V4.48H423.409V15.36H432.369V26.72H423.409V44.64C423.409 45.9733 423.729 46.9333 424.369 47.52C425.009 48.1067 426.076 48.4 427.569 48.4H432.449ZM452.249 22.8C453.849 20.3467 455.849 18.4267 458.249 17.04C460.649 15.6 463.316 14.88 466.249 14.88V29.36H462.489C459.076 29.36 456.516 30.1067 454.809 31.6C453.103 33.04 452.249 35.6 452.249 39.28V60H438.569V15.36H452.249V22.8ZM513.368 36.96C513.368 38.24 513.288 39.5733 513.128 40.96H482.168C482.381 43.7333 483.261 45.8667 484.808 47.36C486.408 48.8 488.355 49.52 490.648 49.52C494.061 49.52 496.435 48.08 497.768 45.2H512.328C511.581 48.1333 510.221 50.7733 508.248 53.12C506.328 55.4667 503.901 57.3067 500.968 58.64C498.035 59.9733 494.755 60.64 491.128 60.64C486.755 60.64 482.861 59.7067 479.448 57.84C476.035 55.9733 473.368 53.3067 471.448 49.84C469.528 46.3733 468.568 42.32 468.568 37.68C468.568 33.04 469.501 28.9867 471.368 25.52C473.288 22.0533 475.955 19.3867 479.368 17.52C482.781 15.6533 486.701 14.72 491.128 14.72C495.448 14.72 499.288 15.6267 502.648 17.44C506.008 19.2533 508.621 21.84 510.488 25.2C512.408 28.56 513.368 32.48 513.368 36.96ZM499.368 33.36C499.368 31.0133 498.568 29.1467 496.968 27.76C495.368 26.3733 493.368 25.68 490.968 25.68C488.675 25.68 486.728 26.3467 485.128 27.68C483.581 29.0133 482.621 30.9067 482.248 33.36H499.368ZM561.165 36.96C561.165 38.24 561.085 39.5733 560.925 40.96H529.965C530.178 43.7333 531.058 45.8667 532.605 47.36C534.205 48.8 536.152 49.52 538.445 49.52C541.858 49.52 544.232 48.08 545.565 45.2H560.125C559.378 48.1333 558.018 50.7733 556.045 53.12C554.125 55.4667 551.698 57.3067 548.765 58.64C545.832 59.9733 542.552 60.64 538.925 60.64C534.552 60.64 530.658 59.7067 527.245 57.84C523.832 55.9733 521.165 53.3067 519.245 49.84C517.325 46.3733 516.365 42.32 516.365 37.68C516.365 33.04 517.298 28.9867 519.165 25.52C521.085 22.0533 523.752 19.3867 527.165 17.52C530.578 15.6533 534.498 14.72 538.925 14.72C543.245 14.72 547.085 15.6267 550.445 17.44C553.805 19.2533 556.418 21.84 558.285 25.2C560.205 28.56 561.165 32.48 561.165 36.96ZM547.165 33.36C547.165 31.0133 546.365 29.1467 544.765 27.76C543.165 26.3733 541.165 25.68 538.765 25.68C536.472 25.68 534.525 26.3467 532.925 27.68C531.378 29.0133 530.418 30.9067 530.045 33.36H547.165ZM591.762 48.4V60H584.802C579.842 60 575.975 58.8 573.202 56.4C570.429 53.9467 569.042 49.9733 569.042 44.48V26.72H563.602V15.36H569.042V4.48H582.722V15.36H591.682V26.72H582.722V44.64C582.722 45.9733 583.042 46.9333 583.682 47.52C584.322 48.1067 585.389 48.4 586.882 48.4H591.762ZM616.042 60.64C612.149 60.64 608.682 59.9733 605.642 58.64C602.602 57.3067 600.202 55.4933 598.442 53.2C596.682 50.8533 595.695 48.24 595.482 45.36H609.002C609.162 46.9067 609.882 48.16 611.162 49.12C612.442 50.08 614.015 50.56 615.882 50.56C617.589 50.56 618.895 50.24 619.802 49.6C620.762 48.9067 621.242 48.0267 621.242 46.96C621.242 45.68 620.575 44.7467 619.242 44.16C617.909 43.52 615.749 42.8267 612.762 42.08C609.562 41.3333 606.895 40.56 604.762 39.76C602.629 38.9067 600.789 37.6 599.242 35.84C597.695 34.0267 596.922 31.6 596.922 28.56C596.922 26 597.615 23.68 599.002 21.6C600.442 19.4667 602.522 17.7867 605.242 16.56C608.015 15.3333 611.295 14.72 615.082 14.72C620.682 14.72 625.082 16.1067 628.282 18.88C631.535 21.6533 633.402 25.3333 633.882 29.92H621.242C621.029 28.3733 620.335 27.1467 619.162 26.24C618.042 25.3333 616.549 24.88 614.682 24.88C613.082 24.88 611.855 25.2 611.002 25.84C610.149 26.4267 609.722 27.2533 609.722 28.32C609.722 29.6 610.389 30.56 611.722 31.2C613.109 31.84 615.242 32.48 618.122 33.12C621.429 33.9733 624.122 34.8267 626.202 35.68C628.282 36.48 630.095 37.8133 631.642 39.68C633.242 41.4933 634.069 43.9467 634.122 47.04C634.122 49.6533 633.375 52 631.882 54.08C630.442 56.1067 628.335 57.7067 625.562 58.88C622.842 60.0533 619.669 60.64 616.042 60.64Z" fill="#1D1D1D"/>
</svg>
