<svg width="88" height="63" viewBox="0 0 88 63" fill="none" xmlns="http://www.w3.org/2000/svg">
<path d="M18.6373 1.12V29H12.6373V1.12H18.6373ZM28.4373 0.959999V2.64H2.83734V0.959999H28.4373ZM28.4373 2.52V7.24L28.0373 7.2V6.76C28.0373 5.50666 27.664 4.52 26.9173 3.8C26.1973 3.05333 25.2107 2.66666 23.9573 2.64V2.52H28.4373ZM28.4373 0.239998V1.4L23.5573 0.959999C24.144 0.959999 24.7573 0.919998 25.3973 0.839998C26.064 0.759999 26.6773 0.666666 27.2373 0.559999C27.7973 0.453332 28.1973 0.346665 28.4373 0.239998ZM12.7573 26.08V29H9.55734V28.6C9.55734 28.6 9.63734 28.6 9.79734 28.6C9.98401 28.6 10.0773 28.6 10.0773 28.6C10.7707 28.6 11.3573 28.36 11.8373 27.88C12.344 27.3733 12.6107 26.7733 12.6373 26.08H12.7573ZM18.5173 26.08H18.6373C18.664 26.7733 18.9173 27.3733 19.3973 27.88C19.904 28.36 20.504 28.6 21.1973 28.6C21.1973 28.6 21.2773 28.6 21.4373 28.6C21.624 28.6 21.7173 28.6 21.7173 28.6V29H18.5173V26.08ZM7.27734 2.52V2.64C6.05068 2.66666 5.06401 3.05333 4.31734 3.8C3.59734 4.52 3.23734 5.50666 3.23734 6.76V7.2L2.83734 7.24V2.52H7.27734ZM2.83734 0.239998C3.10401 0.346665 3.50401 0.453332 4.03734 0.559999C4.59734 0.666666 5.21068 0.759999 5.87734 0.839998C6.54401 0.919998 7.15734 0.959999 7.71734 0.959999L2.83734 1.4V0.239998ZM57.177 0.999998V29H51.177V0.999998H57.177ZM38.217 0.999998V29H32.217V0.999998H38.217ZM51.537 14.2V15.92H37.817V14.2H51.537ZM32.337 26.08V29H29.137V28.6C29.137 28.6 29.217 28.6 29.377 28.6C29.5637 28.6 29.657 28.6 29.657 28.6C30.3504 28.6 30.937 28.36 31.417 27.88C31.9237 27.3733 32.1904 26.7733 32.217 26.08H32.337ZM32.337 3.92H32.217C32.1904 3.22666 31.9237 2.64 31.417 2.16C30.937 1.65333 30.3504 1.4 29.657 1.4C29.657 1.4 29.5637 1.4 29.377 1.4C29.217 1.4 29.137 1.4 29.137 1.4V0.999998H32.337V3.92ZM38.097 26.08H38.217C38.2437 26.7733 38.497 27.3733 38.977 27.88C39.4837 28.36 40.0837 28.6 40.777 28.6C40.777 28.6 40.857 28.6 41.017 28.6C41.177 28.6 41.2704 28.6 41.297 28.6V29H38.097V26.08ZM38.097 3.92V0.999998H41.297V1.4C41.2704 1.4 41.177 1.4 41.017 1.4C40.857 1.4 40.777 1.4 40.777 1.4C40.0837 1.4 39.4837 1.65333 38.977 2.16C38.497 2.64 38.2437 3.22666 38.217 3.92H38.097ZM51.297 26.08V29H48.097V28.6C48.1237 28.6 48.217 28.6 48.377 28.6C48.537 28.6 48.617 28.6 48.617 28.6C49.3104 28.6 49.9104 28.36 50.417 27.88C50.9237 27.3733 51.177 26.7733 51.177 26.08H51.297ZM51.297 3.92H51.177C51.177 3.22666 50.9237 2.64 50.417 2.16C49.9104 1.65333 49.3104 1.4 48.617 1.4C48.617 1.4 48.537 1.4 48.377 1.4C48.217 1.4 48.1237 1.4 48.097 1.4V0.999998H51.297V3.92ZM57.057 26.08H57.177C57.2037 26.7733 57.457 27.3733 57.937 27.88C58.4437 28.36 59.0437 28.6 59.737 28.6C59.737 28.6 59.817 28.6 59.977 28.6C60.1637 28.6 60.257 28.6 60.257 28.6V29H57.057V26.08ZM57.057 3.92V0.999998H60.257V1.4C60.257 1.4 60.1637 1.4 59.977 1.4C59.817 1.4 59.737 1.4 59.737 1.4C59.0437 1.4 58.4437 1.65333 57.937 2.16C57.457 2.64 57.2037 3.22666 57.177 3.92H57.057ZM71.2092 0.999998V29H65.2092V0.999998H71.2092ZM81.7692 27.28L82.7292 29H71.0892V27.28H81.7692ZM80.2892 14.36V16.04H71.0892V14.36H80.2892ZM82.2492 0.999998V2.72H71.0892V0.999998H82.2492ZM84.6892 20.8L82.8492 29H75.0092L76.4492 27.28C77.7826 27.28 78.9559 27.0267 79.9692 26.52C80.9826 25.9867 81.8492 25.24 82.5692 24.28C83.2892 23.2933 83.8626 22.1333 84.2892 20.8H84.6892ZM80.2892 15.96V19.8H79.8892V19.48C79.8892 18.4933 79.5692 17.68 78.9292 17.04C78.2892 16.4 77.4759 16.0667 76.4892 16.04V15.96H80.2892ZM80.2892 10.6V14.44H76.4892V14.36C77.4759 14.3333 78.2892 14 78.9292 13.36C79.5692 12.6933 79.8892 11.8667 79.8892 10.88V10.6H80.2892ZM82.2492 2.6V7.28H81.8492V6.8C81.8492 5.57333 81.4759 4.58667 80.7292 3.84C80.0092 3.09333 79.0226 2.70667 77.7692 2.68V2.6H82.2492ZM82.2492 0.279998V1.44L77.3692 0.999998C77.9559 0.999998 78.5692 0.959999 79.2092 0.88C79.8759 0.799999 80.4892 0.706665 81.0492 0.599998C81.6092 0.493332 82.0092 0.386665 82.2492 0.279998ZM65.3292 26.08V29H62.1292V28.6C62.1292 28.6 62.2092 28.6 62.3692 28.6C62.5559 28.6 62.6492 28.6 62.6492 28.6C63.3426 28.6 63.9292 28.36 64.4092 27.88C64.9159 27.3733 65.1826 26.7733 65.2092 26.08H65.3292ZM65.3292 3.92H65.2092C65.1826 3.22666 64.9159 2.64 64.4092 2.16C63.9292 1.65333 63.3426 1.4 62.6492 1.4C62.6492 1.4 62.5559 1.4 62.3692 1.4C62.2092 1.4 62.1292 1.4 62.1292 1.4V0.999998H65.3292V3.92ZM31.6609 33.44L31.9809 37.8L20.1009 58.4C20.1009 58.4 19.9676 58.64 19.7009 59.12C19.4343 59.5733 19.1676 60.1333 18.9009 60.8C18.6609 61.4667 18.5409 62.1333 18.5409 62.8H18.1409L16.5809 59.32L31.6609 33.44ZM4.54094 59.08V62H0.100937V61.6C0.127604 61.6 0.247604 61.6 0.460938 61.6C0.647604 61.6 0.740938 61.6 0.740938 61.6C1.46094 61.6 2.10094 61.3867 2.66094 60.96C3.22094 60.5067 3.55427 59.88 3.66094 59.08H4.54094ZM6.30094 59.72C6.30094 59.7467 6.30094 59.7733 6.30094 59.8C6.30094 59.8267 6.30094 59.8667 6.30094 59.92C6.30094 60.3467 6.4476 60.7467 6.74094 61.12C7.06094 61.4667 7.43427 61.64 7.86094 61.64H8.46094V62H6.02094V59.72H6.30094ZM6.98094 33.44H7.34094L8.74094 37.44L6.06094 62H3.26094L6.98094 33.44ZM7.34094 33.44L20.4209 54.92L18.1409 62.8L6.30094 42.92L7.34094 33.44ZM32.0209 33.44L35.8209 62H29.3809L27.3809 43.6L31.6609 33.44H32.0209ZM34.5809 59.08H35.4209C35.5543 59.88 35.9009 60.5067 36.4609 60.96C37.0209 61.3867 37.6476 61.6 38.3409 61.6C38.3409 61.6 38.4476 61.6 38.6609 61.6C38.8743 61.6 38.9809 61.6 38.9809 61.6V62H34.5809V59.08ZM29.1409 59.72H29.4209V62H26.9809V61.64H27.5809C28.0343 61.64 28.4076 61.4667 28.7009 61.12C28.9943 60.7467 29.1409 60.3467 29.1409 59.92C29.1409 59.8667 29.1409 59.8267 29.1409 59.8C29.1409 59.7733 29.1409 59.7467 29.1409 59.72ZM47.8459 34V62H41.8459V34H47.8459ZM58.4059 60.28L59.3659 62H47.7259V60.28H58.4059ZM56.9259 47.36V49.04H47.7259V47.36H56.9259ZM58.8859 34V35.72H47.7259V34H58.8859ZM61.3259 53.8L59.4859 62H51.6459L53.0859 60.28C54.4193 60.28 55.5926 60.0267 56.6059 59.52C57.6193 58.9867 58.4859 58.24 59.2059 57.28C59.9259 56.2933 60.4993 55.1333 60.9259 53.8H61.3259ZM56.9259 48.96V52.8H56.5259V52.48C56.5259 51.4933 56.2059 50.68 55.5659 50.04C54.9259 49.4 54.1126 49.0667 53.1259 49.04V48.96H56.9259ZM56.9259 43.6V47.44H53.1259V47.36C54.1126 47.3333 54.9259 47 55.5659 46.36C56.2059 45.6933 56.5259 44.8667 56.5259 43.88V43.6H56.9259ZM58.8859 35.6V40.28H58.4859V39.8C58.4859 38.5733 58.1126 37.5867 57.3659 36.84C56.6459 36.0933 55.6593 35.7067 54.4059 35.68V35.6H58.8859ZM58.8859 33.28V34.44L54.0059 34C54.5926 34 55.2059 33.96 55.8459 33.88C56.5126 33.8 57.1259 33.7067 57.6859 33.6C58.2459 33.4933 58.6459 33.3867 58.8859 33.28ZM41.9659 59.08V62H38.7659V61.6C38.7659 61.6 38.8459 61.6 39.0059 61.6C39.1926 61.6 39.2859 61.6 39.2859 61.6C39.9793 61.6 40.5659 61.36 41.0459 60.88C41.5526 60.3733 41.8193 59.7733 41.8459 59.08H41.9659ZM41.9659 36.92H41.8459C41.8193 36.2267 41.5526 35.64 41.0459 35.16C40.5659 34.6533 39.9793 34.4 39.2859 34.4C39.2859 34.4 39.1926 34.4 39.0059 34.4C38.8459 34.4 38.7659 34.4 38.7659 34.4V34H41.9659V36.92ZM77.2194 34.12V62H71.2194V34.12H77.2194ZM87.0194 33.96V35.64H61.4194V33.96H87.0194ZM87.0194 35.52V40.24L86.6194 40.2V39.76C86.6194 38.5067 86.246 37.52 85.4994 36.8C84.7794 36.0533 83.7927 35.6667 82.5394 35.64V35.52H87.0194ZM87.0194 33.24V34.4L82.1394 33.96C82.726 33.96 83.3394 33.92 83.9794 33.84C84.646 33.76 85.2594 33.6667 85.8194 33.56C86.3794 33.4533 86.7794 33.3467 87.0194 33.24ZM71.3394 59.08V62H68.1394V61.6C68.1394 61.6 68.2194 61.6 68.3794 61.6C68.566 61.6 68.6594 61.6 68.6594 61.6C69.3527 61.6 69.9394 61.36 70.4194 60.88C70.926 60.3733 71.1927 59.7733 71.2194 59.08H71.3394ZM77.0994 59.08H77.2194C77.246 59.7733 77.4994 60.3733 77.9794 60.88C78.486 61.36 79.086 61.6 79.7794 61.6C79.7794 61.6 79.8594 61.6 80.0194 61.6C80.206 61.6 80.2994 61.6 80.2994 61.6V62H77.0994V59.08ZM65.8594 35.52V35.64C64.6327 35.6667 63.646 36.0533 62.8994 36.8C62.1794 37.52 61.8194 38.5067 61.8194 39.76V40.2L61.4194 40.24V35.52H65.8594ZM61.4194 33.24C61.686 33.3467 62.086 33.4533 62.6194 33.56C63.1794 33.6667 63.7927 33.76 64.4594 33.84C65.126 33.92 65.7394 33.96 66.2994 33.96L61.4194 34.4V33.24Z" fill="#D12D35"/>
</svg>
