<svg width="22" height="22" viewBox="0 0 22 22" fill="none" xmlns="http://www.w3.org/2000/svg">
<path d="M20.5923 3.55611C21.1856 2.9628 21.1856 2.00085 20.5923 1.40754C19.999 0.814226 19.037 0.814226 18.4437 1.40754L10.9999 8.85135L3.55611 1.40754C2.9628 0.814225 2.00085 0.814226 1.40754 1.40754C0.814226 2.00085 0.814226 2.9628 1.40754 3.55611L8.85135 10.9999L1.40754 18.4437C0.814225 19.037 0.814226 19.999 1.40754 20.5923C2.00085 21.1856 2.9628 21.1856 3.55611 20.5923L10.9999 13.1485L18.4437 20.5923C19.037 21.1856 19.999 21.1856 20.5923 20.5923C21.1856 19.999 21.1856 19.037 20.5923 18.4437L13.1485 10.9999L20.5923 3.55611Z" fill="#292929"/>
</svg>
