<svg width="22" height="22" viewBox="0 0 22 22" fill="none" xmlns="http://www.w3.org/2000/svg">
<path d="M20.5923 3.55619C21.1856 2.96288 21.1856 2.00093 20.5923 1.40762C19.999 0.814306 19.037 0.814306 18.4437 1.40762L10.9999 8.85143L3.55611 1.40762C2.9628 0.814305 2.00085 0.814306 1.40754 1.40762C0.814226 2.00093 0.814226 2.96288 1.40754 3.55619L8.85135 11L1.40754 18.4438C0.814225 19.0371 0.814226 19.9991 1.40754 20.5924C2.00085 21.1857 2.9628 21.1857 3.55611 20.5924L10.9999 13.1486L18.4437 20.5924C19.037 21.1857 19.999 21.1857 20.5923 20.5924C21.1856 19.9991 21.1856 19.0371 20.5923 18.4438L13.1485 11L20.5923 3.55619Z" fill="white"/>
</svg>
