<svg xmlns="http://www.w3.org/2000/svg" width="36" height="31" fill="none" xmlns:v="https://vecta.io/nano"><path d="M2 19.521c.34-2.562 1.345-7.688 2.65-7.688s2.245 4.646 2.65 7.688.978 5.364 2.038 5.364 1.868-3.576 2.14-5.364C12.246 14.469 13.649 2 15.554 2c1.604 0 2.867 10.306 3.428 17.521.561 5.305 1.096 9.619 2.482 9.476s2.414-5.644 2.991-9.476c.421-2.797 1.108-5.542 2.308-5.542s2.004 3.755 2.344 5.542c.17.834.681 2.861 1.529 2.861.832 0 1.117-1.484 1.258-2.861.14-1.078.465-1.815 1.123-1.815.561 0 .983 1.398.983 1.815" stroke="#292929" stroke-width="3"/></svg>