<?xml version="1.0" standalone="no"?>
<!DOCTYPE svg PUBLIC "-//W3C//DTD SVG 20010904//EN"
 "http://www.w3.org/TR/2001/REC-SVG-20010904/DTD/svg10.dtd">
<svg version="1.0" xmlns="http://www.w3.org/2000/svg"
 width="96.000000pt" height="96.000000pt" viewBox="0 0 96.000000 96.000000"
 preserveAspectRatio="xMidYMid meet">

<g transform="translate(0.000000,96.000000) scale(0.100000,-0.100000)"
fill="#000000" stroke="none">
<path d="M543 774 c-9 -25 23 -44 74 -44 34 0 43 -4 43 -17 0 -10 3 -28 6 -40
l6 -23 -166 0 -165 0 -15 29 c-15 29 -15 29 19 35 21 4 35 13 35 21 0 12 -16
15 -72 15 -81 0 -102 -8 -96 -36 3 -14 11 -18 35 -17 28 3 33 -1 43 -33 10
-30 9 -42 -5 -74 l-17 -39 -62 2 c-77 2 -129 -23 -171 -82 -26 -37 -30 -52
-30 -106 0 -54 4 -69 30 -106 17 -23 48 -51 70 -63 48 -25 127 -26 172 -2 39
20 84 74 99 118 10 30 15 33 55 36 43 3 47 6 144 122 55 65 103 119 108 119 4
1 7 -9 7 -21 0 -12 -16 -35 -39 -54 -48 -42 -71 -89 -71 -147 0 -111 76 -189
185 -191 66 -1 121 28 160 83 26 37 30 52 30 106 0 54 -5 70 -30 106 -36 51
-92 82 -151 83 l-44 1 -16 75 c-32 148 -23 134 -85 140 -30 3 -60 9 -67 13 -7
5 -15 2 -19 -9z m94 -169 c-4 -8 -43 -57 -89 -110 l-83 -95 -52 102 c-29 57
-52 106 -52 111 -1 4 62 7 140 7 120 0 140 -2 136 -15z m-258 -122 c50 -101
51 -103 27 -103 -19 0 -25 7 -30 33 -3 19 -22 53 -42 76 -34 39 -35 44 -24 72
7 16 14 28 15 27 2 -2 26 -49 54 -105z m-144 27 c3 -5 -10 -40 -29 -78 -19
-38 -32 -72 -29 -76 4 -3 42 -6 85 -6 69 0 78 -2 78 -19 0 -29 -42 -82 -80
-102 -45 -24 -84 -24 -135 1 -111 54 -111 215 -1 270 43 21 101 27 111 10z
m600 -10 c111 -54 111 -216 0 -270 -50 -24 -86 -25 -131 -4 -95 45 -118 172
-44 246 16 15 33 28 37 28 5 0 20 -34 33 -76 13 -41 28 -78 33 -81 24 -14 24
19 2 92 -14 44 -25 81 -25 83 0 10 61 -2 95 -18z m-517 -50 c38 -56 31 -70
-33 -70 -30 0 -55 4 -55 10 0 21 45 100 55 97 5 -2 20 -18 33 -37z"/>
</g>
</svg>
