<svg width="32" height="31" viewBox="0 0 32 31" fill="none" xmlns="http://www.w3.org/2000/svg">
<path d="M24.9685 8.29394C25.538 7.72436 25.538 6.80089 24.9685 6.23131V6.23131C24.3989 5.66173 23.4754 5.66173 22.9058 6.23131L15.7598 13.3774L8.61372 6.23131C8.04414 5.66173 7.12067 5.66173 6.55109 6.23131V6.23131C5.98151 6.80089 5.98151 7.72436 6.55109 8.29394L13.6971 15.44L6.55109 22.5861C5.98151 23.1556 5.98151 24.0791 6.55109 24.6487V24.6487C7.12067 25.2183 8.04414 25.2183 8.61372 24.6487L15.7598 17.5026L22.9058 24.6487C23.4754 25.2183 24.3989 25.2183 24.9685 24.6487V24.6487C25.538 24.0791 25.538 23.1556 24.9685 22.5861L17.8224 15.44L24.9685 8.29394Z" fill="white"/>
</svg>
