<svg width="32" height="32" viewBox="0 0 32 32" fill="none" xmlns="http://www.w3.org/2000/svg">
<path d="M25.5923 8.55619C26.1856 7.96288 26.1856 7.00093 25.5923 6.40762C24.999 5.81431 24.037 5.81431 23.4437 6.40762L15.9999 13.8514L8.55611 6.40762C7.9628 5.8143 7.00085 5.81431 6.40754 6.40762C5.81423 7.00093 5.81423 7.96288 6.40754 8.55619L13.8513 16L6.40754 23.4438C5.81422 24.0371 5.81423 24.9991 6.40754 25.5924C7.00085 26.1857 7.9628 26.1857 8.55611 25.5924L15.9999 18.1486L23.4437 25.5924C24.037 26.1857 24.999 26.1857 25.5923 25.5924C26.1856 24.9991 26.1856 24.0371 25.5923 23.4438L18.1485 16L25.5923 8.55619Z" fill="white"/>
</svg>
