<?xml version="1.0" encoding="iso-8859-1"?>
<!-- Generator: Adobe Illustrator 19.1.0, SVG Export Plug-In . SVG Version: 6.00 Build 0)  -->
<svg version="1.1" id="Capa_1" xmlns="http://www.w3.org/2000/svg" xmlns:xlink="http://www.w3.org/1999/xlink" x="0px" y="0px"
	 viewBox="0 0 284.815 284.815" style="enable-background:new 0 0 284.815 284.815;" xml:space="preserve">
<g>
	<g>
		<path d="M255.9,228.08c-7.725,0-14.987-3.014-20.45-8.471l-93.048-93.054l-93.041,93.048c-5.456,5.463-12.719,8.471-20.45,8.471
			s-14.994-3.008-20.457-8.471c-11.273-11.273-11.273-29.621,0-40.894L121.952,65.205c5.456-5.463,12.719-8.471,20.444-8.471
			c7.719,0,14.987,3.008,20.45,8.471l113.498,113.504c5.469,5.463,8.471,12.719,8.471,20.45c0,7.719-3.008,14.987-8.471,20.45
			C270.888,225.066,263.626,228.08,255.9,228.08z M142.403,108.381l102.135,102.142c6.073,6.073,16.645,6.073,22.719,0
			c3.04-3.04,4.704-7.076,4.704-11.363s-1.671-8.323-4.704-11.363L153.47,74.016c-6.073-5.797-16.453-5.701-22.423,0.276
			L17.542,187.797c-6.266,6.266-6.266,16.459,0,22.719c6.073,6.073,16.658,6.073,22.725,0L142.403,108.381z"/>
	</g>
</g>
<g>
</g>
<g>
</g>
<g>
</g>
<g>
</g>
<g>
</g>
<g>
</g>
<g>
</g>
<g>
</g>
<g>
</g>
<g>
</g>
<g>
</g>
<g>
</g>
<g>
</g>
<g>
</g>
<g>
</g>
</svg>
