<svg xmlns="http://www.w3.org/2000/svg" width="187" height="56" fill="none"><path fill="#fff" d="M42.307 5.2V42.08h-9.1V19.962L24.852 42.08h-7.344L9.1 19.909v22.17H0V5.2h10.75l10.483 25.53L31.61 5.202zM77.936 12.766 59.311 56h-9.792l6.812-14.92-12.08-28.314h10.164l6.865 18.333 6.811-18.333zM102.597 23.167q3.246.682 5.215 3.204 1.968 2.47 1.969 5.674 0 4.623-3.3 7.355-3.246 2.679-9.1 2.679H79.98V5.2h16.816q5.694 0 8.887 2.574 3.246 2.574 3.246 6.987 0 3.257-1.756 5.41-1.703 2.155-4.576 2.995M89.08 20.12h5.96q2.235 0 3.406-.946 1.224-.997 1.224-2.889 0-1.89-1.224-2.89-1.17-.997-3.406-.997h-5.96zm6.705 14.71q2.288 0 3.512-.999 1.278-1.05 1.277-2.994 0-1.944-1.33-3.047-1.278-1.104-3.565-1.103h-6.6v8.142zM118.388 9.719q-2.394 0-3.938-1.366-1.49-1.42-1.49-3.467 0-2.101 1.49-3.468Q115.994 0 118.388 0q2.341 0 3.832 1.418 1.543 1.366 1.543 3.468 0 2.048-1.543 3.467-1.49 1.366-3.832 1.366m4.523 3.047v29.313h-9.1V12.766zM149.918 42.079l-12.559-16.285v16.285h-9.1V5.2h9.1v16.18L149.811 5.2h10.697l-14.475 18.071 15.007 18.807zM173.217 12.398v7.46h12.187v6.934h-12.187v8.09H187v7.197h-22.883V5.2H187v7.197z"/></svg>