<svg xmlns="http://www.w3.org/2000/svg" width="27" height="22" fill="none" viewBox="0 0 27 22"><path fill="#1d1d1d" d="M5.87 10.625H4.08V4.722H1.694V2.361h7.16v2.361H6.466v3.3l11.707-3.104-.692-2.557h-3.858V0h4.747c.267-.006.528.077.742.236.213.159.367.384.436.64l1.853 6.841-2.305.61-.305-1.128Zm-.597 8.264a2.4 2.4 0 0 0 1.687-.692 2.35 2.35 0 0 0 .699-1.67c0-.625-.251-1.226-.699-1.669a2.4 2.4 0 0 0-1.687-.691 2.4 2.4 0 0 0-1.687.691 2.35 2.35 0 0 0-.699 1.67c0 .626.25 1.227.698 1.67a2.4 2.4 0 0 0 1.687.692m0 2.361a4.8 4.8 0 0 1-3.375-1.383A4.7 4.7 0 0 1 .5 16.527c0-1.252.503-2.453 1.398-3.338a4.8 4.8 0 0 1 3.375-1.383c1.266 0 2.48.497 3.375 1.383a4.7 4.7 0 0 1 1.398 3.339 4.7 4.7 0 0 1-1.398 3.34 4.8 4.8 0 0 1-3.375 1.383m15.511-2.361c.95 0 1.86-.373 2.531-1.037a3.52 3.52 0 0 0 1.048-2.504c0-.94-.377-1.84-1.048-2.505a3.6 3.6 0 0 0-2.531-1.037c-.95 0-1.86.373-2.531 1.037a3.52 3.52 0 0 0-1.049 2.504c0 .94.378 1.84 1.049 2.505a3.6 3.6 0 0 0 2.531 1.037m0 2.361c-1.582 0-3.1-.622-4.218-1.729a5.87 5.87 0 0 1-1.747-4.174 5.87 5.87 0 0 1 1.747-4.174 6 6 0 0 1 4.218-1.729c1.582 0 3.1.622 4.219 1.73a5.87 5.87 0 0 1 1.747 4.174 5.87 5.87 0 0 1-1.747 4.174 6 6 0 0 1-4.219 1.729"/></svg>