<svg xmlns="http://www.w3.org/2000/svg" width="40" height="40" fill="none"><rect width="40" height="40" rx="8" fill="#fff"/><path d="M12.87 20.625h-1.79v-5.903H8.692v-2.36h7.16v2.36h-2.387v3.3l11.709-3.104-.692-2.557h-3.858v-2.36h4.747c.267-.007.528.077.742.235.213.159.367.384.436.64l1.853 6.842-2.305.61-.305-1.129-12.924 3.426Zm-.597 8.264a2.4 2.4 0 0 0 1.687-.692 2.348 2.348 0 0 0 .7-1.67c0-.625-.252-1.226-.7-1.669a2.4 2.4 0 0 0-1.687-.691 2.4 2.4 0 0 0-1.688.691 2.349 2.349 0 0 0-.699 1.67c0 .626.252 1.227.7 1.67a2.4 2.4 0 0 0 1.687.69Zm0 2.361a4.799 4.799 0 0 1-3.375-1.383 4.697 4.697 0 0 1-1.398-3.34c0-1.252.503-2.453 1.398-3.338a4.799 4.799 0 0 1 3.375-1.383c1.266 0 2.48.497 3.375 1.383a4.697 4.697 0 0 1 1.398 3.339 4.697 4.697 0 0 1-1.398 3.339 4.799 4.799 0 0 1-3.375 1.383Zm15.511-2.361c.95 0 1.86-.373 2.531-1.037a3.523 3.523 0 0 0 1.049-2.505c0-.939-.378-1.84-1.049-2.504a3.599 3.599 0 0 0-2.53-1.037c-.95 0-1.86.373-2.532 1.037a3.523 3.523 0 0 0-1.049 2.504c0 .94.378 1.84 1.049 2.505a3.599 3.599 0 0 0 2.531 1.037Zm0 2.361c-1.582 0-3.1-.622-4.218-1.729a5.87 5.87 0 0 1-1.748-4.174 5.87 5.87 0 0 1 1.748-4.174 5.998 5.998 0 0 1 4.218-1.728c1.582 0 3.1.622 4.219 1.729a5.87 5.87 0 0 1 1.747 4.173 5.87 5.87 0 0 1-1.747 4.174 5.998 5.998 0 0 1-4.219 1.729Z" fill="#1D1D1D"/></svg>