<?xml version="1.0" standalone="no"?>
<!DOCTYPE svg PUBLIC "-//W3C//DTD SVG 20010904//EN"
 "http://www.w3.org/TR/2001/REC-SVG-20010904/DTD/svg10.dtd">
<svg version="1.0" xmlns="http://www.w3.org/2000/svg"
 width="2000.000000pt" height="251.000000pt" viewBox="0 0 2000.000000 251.000000"
 preserveAspectRatio="xMidYMid meet">

<g transform="translate(0.000000,251.000000) scale(0.100000,-0.100000)"
fill="#000000" stroke="none">
<path d="M3640 1440 l-572 -970 -1259 0 -1259 0 0 -190 0 -190 2618 2 2617 3
65 22 c172 60 224 115 416 448 195 337 206 358 212 431 6 81 -11 128 -65 181
l-45 43 36 0 c49 0 151 39 219 84 104 69 160 144 338 447 91 156 171 299 178
318 17 51 13 140 -8 186 -25 56 -102 122 -164 140 -44 13 -232 15 -1403 15
l-1352 0 -572 -970z m2429 575 c33 -17 41 -33 41 -85 0 -55 -10 -77 -107 -235
-100 -163 -131 -200 -193 -229 -43 -20 -62 -21 -423 -24 l-378 -3 12 22 c22
43 321 544 331 557 16 19 679 17 717 -3z m-558 -984 c51 -52 35 -110 -80 -298
-95 -155 -142 -209 -201 -237 -43 -20 -66 -21 -417 -24 -237 -3 -373 0 -373 6
0 5 77 138 170 296 l171 286 350 0 351 0 29 -29z"/>
<path d="M8099 2395 c-211 -33 -381 -131 -493 -283 -18 -26 -250 -415 -514
-864 -316 -536 -487 -836 -497 -872 -33 -112 9 -206 113 -254 l57 -27 1315 0
1315 0 71 22 c125 40 224 120 329 268 24 33 257 423 518 867 328 559 479 823
487 857 25 105 -39 213 -158 269 l-57 27 -1200 2 c-963 1 -1217 -1 -1286 -12z
m1198 -396 c57 -29 72 -59 55 -116 -12 -39 -724 -1253 -765 -1303 -61 -75
-136 -100 -303 -101 -136 -1 -195 11 -230 46 -50 50 -52 46 337 696 199 332
374 622 390 645 81 119 194 167 381 160 67 -3 98 -9 135 -27z"/>
<path d="M11618 2395 c-92 -19 -178 -67 -241 -135 -63 -68 -515 -833 -547
-925 -30 -86 -24 -164 16 -206 64 -67 21 -63 856 -69 l757 -5 -122 -214 c-139
-242 -178 -294 -254 -328 -58 -27 -164 -42 -232 -32 -63 8 -95 47 -86 103 3
23 15 56 25 73 l19 33 -687 0 -687 0 -89 -151 c-100 -169 -123 -234 -106 -299
15 -55 61 -105 118 -127 45 -17 115 -18 1357 -18 1466 0 1349 -6 1497 72 123
64 161 114 412 532 125 208 234 396 241 417 8 22 14 67 15 102 0 75 -23 128
-74 167 -72 55 -70 55 -838 55 -437 0 -708 4 -708 9 0 16 228 401 268 453 20
27 53 60 74 75 42 28 123 53 175 53 46 0 109 -27 127 -55 20 -31 21 -114 1
-160 l-14 -35 691 2 691 3 79 140 c92 164 122 252 116 331 -5 62 -28 99 -79
129 -34 20 -53 20 -1369 22 -1085 1 -1348 -1 -1402 -12z"/>
<path d="M15057 2403 c-3 -5 -300 -512 -662 -1128 -361 -616 -666 -1135 -677
-1153 l-20 -32 1593 2 1593 3 114 190 113 190 -905 3 c-498 1 -906 5 -905 10
0 4 76 133 168 287 l167 280 911 3 911 2 106 185 c58 101 106 187 106 190 0 3
-405 5 -901 5 -495 0 -899 4 -897 8 2 5 77 138 168 295 l165 287 1713 0 1712
0 0 190 0 190 -2284 0 c-1257 0 -2287 -3 -2289 -7z"/>
<path d="M19395 1942 c-76 -37 -115 -96 -115 -177 0 -55 14 -92 48 -129 119
-127 332 -57 348 115 7 68 -23 130 -84 173 -55 39 -138 46 -197 18z m166 -45
c50 -33 79 -82 79 -132 0 -80 -76 -155 -157 -155 -140 0 -217 146 -133 252 46
59 150 76 211 35z"/>
<path d="M19400 1765 c0 -98 1 -105 20 -105 17 0 20 7 20 50 0 68 25 68 65 0
18 -29 37 -50 48 -50 23 0 21 9 -14 55 l-30 40 27 7 c31 8 44 24 44 55 0 40
-25 53 -106 53 l-74 0 0 -105z m144 62 c15 -25 -16 -47 -66 -47 -37 0 -38 1
-38 36 l0 35 46 -3 c32 -2 50 -9 58 -21z"/>
</g>
</svg>
