<svg width="24" height="16" viewBox="0 0 24 16" fill="none" xmlns="http://www.w3.org/2000/svg">
<path d="M0 14.6667C0 15.403 0.596954 16 1.33333 16H10.6667C11.403 16 12 15.403 12 14.6667C12 13.9303 11.403 13.3333 10.6667 13.3333H1.33333C0.596954 13.3333 0 13.9303 0 14.6667ZM0 8C0 8.73638 0.596954 9.33333 1.33333 9.33333H22.6667C23.403 9.33333 24 8.73638 24 8C24 7.26362 23.403 6.66667 22.6667 6.66667H1.33333C0.596954 6.66667 0 7.26362 0 8ZM1.33334 0C0.596956 0 0 0.596954 0 1.33333C0 2.06971 0.596954 2.66667 1.33333 2.66667H16C16.7364 2.66667 17.3333 2.06971 17.3333 1.33333C17.3333 0.596954 16.7364 0 16 0H1.33334Z" fill="white"/>
</svg>
