<svg width="88" height="63" fill="none" xmlns="http://www.w3.org/2000/svg"><path d="M19.196 2.64v23.48c.027.693.28 1.28.76 1.76a2.53 2.53 0 0 0 1.8.72h.48l.04.4h-12.16v-.4h.52c.667 0 1.24-.24 1.72-.72.507-.48.787-1.053.84-1.72V2.64h-5.4c-1.227.027-2.2.413-2.92 1.16-.72.747-1.08 1.72-1.08 2.92v.48h-.4V.24c1.093.453 2.667.693 4.72.72h16.12c.827 0 1.72-.08 2.68-.24.987-.16 1.667-.32 2.04-.48V7.2h-.4v-.48c0-1.653-.627-2.827-1.88-3.52-.587-.347-1.293-.533-2.12-.56h-5.36Zm29.94 25.96c.694 0 1.227-.173 1.6-.52.614-.613.934-1.267.96-1.96v-10.2h-12.96v10.16c0 .693.254 1.293.76 1.8.507.48 1.107.72 1.8.72h.48l.04.4h-12.16v-.4h.52c.694 0 1.28-.24 1.76-.72.507-.507.774-1.107.8-1.8V3.92a2.47 2.47 0 0 0-.8-1.76 2.332 2.332 0 0 0-1.76-.76h-.52V1h12.16l-.04.4h-.48c-.693 0-1.293.253-1.8.76a2.331 2.331 0 0 0-.76 1.76V14.2h12.96V3.92a2.47 2.47 0 0 0-.8-1.76 2.332 2.332 0 0 0-1.76-.76h-.52V1h12.16v.4h-.52c-.693 0-1.293.253-1.8.76a2.331 2.331 0 0 0-.76 1.76v22.16c0 .693.254 1.293.76 1.8.507.48 1.107.72 1.8.72h.52v.4h-12.16v-.4h.52Zm13.994 0c.693 0 1.28-.24 1.76-.72.506-.507.773-1.107.8-1.8V3.8c-.054-.693-.254-1.2-.6-1.52-.64-.587-1.294-.88-1.96-.88h-.52V1h15.32c1.306 0 2.386-.093 3.24-.28.853-.213 1.373-.36 1.56-.44v7l-.4-.04V6.8c0-1.653-.614-2.827-1.84-3.52-.587-.347-1.28-.533-2.08-.56h-6.72v11.64h5.28c.986-.027 1.8-.36 2.44-1 .64-.667.96-1.48.96-2.44v-.36h.4v9.24h-.4v-.32c0-.987-.32-1.8-.96-2.44-.614-.64-1.4-.973-2.36-1h-5.36v11.24h5.24c1.946 0 3.573-.56 4.88-1.68 1.333-1.12 2.32-2.707 2.96-4.76h.4L83.33 29H62.61v-.4h.52Zm-24.25 33h.64v.4h-12v-.36h.6c.453-.027.84-.213 1.16-.56.32-.347.453-.733.4-1.16L28.12 45.4 20.6 58.36c-.987 1.653-1.493 3.133-1.52 4.44h-.4L8.4 45.52l-1.56 14.4c-.053.427.08.827.4 1.2.32.347.707.52 1.16.52H9V62H.64v-.4h.64c.747 0 1.387-.227 1.92-.68.56-.453.893-1.067 1-1.84l3.32-25.64h.36l12.4 20.4 11.92-20.4h.36l3.4 25.64c.133.773.467 1.387 1 1.84.56.453 1.2.68 1.92.68Zm.945 0c.693 0 1.28-.24 1.76-.72.507-.507.773-1.107.8-1.8V36.8c-.053-.693-.253-1.2-.6-1.52-.64-.587-1.293-.88-1.96-.88h-.52V34h15.32c1.307 0 2.387-.093 3.24-.28.853-.213 1.373-.36 1.56-.44v7l-.4-.04v-.44c0-1.653-.613-2.827-1.84-3.52-.587-.347-1.28-.533-2.08-.56h-6.72v11.64h5.28c.987-.027 1.8-.36 2.44-1 .64-.667.96-1.48.96-2.44v-.36h.4v9.24h-.4v-.32c0-.987-.32-1.8-.96-2.44-.613-.64-1.4-.973-2.36-1h-5.36v11.24h5.24c1.947 0 3.573-.56 4.88-1.68 1.333-1.12 2.32-2.707 2.96-4.76h.4L60.025 62h-20.72v-.4h.52Zm37.894-25.96v23.48c.027.693.28 1.28.76 1.76.507.48 1.107.72 1.8.72h.48l.04.4H68.64v-.4h.52c.667 0 1.24-.24 1.72-.72.507-.48.787-1.053.84-1.72V35.64h-5.4c-1.226.027-2.2.413-2.92 1.16-.72.747-1.08 1.72-1.08 2.92v.48h-.4v-6.96c1.094.453 2.667.693 4.72.72h16.12c.827 0 1.72-.08 2.68-.24.987-.16 1.667-.32 2.04-.48v6.96h-.4v-.48c0-1.653-.626-2.827-1.88-3.52-.586-.347-1.293-.533-2.12-.56h-5.36Z" fill="#fff"/></svg>