<svg width="80" height="47" viewBox="0 0 80 47" fill="none" xmlns="http://www.w3.org/2000/svg">
<path d="M40.0001 14.8602L54.5358 5.89013L55.0736 5.87242L50.457 20.4L47.3311 19.9691L50.0405 11.8755L40.1844 17.6921H39.8158L36.7513 15.8835L37.8263 13.5702L40.0001 14.8602Z" fill="white"/>
<path d="M39.9025 0.899853L40.227 0.900308L45.1427 10.8769L42.5027 12.4396L40.0297 7.21687L37.1006 13.1349L37.1026 13.1362L35.9989 15.4394L29.9595 11.8755L32.6691 19.9691L29.5429 20.4L24.9265 5.87241L25.4642 5.89012L34.5161 11.5261L39.9025 0.899853Z" fill="white"/>
<path d="M11.3727 29.9376L17.1248 22.68H21.8349V37.8H17.4286V28.1448L11.3727 35.532H11.1556L5.09969 28.1448V37.8H0.82363V22.68H5.66404L11.3727 29.9376Z" fill="white"/>
<path d="M28.9147 22.68V37.8H24.4867V22.68H28.9147Z" fill="white"/>
<path fill-rule="evenodd" clip-rule="evenodd" d="M45.5734 37.8H50.2836L42.4261 22.68H37.5857L29.7281 37.8H34.3732L35.8058 34.9056H44.1408L45.5734 37.8ZM37.3252 31.7736L39.9733 26.4168L42.5997 31.7736H37.3252Z" fill="white"/>
<path d="M61.6099 29.9376L67.362 22.68H72.0722V37.8H67.6659V28.1448L61.6099 35.532H61.3929L55.3369 28.1448V37.8H51.0609V22.68H55.9013L61.6099 29.9376Z" fill="white"/>
<path d="M79.152 37.8V22.68H74.724V37.8H79.152Z" fill="white"/>
<path d="M1.43825 43.47C1.43825 44.9754 2.48857 45.7554 4.07973 45.7554C5.036 45.7554 5.82766 45.4434 6.25093 44.7102L6.87798 45.0222C6.36066 45.8412 5.4044 46.3638 4.06406 46.3638C2.01828 46.3638 0.76416 45.2406 0.76416 43.47C0.76416 41.6994 2.01828 40.5762 4.08757 40.5762C5.4044 40.5762 6.36066 41.1066 6.87798 41.9178L6.25093 42.2298C5.81982 41.5044 5.036 41.1846 4.07973 41.1846C2.48857 41.1846 1.43825 41.9646 1.43825 43.47Z" fill="white"/>
<path fill-rule="evenodd" clip-rule="evenodd" d="M15.1832 43.47C15.1832 45.2484 13.9291 46.3638 11.8441 46.3638C9.75912 46.3638 8.50501 45.2484 8.50501 43.47C8.50501 41.6916 9.75912 40.5762 11.8441 40.5762C13.9291 40.5762 15.1832 41.6916 15.1832 43.47ZM9.1791 43.47C9.1791 44.9364 10.2294 45.7554 11.8441 45.7554C13.4588 45.7554 14.5091 44.9364 14.5091 43.47C14.5091 42.0036 13.4588 41.1846 11.8441 41.1846C10.2294 41.1846 9.1791 42.0036 9.1791 43.47Z" fill="white"/>
<path d="M22.6308 40.74V45.2406L18.1551 40.74H17.4419V46.2H18.0846V41.5746L22.6935 46.2H23.2735V40.74H22.6308Z" fill="white"/>
<path fill-rule="evenodd" clip-rule="evenodd" d="M25.9328 40.74H28.5978C30.6044 40.74 31.8899 41.793 31.8899 43.47C31.8899 45.147 30.6044 46.2 28.5978 46.2H25.9328V40.74ZM26.5913 45.5916H28.5508C30.1106 45.5916 31.2158 44.8662 31.2158 43.47C31.2158 42.0738 30.1106 41.3484 28.5508 41.3484H26.5913V45.5916Z" fill="white"/>
<path fill-rule="evenodd" clip-rule="evenodd" d="M37.0798 46.3638C39.1647 46.3638 40.4189 45.2484 40.4189 43.47C40.4189 41.6916 39.1647 40.5762 37.0798 40.5762C34.9948 40.5762 33.7407 41.6916 33.7407 43.47C33.7407 45.2484 34.9948 46.3638 37.0798 46.3638ZM37.0798 45.7554C35.4651 45.7554 34.4148 44.9364 34.4148 43.47C34.4148 42.0036 35.4651 41.1846 37.0798 41.1846C38.6945 41.1846 39.7448 42.0036 39.7448 43.47C39.7448 44.9364 38.6945 45.7554 37.0798 45.7554Z" fill="white"/>
<path d="M49.0501 42.885L51.958 46.2H51.1194L48.5171 43.2672L46.6908 44.6868V46.2H46.0323V40.74H46.6908V43.938L50.845 40.74H51.7856L49.0501 42.885Z" fill="white"/>
<path d="M54.4393 40.74H53.7808V46.2H54.4393V40.74Z" fill="white"/>
<path d="M62.2939 45.2406V40.74H62.9367V46.2H62.3566L57.7478 41.5746V46.2H57.105V40.74H57.8183L62.2939 45.2406Z" fill="white"/>
<path d="M71.6393 43.3608H68.4883V43.9692H70.9809V44.679C70.5733 45.4356 69.6797 45.7554 68.5902 45.7554C66.9128 45.7554 65.8625 44.9832 65.8625 43.47C65.8625 41.9568 66.905 41.1846 68.5432 41.1846C69.5387 41.1846 70.2676 41.4966 70.7614 42.1128L71.3336 41.715C70.7849 41.0754 69.8835 40.5762 68.5432 40.5762C66.4426 40.5762 65.1884 41.6916 65.1884 43.47C65.1884 45.2484 66.4425 46.3638 68.5667 46.3638C70.0873 46.3638 71.1847 45.7242 71.6393 44.874V43.3608Z" fill="white"/>
<path d="M74.2019 42.1674C74.2019 42.846 75.2365 42.9864 76.5298 43.0878C78.1994 43.2204 79.3594 43.5402 79.3594 44.6166C79.3594 45.6228 78.3326 46.3638 76.5455 46.3638C75.3463 46.3638 74.194 45.9894 73.3397 45.2406L73.8021 44.7492C74.6016 45.4512 75.4874 45.7554 76.5847 45.7554C77.9094 45.7554 78.6854 45.342 78.6854 44.6634C78.6854 44.0004 77.878 43.8366 76.3966 43.7118C74.9308 43.587 73.5278 43.2672 73.5278 42.1908C73.5278 41.1612 74.8289 40.5762 76.2947 40.5762C77.4861 40.5762 78.4659 40.9896 79.1008 41.5512L78.5835 41.988C78.0505 41.4654 77.2431 41.1924 76.326 41.1846C75.3463 41.1768 74.2019 41.4498 74.2019 42.1674Z" fill="white"/>
</svg>
