<svg xmlns="http://www.w3.org/2000/svg" viewBox="0 0 512 512"><path fill="#8c161a" d="M0 0h512v512H0z"/><circle cx="256" cy="256" r="204.8" fill="#68000a"/><path d="M160.6 145.5v90.2c0 2.9 1.2 4.7 2.9 7 1.7 1.7 4.1 2.9 7 2.9h1.7v1.7h-46.5v-1.7h2.3c2.3 0 4.7-1.2 6.4-2.9 1.7-1.7 2.9-4.1 3.5-6.4v-90.7H117c-4.7 0-8.1 1.7-11.1 4.7-2.9 2.9-4.1 6.4-4.1 11.1v1.7H100v-26.8c4.1 1.7 10.5 2.9 18 2.9h61.7c2.9 0 6.4-.6 10.5-1.2 3.5-.6 6.4-1.2 7.6-1.7v26.8h-1.7v-1.7c0-6.4-2.3-11.1-7-13.4-2.3-1.2-5.2-2.3-8.1-2.3-.1-.2-20.4-.2-20.4-.2zm114.6 99.4c2.9 0 4.7-.6 6.4-1.7 2.3-2.3 3.5-4.7 3.5-7.6v-39h-49.5v39c0 2.9 1.2 5.2 2.9 7 1.7 1.7 4.1 2.9 7 2.9h1.7v1.7h-46.5v-1.7h1.7c2.9 0 4.7-1.2 7-2.9 1.7-1.7 2.9-4.1 2.9-7v-85.5c0-2.9-1.2-4.7-2.9-7-1.7-1.7-4.1-2.9-7-2.9h-1.7v-1.7h46.6v1.7h-1.7c-2.9 0-5.2 1.2-7 2.9s-2.9 4.1-2.9 7v39.6h49.5v-39.6c0-2.9-1.2-4.7-2.9-7-1.7-1.7-4.1-2.9-7-2.9h-1.7v-1.7H320v1.7h-1.7c-2.9 0-5.2 1.2-7 2.9-2.3 2.3-2.9 4.7-2.9 7V235c0 2.9 1.2 5.2 2.9 7 1.7 1.7 4.1 2.9 7 2.9h1.7v1.7h-46.5v-1.7h1.7zm54.1 0c2.9 0 4.7-1.2 7-2.9 1.7-1.7 2.9-4.1 2.9-7v-85.6c0-2.9-1.2-4.7-2.3-5.8-2.3-2.3-5.2-3.5-7.6-3.5h-1.7v-1.7h58.8c5.2 0 9.3-.6 12.2-1.2 3.5-.6 5.2-1.2 5.8-1.7v27.3h-1.7v-1.7c0-6.4-2.3-11.1-7-13.4-2.3-1.2-4.7-2.3-8.1-2.3H362v44.8h20.4c3.5 0 7-1.2 9.3-4.1 2.3-2.3 3.5-5.8 3.5-9.3v-1.2h1.7v35.5h-1.7V210c0-3.5-1.2-7-3.5-9.3-2.3-2.3-5.2-3.5-9.3-4.1H362v43.1h20.4c7.6 0 14-2.3 18.6-6.4 5.2-4.1 8.7-10.5 11.1-18h1.7l-7 31.4H327V245c0-.1 2.3-.1 2.3-.1zm-93.1 126.3h2.3v1.7h-46v-1.2h2.3c1.7 0 3.5-.6 4.7-2.3 1.2-1.7 1.7-2.9 1.7-4.7l-5.8-55.9-29 49.5c-3.5 6.4-5.8 12.2-5.8 16.9h-1.7l-39.5-66.4-5.8 55.3c0 1.7.6 2.9 1.7 4.7 1.2 1.2 2.9 1.7 4.7 1.7h2.3v1.2h-32V370h2.3c2.9 0 5.2-.6 7.6-2.3 2.3-1.7 3.5-4.1 4.1-7l12.8-98.3h1.2l47.7 78 46-78h1.2l12.8 98.3c.6 2.9 1.7 5.2 4.1 7 .9 2.9 3.2 3.5 6.1 3.5zm3.5 0c2.9 0 4.7-1.2 7-2.9 1.7-1.7 2.9-4.1 2.9-7v-84.9c0-2.9-1.2-4.7-2.3-5.8-2.3-2.3-5.2-3.5-7.6-3.5H238v-1.7h58.8c5.2 0 9.3-.6 12.2-1.2 3.5-.6 5.2-1.2 5.8-1.7v26.8h-1.7v-1.7c0-6.4-2.3-11.1-7-13.4-2.3-1.2-4.7-2.3-8.1-2.3h-25.6v44.8h20.4c3.5 0 7-1.2 9.3-4.1 2.3-2.3 3.5-5.8 3.5-9.3V302h1.7v35.5h-1.7v-1.2c0-3.5-1.2-7-3.5-9.3-2.3-2.4-5.2-3.5-9.3-4.1h-20.4V366h20.4c7.6 0 14-2.3 18.6-6.4 5.2-4.1 8.7-10.5 11.1-18h1.7l-7 31.4H238v-1.7h1.7zm145.5-99.5v90.2c0 2.9 1.2 4.7 2.9 7 1.7 1.7 4.1 2.9 7 2.9h1.7v1.7h-46.5v-1.7h1.7c2.3 0 4.7-1.2 6.4-2.9s2.9-4.1 3.5-6.4v-90.7H341c-4.7 0-8.1 1.7-11.1 4.7-2.3 2.9-4.1 6.4-4.1 11.1v1.7h-1.7v-26.8c4.1 1.7 10.5 2.9 18 2.9h61.7c2.9 0 6.4-.6 10.5-1.2 3.5-.6 6.4-1.2 7.6-1.7v26.8h-1.7v-1.7c0-6.4-2.3-11.1-7-13.4-2.3-1.2-5.2-2.3-8.1-2.3l-19.9-.2z" fill="#ffb3af"/></svg>