<?xml version="1.0" standalone="no"?>
<!DOCTYPE svg PUBLIC "-//W3C//DTD SVG 20010904//EN"
 "http://www.w3.org/TR/2001/REC-SVG-20010904/DTD/svg10.dtd">
<svg version="1.0" xmlns="http://www.w3.org/2000/svg"
 width="864.000000pt" height="864.000000pt" viewBox="0 0 864.000000 864.000000"
 preserveAspectRatio="xMidYMid meet">
<metadata>
Created by potrace 1.14, written by Peter Selinger 2001-2017
</metadata>
<g transform="translate(0.000000,864.000000) scale(0.100000,-0.100000)"
fill="#000000" stroke="none">
<path d="M4357 7834 c-3 -3 -2 -16 3 -28 4 -13 5 -27 2 -33 -4 -6 -5 -48 -2
-92 3 -49 1 -83 -5 -85 -5 -3 -4 -5 2 -5 9 -1 10 -8 4 -23 -5 -13 -5 -32 -1
-43 4 -11 5 -24 2 -29 -4 -8 -4 -47 1 -169 1 -26 -2 -49 -8 -51 -5 -3 -4 -5 2
-5 9 -1 10 -8 4 -23 -5 -13 -5 -32 -1 -43 4 -11 4 -31 0 -45 -3 -14 -4 -36 0
-50 l6 -25 611 0 c336 0 614 -2 616 -5 3 -3 15 -41 27 -85 26 -98 60 -225 65
-245 2 -8 11 -42 20 -75 9 -33 25 -91 35 -130 11 -38 28 -104 40 -145 28 -100
34 -140 24 -141 -15 -1 -37 -6 -84 -19 -25 -7 -52 -14 -60 -16 -8 -2 -60 -15
-115 -30 -55 -14 -104 -27 -110 -28 -51 -13 -74 -19 -95 -27 -14 -5 -35 -11
-48 -14 -12 -2 -50 -11 -85 -20 -34 -9 -71 -19 -82 -21 -11 -3 -27 -7 -35 -9
-8 -2 -15 -4 -15 -5 0 -1 -7 -3 -15 -5 -8 -2 -100 -26 -205 -54 -104 -29 -199
-53 -210 -55 -11 -2 -32 -9 -47 -15 -16 -6 -28 -8 -28 -6 0 2 -11 0 -25 -5
-14 -5 -36 -12 -48 -15 -12 -2 -40 -9 -62 -15 -22 -6 -47 -12 -55 -14 -8 -3
-42 -12 -75 -21 -33 -9 -67 -18 -75 -20 -8 -2 -94 -24 -190 -50 -96 -26 -183
-49 -193 -51 -10 -2 -27 -6 -37 -9 -10 -3 -27 -8 -37 -10 -10 -2 -52 -14 -93
-25 -41 -12 -85 -23 -97 -26 -12 -2 -34 -9 -48 -14 -14 -5 -25 -7 -25 -4 0 4
-7 1 -15 -6 -8 -7 -15 -10 -15 -7 0 3 -30 -3 -67 -14 -38 -11 -77 -21 -88 -23
-11 -2 -44 -11 -73 -19 -28 -9 -52 -13 -52 -10 0 3 -7 0 -15 -7 -8 -7 -15 -10
-15 -7 0 3 -16 -1 -36 -9 -20 -8 -39 -13 -41 -10 -3 3 -13 1 -23 -4 -9 -5 -28
-11 -41 -13 -13 -3 -44 -11 -69 -18 -25 -7 -47 -13 -50 -14 -3 0 -14 -4 -25
-8 -11 -3 -31 -8 -45 -11 -14 -2 -77 -18 -140 -35 -162 -44 -353 -95 -502
-134 l-128 -34 0 529 0 528 376 0 c207 -1 378 1 381 4 7 7 8 730 1 742 -5 7
-2206 12 -2275 5 -8 -1 -11 -97 -11 -376 l1 -375 381 -2 381 -3 1 -925 c1
-509 2 -935 3 -946 1 -19 5 -21 39 -14 21 4 48 3 59 -1 11 -4 26 -3 34 1 8 5
19 4 26 -2 9 -7 13 -7 13 1 0 7 8 8 24 1 13 -5 26 -7 29 -4 2 3 29 5 58 5 30
0 70 0 89 0 19 0 41 0 48 0 6 -1 20 -1 30 -1 16 0 45 -1 67 -2 27 -1 101 14
210 43 66 17 125 32 130 34 6 1 17 5 25 8 13 5 110 31 163 43 37 9 54 13 112
29 58 16 117 32 405 108 206 54 286 76 390 104 52 14 102 27 110 28 8 1 35 8
60 14 25 7 47 13 50 14 3 0 32 8 64 18 33 10 63 16 68 13 4 -3 8 -1 8 4 0 5 6
9 13 10 14 1 24 3 127 31 70 20 152 41 175 45 6 1 16 5 23 9 6 5 12 6 12 3 0
-3 18 1 40 9 22 8 40 12 40 9 0 -2 8 0 18 5 9 5 31 11 47 15 17 3 57 12 90 22
33 9 67 17 75 19 8 2 26 8 40 13 14 5 28 10 33 11 4 0 17 3 30 6 13 4 32 8 43
10 10 2 19 4 19 5 0 1 7 3 15 5 8 2 103 26 210 55 107 28 213 56 235 62 22 5
45 11 50 12 6 2 17 6 25 9 8 3 38 11 65 17 28 7 57 14 65 16 26 6 94 24 110
29 34 10 136 37 150 40 8 2 58 15 110 29 85 23 271 72 310 82 8 2 40 10 70 19
71 20 88 25 126 32 31 5 32 4 42 -38 6 -24 16 -62 22 -84 18 -67 20 -74 24
-95 3 -11 7 -23 9 -28 3 -4 8 -24 11 -46 4 -21 9 -42 12 -47 6 -11 42 -8 62 4
6 5 12 6 12 3 0 -2 33 4 73 16 83 23 174 48 200 54 9 2 25 6 35 9 84 23 129
34 157 39 6 1 15 4 20 7 13 8 147 40 159 39 16 -3 25 23 15 42 -5 10 -7 18 -5
18 3 0 -1 18 -9 40 -8 22 -12 40 -10 40 3 0 0 12 -7 28 -6 15 -19 61 -30 102
-11 41 -25 98 -33 125 -25 94 -116 430 -132 485 -8 30 -22 80 -29 110 -8 30
-16 60 -18 65 -1 6 -5 19 -9 30 -3 11 -8 31 -11 45 -3 14 -17 66 -31 115 -13
50 -36 131 -49 180 -14 50 -32 117 -41 150 -22 80 -22 81 -40 150 -9 33 -18
67 -20 75 -16 57 -38 137 -40 150 -2 8 -4 15 -5 15 -1 0 -3 7 -5 15 -20 93
-71 256 -92 299 -42 83 -116 142 -235 190 -30 11 -1619 17 -1631 5z"/>
<path d="M6465 4809 c-188 -21 -386 -69 -517 -123 -18 -8 -36 -15 -40 -15 -18
-3 -200 -99 -271 -143 -229 -140 -440 -346 -591 -576 -44 -67 -164 -296 -170
-325 -4 -18 -16 -50 -26 -69 -11 -20 -67 -229 -74 -278 -3 -19 -8 -46 -11 -60
-12 -54 -19 -171 -19 -300 0 -124 3 -174 19 -285 8 -61 64 -287 74 -299 4 -6
11 -24 15 -41 7 -29 13 -44 54 -135 11 -25 21 -49 23 -55 1 -5 15 -32 31 -58
15 -26 28 -50 28 -53 0 -3 5 -10 10 -17 6 -7 32 -46 59 -87 26 -41 57 -85 67
-97 11 -12 28 -34 39 -50 21 -30 211 -222 260 -263 62 -51 144 -110 155 -110
5 0 10 -3 10 -7 0 -8 23 -22 110 -71 56 -31 198 -102 205 -102 3 0 22 -7 43
-16 20 -10 42 -18 48 -19 7 -2 38 -12 70 -23 33 -11 79 -24 104 -30 25 -6 59
-14 75 -18 59 -14 109 -22 175 -29 30 -3 73 -8 95 -11 51 -6 35 -6 210 -1 83
3 170 10 195 16 25 5 63 12 86 14 76 9 287 71 384 114 85 37 205 98 208 105 2
5 8 8 12 8 5 0 31 13 57 30 181 113 370 282 483 430 14 18 31 39 38 46 6 7 12
17 12 22 0 6 3 12 8 14 24 10 152 236 207 365 39 90 100 291 110 363 2 14 7
41 11 60 9 47 26 264 25 335 0 25 -11 163 -15 193 -13 84 -17 110 -22 132 -3
14 -7 36 -10 50 -20 103 -76 263 -132 380 -25 52 -46 97 -46 100 -2 5 -9 17
-77 125 -133 212 -344 422 -569 568 -72 46 -203 119 -220 122 -3 0 -18 8 -35
17 -87 45 -388 134 -477 140 -21 2 -38 5 -38 8 0 6 -17 7 -225 12 -93 2 -197
1 -230 -3z m380 -764 c16 -2 41 -7 55 -10 14 -3 35 -8 47 -11 89 -18 255 -96
363 -170 111 -75 276 -246 296 -306 4 -10 10 -18 14 -18 3 0 26 -39 49 -87 24
-49 47 -96 53 -107 5 -10 11 -26 13 -35 2 -9 10 -41 19 -71 51 -181 55 -385
10 -565 -36 -146 -103 -287 -187 -401 -53 -70 -175 -197 -216 -224 -13 -8 -29
-20 -35 -25 -22 -20 -94 -64 -157 -95 -59 -30 -259 -103 -259 -95 0 2 -15 -1
-32 -6 -115 -35 -382 -26 -528 17 -90 26 -111 34 -200 77 -310 147 -539 431
-615 762 -38 161 -37 342 0 500 29 123 39 155 47 155 4 0 8 7 8 16 0 29 69
157 135 249 244 341 694 522 1120 450z"/>
<path d="M1749 4066 c-2 -2 -62 -6 -134 -9 -71 -3 -141 -9 -155 -12 -14 -3
-41 -8 -60 -11 -61 -9 -65 -10 -78 -18 -6 -4 -12 -5 -12 -1 0 3 -16 -1 -35 -9
-19 -8 -35 -13 -35 -10 0 2 -13 -2 -30 -11 -16 -8 -31 -15 -32 -14 -6 4 -56
-15 -126 -47 -41 -19 -75 -34 -78 -34 -10 0 -143 -87 -209 -136 -84 -63 -207
-181 -261 -249 -21 -27 -42 -52 -45 -55 -18 -15 -98 -148 -139 -230 -70 -140
-113 -275 -145 -455 -3 -16 -8 -74 -10 -128 -2 -54 -7 -102 -10 -107 -3 -6 -3
-10 2 -10 4 0 8 -26 9 -58 5 -327 167 -694 424 -960 85 -88 282 -242 309 -242
5 0 11 -3 13 -8 9 -22 271 -133 373 -158 17 -4 35 -8 40 -10 6 -2 24 -6 40 -9
17 -3 36 -8 43 -10 52 -19 361 -27 472 -13 105 14 203 36 320 74 8 3 17 5 20
6 3 0 22 9 42 19 21 10 43 19 49 19 7 0 20 7 30 16 9 8 23 17 31 18 33 6 208
115 283 176 61 51 202 197 245 255 25 33 51 66 58 73 6 7 12 20 12 28 0 8 4
14 9 14 5 0 25 33 46 73 20 39 40 79 45 87 26 50 82 200 74 200 -4 0 -2 6 3
13 12 14 28 79 49 192 16 92 22 344 9 410 -3 17 -8 48 -11 70 -5 37 -24 117
-43 190 -22 79 -82 217 -141 320 -32 56 -82 129 -92 133 -4 2 -8 10 -8 18 0 7
-57 71 -127 142 -186 187 -365 301 -598 380 -89 30 -132 42 -170 48 -11 2 -31
7 -45 10 -14 4 -36 8 -50 9 -104 10 -155 17 -161 20 -3 3 -8 3 -10 1z m66
-770 c56 -11 70 -14 98 -25 15 -6 27 -9 27 -7 0 9 148 -69 195 -102 131 -93
247 -257 285 -402 21 -78 22 -83 27 -175 10 -174 -47 -358 -152 -493 -27 -34
-124 -127 -160 -152 -197 -136 -441 -179 -660 -114 -64 18 -205 85 -205 96 0
4 -6 8 -14 8 -16 0 -153 130 -188 180 -98 137 -147 294 -142 460 6 224 92 398
279 567 44 39 172 110 235 129 14 4 30 9 35 11 75 25 256 34 340 19z"/>
</g>
</svg>
