<?xml version="1.0" standalone="no"?>
<!DOCTYPE svg PUBLIC "-//W3C//DTD SVG 20010904//EN"
 "http://www.w3.org/TR/2001/REC-SVG-20010904/DTD/svg10.dtd">
<svg version="1.0" xmlns="http://www.w3.org/2000/svg"
 width="76.000000pt" height="76.000000pt" viewBox="0 0 76.000000 76.000000"
 preserveAspectRatio="xMidYMid meet">
<metadata>
Created by potrace 1.14, written by Peter Selinger 2001-2017
</metadata>
<g transform="translate(0.000000,76.000000) scale(0.100000,-0.100000)"
fill="#000000" stroke="none">
<path d="M255 595 c-66 -35 -128 -64 -137 -65 -15 0 -18 -9 -18 -45 0 -25 5
-45 10 -45 6 0 10 -9 10 -20 0 -11 5 -20 10 -20 6 0 10 -38 10 -95 0 -52 -3
-95 -8 -95 -12 0 -34 -58 -30 -82 l3 -23 278 -3 277 -2 0 28 c0 30 -20 82 -32
82 -5 0 -8 43 -8 95 0 57 4 95 10 95 6 0 10 9 10 20 0 11 5 20 10 20 6 0 10
17 10 38 l0 38 -140 72 c-77 40 -141 72 -142 72 -2 -1 -57 -30 -123 -65z m228
-10 c56 -30 96 -55 88 -55 -7 0 -53 21 -101 47 l-87 46 -91 -46 c-50 -26 -96
-47 -104 -47 -9 1 139 86 190 109 2 0 49 -24 105 -54z m-33 -20 l65 -35 -53 0
c-29 0 -51 4 -48 9 12 19 -7 41 -34 41 -27 0 -46 -22 -34 -41 3 -5 -19 -9 -48
-9 l-53 0 65 35 c36 19 67 34 70 34 3 0 34 -15 70 -34z m-59 -20 c-1 -15 -24
-12 -29 3 -3 9 2 13 12 10 10 -1 17 -7 17 -13z m247 -62 l-3 -28 -255 0 -255
0 -3 28 -3 27 261 0 261 0 -3 -27z m-428 -53 c0 -5 -8 -10 -17 -12 -23 -5 -54
2 -49 11 6 9 66 10 66 1z m311 1 c14 -2 22 -50 24 -133 1 -49 -2 -88 -7 -88
-4 0 -8 -7 -8 -15 0 -9 -9 -15 -25 -15 -20 0 -25 5 -25 25 0 19 -5 25 -16 23
-9 -2 -18 5 -20 15 -6 26 -10 40 -18 59 -4 9 -3 25 3 36 15 29 -12 62 -52 62
-37 0 -61 -35 -44 -65 6 -11 5 -24 -2 -39 -6 -11 -13 -32 -15 -46 -2 -17 -9
-24 -20 -22 -11 2 -16 -4 -16 -21 0 -25 -19 -40 -36 -29 -42 31 -44 223 -3
252 7 5 258 5 280 1z m89 -6 c0 -6 -7 -9 -15 -9 -8 1 -22 2 -30 3 -29 2 -15
18 15 17 17 -1 30 -6 30 -11z m-419 -58 c-10 -9 -11 -8 -5 6 3 10 9 15 12 12
3 -3 0 -11 -7 -18z m204 -24 c0 -27 -5 -39 -17 -41 -13 -2 -16 5 -15 37 2 29
6 41 17 41 11 0 15 -11 15 -37z m181 11 c-3 -7 -1 -16 4 -19 4 -3 11 1 13 7 3
7 5 0 5 -17 0 -16 -2 -25 -4 -18 -3 7 -11 10 -17 7 -8 -3 -12 8 -12 30 0 19 4
32 8 29 5 -3 6 -11 3 -19z m-381 -35 c1 -11 -3 -23 -8 -26 -6 -3 -7 -1 -3 5 3
6 2 13 -3 16 -5 4 -12 -2 -14 -11 -3 -11 -5 -7 -6 10 -1 17 3 26 9 22 6 -3 10
-1 10 6 0 20 14 1 15 -22z m220 -49 c4 -6 -10 -10 -35 -10 -25 0 -39 4 -35 10
3 6 19 10 35 10 16 0 32 -4 35 -10z m165 -10 c0 -5 -5 -10 -11 -10 -5 0 -7 5
-4 10 3 6 8 10 11 10 2 0 4 -4 4 -10z m17 -32 c-3 -8 -6 -5 -6 6 -1 11 2 17 5
13 3 -3 4 -12 1 -19z m-173 -3 c-5 -11 -11 -12 -25 -4 -13 6 -25 6 -38 0 -14
-8 -20 -7 -25 4 -4 12 4 15 44 15 40 0 48 -3 44 -15z m-214 -34 c3 -1 -1 -5
-8 -10 -15 -9 -64 -2 -57 9 3 6 41 6 65 1z m105 -1 c3 -5 1 -10 -4 -10 -6 0
-11 5 -11 10 0 6 2 10 4 10 3 0 8 -4 11 -10z m55 -2 c0 -4 -9 -8 -21 -8 -11 0
-18 4 -15 8 3 5 12 9 21 9 8 0 15 -4 15 -9z m50 2 c12 -8 11 -10 -7 -10 -13 0
-23 5 -23 10 0 13 11 13 30 0z m195 0 c6 -1 1 -5 -10 -9 -22 -9 -57 -3 -50 8
4 7 22 7 60 1z m23 -52 c3 -17 -14 -18 -257 -18 -247 0 -261 1 -261 18 0 18
14 19 257 18 237 -1 258 -2 261 -18z"/>
<path d="M140 481 c0 -5 103 -10 240 -10 157 -1 240 2 240 9 0 6 -84 10 -240
10 -138 0 -240 -4 -240 -9z"/>
<path d="M480 410 c0 -5 5 -10 10 -10 6 0 10 5 10 10 0 6 -4 10 -10 10 -5 0
-10 -4 -10 -10z"/>
<path d="M450 380 c0 -5 5 -10 10 -10 6 0 10 5 10 10 0 6 -4 10 -10 10 -5 0
-10 -4 -10 -10z"/>
<path d="M510 380 c0 -5 5 -10 10 -10 6 0 10 5 10 10 0 6 -4 10 -10 10 -5 0
-10 -4 -10 -10z"/>
<path d="M270 351 c0 -5 6 -12 13 -15 6 -3 1 -3 -13 0 -24 6 -24 5 -8 -12 21
-21 43 -8 32 19 -7 18 -24 23 -24 8z"/>
<path d="M480 350 c0 -5 5 -10 10 -10 6 0 10 5 10 10 0 6 -4 10 -10 10 -5 0
-10 -4 -10 -10z"/>
</g>
</svg>
