<?xml version="1.0" standalone="no"?>
<!DOCTYPE svg PUBLIC "-//W3C//DTD SVG 20010904//EN"
 "http://www.w3.org/TR/2001/REC-SVG-20010904/DTD/svg10.dtd">
<svg version="1.0" xmlns="http://www.w3.org/2000/svg"
 width="378.000000pt" height="378.000000pt" viewBox="0 0 378.000000 378.000000"
 preserveAspectRatio="xMidYMid meet">
<metadata>
Created by potrace 1.14, written by Peter Selinger 2001-2017
</metadata>
<g transform="translate(0.000000,378.000000) scale(0.100000,-0.100000)"
fill="#000000" stroke="none">
<path d="M1860 3471 c-5 -11 -10 -28 -10 -39 0 -29 -29 -105 -43 -114 -16 -10
-79 -10 -95 0 -7 5 -25 33 -40 62 -30 59 -51 76 -76 67 -13 -5 -16 -22 -16
-92 l0 -86 -35 -15 c-53 -22 -64 -18 -126 41 -62 59 -70 63 -88 41 -9 -11 -7
-30 9 -85 12 -38 19 -78 16 -88 -3 -10 -21 -28 -40 -41 -39 -26 -60 -22 -132
29 -43 32 -69 33 -80 5 -3 -8 10 -41 30 -73 44 -71 45 -100 8 -136 -34 -32
-46 -33 -119 -7 -40 14 -61 17 -74 9 -29 -15 -23 -31 36 -89 59 -58 63 -71 41
-125 l-15 -35 -79 0 c-125 0 -145 -34 -49 -85 87 -47 99 -65 81 -132 -7 -25
-16 -30 -104 -52 -53 -13 -66 -20 -68 -38 -4 -26 14 -37 90 -53 65 -13 88 -36
88 -87 0 -38 -16 -56 -79 -88 -61 -31 -78 -50 -61 -70 9 -11 34 -15 94 -15
l82 0 17 -35 c9 -20 17 -44 17 -53 0 -10 -25 -42 -55 -72 -58 -57 -64 -70 -41
-89 11 -9 31 -7 90 11 l76 22 30 -29 c40 -38 39 -72 -6 -140 -59 -88 -28 -118
63 -61 72 44 100 45 138 6 l29 -30 -22 -76 c-18 -59 -20 -79 -11 -90 19 -23
32 -17 89 41 34 35 63 55 77 55 13 0 23 -4 23 -9 0 -10 -69 -91 -152 -176 -62
-65 -78 -101 -78 -177 0 -69 13 -94 93 -177 97 -102 219 -249 273 -330 24 -36
66 -117 94 -180 57 -130 66 -142 128 -172 55 -27 224 -39 271 -19 40 16 56 58
43 111 -14 55 1 98 37 105 14 3 44 21 66 40 l40 35 -29 22 c-166 124 -224 186
-248 261 -7 21 -34 62 -60 91 -70 77 -61 121 33 165 86 41 107 123 48 187 -13
14 -51 38 -83 54 -56 27 -58 28 -31 35 40 10 178 -3 219 -20 34 -14 36 -17 36
-64 0 -41 -5 -53 -31 -78 -32 -30 -69 -93 -69 -117 0 -21 214 -189 287 -226
64 -33 196 -71 244 -71 32 0 39 17 61 146 9 60 9 84 -1 124 -8 30 -10 69 -7
94 5 34 2 54 -15 89 l-22 46 27 36 c16 20 50 53 77 72 l49 35 -40 44 c-22 24
-40 47 -40 51 1 5 17 20 38 34 23 16 50 50 71 91 l35 65 -26 33 c-21 27 -24
37 -15 51 10 15 6 24 -20 51 -23 25 -33 49 -43 100 -7 37 -9 71 -5 77 3 6 40
11 85 11 67 0 81 3 89 19 12 22 -3 38 -65 70 -58 28 -74 47 -74 84 0 51 23 74
88 88 78 17 94 26 90 52 -2 18 -15 25 -68 38 -104 26 -110 32 -110 101 0 28
43 69 86 82 11 3 30 15 42 27 18 16 20 24 12 39 -9 18 -20 20 -91 17 -90 -2
-103 6 -115 71 -6 31 -2 38 50 91 31 31 56 62 56 68 0 27 -35 31 -95 12 -79
-25 -90 -24 -120 8 -33 36 -32 74 4 126 37 55 45 81 27 96 -16 13 -36 7 -91
-30 -66 -44 -79 -45 -122 -5 l-38 34 23 77 c18 59 20 80 11 91 -19 23 -32 17
-89 -41 -58 -59 -71 -63 -125 -41 l-35 15 0 75 c0 86 -6 106 -30 106 -21 0
-43 -24 -59 -66 -20 -52 -47 -74 -89 -74 -57 0 -74 19 -87 100 -4 25 -11 53
-17 63 -12 23 -45 22 -58 -2z m51 -231 c12 -7 19 -21 19 -40 0 -23 -5 -31 -25
-36 -14 -3 -32 -4 -40 0 -21 8 -19 62 3 75 21 13 20 13 43 1z m-136 -55 c29
-28 32 -70 9 -97 -9 -9 -53 -29 -98 -42 -97 -30 -183 -80 -270 -158 -73 -65
-103 -72 -141 -33 -44 43 -34 70 53 155 91 88 162 132 275 171 104 36 140 37
172 4z m431 -15 c105 -42 188 -97 263 -175 69 -71 76 -101 36 -140 -39 -40
-71 -33 -142 33 -81 75 -154 118 -261 154 -48 16 -95 36 -104 45 -24 22 -23
65 4 98 20 25 25 27 73 22 29 -3 88 -19 131 -37z m-148 -283 c96 -33 154 -72
150 -100 -4 -32 -110 -57 -274 -64 -130 -6 -298 13 -346 39 -44 23 -8 67 88
109 124 53 259 59 382 16z m-840 -59 c27 -27 7 -78 -29 -78 -21 0 -49 26 -49
45 0 35 53 58 78 33z m1406 -4 c9 -8 16 -22 16 -29 0 -7 -7 -21 -16 -29 -30
-30 -74 -13 -74 29 0 42 44 59 74 29z m-1409 -154 c23 -25 23 -55 1 -160 -21
-95 -18 -205 9 -300 11 -42 12 -61 4 -82 -20 -49 -92 -58 -127 -15 -27 32 -53
170 -53 277 1 117 27 248 56 280 24 27 86 27 110 0z m1458 2 c28 -30 57 -177
57 -285 0 -102 -22 -226 -47 -265 -33 -52 -110 -48 -133 8 -9 22 -8 40 5 86
25 94 29 208 11 294 -20 96 -20 139 1 162 21 24 84 24 106 0z m-699 -145 c50
-28 76 -77 76 -142 0 -48 -3 -53 -54 -104 -51 -50 -57 -53 -103 -53 -63 0
-106 22 -139 72 -23 34 -26 48 -22 98 5 68 30 111 80 135 47 24 115 21 162 -6z
m-553 -68 c28 -14 131 -147 179 -228 41 -71 103 -215 114 -268 5 -22 2 -35 -9
-47 -41 -41 -222 109 -286 236 -49 97 -74 251 -49 299 12 22 23 24 51 8z m989
-8 c24 -45 -1 -194 -50 -299 -56 -119 -239 -272 -285 -238 -16 12 -17 18 -6
60 33 133 145 333 248 444 52 55 76 64 93 33z m-1196 -437 c19 -18 21 -45 4
-62 -39 -39 -100 17 -63 58 22 24 38 25 59 4z m1366 -49 c60 -21 114 -65 188
-152 l62 -75 -21 -31 c-35 -50 -82 -98 -107 -108 -23 -9 -23 -9 19 -71 l42
-61 -39 -31 c-93 -74 -132 -117 -144 -160 -12 -44 -6 -106 10 -106 16 0 40 44
40 75 l1 30 18 -22 c13 -16 19 -46 24 -118 6 -100 2 -129 -15 -119 -5 3 -18
-2 -29 -12 -19 -17 -20 -17 -35 4 -17 24 -43 29 -62 10 -9 -9 -15 -8 -25 7
-10 12 -21 16 -38 12 -19 -5 -27 -1 -34 16 -7 16 -18 21 -38 20 -18 -1 -27 3
-27 14 0 22 -33 60 -48 55 -6 -2 -12 1 -12 8 0 6 -11 22 -25 36 -20 20 -23 29
-15 50 6 14 10 46 10 72 0 42 1 45 16 31 8 -9 18 -35 21 -58 3 -22 10 -41 14
-41 17 0 9 85 -11 118 -25 41 -108 81 -185 89 -54 6 -55 6 -38 25 25 28 92 65
130 73 47 10 98 -11 133 -53 26 -32 30 -34 30 -15 0 12 -5 44 -11 71 -18 84
-86 137 -222 171 l-70 18 39 13 c45 16 123 18 177 7 30 -6 37 -5 37 7 0 8 -9
18 -20 21 -56 18 -17 133 59 172 53 27 137 31 201 8z m-1158 -81 c77 -69 218
-146 292 -160 76 -14 107 -74 65 -128 -26 -33 -61 -34 -155 -5 -98 30 -191 81
-273 150 -103 87 -124 137 -76 184 39 40 66 32 147 -41z m496 -276 c34 -34 -6
-90 -48 -68 -35 19 -20 80 20 80 9 0 21 -5 28 -12z m-367 -150 c-11 -18 -54
-67 -96 -108 -88 -87 -102 -121 -85 -203 9 -44 23 -66 90 -142 44 -49 110
-128 147 -175 36 -47 73 -92 81 -100 30 -32 -22 58 -115 197 -76 113 -96 150
-100 187 -7 55 14 92 55 102 38 10 143 59 170 81 l23 19 -23 41 c-18 34 -20
45 -11 64 l12 24 0 -28 c1 -35 25 -83 46 -91 31 -12 34 -6 10 19 -30 29 -34
61 -7 50 9 -4 52 -15 96 -26 77 -20 156 -47 156 -55 0 -2 -32 -45 -70 -96
-138 -182 -189 -335 -131 -391 22 -20 23 -20 16 -2 -15 36 -17 92 -6 114 14
26 31 27 31 3 0 -23 19 -42 42 -42 13 0 18 -8 18 -30 0 -19 7 -33 20 -40 11
-6 20 -19 20 -29 0 -10 7 -24 15 -31 8 -7 15 -23 15 -36 0 -16 10 -28 30 -39
23 -12 30 -22 30 -45 0 -19 5 -30 14 -30 7 0 21 -11 30 -25 9 -14 23 -25 30
-25 8 0 16 -9 19 -20 3 -12 14 -20 26 -20 25 0 25 1 7 -41 -9 -22 -12 -52 -9
-86 5 -50 4 -53 -21 -63 -64 -24 -208 -4 -255 36 -17 14 -45 61 -69 119 -60
139 -158 275 -342 474 -92 99 -118 139 -127 194 -12 74 3 104 89 186 44 42 94
96 111 120 34 50 50 40 18 -11z m679 -256 c0 -9 -13 -36 -28 -59 -25 -38 -30
-41 -46 -30 -23 17 -15 45 24 87 30 32 50 33 50 2z m58 -49 c3 -22 -33 -103
-46 -103 -11 0 -52 30 -52 39 0 4 14 26 31 50 34 45 62 51 67 14z m62 -109
c-7 -25 -17 -47 -22 -50 -5 -4 -22 6 -38 21 -32 30 -30 46 7 87 l25 26 20 -20
c18 -18 19 -24 8 -64z m70 -23 c0 -22 -4 -51 -10 -66 -9 -25 -11 -25 -40 -10
-16 9 -30 18 -30 20 0 2 10 25 22 50 29 59 58 62 58 6z m75 -59 c0 -33 -3 -63
-6 -67 -4 -3 -18 -1 -33 4 -33 13 -35 51 -6 99 30 49 45 36 45 -36z m-542 18
l18 -30 -35 -16 c-45 -22 -71 -13 -55 18 14 27 40 58 48 58 4 0 15 -13 24 -30z
m627 11 c11 -22 13 -64 4 -98 -7 -25 -33 -30 -64 -13 -16 8 -17 15 -9 42 24
87 47 109 69 69z m77 -57 c-5 -74 -15 -89 -47 -79 -19 6 -21 12 -15 43 11 59
32 102 51 102 15 0 16 -9 11 -66z m-649 -16 c29 -29 -5 -68 -58 -68 -30 0 -25
35 8 59 32 24 34 25 50 9z m43 -80 c10 -18 8 -24 -7 -35 -24 -18 -78 -13 -82
8 -2 9 11 22 30 31 43 22 45 22 59 -4z m49 -73 l23 -25 -37 -15 c-52 -22 -90
-16 -94 13 -3 17 4 26 30 37 45 19 51 19 78 -10z m50 -64 c5 -11 10 -22 10
-25 0 -9 -77 -46 -95 -46 -33 0 -12 56 30 78 29 16 43 14 55 -7z m65 -61 c7
-11 -69 -49 -97 -50 -30 0 -20 28 19 54 36 25 61 23 78 -4z m40 -40 c0 -18
-60 -50 -92 -50 -34 0 -27 22 15 47 41 25 77 26 77 3z"/>
<path d="M2382 1920 c-18 -11 -39 -35 -47 -53 -17 -40 -13 -45 14 -18 26 26
56 29 46 4 -4 -10 -12 -49 -18 -86 -11 -66 -13 -68 -37 -64 -21 4 -15 -4 31
-46 83 -76 103 -110 90 -148 l-11 -31 28 18 c40 28 133 74 147 74 8 0 10 9 8
24 -4 21 0 25 35 31 23 3 45 12 50 18 17 22 22 63 11 100 -14 53 -24 52 -21
-3 3 -41 1 -50 -18 -60 -36 -19 -65 9 -90 87 -27 82 -64 149 -90 163 -30 16
-92 11 -128 -10z"/>
<path d="M1832 488 c61 -118 72 -127 181 -134 59 -4 68 -3 52 7 -41 24 -65 54
-75 89 -5 20 -21 47 -34 60 l-25 23 5 -39 c4 -34 3 -37 -8 -20 -44 64 -107
116 -143 116 -3 0 18 -46 47 -102z"/>
</g>
</svg>
