<?xml version="1.0" standalone="no"?>
<!DOCTYPE svg PUBLIC "-//W3C//DTD SVG 20010904//EN"
 "http://www.w3.org/TR/2001/REC-SVG-20010904/DTD/svg10.dtd">
<svg version="1.0" xmlns="http://www.w3.org/2000/svg"
 width="119.000000pt" height="155.000000pt" viewBox="0 0 119.000000 155.000000"
 preserveAspectRatio="xMidYMid meet">

<g transform="translate(0.000000,155.000000) scale(0.100000,-0.100000)"
fill="#000000" stroke="#ffffff">
<path d="M0 780 l0 -770 595 0 595 0 0 770 0 770 -595 0 -595 0 0 -770z m1100
585 c10 -12 10 -18 0 -30 -27 -32 -71 -8 -56 30 3 8 14 15 24 15 11 0 25 -7
32 -15z m-983 -21 c8 -22 -10 -49 -32 -49 -10 0 -22 7 -28 16 -15 24 -1 49 28
49 15 0 28 -7 32 -16z m130 -110 c9 -24 -10 -49 -38 -49 -24 0 -36 23 -25 51
7 19 55 18 63 -2z m854 -50 c9 -11 10 -20 2 -32 -15 -24 -44 -27 -59 -7 -28
38 27 75 57 39z m-982 -38 c5 -27 -26 -48 -50 -35 -19 10 -25 39 -12 53 14 14
58 1 62 -18z m234 -37 c16 -26 1 -49 -33 -49 -31 0 -38 17 -24 55 8 20 43 16
57 -6z m102 -144 c0 -25 -4 -30 -24 -30 -32 0 -49 28 -31 50 7 9 23 15 34 13
16 -2 21 -10 21 -33z m652 19 c8 -22 -10 -49 -32 -49 -22 0 -40 27 -32 49 8
21 56 21 64 0z m-992 -10 c19 -19 16 -43 -6 -57 -37 -23 -69 29 -37 61 16 16
23 15 43 -4z m446 -130 c17 -21 0 -49 -32 -49 -27 0 -37 28 -19 50 16 19 34
19 51 -1z m533 -40 c35 -13 7 -69 -31 -62 -22 4 -29 34 -13 53 14 17 21 18 44
9z m-976 -17 c6 -7 9 -23 5 -35 -4 -16 -13 -22 -34 -22 -16 0 -29 2 -29 4 0 2
-3 11 -6 19 -6 16 20 47 40 47 8 0 18 -6 24 -13z m546 -83 c20 -19 20 -28 1
-44 -12 -10 -21 -10 -40 -2 -14 7 -25 16 -25 21 0 12 28 41 40 41 5 0 16 -7
24 -16z m436 -105 c21 -39 -37 -71 -59 -32 -7 13 -5 23 6 35 21 24 40 23 53
-3z m-973 -15 c9 -24 -10 -49 -38 -49 -24 0 -36 23 -25 51 7 19 55 18 63 -2z
m643 -30 c0 -33 -27 -42 -51 -18 -17 18 -18 21 -3 42 12 18 19 20 35 12 11 -6
19 -21 19 -36z m103 -106 c7 -20 -12 -48 -32 -48 -28 0 -46 26 -31 45 15 18
57 20 63 3z m223 -42 c15 -12 17 -18 8 -33 -14 -23 -53 -23 -67 -1 -8 12 -7
21 2 32 17 20 32 20 57 2z m-973 -18 c17 -26 1 -50 -30 -46 -33 4 -41 29 -17
52 18 19 33 17 47 -6z m852 -68 c13 -20 -6 -50 -31 -50 -26 0 -40 20 -30 45 6
17 51 20 61 5z m116 -116 c17 -21 0 -49 -32 -49 -18 0 -25 6 -27 24 -6 38 34
55 59 25z m-964 -20 c8 -22 -10 -49 -32 -49 -22 0 -40 27 -32 49 8 21 56 21
64 0z"/>
</g>
</svg>
