<?xml version="1.0" encoding="UTF-8"?>
<svg xmlns="http://www.w3.org/2000/svg" viewBox="0 0 64 64">
  <defs>
    <style>
      .cls-1 {
        fill: #fff;
      }

      .cls-2 {
        fill: #2d0f0f;
      }
    </style>
  </defs>
  <g id="Warstwa_2" data-name="Warstwa 2">
    <rect class="cls-2" x="-9.57" y="-6.03" width="85.22" height="79.82"/>
  </g>
  <g id="Warstwa_1" data-name="Warstwa 1">
    <g>
      <path class="cls-1" d="M13.96,11.1V28.09c.02,.5,.2,.93,.55,1.27,.37,.35,.8,.52,1.31,.52h.35l.03,.29H7.37v-.29h.38c.48,0,.9-.17,1.25-.52,.37-.35,.57-.76,.61-1.24V11.1h-3.92c-.89,.02-1.6,.3-2.12,.84-.52,.54-.78,1.24-.78,2.11v.35h-.29v-5.04c.79,.33,1.93,.5,3.42,.52h11.69c.6,0,1.25-.06,1.94-.17,.72-.12,1.21-.23,1.48-.35v5.04h-.29v-.35c0-1.2-.45-2.05-1.36-2.55-.43-.25-.94-.39-1.54-.41h-3.89Z"/>
      <path class="cls-1" d="M35.68,29.89c.5,0,.89-.13,1.16-.38,.44-.44,.68-.92,.7-1.42v-7.38h-9.4v7.35c0,.5,.18,.94,.55,1.3,.37,.35,.8,.52,1.31,.52h.35l.03,.29h-8.82v-.29h.38c.5,0,.93-.17,1.28-.52,.37-.37,.56-.8,.58-1.3V12.02c-.02-.5-.21-.93-.58-1.27-.35-.37-.77-.55-1.28-.55h-.38v-.29h8.82l-.03,.29h-.35c-.5,0-.94,.18-1.31,.55-.37,.35-.55,.77-.55,1.27v7.44h9.4v-7.44c-.02-.5-.21-.93-.58-1.27-.35-.37-.77-.55-1.28-.55h-.38v-.29h8.82v.29h-.38c-.5,0-.94,.18-1.31,.55-.37,.35-.55,.77-.55,1.27V28.06c0,.5,.18,.94,.55,1.3,.37,.35,.8,.52,1.31,.52h.38v.29h-8.82v-.29h.38Z"/>
      <path class="cls-1" d="M45.83,29.89c.5,0,.93-.17,1.28-.52,.37-.37,.56-.8,.58-1.3V11.94c-.04-.5-.18-.87-.44-1.1-.46-.42-.94-.64-1.42-.64h-.38v-.29h11.11c.95,0,1.73-.07,2.35-.2,.62-.15,1-.26,1.13-.32v5.07l-.29-.03v-.32c0-1.2-.44-2.05-1.33-2.55-.43-.25-.93-.39-1.51-.41h-4.88v8.43h3.83c.72-.02,1.31-.26,1.77-.72,.46-.48,.7-1.07,.7-1.77v-.26h.29v6.69h-.29v-.23c0-.71-.23-1.3-.7-1.77-.44-.46-1.02-.7-1.71-.72h-3.89v8.14h3.8c1.41,0,2.59-.41,3.54-1.22,.97-.81,1.68-1.96,2.15-3.45h.29l-1.33,5.91h-15.03v-.29h.38Z"/>
      <path class="cls-1" d="M28.24,53.77h.46v.29h-8.71v-.26h.44c.33-.02,.61-.15,.84-.41,.23-.25,.33-.53,.29-.84l-1.13-10.51-5.46,9.38c-.72,1.2-1.08,2.27-1.1,3.21h-.29l-7.46-12.51-1.13,10.42c-.04,.31,.06,.6,.29,.87,.23,.25,.51,.38,.84,.38h.44v.26H.5v-.29h.46c.54,0,1.01-.16,1.39-.49,.41-.33,.65-.77,.73-1.33l2.41-18.56h.26l9,14.77,8.65-14.77h.26l2.47,18.56c.1,.56,.34,1,.73,1.33,.41,.33,.87,.49,1.39,.49Z"/>
      <path class="cls-1" d="M28.93,53.77c.5,0,.93-.17,1.28-.52,.37-.37,.56-.8,.58-1.3v-16.13c-.04-.5-.18-.87-.44-1.1-.46-.42-.94-.64-1.42-.64h-.38v-.29h11.11c.95,0,1.73-.07,2.35-.2,.62-.15,1-.26,1.13-.32v5.07l-.29-.03v-.32c0-1.2-.44-2.05-1.33-2.55-.43-.25-.93-.39-1.51-.41h-4.88v8.43h3.83c.72-.02,1.31-.26,1.77-.72,.46-.48,.7-1.07,.7-1.77v-.26h.29v6.69h-.29v-.23c0-.71-.23-1.3-.7-1.77-.44-.46-1.02-.7-1.71-.72h-3.89v8.14h3.8c1.41,0,2.59-.41,3.54-1.22,.97-.81,1.68-1.96,2.15-3.45h.29l-1.33,5.91h-15.03v-.29h.38Z"/>
      <path class="cls-1" d="M56.42,34.98v16.99c.02,.5,.2,.93,.55,1.27,.37,.35,.8,.52,1.31,.52h.35l.03,.29h-8.82v-.29h.38c.48,0,.9-.17,1.25-.52,.37-.35,.57-.76,.61-1.24v-17.02h-3.92c-.89,.02-1.6,.3-2.12,.84-.52,.54-.78,1.24-.78,2.11v.35h-.29v-5.04c.79,.33,1.93,.5,3.42,.52h11.69c.6,0,1.25-.06,1.94-.17,.72-.12,1.21-.23,1.48-.35v5.04h-.29v-.35c0-1.2-.45-2.05-1.36-2.55-.43-.25-.94-.39-1.54-.41h-3.89Z"/>
    </g>
  </g>
</svg>