<svg aria-hidden="true" style="position: absolute; width: 0; height: 0; overflow: hidden;" version="1.1" xmlns="http://www.w3.org/2000/svg" xmlns:xlink="http://www.w3.org/1999/xlink">
  <defs>
    <symbol id="icon-burger-menu" viewBox="0 0 32 32">
      <path d="M4 22.667c0 0.736 0.597 1.333 1.333 1.333h21.333c0.736 0 1.333-0.597 1.333-1.333s-0.597-1.333-1.333-1.333h-21.333c-0.736 0-1.333 0.597-1.333 1.333zM4 16c0 0.736 0.597 1.333 1.333 1.333h21.333c0.736 0 1.333-0.597 1.333-1.333s-0.597-1.333-1.333-1.333h-21.333c-0.736 0-1.333 0.597-1.333 1.333zM5.333 8c-0.736 0-1.333 0.597-1.333 1.333s0.597 1.333 1.333 1.333h21.333c0.736 0 1.333-0.597 1.333-1.333s-0.597-1.333-1.333-1.333h-21.333z"></path>
    </symbol>
    <symbol id="icon-burger-menu-hovered" viewBox="0 0 48 32">
      <path d="M48 2.667c0-1.473-1.194-2.667-2.667-2.667h-18.667c-1.473 0-2.667 1.194-2.667 2.667s1.194 2.667 2.667 2.667h18.667c1.473 0 2.667-1.194 2.667-2.667zM48 16c0-1.473-1.194-2.667-2.667-2.667h-42.667c-1.473 0-2.667 1.194-2.667 2.667s1.194 2.667 2.667 2.667h42.667c1.473 0 2.667-1.194 2.667-2.667zM45.333 32c1.473 0 2.667-1.194 2.667-2.667s-1.194-2.667-2.667-2.667h-29.333c-1.473 0-2.667 1.194-2.667 2.667s1.194 2.667 2.667 2.667h29.333z"></path>
    </symbol>
    <symbol id="icon-close" viewBox="0 0 32 32">
      <path d="M29.953 5.173c0.863-0.863 0.863-2.262 0-3.125s-2.262-0.863-3.125 0l-10.827 10.827-10.827-10.827c-0.863-0.863-2.262-0.863-3.125 0s-0.863 2.262 0 3.125l10.827 10.827-10.827 10.828c-0.863 0.863-0.863 2.262 0 3.125s2.262 0.863 3.125 0l10.827-10.827 10.827 10.827c0.863 0.863 2.262 0.863 3.125 0s0.863-2.262 0-3.125l-10.827-10.827 10.827-10.827z"></path>
    </symbol>
    <symbol id="icon-phone" viewBox="0 0 32 32">
      <path d="M30.24 22.009c-2.187 0-4.302-0.356-6.276-0.996-0.622-0.213-1.315-0.053-1.795 0.427l-2.791 3.502c-5.031-2.4-9.742-6.933-12.249-12.142l3.467-2.951c0.48-0.498 0.622-1.191 0.427-1.813-0.658-1.973-0.996-4.089-0.996-6.276 0-0.96-0.8-1.76-1.76-1.76h-6.151c-0.96 0-2.116 0.427-2.116 1.76 0 16.516 13.742 30.24 30.24 30.24 1.262 0 1.76-1.12 1.76-2.098v-6.133c0-0.96-0.8-1.76-1.76-1.76z"></path>
    </symbol>
  </defs>
</svg>
