<svg width="24" height="20" viewBox="0 0 24 20" fill="none" xmlns="http://www.w3.org/2000/svg">
<path d="M0 12.6666C0 13.403 0.596954 14 1.33333 14H22.6667C23.403 14 24 13.403 24 12.6666C24 11.9302 23.403 11.3333 22.6667 11.3333H1.33333C0.596954 11.3333 0 11.9302 0 12.6666ZM0 7.33329C0 8.06967 0.596954 8.66663 1.33333 8.66663H22.6667C23.403 8.66663 24 8.06967 24 7.33329C24 6.59691 23.403 5.99996 22.6667 5.99996H1.33333C0.596954 5.99996 0 6.59691 0 7.33329ZM1.33333 0.666626C0.596954 0.666626 0 1.26358 0 1.99996C0 2.73634 0.596954 3.33329 1.33333 3.33329H22.6667C23.403 3.33329 24 2.73634 24 1.99996C24 1.26358 23.403 0.666626 22.6667 0.666626H1.33333Z" fill="#292929"/>
<path d="M22.6667 19.3333H1.33333C0.596954 19.3333 0 18.7363 0 18C0 17.2636 0.596954 16.6666 1.33333 16.6666H22.6667C23.403 16.6666 24 17.2636 24 18C24 18.7363 23.403 19.3333 22.6667 19.3333Z" fill="#292929"/>
</svg>
