<?xml version="1.0" standalone="no"?>
<!DOCTYPE svg PUBLIC "-//W3C//DTD SVG 20010904//EN"
 "http://www.w3.org/TR/2001/REC-SVG-20010904/DTD/svg10.dtd">
<svg version="1.0" xmlns="http://www.w3.org/2000/svg"
 width="704.000000pt" height="704.000000pt" viewBox="0 0 704.000000 704.000000"
 preserveAspectRatio="xMidYMid meet">
<metadata>
Created by potrace 1.14, written by Peter Selinger 2001-2017
</metadata>
<g transform="translate(0.000000,704.000000) scale(0.100000,-0.100000)"
fill="#000000" stroke="none">
<path d="M270 5744 c1 -167 5 -274 10 -274 6 0 13 0 17 0 4 0 8 25 9 55 4 135
83 245 207 285 43 14 96 18 297 19 l245 1 -1 -957 c0 -1048 3 -992 -58 -1055
-37 -38 -80 -59 -133 -63 -25 -2 -48 -7 -52 -10 -9 -9 30 -36 41 -29 6 4 51 5
101 4 51 -1 98 -2 105 -1 25 2 40 2 187 2 163 0 190 0 202 -2 4 -1 81 -1 171
0 137 1 162 3 162 16 0 13 -15 16 -75 15 -3 0 -26 11 -53 24 -51 26 -71 47
-98 98 -17 31 -18 98 -18 993 l-1 960 250 0 c282 0 304 -4 394 -75 68 -54 101
-132 105 -245 1 -27 11 -44 26 -45 8 0 6 547 -2 555 -4 4 -13 3 -20 -1 -7 -5
-18 -9 -25 -10 -6 -1 -35 -7 -63 -13 -29 -6 -80 -14 -114 -18 -85 -10 -1560
-9 -1621 1 -27 5 -63 10 -78 12 -16 2 -33 7 -39 10 -6 4 -26 10 -44 14 l-34 8
0 -274z"/>
<path d="M6570 6004 c-84 -27 -145 -36 -295 -41 -82 -3 -157 -5 -165 -4 -8 0
-37 0 -65 0 -27 0 -57 0 -65 0 -8 0 -100 0 -205 0 -228 0 -172 0 -405 0 -107
0 -204 0 -215 0 -120 2 -139 0 -146 -11 -10 -16 -11 -16 41 -19 80 -6 170 -65
191 -127 19 -55 19 -1860 0 -1915 -15 -43 -70 -103 -109 -119 -25 -10 -56 -15
-105 -17 -11 -1 -17 -7 -15 -17 3 -14 34 -15 273 -14 149 1 275 1 280 1 15 0
218 0 235 0 20 0 145 -1 190 -1 19 -1 36 -3 38 -5 2 -2 15 0 28 5 14 6 26 6
29 0 4 -7 13 -7 24 0 10 5 21 7 24 4 2 -3 36 -5 73 -4 38 0 85 0 104 -1 19 -1
42 -1 50 0 8 0 79 0 157 0 93 0 144 4 148 11 6 9 68 274 90 385 3 11 16 70 30
132 29 131 30 134 10 127 -12 -5 -32 -43 -27 -51 1 -2 -21 -48 -50 -104 -58
-113 -156 -226 -243 -277 -59 -36 -155 -69 -222 -78 -39 -5 -392 -9 -493 -5
l-25 1 1 443 c1 243 2 445 3 448 0 3 110 5 244 4 221 -1 246 -3 288 -22 82
-37 147 -127 156 -218 6 -57 11 -71 24 -58 7 7 11 137 12 371 2 325 0 361 -14
365 -13 4 -18 -7 -23 -54 -10 -100 -55 -168 -142 -216 l-49 -28 -247 -3 c-137
-1 -249 1 -249 5 -1 4 -2 214 -3 466 l-1 457 35 1 c185 3 533 0 565 -6 149
-28 247 -147 249 -302 1 -42 4 -53 18 -53 15 0 16 26 17 280 0 154 -1 280 -2
279 -1 -1 -22 -7 -47 -15z"/>
<path d="M2468 5962 c-78 -2 -98 -6 -98 -17 0 -13 37 -21 72 -16 4 0 23 -6 44
-15 52 -22 110 -87 123 -138 7 -29 10 -342 10 -952 l0 -909 -23 -45 c-33 -66
-92 -107 -166 -116 -33 -4 -60 -11 -60 -16 0 -11 42 -28 53 -21 4 2 92 4 195
3 103 -1 193 -2 200 -1 23 2 48 2 282 2 215 0 267 5 247 25 -4 4 -23 7 -43 6
-64 -3 -139 40 -178 101 -20 31 -21 44 -21 472 l0 440 513 1 c353 0 512 -3
513 -10 1 -6 2 -195 3 -421 2 -325 0 -417 -11 -444 -32 -82 -102 -138 -173
-139 -56 0 -60 -1 -60 -17 0 -15 14 -18 100 -15 67 1 114 0 118 -5 2 -2 15 0
28 5 14 6 26 6 29 0 4 -7 13 -7 24 0 10 5 21 7 24 4 2 -3 36 -5 73 -4 38 0 85
0 104 -1 19 -1 42 -1 50 0 8 0 40 0 70 0 30 -1 62 0 70 0 8 1 24 1 35 1 25 -1
27 -1 147 0 90 1 123 9 98 25 -5 3 -30 8 -54 10 -82 6 -152 59 -177 133 -10
29 -13 247 -13 962 l0 925 23 42 c21 37 111 116 111 97 0 -3 7 0 17 7 9 8 18
13 20 12 1 -2 19 -3 38 -3 27 0 35 4 35 18 0 18 3 18 -205 12 -27 -1 -138 -1
-245 -1 -214 0 -214 0 -284 1 -26 1 -50 -1 -53 -3 -2 -3 -20 -1 -39 3 -18 4
-34 5 -34 1 0 -3 -25 -4 -55 -3 -45 3 -55 1 -55 -12 0 -11 9 -16 28 -17 74 -2
114 -20 160 -69 57 -62 57 -59 57 -525 l0 -430 -515 0 -515 0 -3 410 c-2 226
0 429 3 451 7 47 59 115 106 140 16 8 50 17 75 19 51 5 67 12 59 25 -4 7 -180
15 -242 11 -18 -1 -40 -2 -98 -2 -66 0 -59 0 -150 0 -44 0 -89 1 -100 0 -11 0
-42 1 -69 1 -26 1 -50 -1 -53 -3 -2 -3 -18 -2 -36 2 -18 3 -76 5 -129 3z"/>
<path d="M4958 3377 c-6 -8 -2 -547 4 -547 4 0 11 -1 15 -2 4 -2 8 14 9 34 3
61 15 127 25 133 5 4 9 15 9 26 0 10 5 19 10 19 6 0 10 4 10 10 0 16 43 61 84
87 72 46 108 51 368 49 l243 -1 0 -960 c0 -923 -1 -961 -19 -995 -25 -46 -84
-97 -121 -107 -16 -4 -33 -8 -37 -9 -5 -1 -21 -2 -38 -3 -19 -1 -30 -6 -30
-16 0 -13 36 -15 263 -16 144 -1 267 0 272 1 6 1 17 2 25 2 8 -1 38 -1 65 -1
28 0 64 0 80 -1 17 -1 37 -2 45 -2 8 1 61 1 117 2 94 1 129 9 103 25 -5 3 -30
8 -54 10 -78 6 -129 41 -167 115 l-22 41 1 927 c0 510 1 942 1 959 l1 33 234
-1 c243 0 287 -6 362 -46 66 -35 123 -110 141 -187 2 -12 6 -45 9 -75 4 -58 7
-66 22 -57 10 6 15 532 6 548 -3 4 -16 3 -31 -3 -14 -5 -42 -12 -62 -15 -20
-3 -43 -7 -51 -9 -8 -3 -44 -8 -80 -12 -80 -9 -1513 -10 -1590 -1 -102 12
-140 19 -180 33 -22 8 -41 13 -42 12z"/>
<path d="M611 3361 c-8 -5 -15 -24 -16 -43 -2 -18 -5 -49 -9 -69 -3 -20 -8
-62 -12 -94 -3 -32 -8 -68 -10 -79 -3 -12 -6 -42 -9 -67 -2 -26 -7 -60 -9 -75
-3 -16 -8 -54 -11 -84 -3 -30 -7 -62 -10 -70 -2 -8 -7 -44 -10 -80 -3 -36 -8
-72 -10 -80 -2 -8 -7 -40 -10 -70 -2 -30 -7 -64 -9 -75 -2 -11 -7 -49 -11 -85
-4 -36 -9 -72 -10 -80 -2 -8 -6 -42 -10 -75 -4 -33 -9 -69 -10 -80 -2 -11 -6
-45 -9 -75 -4 -30 -9 -66 -11 -80 -3 -22 -12 -88 -30 -230 -3 -25 -7 -56 -9
-70 -2 -14 -7 -51 -11 -84 -4 -32 -8 -68 -10 -80 -4 -26 -13 -95 -20 -161 -4
-27 -8 -58 -11 -67 -3 -9 -7 -26 -9 -39 -7 -34 -46 -87 -85 -113 -51 -33 -85
-43 -157 -45 -22 -1 -33 -6 -33 -15 0 -12 22 -15 106 -18 58 -2 110 0 116 3 5
3 24 3 41 0 18 -4 48 -4 67 -1 19 3 48 3 64 0 16 -3 84 -4 152 -2 99 3 124 6
124 17 0 10 -11 14 -34 13 -81 -3 -140 57 -137 140 1 26 4 61 6 77 3 17 7 55
10 85 6 62 15 143 20 180 2 14 7 57 10 95 4 39 9 81 10 95 2 14 6 57 10 95 4
39 8 77 10 85 2 8 6 49 10 90 3 41 8 86 10 100 2 14 7 54 10 90 7 81 16 144
20 148 1 2 18 -23 35 -55 18 -32 39 -65 45 -73 7 -8 23 -35 37 -60 18 -35 140
-241 219 -370 107 -176 429 -725 429 -731 0 -5 5 -9 10 -9 6 0 10 -5 10 -11 0
-6 10 -24 21 -41 18 -25 24 -27 35 -16 7 7 15 33 17 58 5 43 30 122 58 185 8
17 52 95 98 175 47 80 91 160 100 178 8 17 19 32 23 32 4 0 8 4 8 9 0 4 30 60
66 122 78 133 252 435 268 464 6 11 13 22 16 25 6 6 23 36 52 91 23 45 28 45
33 -2 2 -19 6 -59 10 -89 3 -30 8 -73 10 -95 11 -122 16 -163 20 -190 2 -16 7
-61 10 -100 3 -38 8 -81 11 -95 2 -14 6 -54 9 -90 3 -36 7 -79 10 -97 3 -18 7
-58 10 -90 3 -32 10 -92 15 -134 15 -113 16 -161 2 -194 -17 -41 -72 -75 -122
-75 -28 0 -40 -4 -40 -14 0 -11 27 -15 143 -16 78 -1 148 -2 155 -1 16 1 35 2
97 2 28 0 55 0 60 0 176 1 558 0 580 -1 17 -1 36 -2 43 -1 23 2 37 2 97 2 33
0 67 0 75 0 8 0 51 0 95 0 44 0 89 -1 100 0 11 0 43 0 70 0 28 0 55 0 60 0 17
0 329 0 350 0 19 0 109 0 130 0 6 0 118 0 250 0 332 0 297 -7 312 64 7 33 15
69 18 80 3 11 8 34 11 50 9 44 12 60 14 60 1 0 3 9 5 20 1 11 15 72 29 135 15
63 29 126 32 140 5 28 9 44 19 78 5 18 2 22 -14 22 -12 0 -21 -6 -21 -16 0 -8
-16 -49 -35 -91 -104 -226 -253 -354 -460 -394 -27 -6 -160 -11 -295 -11
l-245 -1 0 449 0 449 240 0 c132 0 249 -4 260 -9 11 -5 22 -10 25 -10 3 -1 22
-11 42 -23 65 -38 118 -130 124 -215 3 -46 3 -48 18 -42 11 4 13 71 12 369 -1
200 -4 367 -8 371 -13 13 -21 -4 -23 -51 -4 -61 -47 -147 -96 -188 -68 -59
-114 -67 -371 -66 l-228 0 0 465 0 464 23 1 c12 0 142 1 288 1 330 -1 381 -12
462 -101 54 -60 75 -120 79 -224 1 -24 6 -37 15 -37 16 0 15 -19 17 293 1 281
4 271 -57 248 -13 -5 -40 -12 -60 -15 -20 -3 -54 -10 -74 -14 -29 -7 -247 -14
-368 -13 -8 0 -350 0 -395 0 -31 0 -156 1 -190 1 -19 1 -36 3 -38 5 -2 2 -15
0 -28 -5 -14 -6 -26 -6 -29 1 -4 5 -13 6 -21 1 -7 -4 -40 -5 -72 -2 -31 3 -73
3 -92 0 -19 -3 -46 -3 -59 0 -36 8 -124 -3 -129 -17 -2 -9 9 -13 37 -13 48 0
119 -31 157 -68 56 -56 54 -15 54 -1017 0 -892 -1 -928 -19 -968 -21 -44 -60
-86 -101 -107 -29 -16 -217 -23 -225 -9 -4 5 -14 9 -24 9 -23 0 -98 64 -116
100 -17 32 -31 93 -40 165 -3 28 -7 61 -10 75 -2 14 -6 50 -9 80 -4 30 -8 64
-10 75 -2 11 -7 46 -11 79 -3 32 -8 68 -10 80 -2 11 -6 44 -10 71 -3 28 -7 64
-10 80 -8 53 -23 162 -30 220 -6 54 -16 129 -20 155 -3 14 -7 48 -11 75 -3 28
-7 61 -9 75 -2 14 -7 52 -11 85 -3 33 -8 62 -9 65 -2 3 -6 37 -10 75 -4 39 -9
79 -11 90 -2 11 -7 45 -10 75 -3 30 -8 58 -10 61 -2 4 -6 32 -9 63 -2 30 -7
67 -9 83 -3 15 -8 53 -11 83 -23 198 -31 231 -50 224 -14 -6 -165 -257 -165
-275 0 -5 -4 -9 -10 -9 -5 0 -10 -4 -10 -10 0 -5 -18 -39 -40 -75 -22 -36 -40
-70 -40 -75 0 -6 -4 -10 -10 -10 -5 0 -10 -4 -10 -9 0 -5 -21 -45 -46 -88 -26
-43 -55 -91 -64 -108 -10 -16 -48 -82 -85 -145 -37 -63 -73 -124 -79 -135 -57
-104 -401 -685 -405 -685 -3 0 -22 28 -42 63 -20 34 -66 112 -104 172 -37 61
-76 124 -86 141 -9 18 -40 69 -68 114 -28 45 -51 84 -51 86 0 3 -5 10 -10 17
-10 11 -294 477 -540 885 -50 83 -93 152 -93 152 -1 0 -8 -4 -16 -9z"/>
</g>
</svg>
