<?xml version="1.0" encoding="iso-8859-1"?>
<!-- Generator: Adobe Illustrator 19.0.0, SVG Export Plug-In . SVG Version: 6.00 Build 0)  -->
<svg version="1.1" id="Layer_1" xmlns="http://www.w3.org/2000/svg" xmlns:xlink="http://www.w3.org/1999/xlink" x="0px" y="0px"
	 viewBox="0 0 512 512" style="enable-background:new 0 0 512 512;" xml:space="preserve">
<path style="fill:#FCD577;" d="M472.717,476.644V35.356c-19.526,0-35.356-15.829-35.356-35.356H74.639
	c0,19.526-15.829,35.356-35.356,35.356v441.289c19.526,0,35.356,15.829,35.356,35.356H437.36
	C437.361,492.474,453.19,476.644,472.717,476.644z"/>
<rect x="98.205" y="58.928" style="fill:#99B6C6;" width="315.577" height="394.144"/>
<rect x="98.205" y="58.928" style="fill:#7BD4EF;" width="315.577" height="131.317"/>
<g>
	<path style="fill:#7190A5;" d="M231.966,164.38c0,23.148,15.721,18.485,31.249,24.038l8.074,85.071
		c0,0-89.586,15.826-96.412,32.112l4.311-40.418c14.783-23.389,20.564-77.822,22.715-108.95l1.37,0.108
		C203.153,158.011,231.966,162.661,231.966,164.38z"/>
	<path style="fill:#7190A5;" d="M351.364,282.352c0,0-11.313,23.332-27.454,30.459c0,0-24.029-13.221-24.041-13.221
		c-36.417-24.915-37.856-132.807-37.856-132.807c0-27.487-2.96-25.84-22.863-25.84c-18.665,0-34.025-9.698-35.876,15.397
		l-1.37-0.108c0.949-13.737,1.19-22.932,1.19-22.932c0-27.487,23.184-49.758,51.789-49.758s51.801,22.271,51.801,49.758
		C306.683,133.3,309.335,249.878,351.364,282.352z"/>
</g>
<path style="fill:#6C8793;" d="M195.966,395.826c24.602,11.37,52.089,25.468,62.75,36.128c-21.982,5.673-43.268,12.776-56.2,21.117
	h-34.506c-17.535-9.699-32.174-23.545-40.011-43.232c-31.249-78.519,46.477-138.613,46.477-138.613
	c0.017-0.017,0.034-0.034,0.05-0.05c3.412-3.431,8.37-4.82,12.983-3.357l0.32,0.101c-2.272,5.384-0.481,11.358,8.281,17.728
	c20.228,14.711,49.445,18.088,70.658,18.281c-28.076,21.405-54.722,53.339-69.865,89.888L195.966,395.826z"/>
<path style="fill:#577484;" d="M258.716,431.955c-10.661-10.661-38.148-24.759-62.75-36.128l0.937-2.007
	c15.144-36.549,41.789-68.483,69.865-89.888c0.012,0,0.012,0,0.012,0c11.009-8.401,22.247-15.168,33.088-19.951
	c0.012,0,0.012,0,0.012,0c16.141-7.127,31.429-9.867,43.869-7.031c9.759,2.211,17.752,7.872,23.028,17.511
	c28.04,51.284,9.615,158.612,9.615,158.612H202.516C215.449,444.731,236.734,437.628,258.716,431.955z"/>
<path style="fill:#F7DEB0;" d="M230.088,209.595c-15.528-5.553-26.994-25.023-26.994-48.171c0-1.719,0.06-3.413,0.18-5.084
	c1.851-25.095,17.211-44.674,35.876-44.674c19.903,0,36.056,22.271,36.056,49.758c0,0-11.754,97.641,24.663,122.555
	c-10.841,4.783-22.078,11.55-33.088,19.951c0,0,0,0-0.012,0c-21.213-0.192-50.431-3.57-70.658-18.281
	c-8.762-6.37-10.552-12.343-8.281-17.728c6.827-16.285,50.743-27.15,50.743-27.15L230.088,209.595z"/>
<path style="fill:#E5CA9E;" d="M230.088,209.595c0,0,16.301,3.46,24.714-4.953c0,0-6.412,16.635-21.535,16.635"/>
<g>
	<polyline style="fill:#EAC36E;" points="437.361,0 413.79,58.926 472.717,35.356 	"/>
	<polyline style="fill:#EAC36E;" points="437.361,512 413.79,453.074 472.717,476.644 	"/>
	<polyline style="fill:#EAC36E;" points="74.639,512 98.21,453.074 39.283,476.644 	"/>
	<polyline style="fill:#EAC36E;" points="39.283,35.356 98.21,58.926 74.639,0 	"/>
	<path style="fill:#EAC36E;" d="M422.804,462.088H89.196V49.912h333.609v412.177H422.804z M107.224,444.06h297.553V67.94H107.224
		V444.06z"/>
</g>
<g>
	<path style="fill:#486572;" d="M204.137,345.81c-10.554,12.282-19.924,25.801-27.541,40.501l7.773,3.221
		C189.117,374.416,195.858,359.726,204.137,345.81z"/>
	<path style="fill:#486572;" d="M344.649,409.214l-5.918,1.08c-8.847,1.615-17.562,3.392-26.255,5.292l-1.141-3.207l-0.951-2.668
		c-0.305-0.892-0.56-1.794-0.842-2.693l-1.665-5.408l-1.418-5.467c-1.787-7.316-3.153-14.76-3.765-22.295
		c-0.566-7.524-0.505-15.151,0.665-22.675c1.149-7.518,3.285-14.963,6.761-21.898c-4.342,6.425-7.514,13.688-9.696,21.256
		c-2.207,7.574-3.309,15.472-3.738,23.395c-0.385,7.932,0.025,15.891,0.9,23.796l0.743,5.924l1.001,5.876
		c0.174,0.98,0.322,1.967,0.518,2.941l0.626,2.911l0.601,2.786c-10.829,2.513-21.611,5.226-32.312,8.234
		c-2.096,0.59-4.186,1.204-6.275,1.817l0.07-0.069c-1.863-1.523-3.703-3.153-5.607-4.39c-0.947-0.653-1.883-1.339-2.835-1.957
		l-2.871-1.782c-3.828-2.358-7.715-4.461-11.623-6.49c-7.822-4.031-15.754-7.666-23.736-11.145
		c-15.967-6.937-32.15-13.193-48.427-19.146c15.567,7.61,30.992,15.505,46.017,23.988c7.503,4.246,14.919,8.633,22.056,13.308
		c3.558,2.345,7.066,4.75,10.367,7.294l2.466,1.911c0.802,0.648,1.543,1.329,2.317,1.988c0.031,0.025,0.059,0.052,0.09,0.078
		c-5.42,1.743-10.807,3.585-16.141,5.58c-5.594,2.109-11.133,4.369-16.544,6.905c-5.402,2.542-10.687,5.382-15.567,8.789
		c5.149-2.983,10.603-5.344,16.151-7.405c5.554-2.054,11.205-3.821,16.896-5.435c6.298-1.768,12.651-3.326,19.033-4.756
		c0.103,0.103,0.204,0.209,0.309,0.311l0.486-0.486c4.902-1.089,9.821-2.114,14.753-3.064c11.622-2.232,23.309-4.132,35.025-5.794
		c11.698-1.65,23.503-3.114,35.161-4.241l5.985-0.578L344.649,409.214z"/>
</g>
<g>
</g>
<g>
</g>
<g>
</g>
<g>
</g>
<g>
</g>
<g>
</g>
<g>
</g>
<g>
</g>
<g>
</g>
<g>
</g>
<g>
</g>
<g>
</g>
<g>
</g>
<g>
</g>
<g>
</g>
</svg>
