<?xml version="1.0" standalone="no"?>
<!DOCTYPE svg PUBLIC "-//W3C//DTD SVG 20010904//EN"
 "http://www.w3.org/TR/2001/REC-SVG-20010904/DTD/svg10.dtd">
<svg version="1.0" xmlns="http://www.w3.org/2000/svg"
 width="761.000000pt" height="761.000000pt" viewBox="0 0 761.000000 761.000000"
 preserveAspectRatio="xMidYMid meet">
<metadata>
Created by potrace 1.14, written by Peter Selinger 2001-2017
</metadata>
<g transform="translate(0.000000,761.000000) scale(0.100000,-0.100000)"
fill="#000000" stroke="none">
<path d="M1614 4252 c-30 -4 -39 -16 -129 -172 -107 -186 -272 -465 -307 -522
l-29 -46 -417 -1 c-229 0 -446 0 -482 -1 l-65 0 1 -53 c1 -28 2 -61 3 -72 1
-20 8 -20 1004 -19 1139 1 1056 -6 1122 84 19 26 35 50 35 53 0 3 23 44 51 90
27 47 51 98 53 113 3 31 -12 74 -26 74 -4 0 -8 5 -8 10 0 6 8 10 19 10 22 0
56 17 94 46 38 31 168 251 175 296 6 45 -16 84 -56 99 -24 10 -978 20 -1038
11z m695 -161 c14 -22 4 -50 -45 -126 -51 -80 -48 -79 -215 -82 -82 -2 -149 0
-149 3 0 3 23 44 50 91 28 47 50 87 50 91 0 3 7 13 15 22 12 13 37 16 150 15
103 0 138 -4 144 -14z m-223 -364 c26 -25 -61 -188 -110 -207 -28 -10 -296
-12 -296 -1 0 6 47 85 115 197 12 19 22 20 149 19 75 -1 139 -4 142 -8z"/>
<path d="M3081 4244 c-79 -11 -134 -38 -178 -85 -12 -13 -57 -85 -101 -159
-43 -74 -125 -214 -182 -310 -117 -198 -132 -231 -118 -270 19 -55 19 -55 557
-54 273 0 513 3 533 7 59 12 117 77 212 236 47 79 86 145 86 147 0 2 25 44 55
94 30 50 55 95 55 100 0 4 3 10 8 12 14 6 94 153 99 184 7 41 -35 91 -84 100
-62 12 -858 10 -942 -2z m466 -161 c14 -18 6 -44 -41 -122 -19 -31 -55 -92
-81 -136 -124 -210 -170 -283 -187 -294 -25 -16 -116 -23 -153 -13 -19 5 -31
16 -33 29 -2 11 28 71 69 139 39 65 77 128 83 139 63 113 145 240 164 252 49
33 155 37 179 6z"/>
<path d="M4487 4254 c-1 -1 -20 -4 -42 -7 -87 -10 -111 -30 -179 -146 -22 -39
-65 -112 -95 -161 -29 -50 -55 -108 -58 -130 -5 -33 -2 -40 23 -56 25 -17 53
-19 311 -19 156 0 284 -2 286 -5 1 -3 -20 -45 -47 -93 -56 -99 -87 -124 -154
-122 -49 1 -65 17 -51 52 5 14 9 25 9 26 0 2 -117 2 -260 2 l-260 0 -35 -57
c-56 -89 -56 -135 -2 -160 45 -20 999 -19 1065 2 59 18 92 56 188 213 95 156
114 206 90 242 -30 45 -44 47 -332 47 -151 0 -274 3 -274 6 1 4 12 25 25 47
14 22 28 47 32 55 34 76 93 122 142 113 38 -7 52 -23 49 -57 l-3 -31 265 0
c146 0 263 3 260 6 -3 4 2 15 11 25 30 34 59 103 59 138 0 70 10 68 -536 70
-267 0 -486 0 -487 0z"/>
<path d="M5749 4252 c-8 -1 -30 -31 -50 -65 -20 -34 -98 -168 -174 -297 -163
-277 -305 -521 -305 -523 0 -6 1210 0 1216 5 13 13 82 133 79 136 -2 2 -157 4
-344 4 -188 0 -341 3 -341 6 0 4 9 18 20 32 11 14 20 28 20 32 0 4 20 40 44
80 l45 73 338 -1 c186 0 343 2 350 4 12 4 83 122 83 139 0 4 -153 8 -340 7
-187 -1 -340 0 -340 2 0 1 28 51 63 111 l63 108 655 0 654 0 1 73 c1 67 0 72
-20 73 -65 2 -1705 4 -1717 1z"/>
<path d="M7393 4070 c-25 -10 -43 -39 -43 -70 0 -29 44 -70 75 -70 30 0 85 49
81 71 -14 67 -55 92 -113 69z m77 -25 c36 -32 20 -79 -33 -98 -42 -15 -88 44
-66 84 10 20 44 38 66 35 7 -1 21 -10 33 -21z"/>
<path d="M7399 4043 c0 -5 -2 -17 -3 -29 -1 -11 1 -29 5 -40 7 -17 8 -17 8 4
1 12 5 22 10 22 5 0 16 -10 24 -22 l16 -23 -6 24 c-4 14 -1 26 7 31 11 7 11
11 1 24 -14 16 -60 22 -62 9z m51 -17 c0 -9 -9 -14 -20 -13 -11 1 -20 7 -20
14 0 7 9 13 20 13 11 0 20 -6 20 -14z"/>
</g>
</svg>
